<?xml version="1.0" encoding="utf-8" standalone="no"?>
<!DOCTYPE svg PUBLIC "-//W3C//DTD SVG 1.1//EN"
  "http://www.w3.org/Graphics/SVG/1.1/DTD/svg11.dtd">
<!-- Created with matplotlib (https://matplotlib.org/) -->
<svg height="421.681875pt" version="1.1" viewBox="0 0 668.115938 421.681875" width="668.115938pt" xmlns="http://www.w3.org/2000/svg" xmlns:xlink="http://www.w3.org/1999/xlink">
 <metadata>
  <rdf:RDF xmlns:cc="http://creativecommons.org/ns#" xmlns:dc="http://purl.org/dc/elements/1.1/" xmlns:rdf="http://www.w3.org/1999/02/22-rdf-syntax-ns#">
   <cc:Work>
    <dc:type rdf:resource="http://purl.org/dc/dcmitype/StillImage"/>
    <dc:date>2021-04-05T14:28:40.784377</dc:date>
    <dc:format>image/svg+xml</dc:format>
    <dc:creator>
     <cc:Agent>
      <dc:title>Matplotlib v3.3.4, https://matplotlib.org/</dc:title>
     </cc:Agent>
    </dc:creator>
   </cc:Work>
  </rdf:RDF>
 </metadata>
 <defs>
  <style type="text/css">*{stroke-linecap:butt;stroke-linejoin:round;}</style>
 </defs>
 <g id="figure_1">
  <g id="patch_1">
   <path d="M 0 421.681875 
L 668.115938 421.681875 
L 668.115938 0 
L 0 0 
z
" style="fill:#ffffff;"/>
  </g>
  <g id="axes_1">
   <g id="patch_2">
    <path d="M 56.805938 299.518125 
L 614.805938 299.518125 
L 614.805938 22.318125 
L 56.805938 22.318125 
z
" style="fill:#ffffff;"/>
   </g>
   <g id="matplotlib.axis_1">
    <g id="xtick_1">
     <g id="line2d_1">
      <path clip-path="url(#p19914e63d1)" d="M 90.351392 299.518125 
L 90.351392 22.318125 
" style="fill:none;stroke:#c0c0c0;stroke-linecap:round;stroke-width:0.5;"/>
     </g>
     <g id="text_1">
      <!-- 1 -->
      <g style="fill:#262626;" transform="translate(86.852017 317.376406)scale(0.11 -0.11)">
       <defs>
        <path d="M 12.40625 8.296875 
L 28.515625 8.296875 
L 28.515625 63.921875 
L 10.984375 60.40625 
L 10.984375 69.390625 
L 28.421875 72.90625 
L 38.28125 72.90625 
L 38.28125 8.296875 
L 54.390625 8.296875 
L 54.390625 0 
L 12.40625 0 
z
" id="DejaVuSans-49"/>
       </defs>
       <use xlink:href="#DejaVuSans-49"/>
      </g>
     </g>
    </g>
    <g id="xtick_2">
     <g id="line2d_2">
      <path clip-path="url(#p19914e63d1)" d="M 123.078665 299.518125 
L 123.078665 22.318125 
" style="fill:none;stroke:#c0c0c0;stroke-linecap:round;stroke-width:0.5;"/>
     </g>
     <g id="text_2">
      <!-- 2 -->
      <g style="fill:#262626;" transform="translate(119.57929 317.376406)scale(0.11 -0.11)">
       <defs>
        <path d="M 19.1875 8.296875 
L 53.609375 8.296875 
L 53.609375 0 
L 7.328125 0 
L 7.328125 8.296875 
Q 12.9375 14.109375 22.625 23.890625 
Q 32.328125 33.6875 34.8125 36.53125 
Q 39.546875 41.84375 41.421875 45.53125 
Q 43.3125 49.21875 43.3125 52.78125 
Q 43.3125 58.59375 39.234375 62.25 
Q 35.15625 65.921875 28.609375 65.921875 
Q 23.96875 65.921875 18.8125 64.3125 
Q 13.671875 62.703125 7.8125 59.421875 
L 7.8125 69.390625 
Q 13.765625 71.78125 18.9375 73 
Q 24.125 74.21875 28.421875 74.21875 
Q 39.75 74.21875 46.484375 68.546875 
Q 53.21875 62.890625 53.21875 53.421875 
Q 53.21875 48.921875 51.53125 44.890625 
Q 49.859375 40.875 45.40625 35.40625 
Q 44.1875 33.984375 37.640625 27.21875 
Q 31.109375 20.453125 19.1875 8.296875 
z
" id="DejaVuSans-50"/>
       </defs>
       <use xlink:href="#DejaVuSans-50"/>
      </g>
     </g>
    </g>
    <g id="xtick_3">
     <g id="line2d_3">
      <path clip-path="url(#p19914e63d1)" d="M 155.805938 299.518125 
L 155.805938 22.318125 
" style="fill:none;stroke:#c0c0c0;stroke-linecap:round;stroke-width:0.5;"/>
     </g>
     <g id="text_3">
      <!-- 3 -->
      <g style="fill:#262626;" transform="translate(152.306563 317.376406)scale(0.11 -0.11)">
       <defs>
        <path d="M 40.578125 39.3125 
Q 47.65625 37.796875 51.625 33 
Q 55.609375 28.21875 55.609375 21.1875 
Q 55.609375 10.40625 48.1875 4.484375 
Q 40.765625 -1.421875 27.09375 -1.421875 
Q 22.515625 -1.421875 17.65625 -0.515625 
Q 12.796875 0.390625 7.625 2.203125 
L 7.625 11.71875 
Q 11.71875 9.328125 16.59375 8.109375 
Q 21.484375 6.890625 26.8125 6.890625 
Q 36.078125 6.890625 40.9375 10.546875 
Q 45.796875 14.203125 45.796875 21.1875 
Q 45.796875 27.640625 41.28125 31.265625 
Q 36.765625 34.90625 28.71875 34.90625 
L 20.21875 34.90625 
L 20.21875 43.015625 
L 29.109375 43.015625 
Q 36.375 43.015625 40.234375 45.921875 
Q 44.09375 48.828125 44.09375 54.296875 
Q 44.09375 59.90625 40.109375 62.90625 
Q 36.140625 65.921875 28.71875 65.921875 
Q 24.65625 65.921875 20.015625 65.03125 
Q 15.375 64.15625 9.8125 62.3125 
L 9.8125 71.09375 
Q 15.4375 72.65625 20.34375 73.4375 
Q 25.25 74.21875 29.59375 74.21875 
Q 40.828125 74.21875 47.359375 69.109375 
Q 53.90625 64.015625 53.90625 55.328125 
Q 53.90625 49.265625 50.4375 45.09375 
Q 46.96875 40.921875 40.578125 39.3125 
z
" id="DejaVuSans-51"/>
       </defs>
       <use xlink:href="#DejaVuSans-51"/>
      </g>
     </g>
    </g>
    <g id="xtick_4">
     <g id="line2d_4">
      <path clip-path="url(#p19914e63d1)" d="M 188.53321 299.518125 
L 188.53321 22.318125 
" style="fill:none;stroke:#c0c0c0;stroke-linecap:round;stroke-width:0.5;"/>
     </g>
     <g id="text_4">
      <!-- 4 -->
      <g style="fill:#262626;" transform="translate(185.033835 317.376406)scale(0.11 -0.11)">
       <defs>
        <path d="M 37.796875 64.3125 
L 12.890625 25.390625 
L 37.796875 25.390625 
z
M 35.203125 72.90625 
L 47.609375 72.90625 
L 47.609375 25.390625 
L 58.015625 25.390625 
L 58.015625 17.1875 
L 47.609375 17.1875 
L 47.609375 0 
L 37.796875 0 
L 37.796875 17.1875 
L 4.890625 17.1875 
L 4.890625 26.703125 
z
" id="DejaVuSans-52"/>
       </defs>
       <use xlink:href="#DejaVuSans-52"/>
      </g>
     </g>
    </g>
    <g id="xtick_5">
     <g id="line2d_5">
      <path clip-path="url(#p19914e63d1)" d="M 221.260483 299.518125 
L 221.260483 22.318125 
" style="fill:none;stroke:#c0c0c0;stroke-linecap:round;stroke-width:0.5;"/>
     </g>
     <g id="text_5">
      <!-- 5 -->
      <g style="fill:#262626;" transform="translate(217.761108 317.376406)scale(0.11 -0.11)">
       <defs>
        <path d="M 10.796875 72.90625 
L 49.515625 72.90625 
L 49.515625 64.59375 
L 19.828125 64.59375 
L 19.828125 46.734375 
Q 21.96875 47.46875 24.109375 47.828125 
Q 26.265625 48.1875 28.421875 48.1875 
Q 40.625 48.1875 47.75 41.5 
Q 54.890625 34.8125 54.890625 23.390625 
Q 54.890625 11.625 47.5625 5.09375 
Q 40.234375 -1.421875 26.90625 -1.421875 
Q 22.3125 -1.421875 17.546875 -0.640625 
Q 12.796875 0.140625 7.71875 1.703125 
L 7.71875 11.625 
Q 12.109375 9.234375 16.796875 8.0625 
Q 21.484375 6.890625 26.703125 6.890625 
Q 35.15625 6.890625 40.078125 11.328125 
Q 45.015625 15.765625 45.015625 23.390625 
Q 45.015625 31 40.078125 35.4375 
Q 35.15625 39.890625 26.703125 39.890625 
Q 22.75 39.890625 18.8125 39.015625 
Q 14.890625 38.140625 10.796875 36.28125 
z
" id="DejaVuSans-53"/>
       </defs>
       <use xlink:href="#DejaVuSans-53"/>
      </g>
     </g>
    </g>
    <g id="xtick_6">
     <g id="line2d_6">
      <path clip-path="url(#p19914e63d1)" d="M 253.987756 299.518125 
L 253.987756 22.318125 
" style="fill:none;stroke:#c0c0c0;stroke-linecap:round;stroke-width:0.5;"/>
     </g>
     <g id="text_6">
      <!-- 6 -->
      <g style="fill:#262626;" transform="translate(250.488381 317.376406)scale(0.11 -0.11)">
       <defs>
        <path d="M 33.015625 40.375 
Q 26.375 40.375 22.484375 35.828125 
Q 18.609375 31.296875 18.609375 23.390625 
Q 18.609375 15.53125 22.484375 10.953125 
Q 26.375 6.390625 33.015625 6.390625 
Q 39.65625 6.390625 43.53125 10.953125 
Q 47.40625 15.53125 47.40625 23.390625 
Q 47.40625 31.296875 43.53125 35.828125 
Q 39.65625 40.375 33.015625 40.375 
z
M 52.59375 71.296875 
L 52.59375 62.3125 
Q 48.875 64.0625 45.09375 64.984375 
Q 41.3125 65.921875 37.59375 65.921875 
Q 27.828125 65.921875 22.671875 59.328125 
Q 17.53125 52.734375 16.796875 39.40625 
Q 19.671875 43.65625 24.015625 45.921875 
Q 28.375 48.1875 33.59375 48.1875 
Q 44.578125 48.1875 50.953125 41.515625 
Q 57.328125 34.859375 57.328125 23.390625 
Q 57.328125 12.15625 50.6875 5.359375 
Q 44.046875 -1.421875 33.015625 -1.421875 
Q 20.359375 -1.421875 13.671875 8.265625 
Q 6.984375 17.96875 6.984375 36.375 
Q 6.984375 53.65625 15.1875 63.9375 
Q 23.390625 74.21875 37.203125 74.21875 
Q 40.921875 74.21875 44.703125 73.484375 
Q 48.484375 72.75 52.59375 71.296875 
z
" id="DejaVuSans-54"/>
       </defs>
       <use xlink:href="#DejaVuSans-54"/>
      </g>
     </g>
    </g>
    <g id="xtick_7">
     <g id="line2d_7">
      <path clip-path="url(#p19914e63d1)" d="M 286.715028 299.518125 
L 286.715028 22.318125 
" style="fill:none;stroke:#c0c0c0;stroke-linecap:round;stroke-width:0.5;"/>
     </g>
     <g id="text_7">
      <!-- 7 -->
      <g style="fill:#262626;" transform="translate(283.215653 317.376406)scale(0.11 -0.11)">
       <defs>
        <path d="M 8.203125 72.90625 
L 55.078125 72.90625 
L 55.078125 68.703125 
L 28.609375 0 
L 18.3125 0 
L 43.21875 64.59375 
L 8.203125 64.59375 
z
" id="DejaVuSans-55"/>
       </defs>
       <use xlink:href="#DejaVuSans-55"/>
      </g>
     </g>
    </g>
    <g id="xtick_8">
     <g id="line2d_8">
      <path clip-path="url(#p19914e63d1)" d="M 319.442301 299.518125 
L 319.442301 22.318125 
" style="fill:none;stroke:#c0c0c0;stroke-linecap:round;stroke-width:0.5;"/>
     </g>
     <g id="text_8">
      <!-- 8 -->
      <g style="fill:#262626;" transform="translate(315.942926 317.376406)scale(0.11 -0.11)">
       <defs>
        <path d="M 31.78125 34.625 
Q 24.75 34.625 20.71875 30.859375 
Q 16.703125 27.09375 16.703125 20.515625 
Q 16.703125 13.921875 20.71875 10.15625 
Q 24.75 6.390625 31.78125 6.390625 
Q 38.8125 6.390625 42.859375 10.171875 
Q 46.921875 13.96875 46.921875 20.515625 
Q 46.921875 27.09375 42.890625 30.859375 
Q 38.875 34.625 31.78125 34.625 
z
M 21.921875 38.8125 
Q 15.578125 40.375 12.03125 44.71875 
Q 8.5 49.078125 8.5 55.328125 
Q 8.5 64.0625 14.71875 69.140625 
Q 20.953125 74.21875 31.78125 74.21875 
Q 42.671875 74.21875 48.875 69.140625 
Q 55.078125 64.0625 55.078125 55.328125 
Q 55.078125 49.078125 51.53125 44.71875 
Q 48 40.375 41.703125 38.8125 
Q 48.828125 37.15625 52.796875 32.3125 
Q 56.78125 27.484375 56.78125 20.515625 
Q 56.78125 9.90625 50.3125 4.234375 
Q 43.84375 -1.421875 31.78125 -1.421875 
Q 19.734375 -1.421875 13.25 4.234375 
Q 6.78125 9.90625 6.78125 20.515625 
Q 6.78125 27.484375 10.78125 32.3125 
Q 14.796875 37.15625 21.921875 38.8125 
z
M 18.3125 54.390625 
Q 18.3125 48.734375 21.84375 45.5625 
Q 25.390625 42.390625 31.78125 42.390625 
Q 38.140625 42.390625 41.71875 45.5625 
Q 45.3125 48.734375 45.3125 54.390625 
Q 45.3125 60.0625 41.71875 63.234375 
Q 38.140625 66.40625 31.78125 66.40625 
Q 25.390625 66.40625 21.84375 63.234375 
Q 18.3125 60.0625 18.3125 54.390625 
z
" id="DejaVuSans-56"/>
       </defs>
       <use xlink:href="#DejaVuSans-56"/>
      </g>
     </g>
    </g>
    <g id="xtick_9">
     <g id="line2d_9">
      <path clip-path="url(#p19914e63d1)" d="M 352.169574 299.518125 
L 352.169574 22.318125 
" style="fill:none;stroke:#c0c0c0;stroke-linecap:round;stroke-width:0.5;"/>
     </g>
     <g id="text_9">
      <!-- 9 -->
      <g style="fill:#262626;" transform="translate(348.670199 317.376406)scale(0.11 -0.11)">
       <defs>
        <path d="M 10.984375 1.515625 
L 10.984375 10.5 
Q 14.703125 8.734375 18.5 7.8125 
Q 22.3125 6.890625 25.984375 6.890625 
Q 35.75 6.890625 40.890625 13.453125 
Q 46.046875 20.015625 46.78125 33.40625 
Q 43.953125 29.203125 39.59375 26.953125 
Q 35.25 24.703125 29.984375 24.703125 
Q 19.046875 24.703125 12.671875 31.3125 
Q 6.296875 37.9375 6.296875 49.421875 
Q 6.296875 60.640625 12.9375 67.421875 
Q 19.578125 74.21875 30.609375 74.21875 
Q 43.265625 74.21875 49.921875 64.515625 
Q 56.59375 54.828125 56.59375 36.375 
Q 56.59375 19.140625 48.40625 8.859375 
Q 40.234375 -1.421875 26.421875 -1.421875 
Q 22.703125 -1.421875 18.890625 -0.6875 
Q 15.09375 0.046875 10.984375 1.515625 
z
M 30.609375 32.421875 
Q 37.25 32.421875 41.125 36.953125 
Q 45.015625 41.5 45.015625 49.421875 
Q 45.015625 57.28125 41.125 61.84375 
Q 37.25 66.40625 30.609375 66.40625 
Q 23.96875 66.40625 20.09375 61.84375 
Q 16.21875 57.28125 16.21875 49.421875 
Q 16.21875 41.5 20.09375 36.953125 
Q 23.96875 32.421875 30.609375 32.421875 
z
" id="DejaVuSans-57"/>
       </defs>
       <use xlink:href="#DejaVuSans-57"/>
      </g>
     </g>
    </g>
    <g id="xtick_10">
     <g id="line2d_10">
      <path clip-path="url(#p19914e63d1)" d="M 384.896847 299.518125 
L 384.896847 22.318125 
" style="fill:none;stroke:#c0c0c0;stroke-linecap:round;stroke-width:0.5;"/>
     </g>
     <g id="text_10">
      <!-- 10 -->
      <g style="fill:#262626;" transform="translate(377.898097 317.376406)scale(0.11 -0.11)">
       <defs>
        <path d="M 31.78125 66.40625 
Q 24.171875 66.40625 20.328125 58.90625 
Q 16.5 51.421875 16.5 36.375 
Q 16.5 21.390625 20.328125 13.890625 
Q 24.171875 6.390625 31.78125 6.390625 
Q 39.453125 6.390625 43.28125 13.890625 
Q 47.125 21.390625 47.125 36.375 
Q 47.125 51.421875 43.28125 58.90625 
Q 39.453125 66.40625 31.78125 66.40625 
z
M 31.78125 74.21875 
Q 44.046875 74.21875 50.515625 64.515625 
Q 56.984375 54.828125 56.984375 36.375 
Q 56.984375 17.96875 50.515625 8.265625 
Q 44.046875 -1.421875 31.78125 -1.421875 
Q 19.53125 -1.421875 13.0625 8.265625 
Q 6.59375 17.96875 6.59375 36.375 
Q 6.59375 54.828125 13.0625 64.515625 
Q 19.53125 74.21875 31.78125 74.21875 
z
" id="DejaVuSans-48"/>
       </defs>
       <use xlink:href="#DejaVuSans-49"/>
       <use x="63.623047" xlink:href="#DejaVuSans-48"/>
      </g>
     </g>
    </g>
    <g id="xtick_11">
     <g id="line2d_11">
      <path clip-path="url(#p19914e63d1)" d="M 417.624119 299.518125 
L 417.624119 22.318125 
" style="fill:none;stroke:#c0c0c0;stroke-linecap:round;stroke-width:0.5;"/>
     </g>
     <g id="text_11">
      <!-- 11 -->
      <g style="fill:#262626;" transform="translate(410.625369 317.376406)scale(0.11 -0.11)">
       <use xlink:href="#DejaVuSans-49"/>
       <use x="63.623047" xlink:href="#DejaVuSans-49"/>
      </g>
     </g>
    </g>
    <g id="xtick_12">
     <g id="line2d_12">
      <path clip-path="url(#p19914e63d1)" d="M 450.351392 299.518125 
L 450.351392 22.318125 
" style="fill:none;stroke:#c0c0c0;stroke-linecap:round;stroke-width:0.5;"/>
     </g>
     <g id="text_12">
      <!-- 12 -->
      <g style="fill:#262626;" transform="translate(443.352642 317.376406)scale(0.11 -0.11)">
       <use xlink:href="#DejaVuSans-49"/>
       <use x="63.623047" xlink:href="#DejaVuSans-50"/>
      </g>
     </g>
    </g>
    <g id="xtick_13">
     <g id="line2d_13">
      <path clip-path="url(#p19914e63d1)" d="M 483.078665 299.518125 
L 483.078665 22.318125 
" style="fill:none;stroke:#c0c0c0;stroke-linecap:round;stroke-width:0.5;"/>
     </g>
     <g id="text_13">
      <!-- 13 -->
      <g style="fill:#262626;" transform="translate(476.079915 317.376406)scale(0.11 -0.11)">
       <use xlink:href="#DejaVuSans-49"/>
       <use x="63.623047" xlink:href="#DejaVuSans-51"/>
      </g>
     </g>
    </g>
    <g id="xtick_14">
     <g id="line2d_14">
      <path clip-path="url(#p19914e63d1)" d="M 515.805938 299.518125 
L 515.805938 22.318125 
" style="fill:none;stroke:#c0c0c0;stroke-linecap:round;stroke-width:0.5;"/>
     </g>
     <g id="text_14">
      <!-- 14 -->
      <g style="fill:#262626;" transform="translate(508.807188 317.376406)scale(0.11 -0.11)">
       <use xlink:href="#DejaVuSans-49"/>
       <use x="63.623047" xlink:href="#DejaVuSans-52"/>
      </g>
     </g>
    </g>
    <g id="xtick_15">
     <g id="line2d_15">
      <path clip-path="url(#p19914e63d1)" d="M 548.53321 299.518125 
L 548.53321 22.318125 
" style="fill:none;stroke:#c0c0c0;stroke-linecap:round;stroke-width:0.5;"/>
     </g>
     <g id="text_15">
      <!-- 15 -->
      <g style="fill:#262626;" transform="translate(541.53446 317.376406)scale(0.11 -0.11)">
       <use xlink:href="#DejaVuSans-49"/>
       <use x="63.623047" xlink:href="#DejaVuSans-53"/>
      </g>
     </g>
    </g>
    <g id="xtick_16">
     <g id="line2d_16">
      <path clip-path="url(#p19914e63d1)" d="M 581.260483 299.518125 
L 581.260483 22.318125 
" style="fill:none;stroke:#c0c0c0;stroke-linecap:round;stroke-width:0.5;"/>
     </g>
     <g id="text_16">
      <!-- 16 -->
      <g style="fill:#262626;" transform="translate(574.261733 317.376406)scale(0.11 -0.11)">
       <use xlink:href="#DejaVuSans-49"/>
       <use x="63.623047" xlink:href="#DejaVuSans-54"/>
      </g>
     </g>
    </g>
    <g id="text_17">
     <!-- Concurrent client requests -->
     <g style="fill:#262626;" transform="translate(256.277813 332.782188)scale(0.12 -0.12)">
      <defs>
       <path d="M 64.40625 67.28125 
L 64.40625 56.890625 
Q 59.421875 61.53125 53.78125 63.8125 
Q 48.140625 66.109375 41.796875 66.109375 
Q 29.296875 66.109375 22.65625 58.46875 
Q 16.015625 50.828125 16.015625 36.375 
Q 16.015625 21.96875 22.65625 14.328125 
Q 29.296875 6.6875 41.796875 6.6875 
Q 48.140625 6.6875 53.78125 8.984375 
Q 59.421875 11.28125 64.40625 15.921875 
L 64.40625 5.609375 
Q 59.234375 2.09375 53.4375 0.328125 
Q 47.65625 -1.421875 41.21875 -1.421875 
Q 24.65625 -1.421875 15.125 8.703125 
Q 5.609375 18.84375 5.609375 36.375 
Q 5.609375 53.953125 15.125 64.078125 
Q 24.65625 74.21875 41.21875 74.21875 
Q 47.75 74.21875 53.53125 72.484375 
Q 59.328125 70.75 64.40625 67.28125 
z
" id="DejaVuSans-67"/>
       <path d="M 30.609375 48.390625 
Q 23.390625 48.390625 19.1875 42.75 
Q 14.984375 37.109375 14.984375 27.296875 
Q 14.984375 17.484375 19.15625 11.84375 
Q 23.34375 6.203125 30.609375 6.203125 
Q 37.796875 6.203125 41.984375 11.859375 
Q 46.1875 17.53125 46.1875 27.296875 
Q 46.1875 37.015625 41.984375 42.703125 
Q 37.796875 48.390625 30.609375 48.390625 
z
M 30.609375 56 
Q 42.328125 56 49.015625 48.375 
Q 55.71875 40.765625 55.71875 27.296875 
Q 55.71875 13.875 49.015625 6.21875 
Q 42.328125 -1.421875 30.609375 -1.421875 
Q 18.84375 -1.421875 12.171875 6.21875 
Q 5.515625 13.875 5.515625 27.296875 
Q 5.515625 40.765625 12.171875 48.375 
Q 18.84375 56 30.609375 56 
z
" id="DejaVuSans-111"/>
       <path d="M 54.890625 33.015625 
L 54.890625 0 
L 45.90625 0 
L 45.90625 32.71875 
Q 45.90625 40.484375 42.875 44.328125 
Q 39.84375 48.1875 33.796875 48.1875 
Q 26.515625 48.1875 22.3125 43.546875 
Q 18.109375 38.921875 18.109375 30.90625 
L 18.109375 0 
L 9.078125 0 
L 9.078125 54.6875 
L 18.109375 54.6875 
L 18.109375 46.1875 
Q 21.34375 51.125 25.703125 53.5625 
Q 30.078125 56 35.796875 56 
Q 45.21875 56 50.046875 50.171875 
Q 54.890625 44.34375 54.890625 33.015625 
z
" id="DejaVuSans-110"/>
       <path d="M 48.78125 52.59375 
L 48.78125 44.1875 
Q 44.96875 46.296875 41.140625 47.34375 
Q 37.3125 48.390625 33.40625 48.390625 
Q 24.65625 48.390625 19.8125 42.84375 
Q 14.984375 37.3125 14.984375 27.296875 
Q 14.984375 17.28125 19.8125 11.734375 
Q 24.65625 6.203125 33.40625 6.203125 
Q 37.3125 6.203125 41.140625 7.25 
Q 44.96875 8.296875 48.78125 10.40625 
L 48.78125 2.09375 
Q 45.015625 0.34375 40.984375 -0.53125 
Q 36.96875 -1.421875 32.421875 -1.421875 
Q 20.0625 -1.421875 12.78125 6.34375 
Q 5.515625 14.109375 5.515625 27.296875 
Q 5.515625 40.671875 12.859375 48.328125 
Q 20.21875 56 33.015625 56 
Q 37.15625 56 41.109375 55.140625 
Q 45.0625 54.296875 48.78125 52.59375 
z
" id="DejaVuSans-99"/>
       <path d="M 8.5 21.578125 
L 8.5 54.6875 
L 17.484375 54.6875 
L 17.484375 21.921875 
Q 17.484375 14.15625 20.5 10.265625 
Q 23.53125 6.390625 29.59375 6.390625 
Q 36.859375 6.390625 41.078125 11.03125 
Q 45.3125 15.671875 45.3125 23.6875 
L 45.3125 54.6875 
L 54.296875 54.6875 
L 54.296875 0 
L 45.3125 0 
L 45.3125 8.40625 
Q 42.046875 3.421875 37.71875 1 
Q 33.40625 -1.421875 27.6875 -1.421875 
Q 18.265625 -1.421875 13.375 4.4375 
Q 8.5 10.296875 8.5 21.578125 
z
M 31.109375 56 
z
" id="DejaVuSans-117"/>
       <path d="M 41.109375 46.296875 
Q 39.59375 47.171875 37.8125 47.578125 
Q 36.03125 48 33.890625 48 
Q 26.265625 48 22.1875 43.046875 
Q 18.109375 38.09375 18.109375 28.8125 
L 18.109375 0 
L 9.078125 0 
L 9.078125 54.6875 
L 18.109375 54.6875 
L 18.109375 46.1875 
Q 20.953125 51.171875 25.484375 53.578125 
Q 30.03125 56 36.53125 56 
Q 37.453125 56 38.578125 55.875 
Q 39.703125 55.765625 41.0625 55.515625 
z
" id="DejaVuSans-114"/>
       <path d="M 56.203125 29.59375 
L 56.203125 25.203125 
L 14.890625 25.203125 
Q 15.484375 15.921875 20.484375 11.0625 
Q 25.484375 6.203125 34.421875 6.203125 
Q 39.59375 6.203125 44.453125 7.46875 
Q 49.3125 8.734375 54.109375 11.28125 
L 54.109375 2.78125 
Q 49.265625 0.734375 44.1875 -0.34375 
Q 39.109375 -1.421875 33.890625 -1.421875 
Q 20.796875 -1.421875 13.15625 6.1875 
Q 5.515625 13.8125 5.515625 26.8125 
Q 5.515625 40.234375 12.765625 48.109375 
Q 20.015625 56 32.328125 56 
Q 43.359375 56 49.78125 48.890625 
Q 56.203125 41.796875 56.203125 29.59375 
z
M 47.21875 32.234375 
Q 47.125 39.59375 43.09375 43.984375 
Q 39.0625 48.390625 32.421875 48.390625 
Q 24.90625 48.390625 20.390625 44.140625 
Q 15.875 39.890625 15.1875 32.171875 
z
" id="DejaVuSans-101"/>
       <path d="M 18.3125 70.21875 
L 18.3125 54.6875 
L 36.8125 54.6875 
L 36.8125 47.703125 
L 18.3125 47.703125 
L 18.3125 18.015625 
Q 18.3125 11.328125 20.140625 9.421875 
Q 21.96875 7.515625 27.59375 7.515625 
L 36.8125 7.515625 
L 36.8125 0 
L 27.59375 0 
Q 17.1875 0 13.234375 3.875 
Q 9.28125 7.765625 9.28125 18.015625 
L 9.28125 47.703125 
L 2.6875 47.703125 
L 2.6875 54.6875 
L 9.28125 54.6875 
L 9.28125 70.21875 
z
" id="DejaVuSans-116"/>
       <path id="DejaVuSans-32"/>
       <path d="M 9.421875 75.984375 
L 18.40625 75.984375 
L 18.40625 0 
L 9.421875 0 
z
" id="DejaVuSans-108"/>
       <path d="M 9.421875 54.6875 
L 18.40625 54.6875 
L 18.40625 0 
L 9.421875 0 
z
M 9.421875 75.984375 
L 18.40625 75.984375 
L 18.40625 64.59375 
L 9.421875 64.59375 
z
" id="DejaVuSans-105"/>
       <path d="M 14.796875 27.296875 
Q 14.796875 17.390625 18.875 11.75 
Q 22.953125 6.109375 30.078125 6.109375 
Q 37.203125 6.109375 41.296875 11.75 
Q 45.40625 17.390625 45.40625 27.296875 
Q 45.40625 37.203125 41.296875 42.84375 
Q 37.203125 48.484375 30.078125 48.484375 
Q 22.953125 48.484375 18.875 42.84375 
Q 14.796875 37.203125 14.796875 27.296875 
z
M 45.40625 8.203125 
Q 42.578125 3.328125 38.25 0.953125 
Q 33.9375 -1.421875 27.875 -1.421875 
Q 17.96875 -1.421875 11.734375 6.484375 
Q 5.515625 14.40625 5.515625 27.296875 
Q 5.515625 40.1875 11.734375 48.09375 
Q 17.96875 56 27.875 56 
Q 33.9375 56 38.25 53.625 
Q 42.578125 51.265625 45.40625 46.390625 
L 45.40625 54.6875 
L 54.390625 54.6875 
L 54.390625 -20.796875 
L 45.40625 -20.796875 
z
" id="DejaVuSans-113"/>
       <path d="M 44.28125 53.078125 
L 44.28125 44.578125 
Q 40.484375 46.53125 36.375 47.5 
Q 32.28125 48.484375 27.875 48.484375 
Q 21.1875 48.484375 17.84375 46.4375 
Q 14.5 44.390625 14.5 40.28125 
Q 14.5 37.15625 16.890625 35.375 
Q 19.28125 33.59375 26.515625 31.984375 
L 29.59375 31.296875 
Q 39.15625 29.25 43.1875 25.515625 
Q 47.21875 21.78125 47.21875 15.09375 
Q 47.21875 7.46875 41.1875 3.015625 
Q 35.15625 -1.421875 24.609375 -1.421875 
Q 20.21875 -1.421875 15.453125 -0.5625 
Q 10.6875 0.296875 5.421875 2 
L 5.421875 11.28125 
Q 10.40625 8.6875 15.234375 7.390625 
Q 20.0625 6.109375 24.8125 6.109375 
Q 31.15625 6.109375 34.5625 8.28125 
Q 37.984375 10.453125 37.984375 14.40625 
Q 37.984375 18.0625 35.515625 20.015625 
Q 33.0625 21.96875 24.703125 23.78125 
L 21.578125 24.515625 
Q 13.234375 26.265625 9.515625 29.90625 
Q 5.8125 33.546875 5.8125 39.890625 
Q 5.8125 47.609375 11.28125 51.796875 
Q 16.75 56 26.8125 56 
Q 31.78125 56 36.171875 55.265625 
Q 40.578125 54.546875 44.28125 53.078125 
z
" id="DejaVuSans-115"/>
      </defs>
      <use xlink:href="#DejaVuSans-67"/>
      <use x="69.824219" xlink:href="#DejaVuSans-111"/>
      <use x="131.005859" xlink:href="#DejaVuSans-110"/>
      <use x="194.384766" xlink:href="#DejaVuSans-99"/>
      <use x="249.365234" xlink:href="#DejaVuSans-117"/>
      <use x="312.744141" xlink:href="#DejaVuSans-114"/>
      <use x="352.107422" xlink:href="#DejaVuSans-114"/>
      <use x="390.970703" xlink:href="#DejaVuSans-101"/>
      <use x="452.494141" xlink:href="#DejaVuSans-110"/>
      <use x="515.873047" xlink:href="#DejaVuSans-116"/>
      <use x="555.082031" xlink:href="#DejaVuSans-32"/>
      <use x="586.869141" xlink:href="#DejaVuSans-99"/>
      <use x="641.849609" xlink:href="#DejaVuSans-108"/>
      <use x="669.632812" xlink:href="#DejaVuSans-105"/>
      <use x="697.416016" xlink:href="#DejaVuSans-101"/>
      <use x="758.939453" xlink:href="#DejaVuSans-110"/>
      <use x="822.318359" xlink:href="#DejaVuSans-116"/>
      <use x="861.527344" xlink:href="#DejaVuSans-32"/>
      <use x="893.314453" xlink:href="#DejaVuSans-114"/>
      <use x="932.177734" xlink:href="#DejaVuSans-101"/>
      <use x="993.701172" xlink:href="#DejaVuSans-113"/>
      <use x="1057.177734" xlink:href="#DejaVuSans-117"/>
      <use x="1120.556641" xlink:href="#DejaVuSans-101"/>
      <use x="1182.080078" xlink:href="#DejaVuSans-115"/>
      <use x="1234.179688" xlink:href="#DejaVuSans-116"/>
      <use x="1273.388672" xlink:href="#DejaVuSans-115"/>
     </g>
    </g>
   </g>
   <g id="matplotlib.axis_2">
    <g id="ytick_1">
     <g id="line2d_17">
      <path clip-path="url(#p19914e63d1)" d="M 56.805938 299.518125 
L 614.805938 299.518125 
" style="fill:none;stroke:#c0c0c0;stroke-linecap:round;stroke-width:0.5;"/>
     </g>
     <g id="line2d_18">
      <defs>
       <path d="M 0 0 
L -6 0 
" id="m887b759271" style="stroke:#262626;stroke-width:1.25;"/>
      </defs>
      <g>
       <use style="fill:#262626;stroke:#262626;stroke-width:1.25;" x="56.805938" xlink:href="#m887b759271" y="299.518125"/>
      </g>
     </g>
     <g id="text_18">
      <!-- 0.0 -->
      <g style="fill:#262626;" transform="translate(29.8125 303.697266)scale(0.11 -0.11)">
       <defs>
        <path d="M 10.6875 12.40625 
L 21 12.40625 
L 21 0 
L 10.6875 0 
z
" id="DejaVuSans-46"/>
       </defs>
       <use xlink:href="#DejaVuSans-48"/>
       <use x="63.623047" xlink:href="#DejaVuSans-46"/>
       <use x="95.410156" xlink:href="#DejaVuSans-48"/>
      </g>
     </g>
    </g>
    <g id="ytick_2">
     <g id="line2d_19">
      <path clip-path="url(#p19914e63d1)" d="M 56.805938 267.496389 
L 614.805938 267.496389 
" style="fill:none;stroke:#c0c0c0;stroke-linecap:round;stroke-width:0.5;"/>
     </g>
     <g id="line2d_20">
      <g>
       <use style="fill:#262626;stroke:#262626;stroke-width:1.25;" x="56.805938" xlink:href="#m887b759271" y="267.496389"/>
      </g>
     </g>
     <g id="text_19">
      <!-- 2.5 -->
      <g style="fill:#262626;" transform="translate(29.8125 271.67553)scale(0.11 -0.11)">
       <use xlink:href="#DejaVuSans-50"/>
       <use x="63.623047" xlink:href="#DejaVuSans-46"/>
       <use x="95.410156" xlink:href="#DejaVuSans-53"/>
      </g>
     </g>
    </g>
    <g id="ytick_3">
     <g id="line2d_21">
      <path clip-path="url(#p19914e63d1)" d="M 56.805938 235.474653 
L 614.805938 235.474653 
" style="fill:none;stroke:#c0c0c0;stroke-linecap:round;stroke-width:0.5;"/>
     </g>
     <g id="line2d_22">
      <g>
       <use style="fill:#262626;stroke:#262626;stroke-width:1.25;" x="56.805938" xlink:href="#m887b759271" y="235.474653"/>
      </g>
     </g>
     <g id="text_20">
      <!-- 5.0 -->
      <g style="fill:#262626;" transform="translate(29.8125 239.653794)scale(0.11 -0.11)">
       <use xlink:href="#DejaVuSans-53"/>
       <use x="63.623047" xlink:href="#DejaVuSans-46"/>
       <use x="95.410156" xlink:href="#DejaVuSans-48"/>
      </g>
     </g>
    </g>
    <g id="ytick_4">
     <g id="line2d_23">
      <path clip-path="url(#p19914e63d1)" d="M 56.805938 203.452917 
L 614.805938 203.452917 
" style="fill:none;stroke:#c0c0c0;stroke-linecap:round;stroke-width:0.5;"/>
     </g>
     <g id="line2d_24">
      <g>
       <use style="fill:#262626;stroke:#262626;stroke-width:1.25;" x="56.805938" xlink:href="#m887b759271" y="203.452917"/>
      </g>
     </g>
     <g id="text_21">
      <!-- 7.5 -->
      <g style="fill:#262626;" transform="translate(29.8125 207.632058)scale(0.11 -0.11)">
       <use xlink:href="#DejaVuSans-55"/>
       <use x="63.623047" xlink:href="#DejaVuSans-46"/>
       <use x="95.410156" xlink:href="#DejaVuSans-53"/>
      </g>
     </g>
    </g>
    <g id="ytick_5">
     <g id="line2d_25">
      <path clip-path="url(#p19914e63d1)" d="M 56.805938 171.431181 
L 614.805938 171.431181 
" style="fill:none;stroke:#c0c0c0;stroke-linecap:round;stroke-width:0.5;"/>
     </g>
     <g id="line2d_26">
      <g>
       <use style="fill:#262626;stroke:#262626;stroke-width:1.25;" x="56.805938" xlink:href="#m887b759271" y="171.431181"/>
      </g>
     </g>
     <g id="text_22">
      <!-- 10.0 -->
      <g style="fill:#262626;" transform="translate(22.81375 175.610322)scale(0.11 -0.11)">
       <use xlink:href="#DejaVuSans-49"/>
       <use x="63.623047" xlink:href="#DejaVuSans-48"/>
       <use x="127.246094" xlink:href="#DejaVuSans-46"/>
       <use x="159.033203" xlink:href="#DejaVuSans-48"/>
      </g>
     </g>
    </g>
    <g id="ytick_6">
     <g id="line2d_27">
      <path clip-path="url(#p19914e63d1)" d="M 56.805938 139.409445 
L 614.805938 139.409445 
" style="fill:none;stroke:#c0c0c0;stroke-linecap:round;stroke-width:0.5;"/>
     </g>
     <g id="line2d_28">
      <g>
       <use style="fill:#262626;stroke:#262626;stroke-width:1.25;" x="56.805938" xlink:href="#m887b759271" y="139.409445"/>
      </g>
     </g>
     <g id="text_23">
      <!-- 12.5 -->
      <g style="fill:#262626;" transform="translate(22.81375 143.588586)scale(0.11 -0.11)">
       <use xlink:href="#DejaVuSans-49"/>
       <use x="63.623047" xlink:href="#DejaVuSans-50"/>
       <use x="127.246094" xlink:href="#DejaVuSans-46"/>
       <use x="159.033203" xlink:href="#DejaVuSans-53"/>
      </g>
     </g>
    </g>
    <g id="ytick_7">
     <g id="line2d_29">
      <path clip-path="url(#p19914e63d1)" d="M 56.805938 107.387709 
L 614.805938 107.387709 
" style="fill:none;stroke:#c0c0c0;stroke-linecap:round;stroke-width:0.5;"/>
     </g>
     <g id="line2d_30">
      <g>
       <use style="fill:#262626;stroke:#262626;stroke-width:1.25;" x="56.805938" xlink:href="#m887b759271" y="107.387709"/>
      </g>
     </g>
     <g id="text_24">
      <!-- 15.0 -->
      <g style="fill:#262626;" transform="translate(22.81375 111.56685)scale(0.11 -0.11)">
       <use xlink:href="#DejaVuSans-49"/>
       <use x="63.623047" xlink:href="#DejaVuSans-53"/>
       <use x="127.246094" xlink:href="#DejaVuSans-46"/>
       <use x="159.033203" xlink:href="#DejaVuSans-48"/>
      </g>
     </g>
    </g>
    <g id="ytick_8">
     <g id="line2d_31">
      <path clip-path="url(#p19914e63d1)" d="M 56.805938 75.365973 
L 614.805938 75.365973 
" style="fill:none;stroke:#c0c0c0;stroke-linecap:round;stroke-width:0.5;"/>
     </g>
     <g id="line2d_32">
      <g>
       <use style="fill:#262626;stroke:#262626;stroke-width:1.25;" x="56.805938" xlink:href="#m887b759271" y="75.365973"/>
      </g>
     </g>
     <g id="text_25">
      <!-- 17.5 -->
      <g style="fill:#262626;" transform="translate(22.81375 79.545114)scale(0.11 -0.11)">
       <use xlink:href="#DejaVuSans-49"/>
       <use x="63.623047" xlink:href="#DejaVuSans-55"/>
       <use x="127.246094" xlink:href="#DejaVuSans-46"/>
       <use x="159.033203" xlink:href="#DejaVuSans-53"/>
      </g>
     </g>
    </g>
    <g id="ytick_9">
     <g id="line2d_33">
      <path clip-path="url(#p19914e63d1)" d="M 56.805938 43.344237 
L 614.805938 43.344237 
" style="fill:none;stroke:#c0c0c0;stroke-linecap:round;stroke-width:0.5;"/>
     </g>
     <g id="line2d_34">
      <g>
       <use style="fill:#262626;stroke:#262626;stroke-width:1.25;" x="56.805938" xlink:href="#m887b759271" y="43.344237"/>
      </g>
     </g>
     <g id="text_26">
      <!-- 20.0 -->
      <g style="fill:#262626;" transform="translate(22.81375 47.523378)scale(0.11 -0.11)">
       <use xlink:href="#DejaVuSans-50"/>
       <use x="63.623047" xlink:href="#DejaVuSans-48"/>
       <use x="127.246094" xlink:href="#DejaVuSans-46"/>
       <use x="159.033203" xlink:href="#DejaVuSans-48"/>
      </g>
     </g>
    </g>
    <g id="text_27">
     <!-- Avg Latency (milliseconds) -->
     <g style="fill:#262626;" transform="translate(16.318125 241.279688)rotate(-90)scale(0.12 -0.12)">
      <defs>
       <path d="M 34.1875 63.1875 
L 20.796875 26.90625 
L 47.609375 26.90625 
z
M 28.609375 72.90625 
L 39.796875 72.90625 
L 67.578125 0 
L 57.328125 0 
L 50.6875 18.703125 
L 17.828125 18.703125 
L 11.1875 0 
L 0.78125 0 
z
" id="DejaVuSans-65"/>
       <path d="M 2.984375 54.6875 
L 12.5 54.6875 
L 29.59375 8.796875 
L 46.6875 54.6875 
L 56.203125 54.6875 
L 35.6875 0 
L 23.484375 0 
z
" id="DejaVuSans-118"/>
       <path d="M 45.40625 27.984375 
Q 45.40625 37.75 41.375 43.109375 
Q 37.359375 48.484375 30.078125 48.484375 
Q 22.859375 48.484375 18.828125 43.109375 
Q 14.796875 37.75 14.796875 27.984375 
Q 14.796875 18.265625 18.828125 12.890625 
Q 22.859375 7.515625 30.078125 7.515625 
Q 37.359375 7.515625 41.375 12.890625 
Q 45.40625 18.265625 45.40625 27.984375 
z
M 54.390625 6.78125 
Q 54.390625 -7.171875 48.1875 -13.984375 
Q 42 -20.796875 29.203125 -20.796875 
Q 24.46875 -20.796875 20.265625 -20.09375 
Q 16.0625 -19.390625 12.109375 -17.921875 
L 12.109375 -9.1875 
Q 16.0625 -11.328125 19.921875 -12.34375 
Q 23.78125 -13.375 27.78125 -13.375 
Q 36.625 -13.375 41.015625 -8.765625 
Q 45.40625 -4.15625 45.40625 5.171875 
L 45.40625 9.625 
Q 42.625 4.78125 38.28125 2.390625 
Q 33.9375 0 27.875 0 
Q 17.828125 0 11.671875 7.65625 
Q 5.515625 15.328125 5.515625 27.984375 
Q 5.515625 40.671875 11.671875 48.328125 
Q 17.828125 56 27.875 56 
Q 33.9375 56 38.28125 53.609375 
Q 42.625 51.21875 45.40625 46.390625 
L 45.40625 54.6875 
L 54.390625 54.6875 
z
" id="DejaVuSans-103"/>
       <path d="M 9.8125 72.90625 
L 19.671875 72.90625 
L 19.671875 8.296875 
L 55.171875 8.296875 
L 55.171875 0 
L 9.8125 0 
z
" id="DejaVuSans-76"/>
       <path d="M 34.28125 27.484375 
Q 23.390625 27.484375 19.1875 25 
Q 14.984375 22.515625 14.984375 16.5 
Q 14.984375 11.71875 18.140625 8.90625 
Q 21.296875 6.109375 26.703125 6.109375 
Q 34.1875 6.109375 38.703125 11.40625 
Q 43.21875 16.703125 43.21875 25.484375 
L 43.21875 27.484375 
z
M 52.203125 31.203125 
L 52.203125 0 
L 43.21875 0 
L 43.21875 8.296875 
Q 40.140625 3.328125 35.546875 0.953125 
Q 30.953125 -1.421875 24.3125 -1.421875 
Q 15.921875 -1.421875 10.953125 3.296875 
Q 6 8.015625 6 15.921875 
Q 6 25.140625 12.171875 29.828125 
Q 18.359375 34.515625 30.609375 34.515625 
L 43.21875 34.515625 
L 43.21875 35.40625 
Q 43.21875 41.609375 39.140625 45 
Q 35.0625 48.390625 27.6875 48.390625 
Q 23 48.390625 18.546875 47.265625 
Q 14.109375 46.140625 10.015625 43.890625 
L 10.015625 52.203125 
Q 14.9375 54.109375 19.578125 55.046875 
Q 24.21875 56 28.609375 56 
Q 40.484375 56 46.34375 49.84375 
Q 52.203125 43.703125 52.203125 31.203125 
z
" id="DejaVuSans-97"/>
       <path d="M 32.171875 -5.078125 
Q 28.375 -14.84375 24.75 -17.8125 
Q 21.140625 -20.796875 15.09375 -20.796875 
L 7.90625 -20.796875 
L 7.90625 -13.28125 
L 13.1875 -13.28125 
Q 16.890625 -13.28125 18.9375 -11.515625 
Q 21 -9.765625 23.484375 -3.21875 
L 25.09375 0.875 
L 2.984375 54.6875 
L 12.5 54.6875 
L 29.59375 11.921875 
L 46.6875 54.6875 
L 56.203125 54.6875 
z
" id="DejaVuSans-121"/>
       <path d="M 31 75.875 
Q 24.46875 64.65625 21.28125 53.65625 
Q 18.109375 42.671875 18.109375 31.390625 
Q 18.109375 20.125 21.3125 9.0625 
Q 24.515625 -2 31 -13.1875 
L 23.1875 -13.1875 
Q 15.875 -1.703125 12.234375 9.375 
Q 8.59375 20.453125 8.59375 31.390625 
Q 8.59375 42.28125 12.203125 53.3125 
Q 15.828125 64.359375 23.1875 75.875 
z
" id="DejaVuSans-40"/>
       <path d="M 52 44.1875 
Q 55.375 50.25 60.0625 53.125 
Q 64.75 56 71.09375 56 
Q 79.640625 56 84.28125 50.015625 
Q 88.921875 44.046875 88.921875 33.015625 
L 88.921875 0 
L 79.890625 0 
L 79.890625 32.71875 
Q 79.890625 40.578125 77.09375 44.375 
Q 74.3125 48.1875 68.609375 48.1875 
Q 61.625 48.1875 57.5625 43.546875 
Q 53.515625 38.921875 53.515625 30.90625 
L 53.515625 0 
L 44.484375 0 
L 44.484375 32.71875 
Q 44.484375 40.625 41.703125 44.40625 
Q 38.921875 48.1875 33.109375 48.1875 
Q 26.21875 48.1875 22.15625 43.53125 
Q 18.109375 38.875 18.109375 30.90625 
L 18.109375 0 
L 9.078125 0 
L 9.078125 54.6875 
L 18.109375 54.6875 
L 18.109375 46.1875 
Q 21.1875 51.21875 25.484375 53.609375 
Q 29.78125 56 35.6875 56 
Q 41.65625 56 45.828125 52.96875 
Q 50 49.953125 52 44.1875 
z
" id="DejaVuSans-109"/>
       <path d="M 45.40625 46.390625 
L 45.40625 75.984375 
L 54.390625 75.984375 
L 54.390625 0 
L 45.40625 0 
L 45.40625 8.203125 
Q 42.578125 3.328125 38.25 0.953125 
Q 33.9375 -1.421875 27.875 -1.421875 
Q 17.96875 -1.421875 11.734375 6.484375 
Q 5.515625 14.40625 5.515625 27.296875 
Q 5.515625 40.1875 11.734375 48.09375 
Q 17.96875 56 27.875 56 
Q 33.9375 56 38.25 53.625 
Q 42.578125 51.265625 45.40625 46.390625 
z
M 14.796875 27.296875 
Q 14.796875 17.390625 18.875 11.75 
Q 22.953125 6.109375 30.078125 6.109375 
Q 37.203125 6.109375 41.296875 11.75 
Q 45.40625 17.390625 45.40625 27.296875 
Q 45.40625 37.203125 41.296875 42.84375 
Q 37.203125 48.484375 30.078125 48.484375 
Q 22.953125 48.484375 18.875 42.84375 
Q 14.796875 37.203125 14.796875 27.296875 
z
" id="DejaVuSans-100"/>
       <path d="M 8.015625 75.875 
L 15.828125 75.875 
Q 23.140625 64.359375 26.78125 53.3125 
Q 30.421875 42.28125 30.421875 31.390625 
Q 30.421875 20.453125 26.78125 9.375 
Q 23.140625 -1.703125 15.828125 -13.1875 
L 8.015625 -13.1875 
Q 14.5 -2 17.703125 9.0625 
Q 20.90625 20.125 20.90625 31.390625 
Q 20.90625 42.671875 17.703125 53.65625 
Q 14.5 64.65625 8.015625 75.875 
z
" id="DejaVuSans-41"/>
      </defs>
      <use xlink:href="#DejaVuSans-65"/>
      <use x="62.533203" xlink:href="#DejaVuSans-118"/>
      <use x="121.712891" xlink:href="#DejaVuSans-103"/>
      <use x="185.189453" xlink:href="#DejaVuSans-32"/>
      <use x="216.976562" xlink:href="#DejaVuSans-76"/>
      <use x="272.689453" xlink:href="#DejaVuSans-97"/>
      <use x="333.96875" xlink:href="#DejaVuSans-116"/>
      <use x="373.177734" xlink:href="#DejaVuSans-101"/>
      <use x="434.701172" xlink:href="#DejaVuSans-110"/>
      <use x="498.080078" xlink:href="#DejaVuSans-99"/>
      <use x="553.060547" xlink:href="#DejaVuSans-121"/>
      <use x="612.240234" xlink:href="#DejaVuSans-32"/>
      <use x="644.027344" xlink:href="#DejaVuSans-40"/>
      <use x="683.041016" xlink:href="#DejaVuSans-109"/>
      <use x="780.453125" xlink:href="#DejaVuSans-105"/>
      <use x="808.236328" xlink:href="#DejaVuSans-108"/>
      <use x="836.019531" xlink:href="#DejaVuSans-108"/>
      <use x="863.802734" xlink:href="#DejaVuSans-105"/>
      <use x="891.585938" xlink:href="#DejaVuSans-115"/>
      <use x="943.685547" xlink:href="#DejaVuSans-101"/>
      <use x="1005.208984" xlink:href="#DejaVuSans-99"/>
      <use x="1060.189453" xlink:href="#DejaVuSans-111"/>
      <use x="1121.371094" xlink:href="#DejaVuSans-110"/>
      <use x="1184.75" xlink:href="#DejaVuSans-100"/>
      <use x="1248.226562" xlink:href="#DejaVuSans-115"/>
      <use x="1300.326172" xlink:href="#DejaVuSans-41"/>
     </g>
    </g>
   </g>
   <g id="patch_3">
    <path clip-path="url(#p19914e63d1)" d="M 82.169574 299.518125 
L 98.53321 299.518125 
L 98.53321 299.261951 
L 82.169574 299.261951 
z
" style="fill:#4285f4;stroke:#ffffff;stroke-linejoin:miter;"/>
   </g>
   <g id="patch_4">
    <path clip-path="url(#p19914e63d1)" d="M 114.896847 299.518125 
L 131.260483 299.518125 
L 131.260483 299.261951 
L 114.896847 299.261951 
z
" style="fill:#4285f4;stroke:#ffffff;stroke-linejoin:miter;"/>
   </g>
   <g id="patch_5">
    <path clip-path="url(#p19914e63d1)" d="M 147.624119 299.518125 
L 163.987756 299.518125 
L 163.987756 299.249142 
L 147.624119 299.249142 
z
" style="fill:#4285f4;stroke:#ffffff;stroke-linejoin:miter;"/>
   </g>
   <g id="patch_6">
    <path clip-path="url(#p19914e63d1)" d="M 180.351392 299.518125 
L 196.715028 299.518125 
L 196.715028 299.236334 
L 180.351392 299.236334 
z
" style="fill:#4285f4;stroke:#ffffff;stroke-linejoin:miter;"/>
   </g>
   <g id="patch_7">
    <path clip-path="url(#p19914e63d1)" d="M 213.078665 299.518125 
L 229.442301 299.518125 
L 229.442301 299.210716 
L 213.078665 299.210716 
z
" style="fill:#4285f4;stroke:#ffffff;stroke-linejoin:miter;"/>
   </g>
   <g id="patch_8">
    <path clip-path="url(#p19914e63d1)" d="M 245.805938 299.518125 
L 262.169574 299.518125 
L 262.169574 299.17229 
L 245.805938 299.17229 
z
" style="fill:#4285f4;stroke:#ffffff;stroke-linejoin:miter;"/>
   </g>
   <g id="patch_9">
    <path clip-path="url(#p19914e63d1)" d="M 278.53321 299.518125 
L 294.896847 299.518125 
L 294.896847 299.197908 
L 278.53321 299.197908 
z
" style="fill:#4285f4;stroke:#ffffff;stroke-linejoin:miter;"/>
   </g>
   <g id="patch_10">
    <path clip-path="url(#p19914e63d1)" d="M 311.260483 299.518125 
L 327.624119 299.518125 
L 327.624119 299.197908 
L 311.260483 299.197908 
z
" style="fill:#4285f4;stroke:#ffffff;stroke-linejoin:miter;"/>
   </g>
   <g id="patch_11">
    <path clip-path="url(#p19914e63d1)" d="M 343.987756 299.518125 
L 360.351392 299.518125 
L 360.351392 299.210716 
L 343.987756 299.210716 
z
" style="fill:#4285f4;stroke:#ffffff;stroke-linejoin:miter;"/>
   </g>
   <g id="patch_12">
    <path clip-path="url(#p19914e63d1)" d="M 376.715028 299.518125 
L 393.078665 299.518125 
L 393.078665 299.17229 
L 376.715028 299.17229 
z
" style="fill:#4285f4;stroke:#ffffff;stroke-linejoin:miter;"/>
   </g>
   <g id="patch_13">
    <path clip-path="url(#p19914e63d1)" d="M 409.442301 299.518125 
L 425.805938 299.518125 
L 425.805938 299.185099 
L 409.442301 299.185099 
z
" style="fill:#4285f4;stroke:#ffffff;stroke-linejoin:miter;"/>
   </g>
   <g id="patch_14">
    <path clip-path="url(#p19914e63d1)" d="M 442.169574 299.518125 
L 458.53321 299.518125 
L 458.53321 299.146673 
L 442.169574 299.146673 
z
" style="fill:#4285f4;stroke:#ffffff;stroke-linejoin:miter;"/>
   </g>
   <g id="patch_15">
    <path clip-path="url(#p19914e63d1)" d="M 474.896847 299.518125 
L 491.260483 299.518125 
L 491.260483 299.159482 
L 474.896847 299.159482 
z
" style="fill:#4285f4;stroke:#ffffff;stroke-linejoin:miter;"/>
   </g>
   <g id="patch_16">
    <path clip-path="url(#p19914e63d1)" d="M 507.624119 299.518125 
L 523.987756 299.518125 
L 523.987756 299.146673 
L 507.624119 299.146673 
z
" style="fill:#4285f4;stroke:#ffffff;stroke-linejoin:miter;"/>
   </g>
   <g id="patch_17">
    <path clip-path="url(#p19914e63d1)" d="M 540.351392 299.518125 
L 556.715028 299.518125 
L 556.715028 299.146673 
L 540.351392 299.146673 
z
" style="fill:#4285f4;stroke:#ffffff;stroke-linejoin:miter;"/>
   </g>
   <g id="patch_18">
    <path clip-path="url(#p19914e63d1)" d="M 573.078665 299.518125 
L 589.442301 299.518125 
L 589.442301 299.17229 
L 573.078665 299.17229 
z
" style="fill:#4285f4;stroke:#ffffff;stroke-linejoin:miter;"/>
   </g>
   <g id="patch_19">
    <path clip-path="url(#p19914e63d1)" d="M 82.169574 299.261951 
L 98.53321 299.261951 
L 98.53321 297.865803 
L 82.169574 297.865803 
z
" style="fill:#db4437;stroke:#ffffff;stroke-linejoin:miter;"/>
   </g>
   <g id="patch_20">
    <path clip-path="url(#p19914e63d1)" d="M 114.896847 299.261951 
L 131.260483 299.261951 
L 131.260483 297.852995 
L 114.896847 297.852995 
z
" style="fill:#db4437;stroke:#ffffff;stroke-linejoin:miter;"/>
   </g>
   <g id="patch_21">
    <path clip-path="url(#p19914e63d1)" d="M 147.624119 299.249142 
L 163.987756 299.249142 
L 163.987756 298.365343 
L 147.624119 298.365343 
z
" style="fill:#db4437;stroke:#ffffff;stroke-linejoin:miter;"/>
   </g>
   <g id="patch_22">
    <path clip-path="url(#p19914e63d1)" d="M 180.351392 299.236334 
L 196.715028 299.236334 
L 196.715028 297.596821 
L 180.351392 297.596821 
z
" style="fill:#db4437;stroke:#ffffff;stroke-linejoin:miter;"/>
   </g>
   <g id="patch_23">
    <path clip-path="url(#p19914e63d1)" d="M 213.078665 299.210716 
L 229.442301 299.210716 
L 229.442301 298.301299 
L 213.078665 298.301299 
z
" style="fill:#db4437;stroke:#ffffff;stroke-linejoin:miter;"/>
   </g>
   <g id="patch_24">
    <path clip-path="url(#p19914e63d1)" d="M 245.805938 299.17229 
L 262.169574 299.17229 
L 262.169574 297.968273 
L 245.805938 297.968273 
z
" style="fill:#db4437;stroke:#ffffff;stroke-linejoin:miter;"/>
   </g>
   <g id="patch_25">
    <path clip-path="url(#p19914e63d1)" d="M 278.53321 299.197908 
L 294.896847 299.197908 
L 294.896847 298.28849 
L 278.53321 298.28849 
z
" style="fill:#db4437;stroke:#ffffff;stroke-linejoin:miter;"/>
   </g>
   <g id="patch_26">
    <path clip-path="url(#p19914e63d1)" d="M 311.260483 299.197908 
L 327.624119 299.197908 
L 327.624119 296.495273 
L 311.260483 296.495273 
z
" style="fill:#db4437;stroke:#ffffff;stroke-linejoin:miter;"/>
   </g>
   <g id="patch_27">
    <path clip-path="url(#p19914e63d1)" d="M 343.987756 299.210716 
L 360.351392 299.210716 
L 360.351392 297.494351 
L 343.987756 297.494351 
z
" style="fill:#db4437;stroke:#ffffff;stroke-linejoin:miter;"/>
   </g>
   <g id="patch_28">
    <path clip-path="url(#p19914e63d1)" d="M 376.715028 299.17229 
L 393.078665 299.17229 
L 393.078665 295.944499 
L 376.715028 295.944499 
z
" style="fill:#db4437;stroke:#ffffff;stroke-linejoin:miter;"/>
   </g>
   <g id="patch_29">
    <path clip-path="url(#p19914e63d1)" d="M 409.442301 299.185099 
L 425.805938 299.185099 
L 425.805938 296.200673 
L 409.442301 296.200673 
z
" style="fill:#db4437;stroke:#ffffff;stroke-linejoin:miter;"/>
   </g>
   <g id="patch_30">
    <path clip-path="url(#p19914e63d1)" d="M 442.169574 299.146673 
L 458.53321 299.146673 
L 458.53321 295.84203 
L 442.169574 295.84203 
z
" style="fill:#db4437;stroke:#ffffff;stroke-linejoin:miter;"/>
   </g>
   <g id="patch_31">
    <path clip-path="url(#p19914e63d1)" d="M 474.896847 299.159482 
L 491.260483 299.159482 
L 491.260483 296.239099 
L 474.896847 296.239099 
z
" style="fill:#db4437;stroke:#ffffff;stroke-linejoin:miter;"/>
   </g>
   <g id="patch_32">
    <path clip-path="url(#p19914e63d1)" d="M 507.624119 299.146673 
L 523.987756 299.146673 
L 523.987756 296.456847 
L 507.624119 296.456847 
z
" style="fill:#db4437;stroke:#ffffff;stroke-linejoin:miter;"/>
   </g>
   <g id="patch_33">
    <path clip-path="url(#p19914e63d1)" d="M 540.351392 299.146673 
L 556.715028 299.146673 
L 556.715028 295.790795 
L 540.351392 295.790795 
z
" style="fill:#db4437;stroke:#ffffff;stroke-linejoin:miter;"/>
   </g>
   <g id="patch_34">
    <path clip-path="url(#p19914e63d1)" d="M 573.078665 299.17229 
L 589.442301 299.17229 
L 589.442301 295.406534 
L 573.078665 295.406534 
z
" style="fill:#db4437;stroke:#ffffff;stroke-linejoin:miter;"/>
   </g>
   <g id="patch_35">
    <path clip-path="url(#p19914e63d1)" d="M 82.169574 297.865803 
L 98.53321 297.865803 
L 98.53321 297.686482 
L 82.169574 297.686482 
z
" style="fill:#f4b400;stroke:#ffffff;stroke-linejoin:miter;"/>
   </g>
   <g id="patch_36">
    <path clip-path="url(#p19914e63d1)" d="M 114.896847 297.852995 
L 131.260483 297.852995 
L 131.260483 297.712099 
L 114.896847 297.712099 
z
" style="fill:#f4b400;stroke:#ffffff;stroke-linejoin:miter;"/>
   </g>
   <g id="patch_37">
    <path clip-path="url(#p19914e63d1)" d="M 147.624119 298.365343 
L 163.987756 298.365343 
L 163.987756 238.561548 
L 147.624119 238.561548 
z
" style="fill:#f4b400;stroke:#ffffff;stroke-linejoin:miter;"/>
   </g>
   <g id="patch_38">
    <path clip-path="url(#p19914e63d1)" d="M 180.351392 297.596821 
L 196.715028 297.596821 
L 196.715028 235.99981 
L 180.351392 235.99981 
z
" style="fill:#f4b400;stroke:#ffffff;stroke-linejoin:miter;"/>
   </g>
   <g id="patch_39">
    <path clip-path="url(#p19914e63d1)" d="M 213.078665 298.301299 
L 229.442301 298.301299 
L 229.442301 235.743636 
L 213.078665 235.743636 
z
" style="fill:#f4b400;stroke:#ffffff;stroke-linejoin:miter;"/>
   </g>
   <g id="patch_40">
    <path clip-path="url(#p19914e63d1)" d="M 245.805938 297.968273 
L 262.169574 297.968273 
L 262.169574 235.641166 
L 245.805938 235.641166 
z
" style="fill:#f4b400;stroke:#ffffff;stroke-linejoin:miter;"/>
   </g>
   <g id="patch_41">
    <path clip-path="url(#p19914e63d1)" d="M 278.53321 298.28849 
L 294.896847 298.28849 
L 294.896847 233.604584 
L 278.53321 233.604584 
z
" style="fill:#f4b400;stroke:#ffffff;stroke-linejoin:miter;"/>
   </g>
   <g id="patch_42">
    <path clip-path="url(#p19914e63d1)" d="M 311.260483 296.495273 
L 327.624119 296.495273 
L 327.624119 230.363984 
L 311.260483 230.363984 
z
" style="fill:#f4b400;stroke:#ffffff;stroke-linejoin:miter;"/>
   </g>
   <g id="patch_43">
    <path clip-path="url(#p19914e63d1)" d="M 343.987756 297.494351 
L 360.351392 297.494351 
L 360.351392 230.043767 
L 343.987756 230.043767 
z
" style="fill:#f4b400;stroke:#ffffff;stroke-linejoin:miter;"/>
   </g>
   <g id="patch_44">
    <path clip-path="url(#p19914e63d1)" d="M 376.715028 295.944499 
L 393.078665 295.944499 
L 393.078665 230.543306 
L 376.715028 230.543306 
z
" style="fill:#f4b400;stroke:#ffffff;stroke-linejoin:miter;"/>
   </g>
   <g id="patch_45">
    <path clip-path="url(#p19914e63d1)" d="M 409.442301 296.200673 
L 425.805938 296.200673 
L 425.805938 225.778471 
L 409.442301 225.778471 
z
" style="fill:#f4b400;stroke:#ffffff;stroke-linejoin:miter;"/>
   </g>
   <g id="patch_46">
    <path clip-path="url(#p19914e63d1)" d="M 442.169574 295.84203 
L 458.53321 295.84203 
L 458.53321 223.421672 
L 442.169574 223.421672 
z
" style="fill:#f4b400;stroke:#ffffff;stroke-linejoin:miter;"/>
   </g>
   <g id="patch_47">
    <path clip-path="url(#p19914e63d1)" d="M 474.896847 296.239099 
L 491.260483 296.239099 
L 491.260483 219.848046 
L 474.896847 219.848046 
z
" style="fill:#f4b400;stroke:#ffffff;stroke-linejoin:miter;"/>
   </g>
   <g id="patch_48">
    <path clip-path="url(#p19914e63d1)" d="M 507.624119 296.456847 
L 523.987756 296.456847 
L 523.987756 218.157298 
L 507.624119 218.157298 
z
" style="fill:#f4b400;stroke:#ffffff;stroke-linejoin:miter;"/>
   </g>
   <g id="patch_49">
    <path clip-path="url(#p19914e63d1)" d="M 540.351392 295.790795 
L 556.715028 295.790795 
L 556.715028 214.60929 
L 540.351392 214.60929 
z
" style="fill:#f4b400;stroke:#ffffff;stroke-linejoin:miter;"/>
   </g>
   <g id="patch_50">
    <path clip-path="url(#p19914e63d1)" d="M 573.078665 295.406534 
L 589.442301 295.406534 
L 589.442301 215.070403 
L 573.078665 215.070403 
z
" style="fill:#f4b400;stroke:#ffffff;stroke-linejoin:miter;"/>
   </g>
   <g id="patch_51">
    <path clip-path="url(#p19914e63d1)" d="M 82.169574 297.686482 
L 98.53321 297.686482 
L 98.53321 297.289412 
L 82.169574 297.289412 
z
" style="fill:#0f9d58;stroke:#ffffff;stroke-linejoin:miter;"/>
   </g>
   <g id="patch_52">
    <path clip-path="url(#p19914e63d1)" d="M 114.896847 297.712099 
L 131.260483 297.712099 
L 131.260483 297.097282 
L 114.896847 297.097282 
z
" style="fill:#0f9d58;stroke:#ffffff;stroke-linejoin:miter;"/>
   </g>
   <g id="patch_53">
    <path clip-path="url(#p19914e63d1)" d="M 147.624119 238.561548 
L 163.987756 238.561548 
L 163.987756 238.074818 
L 147.624119 238.074818 
z
" style="fill:#0f9d58;stroke:#ffffff;stroke-linejoin:miter;"/>
   </g>
   <g id="patch_54">
    <path clip-path="url(#p19914e63d1)" d="M 180.351392 235.99981 
L 196.715028 235.99981 
L 196.715028 235.449036 
L 180.351392 235.449036 
z
" style="fill:#0f9d58;stroke:#ffffff;stroke-linejoin:miter;"/>
   </g>
   <g id="patch_55">
    <path clip-path="url(#p19914e63d1)" d="M 213.078665 235.743636 
L 229.442301 235.743636 
L 229.442301 235.064775 
L 213.078665 235.064775 
z
" style="fill:#0f9d58;stroke:#ffffff;stroke-linejoin:miter;"/>
   </g>
   <g id="patch_56">
    <path clip-path="url(#p19914e63d1)" d="M 245.805938 235.641166 
L 262.169574 235.641166 
L 262.169574 234.82141 
L 245.805938 234.82141 
z
" style="fill:#0f9d58;stroke:#ffffff;stroke-linejoin:miter;"/>
   </g>
   <g id="patch_57">
    <path clip-path="url(#p19914e63d1)" d="M 278.53321 233.604584 
L 294.896847 233.604584 
L 294.896847 232.784827 
L 278.53321 232.784827 
z
" style="fill:#0f9d58;stroke:#ffffff;stroke-linejoin:miter;"/>
   </g>
   <g id="patch_58">
    <path clip-path="url(#p19914e63d1)" d="M 311.260483 230.363984 
L 327.624119 230.363984 
L 327.624119 229.428949 
L 311.260483 229.428949 
z
" style="fill:#0f9d58;stroke:#ffffff;stroke-linejoin:miter;"/>
   </g>
   <g id="patch_59">
    <path clip-path="url(#p19914e63d1)" d="M 343.987756 230.043767 
L 360.351392 230.043767 
L 360.351392 228.980645 
L 343.987756 228.980645 
z
" style="fill:#0f9d58;stroke:#ffffff;stroke-linejoin:miter;"/>
   </g>
   <g id="patch_60">
    <path clip-path="url(#p19914e63d1)" d="M 376.715028 230.543306 
L 393.078665 230.543306 
L 393.078665 229.416141 
L 376.715028 229.416141 
z
" style="fill:#0f9d58;stroke:#ffffff;stroke-linejoin:miter;"/>
   </g>
   <g id="patch_61">
    <path clip-path="url(#p19914e63d1)" d="M 409.442301 225.778471 
L 425.805938 225.778471 
L 425.805938 224.561645 
L 409.442301 224.561645 
z
" style="fill:#0f9d58;stroke:#ffffff;stroke-linejoin:miter;"/>
   </g>
   <g id="patch_62">
    <path clip-path="url(#p19914e63d1)" d="M 442.169574 223.421672 
L 458.53321 223.421672 
L 458.53321 222.127994 
L 442.169574 222.127994 
z
" style="fill:#0f9d58;stroke:#ffffff;stroke-linejoin:miter;"/>
   </g>
   <g id="patch_63">
    <path clip-path="url(#p19914e63d1)" d="M 474.896847 219.848046 
L 491.260483 219.848046 
L 491.260483 218.387855 
L 474.896847 218.387855 
z
" style="fill:#0f9d58;stroke:#ffffff;stroke-linejoin:miter;"/>
   </g>
   <g id="patch_64">
    <path clip-path="url(#p19914e63d1)" d="M 507.624119 218.157298 
L 523.987756 218.157298 
L 523.987756 216.67149 
L 507.624119 216.67149 
z
" style="fill:#0f9d58;stroke:#ffffff;stroke-linejoin:miter;"/>
   </g>
   <g id="patch_65">
    <path clip-path="url(#p19914e63d1)" d="M 540.351392 214.60929 
L 556.715028 214.60929 
L 556.715028 213.059438 
L 540.351392 213.059438 
z
" style="fill:#0f9d58;stroke:#ffffff;stroke-linejoin:miter;"/>
   </g>
   <g id="patch_66">
    <path clip-path="url(#p19914e63d1)" d="M 573.078665 215.070403 
L 589.442301 215.070403 
L 589.442301 213.43089 
L 573.078665 213.43089 
z
" style="fill:#0f9d58;stroke:#ffffff;stroke-linejoin:miter;"/>
   </g>
   <g id="patch_67">
    <path clip-path="url(#p19914e63d1)" d="M 82.169574 297.289412 
L 98.53321 297.289412 
L 98.53321 217.183837 
L 82.169574 217.183837 
z
" style="fill:#ff6d00;stroke:#ffffff;stroke-linejoin:miter;"/>
   </g>
   <g id="patch_68">
    <path clip-path="url(#p19914e63d1)" d="M 114.896847 297.097282 
L 131.260483 297.097282 
L 131.260483 179.97458 
L 114.896847 179.97458 
z
" style="fill:#ff6d00;stroke:#ffffff;stroke-linejoin:miter;"/>
   </g>
   <g id="patch_69">
    <path clip-path="url(#p19914e63d1)" d="M 147.624119 238.074818 
L 163.987756 238.074818 
L 163.987756 118.749021 
L 147.624119 118.749021 
z
" style="fill:#ff6d00;stroke:#ffffff;stroke-linejoin:miter;"/>
   </g>
   <g id="patch_70">
    <path clip-path="url(#p19914e63d1)" d="M 180.351392 235.449036 
L 196.715028 235.449036 
L 196.715028 113.728013 
L 180.351392 113.728013 
z
" style="fill:#ff6d00;stroke:#ffffff;stroke-linejoin:miter;"/>
   </g>
   <g id="patch_71">
    <path clip-path="url(#p19914e63d1)" d="M 213.078665 235.064775 
L 229.442301 235.064775 
L 229.442301 111.704239 
L 213.078665 111.704239 
z
" style="fill:#ff6d00;stroke:#ffffff;stroke-linejoin:miter;"/>
   </g>
   <g id="patch_72">
    <path clip-path="url(#p19914e63d1)" d="M 245.805938 234.82141 
L 262.169574 234.82141 
L 262.169574 109.385866 
L 245.805938 109.385866 
z
" style="fill:#ff6d00;stroke:#ffffff;stroke-linejoin:miter;"/>
   </g>
   <g id="patch_73">
    <path clip-path="url(#p19914e63d1)" d="M 278.53321 232.784827 
L 294.896847 232.784827 
L 294.896847 106.363014 
L 278.53321 106.363014 
z
" style="fill:#ff6d00;stroke:#ffffff;stroke-linejoin:miter;"/>
   </g>
   <g id="patch_74">
    <path clip-path="url(#p19914e63d1)" d="M 311.260483 229.428949 
L 327.624119 229.428949 
L 327.624119 101.09864 
L 311.260483 101.09864 
z
" style="fill:#ff6d00;stroke:#ffffff;stroke-linejoin:miter;"/>
   </g>
   <g id="patch_75">
    <path clip-path="url(#p19914e63d1)" d="M 343.987756 228.980645 
L 360.351392 228.980645 
L 360.351392 99.03644 
L 343.987756 99.03644 
z
" style="fill:#ff6d00;stroke:#ffffff;stroke-linejoin:miter;"/>
   </g>
   <g id="patch_76">
    <path clip-path="url(#p19914e63d1)" d="M 376.715028 229.416141 
L 393.078665 229.416141 
L 393.078665 95.526858 
L 376.715028 95.526858 
z
" style="fill:#ff6d00;stroke:#ffffff;stroke-linejoin:miter;"/>
   </g>
   <g id="patch_77">
    <path clip-path="url(#p19914e63d1)" d="M 409.442301 224.561645 
L 425.805938 224.561645 
L 425.805938 88.84072 
L 409.442301 88.84072 
z
" style="fill:#ff6d00;stroke:#ffffff;stroke-linejoin:miter;"/>
   </g>
   <g id="patch_78">
    <path clip-path="url(#p19914e63d1)" d="M 442.169574 222.127994 
L 458.53321 222.127994 
L 458.53321 83.691625 
L 442.169574 83.691625 
z
" style="fill:#ff6d00;stroke:#ffffff;stroke-linejoin:miter;"/>
   </g>
   <g id="patch_79">
    <path clip-path="url(#p19914e63d1)" d="M 474.896847 218.387855 
L 491.260483 218.387855 
L 491.260483 72.176608 
L 474.896847 72.176608 
z
" style="fill:#ff6d00;stroke:#ffffff;stroke-linejoin:miter;"/>
   </g>
   <g id="patch_80">
    <path clip-path="url(#p19914e63d1)" d="M 507.624119 216.67149 
L 523.987756 216.67149 
L 523.987756 73.175686 
L 507.624119 73.175686 
z
" style="fill:#ff6d00;stroke:#ffffff;stroke-linejoin:miter;"/>
   </g>
   <g id="patch_81">
    <path clip-path="url(#p19914e63d1)" d="M 540.351392 213.059438 
L 556.715028 213.059438 
L 556.715028 67.437391 
L 540.351392 67.437391 
z
" style="fill:#ff6d00;stroke:#ffffff;stroke-linejoin:miter;"/>
   </g>
   <g id="patch_82">
    <path clip-path="url(#p19914e63d1)" d="M 573.078665 213.43089 
L 589.442301 213.43089 
L 589.442301 65.259913 
L 573.078665 65.259913 
z
" style="fill:#ff6d00;stroke:#ffffff;stroke-linejoin:miter;"/>
   </g>
   <g id="patch_83">
    <path clip-path="url(#p19914e63d1)" d="M 82.169574 217.183837 
L 98.53321 217.183837 
L 98.53321 216.031055 
L 82.169574 216.031055 
z
" style="fill:#46bdc6;stroke:#ffffff;stroke-linejoin:miter;"/>
   </g>
   <g id="patch_84">
    <path clip-path="url(#p19914e63d1)" d="M 114.896847 179.97458 
L 131.260483 179.97458 
L 131.260483 177.489694 
L 114.896847 177.489694 
z
" style="fill:#46bdc6;stroke:#ffffff;stroke-linejoin:miter;"/>
   </g>
   <g id="patch_85">
    <path clip-path="url(#p19914e63d1)" d="M 147.624119 118.749021 
L 163.987756 118.749021 
L 163.987756 116.148856 
L 147.624119 116.148856 
z
" style="fill:#46bdc6;stroke:#ffffff;stroke-linejoin:miter;"/>
   </g>
   <g id="patch_86">
    <path clip-path="url(#p19914e63d1)" d="M 180.351392 113.728013 
L 196.715028 113.728013 
L 196.715028 109.654848 
L 180.351392 109.654848 
z
" style="fill:#46bdc6;stroke:#ffffff;stroke-linejoin:miter;"/>
   </g>
   <g id="patch_87">
    <path clip-path="url(#p19914e63d1)" d="M 213.078665 111.704239 
L 229.442301 111.704239 
L 229.442301 105.786622 
L 213.078665 105.786622 
z
" style="fill:#46bdc6;stroke:#ffffff;stroke-linejoin:miter;"/>
   </g>
   <g id="patch_88">
    <path clip-path="url(#p19914e63d1)" d="M 245.805938 109.385866 
L 262.169574 109.385866 
L 262.169574 99.561597 
L 245.805938 99.561597 
z
" style="fill:#46bdc6;stroke:#ffffff;stroke-linejoin:miter;"/>
   </g>
   <g id="patch_89">
    <path clip-path="url(#p19914e63d1)" d="M 278.53321 106.363014 
L 294.896847 106.363014 
L 294.896847 96.397849 
L 278.53321 96.397849 
z
" style="fill:#46bdc6;stroke:#ffffff;stroke-linejoin:miter;"/>
   </g>
   <g id="patch_90">
    <path clip-path="url(#p19914e63d1)" d="M 311.260483 101.09864 
L 327.624119 101.09864 
L 327.624119 88.213094 
L 311.260483 88.213094 
z
" style="fill:#46bdc6;stroke:#ffffff;stroke-linejoin:miter;"/>
   </g>
   <g id="patch_91">
    <path clip-path="url(#p19914e63d1)" d="M 343.987756 99.03644 
L 360.351392 99.03644 
L 360.351392 83.448259 
L 343.987756 83.448259 
z
" style="fill:#46bdc6;stroke:#ffffff;stroke-linejoin:miter;"/>
   </g>
   <g id="patch_92">
    <path clip-path="url(#p19914e63d1)" d="M 376.715028 95.526858 
L 393.078665 95.526858 
L 393.078665 79.195773 
L 376.715028 79.195773 
z
" style="fill:#46bdc6;stroke:#ffffff;stroke-linejoin:miter;"/>
   </g>
   <g id="patch_93">
    <path clip-path="url(#p19914e63d1)" d="M 409.442301 88.84072 
L 425.805938 88.84072 
L 425.805938 70.140026 
L 409.442301 70.140026 
z
" style="fill:#46bdc6;stroke:#ffffff;stroke-linejoin:miter;"/>
   </g>
   <g id="patch_94">
    <path clip-path="url(#p19914e63d1)" d="M 442.169574 83.691625 
L 458.53321 83.691625 
L 458.53321 63.364227 
L 442.169574 63.364227 
z
" style="fill:#46bdc6;stroke:#ffffff;stroke-linejoin:miter;"/>
   </g>
   <g id="patch_95">
    <path clip-path="url(#p19914e63d1)" d="M 474.896847 72.176608 
L 491.260483 72.176608 
L 491.260483 50.837323 
L 474.896847 50.837323 
z
" style="fill:#46bdc6;stroke:#ffffff;stroke-linejoin:miter;"/>
   </g>
   <g id="patch_96">
    <path clip-path="url(#p19914e63d1)" d="M 507.624119 73.175686 
L 523.987756 73.175686 
L 523.987756 49.838245 
L 507.624119 49.838245 
z
" style="fill:#46bdc6;stroke:#ffffff;stroke-linejoin:miter;"/>
   </g>
   <g id="patch_97">
    <path clip-path="url(#p19914e63d1)" d="M 540.351392 67.437391 
L 556.715028 67.437391 
L 556.715028 42.665376 
L 540.351392 42.665376 
z
" style="fill:#46bdc6;stroke:#ffffff;stroke-linejoin:miter;"/>
   </g>
   <g id="patch_98">
    <path clip-path="url(#p19914e63d1)" d="M 573.078665 65.259913 
L 589.442301 65.259913 
L 589.442301 39.104559 
L 573.078665 39.104559 
z
" style="fill:#46bdc6;stroke:#ffffff;stroke-linejoin:miter;"/>
   </g>
   <g id="patch_99">
    <path clip-path="url(#p19914e63d1)" d="M 82.169574 216.031055 
L 98.53321 216.031055 
L 98.53321 215.49309 
L 82.169574 215.49309 
z
" style="fill:#ab30c4;stroke:#ffffff;stroke-linejoin:miter;"/>
   </g>
   <g id="patch_100">
    <path clip-path="url(#p19914e63d1)" d="M 114.896847 177.489694 
L 131.260483 177.489694 
L 131.260483 177.002963 
L 114.896847 177.002963 
z
" style="fill:#ab30c4;stroke:#ffffff;stroke-linejoin:miter;"/>
   </g>
   <g id="patch_101">
    <path clip-path="url(#p19914e63d1)" d="M 147.624119 116.148856 
L 163.987756 116.148856 
L 163.987756 115.687743 
L 147.624119 115.687743 
z
" style="fill:#ab30c4;stroke:#ffffff;stroke-linejoin:miter;"/>
   </g>
   <g id="patch_102">
    <path clip-path="url(#p19914e63d1)" d="M 180.351392 109.654848 
L 196.715028 109.654848 
L 196.715028 108.8479 
L 180.351392 108.8479 
z
" style="fill:#ab30c4;stroke:#ffffff;stroke-linejoin:miter;"/>
   </g>
   <g id="patch_103">
    <path clip-path="url(#p19914e63d1)" d="M 213.078665 105.786622 
L 229.442301 105.786622 
L 229.442301 105.005292 
L 213.078665 105.005292 
z
" style="fill:#ab30c4;stroke:#ffffff;stroke-linejoin:miter;"/>
   </g>
   <g id="patch_104">
    <path clip-path="url(#p19914e63d1)" d="M 245.805938 99.561597 
L 262.169574 99.561597 
L 262.169574 97.909275 
L 245.805938 97.909275 
z
" style="fill:#ab30c4;stroke:#ffffff;stroke-linejoin:miter;"/>
   </g>
   <g id="patch_105">
    <path clip-path="url(#p19914e63d1)" d="M 278.53321 96.397849 
L 294.896847 96.397849 
L 294.896847 94.63025 
L 278.53321 94.63025 
z
" style="fill:#ab30c4;stroke:#ffffff;stroke-linejoin:miter;"/>
   </g>
   <g id="patch_106">
    <path clip-path="url(#p19914e63d1)" d="M 311.260483 88.213094 
L 327.624119 88.213094 
L 327.624119 86.18932 
L 311.260483 86.18932 
z
" style="fill:#ab30c4;stroke:#ffffff;stroke-linejoin:miter;"/>
   </g>
   <g id="patch_107">
    <path clip-path="url(#p19914e63d1)" d="M 343.987756 83.448259 
L 360.351392 83.448259 
L 360.351392 80.899329 
L 343.987756 80.899329 
z
" style="fill:#ab30c4;stroke:#ffffff;stroke-linejoin:miter;"/>
   </g>
   <g id="patch_108">
    <path clip-path="url(#p19914e63d1)" d="M 376.715028 79.195773 
L 393.078665 79.195773 
L 393.078665 76.441904 
L 376.715028 76.441904 
z
" style="fill:#ab30c4;stroke:#ffffff;stroke-linejoin:miter;"/>
   </g>
   <g id="patch_109">
    <path clip-path="url(#p19914e63d1)" d="M 409.442301 70.140026 
L 425.805938 70.140026 
L 425.805938 67.270878 
L 409.442301 67.270878 
z
" style="fill:#ab30c4;stroke:#ffffff;stroke-linejoin:miter;"/>
   </g>
   <g id="patch_110">
    <path clip-path="url(#p19914e63d1)" d="M 442.169574 63.364227 
L 458.53321 63.364227 
L 458.53321 60.29014 
L 442.169574 60.29014 
z
" style="fill:#ab30c4;stroke:#ffffff;stroke-linejoin:miter;"/>
   </g>
   <g id="patch_111">
    <path clip-path="url(#p19914e63d1)" d="M 474.896847 50.837323 
L 491.260483 50.837323 
L 491.260483 47.673576 
L 474.896847 47.673576 
z
" style="fill:#ab30c4;stroke:#ffffff;stroke-linejoin:miter;"/>
   </g>
   <g id="patch_112">
    <path clip-path="url(#p19914e63d1)" d="M 507.624119 49.838245 
L 523.987756 49.838245 
L 523.987756 46.64888 
L 507.624119 46.64888 
z
" style="fill:#ab30c4;stroke:#ffffff;stroke-linejoin:miter;"/>
   </g>
   <g id="patch_113">
    <path clip-path="url(#p19914e63d1)" d="M 540.351392 42.665376 
L 556.715028 42.665376 
L 556.715028 39.386351 
L 540.351392 39.386351 
z
" style="fill:#ab30c4;stroke:#ffffff;stroke-linejoin:miter;"/>
   </g>
   <g id="patch_114">
    <path clip-path="url(#p19914e63d1)" d="M 573.078665 39.104559 
L 589.442301 39.104559 
L 589.442301 35.518125 
L 573.078665 35.518125 
z
" style="fill:#ab30c4;stroke:#ffffff;stroke-linejoin:miter;"/>
   </g>
   <g id="patch_115">
    <path d="M 56.805938 299.518125 
L 56.805938 22.318125 
" style="fill:none;stroke:#000000;stroke-linecap:square;stroke-linejoin:miter;stroke-width:2;"/>
   </g>
   <g id="patch_116">
    <path d="M 614.805938 299.518125 
L 614.805938 22.318125 
" style="fill:none;stroke:#000000;stroke-linecap:square;stroke-linejoin:miter;stroke-width:2;"/>
   </g>
   <g id="patch_117">
    <path d="M 56.805938 299.518125 
L 614.805938 299.518125 
" style="fill:none;stroke:#000000;stroke-linecap:square;stroke-linejoin:miter;stroke-width:2;"/>
   </g>
   <g id="patch_118">
    <path d="M 56.805938 22.318125 
L 614.805938 22.318125 
" style="fill:none;stroke:#000000;stroke-linecap:square;stroke-linejoin:miter;stroke-width:2;"/>
   </g>
   <g id="legend_1">
    <g id="patch_119">
     <path d="M 239.190313 414.481875 
L 607.105937 414.481875 
Q 609.305938 414.481875 609.305938 412.281875 
L 609.305938 348.798125 
Q 609.305938 346.598125 607.105937 346.598125 
L 239.190313 346.598125 
Q 236.990313 346.598125 236.990313 348.798125 
L 236.990313 412.281875 
Q 236.990313 414.481875 239.190313 414.481875 
z
" style="fill:#eaeaf2;opacity:0.8;stroke:#cccccc;stroke-linejoin:miter;"/>
    </g>
    <g id="patch_120">
     <path d="M 241.390313 359.356406 
L 263.390313 359.356406 
L 263.390313 351.656406 
L 241.390313 351.656406 
z
" style="fill:#4285f4;stroke:#4285f4;stroke-linejoin:miter;"/>
    </g>
    <g id="text_28">
     <!-- Client Send -->
     <g style="fill:#262626;" transform="translate(272.190313 359.356406)scale(0.11 -0.11)">
      <defs>
       <path d="M 53.515625 70.515625 
L 53.515625 60.890625 
Q 47.90625 63.578125 42.921875 64.890625 
Q 37.9375 66.21875 33.296875 66.21875 
Q 25.25 66.21875 20.875 63.09375 
Q 16.5 59.96875 16.5 54.203125 
Q 16.5 49.359375 19.40625 46.890625 
Q 22.3125 44.4375 30.421875 42.921875 
L 36.375 41.703125 
Q 47.40625 39.59375 52.65625 34.296875 
Q 57.90625 29 57.90625 20.125 
Q 57.90625 9.515625 50.796875 4.046875 
Q 43.703125 -1.421875 29.984375 -1.421875 
Q 24.8125 -1.421875 18.96875 -0.25 
Q 13.140625 0.921875 6.890625 3.21875 
L 6.890625 13.375 
Q 12.890625 10.015625 18.65625 8.296875 
Q 24.421875 6.59375 29.984375 6.59375 
Q 38.421875 6.59375 43.015625 9.90625 
Q 47.609375 13.234375 47.609375 19.390625 
Q 47.609375 24.75 44.3125 27.78125 
Q 41.015625 30.8125 33.5 32.328125 
L 27.484375 33.5 
Q 16.453125 35.6875 11.515625 40.375 
Q 6.59375 45.0625 6.59375 53.421875 
Q 6.59375 63.09375 13.40625 68.65625 
Q 20.21875 74.21875 32.171875 74.21875 
Q 37.3125 74.21875 42.625 73.28125 
Q 47.953125 72.359375 53.515625 70.515625 
z
" id="DejaVuSans-83"/>
      </defs>
      <use xlink:href="#DejaVuSans-67"/>
      <use x="69.824219" xlink:href="#DejaVuSans-108"/>
      <use x="97.607422" xlink:href="#DejaVuSans-105"/>
      <use x="125.390625" xlink:href="#DejaVuSans-101"/>
      <use x="186.914062" xlink:href="#DejaVuSans-110"/>
      <use x="250.292969" xlink:href="#DejaVuSans-116"/>
      <use x="289.501953" xlink:href="#DejaVuSans-32"/>
      <use x="321.289062" xlink:href="#DejaVuSans-83"/>
      <use x="384.765625" xlink:href="#DejaVuSans-101"/>
      <use x="446.289062" xlink:href="#DejaVuSans-110"/>
      <use x="509.667969" xlink:href="#DejaVuSans-100"/>
     </g>
    </g>
    <g id="patch_121">
     <path d="M 241.390313 375.502344 
L 263.390313 375.502344 
L 263.390313 367.802344 
L 241.390313 367.802344 
z
" style="fill:#ab30c4;stroke:#ab30c4;stroke-linejoin:miter;"/>
    </g>
    <g id="text_29">
     <!-- Client Recv -->
     <g style="fill:#262626;" transform="translate(272.190313 375.502344)scale(0.11 -0.11)">
      <defs>
       <path d="M 44.390625 34.1875 
Q 47.5625 33.109375 50.5625 29.59375 
Q 53.5625 26.078125 56.59375 19.921875 
L 66.609375 0 
L 56 0 
L 46.6875 18.703125 
Q 43.0625 26.03125 39.671875 28.421875 
Q 36.28125 30.8125 30.421875 30.8125 
L 19.671875 30.8125 
L 19.671875 0 
L 9.8125 0 
L 9.8125 72.90625 
L 32.078125 72.90625 
Q 44.578125 72.90625 50.734375 67.671875 
Q 56.890625 62.453125 56.890625 51.90625 
Q 56.890625 45.015625 53.6875 40.46875 
Q 50.484375 35.9375 44.390625 34.1875 
z
M 19.671875 64.796875 
L 19.671875 38.921875 
L 32.078125 38.921875 
Q 39.203125 38.921875 42.84375 42.21875 
Q 46.484375 45.515625 46.484375 51.90625 
Q 46.484375 58.296875 42.84375 61.546875 
Q 39.203125 64.796875 32.078125 64.796875 
z
" id="DejaVuSans-82"/>
      </defs>
      <use xlink:href="#DejaVuSans-67"/>
      <use x="69.824219" xlink:href="#DejaVuSans-108"/>
      <use x="97.607422" xlink:href="#DejaVuSans-105"/>
      <use x="125.390625" xlink:href="#DejaVuSans-101"/>
      <use x="186.914062" xlink:href="#DejaVuSans-110"/>
      <use x="250.292969" xlink:href="#DejaVuSans-116"/>
      <use x="289.501953" xlink:href="#DejaVuSans-32"/>
      <use x="321.289062" xlink:href="#DejaVuSans-82"/>
      <use x="386.271484" xlink:href="#DejaVuSans-101"/>
      <use x="447.794922" xlink:href="#DejaVuSans-99"/>
      <use x="502.775391" xlink:href="#DejaVuSans-118"/>
     </g>
    </g>
    <g id="patch_122">
     <path d="M 241.390313 391.648281 
L 263.390313 391.648281 
L 263.390313 383.948281 
L 241.390313 383.948281 
z
" style="fill:#db4437;stroke:#db4437;stroke-linejoin:miter;"/>
    </g>
    <g id="text_30">
     <!-- Network+server Send/recv -->
     <g style="fill:#262626;" transform="translate(272.190313 391.648281)scale(0.11 -0.11)">
      <defs>
       <path d="M 9.8125 72.90625 
L 23.09375 72.90625 
L 55.421875 11.921875 
L 55.421875 72.90625 
L 64.984375 72.90625 
L 64.984375 0 
L 51.703125 0 
L 19.390625 60.984375 
L 19.390625 0 
L 9.8125 0 
z
" id="DejaVuSans-78"/>
       <path d="M 4.203125 54.6875 
L 13.1875 54.6875 
L 24.421875 12.015625 
L 35.59375 54.6875 
L 46.1875 54.6875 
L 57.421875 12.015625 
L 68.609375 54.6875 
L 77.59375 54.6875 
L 63.28125 0 
L 52.6875 0 
L 40.921875 44.828125 
L 29.109375 0 
L 18.5 0 
z
" id="DejaVuSans-119"/>
       <path d="M 9.078125 75.984375 
L 18.109375 75.984375 
L 18.109375 31.109375 
L 44.921875 54.6875 
L 56.390625 54.6875 
L 27.390625 29.109375 
L 57.625 0 
L 45.90625 0 
L 18.109375 26.703125 
L 18.109375 0 
L 9.078125 0 
z
" id="DejaVuSans-107"/>
       <path d="M 46 62.703125 
L 46 35.5 
L 73.1875 35.5 
L 73.1875 27.203125 
L 46 27.203125 
L 46 0 
L 37.796875 0 
L 37.796875 27.203125 
L 10.59375 27.203125 
L 10.59375 35.5 
L 37.796875 35.5 
L 37.796875 62.703125 
z
" id="DejaVuSans-43"/>
       <path d="M 25.390625 72.90625 
L 33.6875 72.90625 
L 8.296875 -9.28125 
L 0 -9.28125 
z
" id="DejaVuSans-47"/>
      </defs>
      <use xlink:href="#DejaVuSans-78"/>
      <use x="74.804688" xlink:href="#DejaVuSans-101"/>
      <use x="136.328125" xlink:href="#DejaVuSans-116"/>
      <use x="175.537109" xlink:href="#DejaVuSans-119"/>
      <use x="257.324219" xlink:href="#DejaVuSans-111"/>
      <use x="318.505859" xlink:href="#DejaVuSans-114"/>
      <use x="359.619141" xlink:href="#DejaVuSans-107"/>
      <use x="417.529297" xlink:href="#DejaVuSans-43"/>
      <use x="501.318359" xlink:href="#DejaVuSans-115"/>
      <use x="553.417969" xlink:href="#DejaVuSans-101"/>
      <use x="614.941406" xlink:href="#DejaVuSans-114"/>
      <use x="656.054688" xlink:href="#DejaVuSans-118"/>
      <use x="715.234375" xlink:href="#DejaVuSans-101"/>
      <use x="776.757812" xlink:href="#DejaVuSans-114"/>
      <use x="817.871094" xlink:href="#DejaVuSans-32"/>
      <use x="849.658203" xlink:href="#DejaVuSans-83"/>
      <use x="913.134766" xlink:href="#DejaVuSans-101"/>
      <use x="974.658203" xlink:href="#DejaVuSans-110"/>
      <use x="1038.037109" xlink:href="#DejaVuSans-100"/>
      <use x="1101.513672" xlink:href="#DejaVuSans-47"/>
      <use x="1135.205078" xlink:href="#DejaVuSans-114"/>
      <use x="1174.068359" xlink:href="#DejaVuSans-101"/>
      <use x="1235.591797" xlink:href="#DejaVuSans-99"/>
      <use x="1290.572266" xlink:href="#DejaVuSans-118"/>
     </g>
    </g>
    <g id="patch_123">
     <path d="M 241.390313 407.794219 
L 263.390313 407.794219 
L 263.390313 400.094219 
L 241.390313 400.094219 
z
" style="fill:#f4b400;stroke:#f4b400;stroke-linejoin:miter;"/>
    </g>
    <g id="text_31">
     <!-- Server Queue -->
     <g style="fill:#262626;" transform="translate(272.190313 407.794219)scale(0.11 -0.11)">
      <defs>
       <path d="M 39.40625 66.21875 
Q 28.65625 66.21875 22.328125 58.203125 
Q 16.015625 50.203125 16.015625 36.375 
Q 16.015625 22.609375 22.328125 14.59375 
Q 28.65625 6.59375 39.40625 6.59375 
Q 50.140625 6.59375 56.421875 14.59375 
Q 62.703125 22.609375 62.703125 36.375 
Q 62.703125 50.203125 56.421875 58.203125 
Q 50.140625 66.21875 39.40625 66.21875 
z
M 53.21875 1.3125 
L 66.21875 -12.890625 
L 54.296875 -12.890625 
L 43.5 -1.21875 
Q 41.890625 -1.3125 41.03125 -1.359375 
Q 40.1875 -1.421875 39.40625 -1.421875 
Q 24.03125 -1.421875 14.8125 8.859375 
Q 5.609375 19.140625 5.609375 36.375 
Q 5.609375 53.65625 14.8125 63.9375 
Q 24.03125 74.21875 39.40625 74.21875 
Q 54.734375 74.21875 63.90625 63.9375 
Q 73.09375 53.65625 73.09375 36.375 
Q 73.09375 23.6875 67.984375 14.640625 
Q 62.890625 5.609375 53.21875 1.3125 
z
" id="DejaVuSans-81"/>
      </defs>
      <use xlink:href="#DejaVuSans-83"/>
      <use x="63.476562" xlink:href="#DejaVuSans-101"/>
      <use x="125" xlink:href="#DejaVuSans-114"/>
      <use x="166.113281" xlink:href="#DejaVuSans-118"/>
      <use x="225.292969" xlink:href="#DejaVuSans-101"/>
      <use x="286.816406" xlink:href="#DejaVuSans-114"/>
      <use x="327.929688" xlink:href="#DejaVuSans-32"/>
      <use x="359.716797" xlink:href="#DejaVuSans-81"/>
      <use x="438.427734" xlink:href="#DejaVuSans-117"/>
      <use x="501.806641" xlink:href="#DejaVuSans-101"/>
      <use x="563.330078" xlink:href="#DejaVuSans-117"/>
      <use x="626.708984" xlink:href="#DejaVuSans-101"/>
     </g>
    </g>
    <g id="patch_124">
     <path d="M 442.667969 359.356406 
L 464.667969 359.356406 
L 464.667969 351.656406 
L 442.667969 351.656406 
z
" style="fill:#0f9d58;stroke:#0f9d58;stroke-linejoin:miter;"/>
    </g>
    <g id="text_32">
     <!-- Server Compute Input -->
     <g style="fill:#262626;" transform="translate(473.467969 359.356406)scale(0.11 -0.11)">
      <defs>
       <path d="M 18.109375 8.203125 
L 18.109375 -20.796875 
L 9.078125 -20.796875 
L 9.078125 54.6875 
L 18.109375 54.6875 
L 18.109375 46.390625 
Q 20.953125 51.265625 25.265625 53.625 
Q 29.59375 56 35.59375 56 
Q 45.5625 56 51.78125 48.09375 
Q 58.015625 40.1875 58.015625 27.296875 
Q 58.015625 14.40625 51.78125 6.484375 
Q 45.5625 -1.421875 35.59375 -1.421875 
Q 29.59375 -1.421875 25.265625 0.953125 
Q 20.953125 3.328125 18.109375 8.203125 
z
M 48.6875 27.296875 
Q 48.6875 37.203125 44.609375 42.84375 
Q 40.53125 48.484375 33.40625 48.484375 
Q 26.265625 48.484375 22.1875 42.84375 
Q 18.109375 37.203125 18.109375 27.296875 
Q 18.109375 17.390625 22.1875 11.75 
Q 26.265625 6.109375 33.40625 6.109375 
Q 40.53125 6.109375 44.609375 11.75 
Q 48.6875 17.390625 48.6875 27.296875 
z
" id="DejaVuSans-112"/>
       <path d="M 9.8125 72.90625 
L 19.671875 72.90625 
L 19.671875 0 
L 9.8125 0 
z
" id="DejaVuSans-73"/>
      </defs>
      <use xlink:href="#DejaVuSans-83"/>
      <use x="63.476562" xlink:href="#DejaVuSans-101"/>
      <use x="125" xlink:href="#DejaVuSans-114"/>
      <use x="166.113281" xlink:href="#DejaVuSans-118"/>
      <use x="225.292969" xlink:href="#DejaVuSans-101"/>
      <use x="286.816406" xlink:href="#DejaVuSans-114"/>
      <use x="327.929688" xlink:href="#DejaVuSans-32"/>
      <use x="359.716797" xlink:href="#DejaVuSans-67"/>
      <use x="429.541016" xlink:href="#DejaVuSans-111"/>
      <use x="490.722656" xlink:href="#DejaVuSans-109"/>
      <use x="588.134766" xlink:href="#DejaVuSans-112"/>
      <use x="651.611328" xlink:href="#DejaVuSans-117"/>
      <use x="714.990234" xlink:href="#DejaVuSans-116"/>
      <use x="754.199219" xlink:href="#DejaVuSans-101"/>
      <use x="815.722656" xlink:href="#DejaVuSans-32"/>
      <use x="847.509766" xlink:href="#DejaVuSans-73"/>
      <use x="877.001953" xlink:href="#DejaVuSans-110"/>
      <use x="940.380859" xlink:href="#DejaVuSans-112"/>
      <use x="1003.857422" xlink:href="#DejaVuSans-117"/>
      <use x="1067.236328" xlink:href="#DejaVuSans-116"/>
     </g>
    </g>
    <g id="patch_125">
     <path d="M 442.667969 375.502344 
L 464.667969 375.502344 
L 464.667969 367.802344 
L 442.667969 367.802344 
z
" style="fill:#ff6d00;stroke:#ff6d00;stroke-linejoin:miter;"/>
    </g>
    <g id="text_33">
     <!-- Server Compute Infer -->
     <g style="fill:#262626;" transform="translate(473.467969 375.502344)scale(0.11 -0.11)">
      <defs>
       <path d="M 37.109375 75.984375 
L 37.109375 68.5 
L 28.515625 68.5 
Q 23.6875 68.5 21.796875 66.546875 
Q 19.921875 64.59375 19.921875 59.515625 
L 19.921875 54.6875 
L 34.71875 54.6875 
L 34.71875 47.703125 
L 19.921875 47.703125 
L 19.921875 0 
L 10.890625 0 
L 10.890625 47.703125 
L 2.296875 47.703125 
L 2.296875 54.6875 
L 10.890625 54.6875 
L 10.890625 58.5 
Q 10.890625 67.625 15.140625 71.796875 
Q 19.390625 75.984375 28.609375 75.984375 
z
" id="DejaVuSans-102"/>
      </defs>
      <use xlink:href="#DejaVuSans-83"/>
      <use x="63.476562" xlink:href="#DejaVuSans-101"/>
      <use x="125" xlink:href="#DejaVuSans-114"/>
      <use x="166.113281" xlink:href="#DejaVuSans-118"/>
      <use x="225.292969" xlink:href="#DejaVuSans-101"/>
      <use x="286.816406" xlink:href="#DejaVuSans-114"/>
      <use x="327.929688" xlink:href="#DejaVuSans-32"/>
      <use x="359.716797" xlink:href="#DejaVuSans-67"/>
      <use x="429.541016" xlink:href="#DejaVuSans-111"/>
      <use x="490.722656" xlink:href="#DejaVuSans-109"/>
      <use x="588.134766" xlink:href="#DejaVuSans-112"/>
      <use x="651.611328" xlink:href="#DejaVuSans-117"/>
      <use x="714.990234" xlink:href="#DejaVuSans-116"/>
      <use x="754.199219" xlink:href="#DejaVuSans-101"/>
      <use x="815.722656" xlink:href="#DejaVuSans-32"/>
      <use x="847.509766" xlink:href="#DejaVuSans-73"/>
      <use x="877.001953" xlink:href="#DejaVuSans-110"/>
      <use x="940.380859" xlink:href="#DejaVuSans-102"/>
      <use x="975.585938" xlink:href="#DejaVuSans-101"/>
      <use x="1037.109375" xlink:href="#DejaVuSans-114"/>
     </g>
    </g>
    <g id="patch_126">
     <path d="M 442.667969 391.648281 
L 464.667969 391.648281 
L 464.667969 383.948281 
L 442.667969 383.948281 
z
" style="fill:#46bdc6;stroke:#46bdc6;stroke-linejoin:miter;"/>
    </g>
    <g id="text_34">
     <!-- Server Compute Output -->
     <g style="fill:#262626;" transform="translate(473.467969 391.648281)scale(0.11 -0.11)">
      <defs>
       <path d="M 39.40625 66.21875 
Q 28.65625 66.21875 22.328125 58.203125 
Q 16.015625 50.203125 16.015625 36.375 
Q 16.015625 22.609375 22.328125 14.59375 
Q 28.65625 6.59375 39.40625 6.59375 
Q 50.140625 6.59375 56.421875 14.59375 
Q 62.703125 22.609375 62.703125 36.375 
Q 62.703125 50.203125 56.421875 58.203125 
Q 50.140625 66.21875 39.40625 66.21875 
z
M 39.40625 74.21875 
Q 54.734375 74.21875 63.90625 63.9375 
Q 73.09375 53.65625 73.09375 36.375 
Q 73.09375 19.140625 63.90625 8.859375 
Q 54.734375 -1.421875 39.40625 -1.421875 
Q 24.03125 -1.421875 14.8125 8.828125 
Q 5.609375 19.09375 5.609375 36.375 
Q 5.609375 53.65625 14.8125 63.9375 
Q 24.03125 74.21875 39.40625 74.21875 
z
" id="DejaVuSans-79"/>
      </defs>
      <use xlink:href="#DejaVuSans-83"/>
      <use x="63.476562" xlink:href="#DejaVuSans-101"/>
      <use x="125" xlink:href="#DejaVuSans-114"/>
      <use x="166.113281" xlink:href="#DejaVuSans-118"/>
      <use x="225.292969" xlink:href="#DejaVuSans-101"/>
      <use x="286.816406" xlink:href="#DejaVuSans-114"/>
      <use x="327.929688" xlink:href="#DejaVuSans-32"/>
      <use x="359.716797" xlink:href="#DejaVuSans-67"/>
      <use x="429.541016" xlink:href="#DejaVuSans-111"/>
      <use x="490.722656" xlink:href="#DejaVuSans-109"/>
      <use x="588.134766" xlink:href="#DejaVuSans-112"/>
      <use x="651.611328" xlink:href="#DejaVuSans-117"/>
      <use x="714.990234" xlink:href="#DejaVuSans-116"/>
      <use x="754.199219" xlink:href="#DejaVuSans-101"/>
      <use x="815.722656" xlink:href="#DejaVuSans-32"/>
      <use x="847.509766" xlink:href="#DejaVuSans-79"/>
      <use x="926.220703" xlink:href="#DejaVuSans-117"/>
      <use x="989.599609" xlink:href="#DejaVuSans-116"/>
      <use x="1028.808594" xlink:href="#DejaVuSans-112"/>
      <use x="1092.285156" xlink:href="#DejaVuSans-117"/>
      <use x="1155.664062" xlink:href="#DejaVuSans-116"/>
     </g>
    </g>
    <g id="line2d_35">
     <path d="M 442.667969 403.944219 
L 464.667969 403.944219 
" style="fill:none;stroke:#c1bc1f;stroke-linecap:round;stroke-width:1.5;"/>
    </g>
    <g id="line2d_36">
     <defs>
      <path d="M 0 3 
C 0.795609 3 1.55874 2.683901 2.12132 2.12132 
C 2.683901 1.55874 3 0.795609 3 0 
C 3 -0.795609 2.683901 -1.55874 2.12132 -2.12132 
C 1.55874 -2.683901 0.795609 -3 0 -3 
C -0.795609 -3 -1.55874 -2.683901 -2.12132 -2.12132 
C -2.683901 -1.55874 -3 -0.795609 -3 0 
C -3 0.795609 -2.683901 1.55874 -2.12132 2.12132 
C -1.55874 2.683901 -0.795609 3 0 3 
z
" id="mf4f70be0c4" style="stroke:#c1bc1f;"/>
     </defs>
     <g>
      <use style="fill:#c1bc1f;stroke:#c1bc1f;" x="453.667969" xlink:href="#mf4f70be0c4" y="403.944219"/>
     </g>
    </g>
    <g id="text_35">
     <!-- Inferences/second -->
     <g style="fill:#262626;" transform="translate(473.467969 407.794219)scale(0.11 -0.11)">
      <use xlink:href="#DejaVuSans-73"/>
      <use x="29.492188" xlink:href="#DejaVuSans-110"/>
      <use x="92.871094" xlink:href="#DejaVuSans-102"/>
      <use x="128.076172" xlink:href="#DejaVuSans-101"/>
      <use x="189.599609" xlink:href="#DejaVuSans-114"/>
      <use x="228.462891" xlink:href="#DejaVuSans-101"/>
      <use x="289.986328" xlink:href="#DejaVuSans-110"/>
      <use x="353.365234" xlink:href="#DejaVuSans-99"/>
      <use x="408.345703" xlink:href="#DejaVuSans-101"/>
      <use x="469.869141" xlink:href="#DejaVuSans-115"/>
      <use x="521.96875" xlink:href="#DejaVuSans-47"/>
      <use x="555.660156" xlink:href="#DejaVuSans-115"/>
      <use x="607.759766" xlink:href="#DejaVuSans-101"/>
      <use x="669.283203" xlink:href="#DejaVuSans-99"/>
      <use x="724.263672" xlink:href="#DejaVuSans-111"/>
      <use x="785.445312" xlink:href="#DejaVuSans-110"/>
      <use x="848.824219" xlink:href="#DejaVuSans-100"/>
     </g>
    </g>
   </g>
  </g>
  <g id="axes_2">
   <g id="matplotlib.axis_3">
    <g id="ytick_10">
     <g id="line2d_37">
      <defs>
       <path d="M 0 0 
L 6 0 
" id="me6283882b8" style="stroke:#262626;stroke-width:1.25;"/>
      </defs>
      <g>
       <use style="fill:#262626;stroke:#262626;stroke-width:1.25;" x="614.805938" xlink:href="#me6283882b8" y="267.676547"/>
      </g>
     </g>
     <g id="text_36">
      <!-- 200 -->
      <g style="fill:#262626;" transform="translate(624.305938 271.855687)scale(0.11 -0.11)">
       <use xlink:href="#DejaVuSans-50"/>
       <use x="63.623047" xlink:href="#DejaVuSans-48"/>
       <use x="127.246094" xlink:href="#DejaVuSans-48"/>
      </g>
     </g>
    </g>
    <g id="ytick_11">
     <g id="line2d_38">
      <g>
       <use style="fill:#262626;stroke:#262626;stroke-width:1.25;" x="614.805938" xlink:href="#me6283882b8" y="227.253062"/>
      </g>
     </g>
     <g id="text_37">
      <!-- 300 -->
      <g style="fill:#262626;" transform="translate(624.305938 231.432203)scale(0.11 -0.11)">
       <use xlink:href="#DejaVuSans-51"/>
       <use x="63.623047" xlink:href="#DejaVuSans-48"/>
       <use x="127.246094" xlink:href="#DejaVuSans-48"/>
      </g>
     </g>
    </g>
    <g id="ytick_12">
     <g id="line2d_39">
      <g>
       <use style="fill:#262626;stroke:#262626;stroke-width:1.25;" x="614.805938" xlink:href="#me6283882b8" y="186.829578"/>
      </g>
     </g>
     <g id="text_38">
      <!-- 400 -->
      <g style="fill:#262626;" transform="translate(624.305938 191.008719)scale(0.11 -0.11)">
       <use xlink:href="#DejaVuSans-52"/>
       <use x="63.623047" xlink:href="#DejaVuSans-48"/>
       <use x="127.246094" xlink:href="#DejaVuSans-48"/>
      </g>
     </g>
    </g>
    <g id="ytick_13">
     <g id="line2d_40">
      <g>
       <use style="fill:#262626;stroke:#262626;stroke-width:1.25;" x="614.805938" xlink:href="#me6283882b8" y="146.406094"/>
      </g>
     </g>
     <g id="text_39">
      <!-- 500 -->
      <g style="fill:#262626;" transform="translate(624.305938 150.585235)scale(0.11 -0.11)">
       <use xlink:href="#DejaVuSans-53"/>
       <use x="63.623047" xlink:href="#DejaVuSans-48"/>
       <use x="127.246094" xlink:href="#DejaVuSans-48"/>
      </g>
     </g>
    </g>
    <g id="ytick_14">
     <g id="line2d_41">
      <g>
       <use style="fill:#262626;stroke:#262626;stroke-width:1.25;" x="614.805938" xlink:href="#me6283882b8" y="105.98261"/>
      </g>
     </g>
     <g id="text_40">
      <!-- 600 -->
      <g style="fill:#262626;" transform="translate(624.305938 110.161751)scale(0.11 -0.11)">
       <use xlink:href="#DejaVuSans-54"/>
       <use x="63.623047" xlink:href="#DejaVuSans-48"/>
       <use x="127.246094" xlink:href="#DejaVuSans-48"/>
      </g>
     </g>
    </g>
    <g id="ytick_15">
     <g id="line2d_42">
      <g>
       <use style="fill:#262626;stroke:#262626;stroke-width:1.25;" x="614.805938" xlink:href="#me6283882b8" y="65.559126"/>
      </g>
     </g>
     <g id="text_41">
      <!-- 700 -->
      <g style="fill:#262626;" transform="translate(624.305938 69.738267)scale(0.11 -0.11)">
       <use xlink:href="#DejaVuSans-55"/>
       <use x="63.623047" xlink:href="#DejaVuSans-48"/>
       <use x="127.246094" xlink:href="#DejaVuSans-48"/>
      </g>
     </g>
    </g>
    <g id="ytick_16">
     <g id="line2d_43">
      <g>
       <use style="fill:#262626;stroke:#262626;stroke-width:1.25;" x="614.805938" xlink:href="#me6283882b8" y="25.135642"/>
      </g>
     </g>
     <g id="text_42">
      <!-- 800 -->
      <g style="fill:#262626;" transform="translate(624.305938 29.314782)scale(0.11 -0.11)">
       <use xlink:href="#DejaVuSans-56"/>
       <use x="63.623047" xlink:href="#DejaVuSans-48"/>
       <use x="127.246094" xlink:href="#DejaVuSans-48"/>
      </g>
     </g>
    </g>
    <g id="text_43">
     <!-- Inferences/second -->
     <g style="fill:#262626;" transform="translate(658.420313 215.657813)rotate(-90)scale(0.12 -0.12)">
      <use xlink:href="#DejaVuSans-73"/>
      <use x="29.492188" xlink:href="#DejaVuSans-110"/>
      <use x="92.871094" xlink:href="#DejaVuSans-102"/>
      <use x="128.076172" xlink:href="#DejaVuSans-101"/>
      <use x="189.599609" xlink:href="#DejaVuSans-114"/>
      <use x="228.462891" xlink:href="#DejaVuSans-101"/>
      <use x="289.986328" xlink:href="#DejaVuSans-110"/>
      <use x="353.365234" xlink:href="#DejaVuSans-99"/>
      <use x="408.345703" xlink:href="#DejaVuSans-101"/>
      <use x="469.869141" xlink:href="#DejaVuSans-115"/>
      <use x="521.96875" xlink:href="#DejaVuSans-47"/>
      <use x="555.660156" xlink:href="#DejaVuSans-115"/>
      <use x="607.759766" xlink:href="#DejaVuSans-101"/>
      <use x="669.283203" xlink:href="#DejaVuSans-99"/>
      <use x="724.263672" xlink:href="#DejaVuSans-111"/>
      <use x="785.445312" xlink:href="#DejaVuSans-110"/>
      <use x="848.824219" xlink:href="#DejaVuSans-100"/>
     </g>
    </g>
   </g>
   <g id="line2d_44">
    <path clip-path="url(#p19914e63d1)" d="M 90.351392 286.918125 
L 123.078665 263.99801 
L 155.805938 264.038433 
L 188.53321 239.865189 
L 221.260483 215.408982 
L 253.987756 194.429193 
L 286.715028 171.589925 
L 319.442301 154.288674 
L 352.169574 135.532177 
L 384.896847 116.411869 
L 417.624119 103.031696 
L 450.351392 88.843053 
L 483.078665 81.283861 
L 515.805938 61.921012 
L 548.53321 49.874814 
L 581.260483 34.918125 
" style="fill:none;stroke:#c1bc1f;stroke-linecap:round;stroke-width:1.5;"/>
    <g clip-path="url(#p19914e63d1)">
     <use style="fill:#c1bc1f;stroke:#c1bc1f;" x="90.351392" xlink:href="#mf4f70be0c4" y="286.918125"/>
     <use style="fill:#c1bc1f;stroke:#c1bc1f;" x="123.078665" xlink:href="#mf4f70be0c4" y="263.99801"/>
     <use style="fill:#c1bc1f;stroke:#c1bc1f;" x="155.805938" xlink:href="#mf4f70be0c4" y="264.038433"/>
     <use style="fill:#c1bc1f;stroke:#c1bc1f;" x="188.53321" xlink:href="#mf4f70be0c4" y="239.865189"/>
     <use style="fill:#c1bc1f;stroke:#c1bc1f;" x="221.260483" xlink:href="#mf4f70be0c4" y="215.408982"/>
     <use style="fill:#c1bc1f;stroke:#c1bc1f;" x="253.987756" xlink:href="#mf4f70be0c4" y="194.429193"/>
     <use style="fill:#c1bc1f;stroke:#c1bc1f;" x="286.715028" xlink:href="#mf4f70be0c4" y="171.589925"/>
     <use style="fill:#c1bc1f;stroke:#c1bc1f;" x="319.442301" xlink:href="#mf4f70be0c4" y="154.288674"/>
     <use style="fill:#c1bc1f;stroke:#c1bc1f;" x="352.169574" xlink:href="#mf4f70be0c4" y="135.532177"/>
     <use style="fill:#c1bc1f;stroke:#c1bc1f;" x="384.896847" xlink:href="#mf4f70be0c4" y="116.411869"/>
     <use style="fill:#c1bc1f;stroke:#c1bc1f;" x="417.624119" xlink:href="#mf4f70be0c4" y="103.031696"/>
     <use style="fill:#c1bc1f;stroke:#c1bc1f;" x="450.351392" xlink:href="#mf4f70be0c4" y="88.843053"/>
     <use style="fill:#c1bc1f;stroke:#c1bc1f;" x="483.078665" xlink:href="#mf4f70be0c4" y="81.283861"/>
     <use style="fill:#c1bc1f;stroke:#c1bc1f;" x="515.805938" xlink:href="#mf4f70be0c4" y="61.921012"/>
     <use style="fill:#c1bc1f;stroke:#c1bc1f;" x="548.53321" xlink:href="#mf4f70be0c4" y="49.874814"/>
     <use style="fill:#c1bc1f;stroke:#c1bc1f;" x="581.260483" xlink:href="#mf4f70be0c4" y="34.918125"/>
    </g>
   </g>
   <g id="patch_127">
    <path d="M 56.805938 299.518125 
L 56.805938 22.318125 
" style="fill:none;stroke:#ffffff;stroke-linecap:square;stroke-linejoin:miter;stroke-width:1.25;"/>
   </g>
   <g id="patch_128">
    <path d="M 614.805938 299.518125 
L 614.805938 22.318125 
" style="fill:none;stroke:#ffffff;stroke-linecap:square;stroke-linejoin:miter;stroke-width:1.25;"/>
   </g>
   <g id="patch_129">
    <path d="M 56.805938 299.518125 
L 614.805938 299.518125 
" style="fill:none;stroke:#ffffff;stroke-linecap:square;stroke-linejoin:miter;stroke-width:1.25;"/>
   </g>
   <g id="patch_130">
    <path d="M 56.805938 22.318125 
L 614.805938 22.318125 
" style="fill:none;stroke:#ffffff;stroke-linecap:square;stroke-linejoin:miter;stroke-width:1.25;"/>
   </g>
   <g id="text_44">
    <!-- 152.4 -->
    <g style="fill:#262626;" transform="translate(73.174517 286.918125)scale(0.12 -0.12)">
     <use xlink:href="#DejaVuSans-49"/>
     <use x="63.623047" xlink:href="#DejaVuSans-53"/>
     <use x="127.246094" xlink:href="#DejaVuSans-50"/>
     <use x="190.869141" xlink:href="#DejaVuSans-46"/>
     <use x="222.65625" xlink:href="#DejaVuSans-52"/>
    </g>
   </g>
   <g id="text_45">
    <!-- 268.8 -->
    <g style="fill:#262626;" transform="translate(171.356335 239.865189)scale(0.12 -0.12)">
     <use xlink:href="#DejaVuSans-50"/>
     <use x="63.623047" xlink:href="#DejaVuSans-54"/>
     <use x="127.246094" xlink:href="#DejaVuSans-56"/>
     <use x="190.869141" xlink:href="#DejaVuSans-46"/>
     <use x="222.65625" xlink:href="#DejaVuSans-56"/>
    </g>
   </g>
   <g id="text_46">
    <!-- 437.7 -->
    <g style="fill:#262626;" transform="translate(269.538153 171.589925)scale(0.12 -0.12)">
     <use xlink:href="#DejaVuSans-52"/>
     <use x="63.623047" xlink:href="#DejaVuSans-51"/>
     <use x="127.246094" xlink:href="#DejaVuSans-55"/>
     <use x="190.869141" xlink:href="#DejaVuSans-46"/>
     <use x="222.65625" xlink:href="#DejaVuSans-55"/>
    </g>
   </g>
   <g id="text_47">
    <!-- 574.2 -->
    <g style="fill:#262626;" transform="translate(367.719972 116.411869)scale(0.12 -0.12)">
     <use xlink:href="#DejaVuSans-53"/>
     <use x="63.623047" xlink:href="#DejaVuSans-55"/>
     <use x="127.246094" xlink:href="#DejaVuSans-52"/>
     <use x="190.869141" xlink:href="#DejaVuSans-46"/>
     <use x="222.65625" xlink:href="#DejaVuSans-50"/>
    </g>
   </g>
   <g id="text_48">
    <!-- 661.1 -->
    <g style="fill:#262626;" transform="translate(465.90179 81.283861)scale(0.12 -0.12)">
     <use xlink:href="#DejaVuSans-54"/>
     <use x="63.623047" xlink:href="#DejaVuSans-54"/>
     <use x="127.246094" xlink:href="#DejaVuSans-49"/>
     <use x="190.869141" xlink:href="#DejaVuSans-46"/>
     <use x="222.65625" xlink:href="#DejaVuSans-49"/>
    </g>
   </g>
   <g id="text_49">
    <!-- 775.8 -->
    <g style="fill:#262626;" transform="translate(564.083608 34.918125)scale(0.12 -0.12)">
     <use xlink:href="#DejaVuSans-55"/>
     <use x="63.623047" xlink:href="#DejaVuSans-55"/>
     <use x="127.246094" xlink:href="#DejaVuSans-53"/>
     <use x="190.869141" xlink:href="#DejaVuSans-46"/>
     <use x="222.65625" xlink:href="#DejaVuSans-56"/>
    </g>
   </g>
   <g id="text_50">
    <!-- 775.8 -->
    <g style="fill:#262626;" transform="translate(564.083608 34.918125)scale(0.12 -0.12)">
     <use xlink:href="#DejaVuSans-55"/>
     <use x="63.623047" xlink:href="#DejaVuSans-55"/>
     <use x="127.246094" xlink:href="#DejaVuSans-53"/>
     <use x="190.869141" xlink:href="#DejaVuSans-46"/>
     <use x="222.65625" xlink:href="#DejaVuSans-56"/>
    </g>
   </g>
   <g id="text_51">
    <!-- Online performance -->
    <g style="fill:#262626;" transform="translate(276.118125 16.318125)scale(0.12 -0.12)">
     <use xlink:href="#DejaVuSans-79"/>
     <use x="78.710938" xlink:href="#DejaVuSans-110"/>
     <use x="142.089844" xlink:href="#DejaVuSans-108"/>
     <use x="169.873047" xlink:href="#DejaVuSans-105"/>
     <use x="197.65625" xlink:href="#DejaVuSans-110"/>
     <use x="261.035156" xlink:href="#DejaVuSans-101"/>
     <use x="322.558594" xlink:href="#DejaVuSans-32"/>
     <use x="354.345703" xlink:href="#DejaVuSans-112"/>
     <use x="417.822266" xlink:href="#DejaVuSans-101"/>
     <use x="479.345703" xlink:href="#DejaVuSans-114"/>
     <use x="520.458984" xlink:href="#DejaVuSans-102"/>
     <use x="555.664062" xlink:href="#DejaVuSans-111"/>
     <use x="616.845703" xlink:href="#DejaVuSans-114"/>
     <use x="656.208984" xlink:href="#DejaVuSans-109"/>
     <use x="753.621094" xlink:href="#DejaVuSans-97"/>
     <use x="814.900391" xlink:href="#DejaVuSans-110"/>
     <use x="878.279297" xlink:href="#DejaVuSans-99"/>
     <use x="933.259766" xlink:href="#DejaVuSans-101"/>
    </g>
   </g>
  </g>
 </g>
 <defs>
  <clipPath id="p19914e63d1">
   <rect height="277.2" width="558" x="56.805938" y="22.318125"/>
  </clipPath>
 </defs>
</svg>
