<?xml version="1.0" encoding="utf-8" standalone="no"?>
<!DOCTYPE svg PUBLIC "-//W3C//DTD SVG 1.1//EN"
  "http://www.w3.org/Graphics/SVG/1.1/DTD/svg11.dtd">
<svg xmlns:xlink="http://www.w3.org/1999/xlink" width="864pt" height="720pt" viewBox="0 0 864 720" xmlns="http://www.w3.org/2000/svg" version="1.1">
 <metadata>
  <rdf:RDF xmlns:dc="http://purl.org/dc/elements/1.1/" xmlns:cc="http://creativecommons.org/ns#" xmlns:rdf="http://www.w3.org/1999/02/22-rdf-syntax-ns#">
   <cc:Work>
    <dc:type rdf:resource="http://purl.org/dc/dcmitype/StillImage"/>
    <dc:date>2022-04-06T14:52:40.156003</dc:date>
    <dc:format>image/svg+xml</dc:format>
    <dc:creator>
     <cc:Agent>
      <dc:title>Matplotlib v3.5.0, https://matplotlib.org/</dc:title>
     </cc:Agent>
    </dc:creator>
   </cc:Work>
  </rdf:RDF>
 </metadata>
 <defs>
  <style type="text/css">*{stroke-linejoin: round; stroke-linecap: butt}</style>
 </defs>
 <g id="figure_1">
  <g id="patch_1">
   <path d="M 0 720 
L 864 720 
L 864 0 
L 0 0 
L 0 720 
z
" style="fill: none"/>
  </g>
  <g id="axes_1">
   <g id="patch_2">
    <path d="M 108 630 
L 777.6 630 
L 777.6 86.4 
L 108 86.4 
z
" style="fill: #ffffff"/>
   </g>
   <g id="matplotlib.axis_1">
    <g id="xtick_1">
     <g id="line2d_1">
      <path d="M 246.834076 630 
L 246.834076 86.4 
" clip-path="url(#p55853aa29d)" style="fill: none; stroke: #b0b0b0; stroke-width: 0.8; stroke-linecap: square"/>
     </g>
     <g id="line2d_2">
      <defs>
       <path id="m6047f164f4" d="M 0 0 
L 0 3.5 
" style="stroke: #000000; stroke-width: 0.8"/>
      </defs>
      <g>
       <use xlink:href="#m6047f164f4" x="246.834076" y="630" style="stroke: #000000; stroke-width: 0.8"/>
      </g>
     </g>
     <g id="text_1">
      <!-- 2000 -->
      <g transform="translate(234.109076 644.598438)scale(0.1 -0.1)">
       <defs>
        <path id="DejaVuSans-32" d="M 1228 531 
L 3431 531 
L 3431 0 
L 469 0 
L 469 531 
Q 828 903 1448 1529 
Q 2069 2156 2228 2338 
Q 2531 2678 2651 2914 
Q 2772 3150 2772 3378 
Q 2772 3750 2511 3984 
Q 2250 4219 1831 4219 
Q 1534 4219 1204 4116 
Q 875 4013 500 3803 
L 500 4441 
Q 881 4594 1212 4672 
Q 1544 4750 1819 4750 
Q 2544 4750 2975 4387 
Q 3406 4025 3406 3419 
Q 3406 3131 3298 2873 
Q 3191 2616 2906 2266 
Q 2828 2175 2409 1742 
Q 1991 1309 1228 531 
z
" transform="scale(0.015625)"/>
        <path id="DejaVuSans-30" d="M 2034 4250 
Q 1547 4250 1301 3770 
Q 1056 3291 1056 2328 
Q 1056 1369 1301 889 
Q 1547 409 2034 409 
Q 2525 409 2770 889 
Q 3016 1369 3016 2328 
Q 3016 3291 2770 3770 
Q 2525 4250 2034 4250 
z
M 2034 4750 
Q 2819 4750 3233 4129 
Q 3647 3509 3647 2328 
Q 3647 1150 3233 529 
Q 2819 -91 2034 -91 
Q 1250 -91 836 529 
Q 422 1150 422 2328 
Q 422 3509 836 4129 
Q 1250 4750 2034 4750 
z
" transform="scale(0.015625)"/>
       </defs>
       <use xlink:href="#DejaVuSans-32"/>
       <use xlink:href="#DejaVuSans-30" x="63.623047"/>
       <use xlink:href="#DejaVuSans-30" x="127.246094"/>
       <use xlink:href="#DejaVuSans-30" x="190.869141"/>
      </g>
     </g>
    </g>
    <g id="xtick_2">
     <g id="line2d_3">
      <path d="M 387.336621 630 
L 387.336621 86.4 
" clip-path="url(#p55853aa29d)" style="fill: none; stroke: #b0b0b0; stroke-width: 0.8; stroke-linecap: square"/>
     </g>
     <g id="line2d_4">
      <g>
       <use xlink:href="#m6047f164f4" x="387.336621" y="630" style="stroke: #000000; stroke-width: 0.8"/>
      </g>
     </g>
     <g id="text_2">
      <!-- 4000 -->
      <g transform="translate(374.611621 644.598438)scale(0.1 -0.1)">
       <defs>
        <path id="DejaVuSans-34" d="M 2419 4116 
L 825 1625 
L 2419 1625 
L 2419 4116 
z
M 2253 4666 
L 3047 4666 
L 3047 1625 
L 3713 1625 
L 3713 1100 
L 3047 1100 
L 3047 0 
L 2419 0 
L 2419 1100 
L 313 1100 
L 313 1709 
L 2253 4666 
z
" transform="scale(0.015625)"/>
       </defs>
       <use xlink:href="#DejaVuSans-34"/>
       <use xlink:href="#DejaVuSans-30" x="63.623047"/>
       <use xlink:href="#DejaVuSans-30" x="127.246094"/>
       <use xlink:href="#DejaVuSans-30" x="190.869141"/>
      </g>
     </g>
    </g>
    <g id="xtick_3">
     <g id="line2d_5">
      <path d="M 527.839165 630 
L 527.839165 86.4 
" clip-path="url(#p55853aa29d)" style="fill: none; stroke: #b0b0b0; stroke-width: 0.8; stroke-linecap: square"/>
     </g>
     <g id="line2d_6">
      <g>
       <use xlink:href="#m6047f164f4" x="527.839165" y="630" style="stroke: #000000; stroke-width: 0.8"/>
      </g>
     </g>
     <g id="text_3">
      <!-- 6000 -->
      <g transform="translate(515.114165 644.598438)scale(0.1 -0.1)">
       <defs>
        <path id="DejaVuSans-36" d="M 2113 2584 
Q 1688 2584 1439 2293 
Q 1191 2003 1191 1497 
Q 1191 994 1439 701 
Q 1688 409 2113 409 
Q 2538 409 2786 701 
Q 3034 994 3034 1497 
Q 3034 2003 2786 2293 
Q 2538 2584 2113 2584 
z
M 3366 4563 
L 3366 3988 
Q 3128 4100 2886 4159 
Q 2644 4219 2406 4219 
Q 1781 4219 1451 3797 
Q 1122 3375 1075 2522 
Q 1259 2794 1537 2939 
Q 1816 3084 2150 3084 
Q 2853 3084 3261 2657 
Q 3669 2231 3669 1497 
Q 3669 778 3244 343 
Q 2819 -91 2113 -91 
Q 1303 -91 875 529 
Q 447 1150 447 2328 
Q 447 3434 972 4092 
Q 1497 4750 2381 4750 
Q 2619 4750 2861 4703 
Q 3103 4656 3366 4563 
z
" transform="scale(0.015625)"/>
       </defs>
       <use xlink:href="#DejaVuSans-36"/>
       <use xlink:href="#DejaVuSans-30" x="63.623047"/>
       <use xlink:href="#DejaVuSans-30" x="127.246094"/>
       <use xlink:href="#DejaVuSans-30" x="190.869141"/>
      </g>
     </g>
    </g>
    <g id="xtick_4">
     <g id="line2d_7">
      <path d="M 668.341709 630 
L 668.341709 86.4 
" clip-path="url(#p55853aa29d)" style="fill: none; stroke: #b0b0b0; stroke-width: 0.8; stroke-linecap: square"/>
     </g>
     <g id="line2d_8">
      <g>
       <use xlink:href="#m6047f164f4" x="668.341709" y="630" style="stroke: #000000; stroke-width: 0.8"/>
      </g>
     </g>
     <g id="text_4">
      <!-- 8000 -->
      <g transform="translate(655.616709 644.598438)scale(0.1 -0.1)">
       <defs>
        <path id="DejaVuSans-38" d="M 2034 2216 
Q 1584 2216 1326 1975 
Q 1069 1734 1069 1313 
Q 1069 891 1326 650 
Q 1584 409 2034 409 
Q 2484 409 2743 651 
Q 3003 894 3003 1313 
Q 3003 1734 2745 1975 
Q 2488 2216 2034 2216 
z
M 1403 2484 
Q 997 2584 770 2862 
Q 544 3141 544 3541 
Q 544 4100 942 4425 
Q 1341 4750 2034 4750 
Q 2731 4750 3128 4425 
Q 3525 4100 3525 3541 
Q 3525 3141 3298 2862 
Q 3072 2584 2669 2484 
Q 3125 2378 3379 2068 
Q 3634 1759 3634 1313 
Q 3634 634 3220 271 
Q 2806 -91 2034 -91 
Q 1263 -91 848 271 
Q 434 634 434 1313 
Q 434 1759 690 2068 
Q 947 2378 1403 2484 
z
M 1172 3481 
Q 1172 3119 1398 2916 
Q 1625 2713 2034 2713 
Q 2441 2713 2670 2916 
Q 2900 3119 2900 3481 
Q 2900 3844 2670 4047 
Q 2441 4250 2034 4250 
Q 1625 4250 1398 4047 
Q 1172 3844 1172 3481 
z
" transform="scale(0.015625)"/>
       </defs>
       <use xlink:href="#DejaVuSans-38"/>
       <use xlink:href="#DejaVuSans-30" x="63.623047"/>
       <use xlink:href="#DejaVuSans-30" x="127.246094"/>
       <use xlink:href="#DejaVuSans-30" x="190.869141"/>
      </g>
     </g>
    </g>
    <g id="text_5">
     <!-- step -->
     <g transform="translate(431.984375 658.276562)scale(0.1 -0.1)">
      <defs>
       <path id="DejaVuSans-73" d="M 2834 3397 
L 2834 2853 
Q 2591 2978 2328 3040 
Q 2066 3103 1784 3103 
Q 1356 3103 1142 2972 
Q 928 2841 928 2578 
Q 928 2378 1081 2264 
Q 1234 2150 1697 2047 
L 1894 2003 
Q 2506 1872 2764 1633 
Q 3022 1394 3022 966 
Q 3022 478 2636 193 
Q 2250 -91 1575 -91 
Q 1294 -91 989 -36 
Q 684 19 347 128 
L 347 722 
Q 666 556 975 473 
Q 1284 391 1588 391 
Q 1994 391 2212 530 
Q 2431 669 2431 922 
Q 2431 1156 2273 1281 
Q 2116 1406 1581 1522 
L 1381 1569 
Q 847 1681 609 1914 
Q 372 2147 372 2553 
Q 372 3047 722 3315 
Q 1072 3584 1716 3584 
Q 2034 3584 2315 3537 
Q 2597 3491 2834 3397 
z
" transform="scale(0.015625)"/>
       <path id="DejaVuSans-74" d="M 1172 4494 
L 1172 3500 
L 2356 3500 
L 2356 3053 
L 1172 3053 
L 1172 1153 
Q 1172 725 1289 603 
Q 1406 481 1766 481 
L 2356 481 
L 2356 0 
L 1766 0 
Q 1100 0 847 248 
Q 594 497 594 1153 
L 594 3053 
L 172 3053 
L 172 3500 
L 594 3500 
L 594 4494 
L 1172 4494 
z
" transform="scale(0.015625)"/>
       <path id="DejaVuSans-65" d="M 3597 1894 
L 3597 1613 
L 953 1613 
Q 991 1019 1311 708 
Q 1631 397 2203 397 
Q 2534 397 2845 478 
Q 3156 559 3463 722 
L 3463 178 
Q 3153 47 2828 -22 
Q 2503 -91 2169 -91 
Q 1331 -91 842 396 
Q 353 884 353 1716 
Q 353 2575 817 3079 
Q 1281 3584 2069 3584 
Q 2775 3584 3186 3129 
Q 3597 2675 3597 1894 
z
M 3022 2063 
Q 3016 2534 2758 2815 
Q 2500 3097 2075 3097 
Q 1594 3097 1305 2825 
Q 1016 2553 972 2059 
L 3022 2063 
z
" transform="scale(0.015625)"/>
       <path id="DejaVuSans-70" d="M 1159 525 
L 1159 -1331 
L 581 -1331 
L 581 3500 
L 1159 3500 
L 1159 2969 
Q 1341 3281 1617 3432 
Q 1894 3584 2278 3584 
Q 2916 3584 3314 3078 
Q 3713 2572 3713 1747 
Q 3713 922 3314 415 
Q 2916 -91 2278 -91 
Q 1894 -91 1617 61 
Q 1341 213 1159 525 
z
M 3116 1747 
Q 3116 2381 2855 2742 
Q 2594 3103 2138 3103 
Q 1681 3103 1420 2742 
Q 1159 2381 1159 1747 
Q 1159 1113 1420 752 
Q 1681 391 2138 391 
Q 2594 391 2855 752 
Q 3116 1113 3116 1747 
z
" transform="scale(0.015625)"/>
      </defs>
      <use xlink:href="#DejaVuSans-73"/>
      <use xlink:href="#DejaVuSans-74" x="52.099609"/>
      <use xlink:href="#DejaVuSans-65" x="91.308594"/>
      <use xlink:href="#DejaVuSans-70" x="152.832031"/>
     </g>
    </g>
   </g>
   <g id="matplotlib.axis_2">
    <g id="ytick_1">
     <g id="line2d_9">
      <path d="M 108 575.64 
L 777.6 575.64 
" clip-path="url(#p55853aa29d)" style="fill: none; stroke: #b0b0b0; stroke-width: 0.8; stroke-linecap: square"/>
     </g>
     <g id="line2d_10">
      <defs>
       <path id="m779d6ed5e1" d="M 0 0 
L -3.5 0 
" style="stroke: #000000; stroke-width: 0.8"/>
      </defs>
      <g>
       <use xlink:href="#m779d6ed5e1" x="108" y="575.64" style="stroke: #000000; stroke-width: 0.8"/>
      </g>
     </g>
     <g id="text_6">
      <!-- 0.6400 -->
      <g transform="translate(66.009375 579.439219)scale(0.1 -0.1)">
       <defs>
        <path id="DejaVuSans-2e" d="M 684 794 
L 1344 794 
L 1344 0 
L 684 0 
L 684 794 
z
" transform="scale(0.015625)"/>
       </defs>
       <use xlink:href="#DejaVuSans-30"/>
       <use xlink:href="#DejaVuSans-2e" x="63.623047"/>
       <use xlink:href="#DejaVuSans-36" x="95.410156"/>
       <use xlink:href="#DejaVuSans-34" x="159.033203"/>
       <use xlink:href="#DejaVuSans-30" x="222.65625"/>
       <use xlink:href="#DejaVuSans-30" x="286.279297"/>
      </g>
     </g>
    </g>
    <g id="ytick_2">
     <g id="line2d_11">
      <path d="M 108 507.69 
L 777.6 507.69 
" clip-path="url(#p55853aa29d)" style="fill: none; stroke: #b0b0b0; stroke-width: 0.8; stroke-linecap: square"/>
     </g>
     <g id="line2d_12">
      <g>
       <use xlink:href="#m779d6ed5e1" x="108" y="507.69" style="stroke: #000000; stroke-width: 0.8"/>
      </g>
     </g>
     <g id="text_7">
      <!-- 0.6425 -->
      <g transform="translate(66.009375 511.489219)scale(0.1 -0.1)">
       <defs>
        <path id="DejaVuSans-35" d="M 691 4666 
L 3169 4666 
L 3169 4134 
L 1269 4134 
L 1269 2991 
Q 1406 3038 1543 3061 
Q 1681 3084 1819 3084 
Q 2600 3084 3056 2656 
Q 3513 2228 3513 1497 
Q 3513 744 3044 326 
Q 2575 -91 1722 -91 
Q 1428 -91 1123 -41 
Q 819 9 494 109 
L 494 744 
Q 775 591 1075 516 
Q 1375 441 1709 441 
Q 2250 441 2565 725 
Q 2881 1009 2881 1497 
Q 2881 1984 2565 2268 
Q 2250 2553 1709 2553 
Q 1456 2553 1204 2497 
Q 953 2441 691 2322 
L 691 4666 
z
" transform="scale(0.015625)"/>
       </defs>
       <use xlink:href="#DejaVuSans-30"/>
       <use xlink:href="#DejaVuSans-2e" x="63.623047"/>
       <use xlink:href="#DejaVuSans-36" x="95.410156"/>
       <use xlink:href="#DejaVuSans-34" x="159.033203"/>
       <use xlink:href="#DejaVuSans-32" x="222.65625"/>
       <use xlink:href="#DejaVuSans-35" x="286.279297"/>
      </g>
     </g>
    </g>
    <g id="ytick_3">
     <g id="line2d_13">
      <path d="M 108 439.74 
L 777.6 439.74 
" clip-path="url(#p55853aa29d)" style="fill: none; stroke: #b0b0b0; stroke-width: 0.8; stroke-linecap: square"/>
     </g>
     <g id="line2d_14">
      <g>
       <use xlink:href="#m779d6ed5e1" x="108" y="439.74" style="stroke: #000000; stroke-width: 0.8"/>
      </g>
     </g>
     <g id="text_8">
      <!-- 0.6450 -->
      <g transform="translate(66.009375 443.539219)scale(0.1 -0.1)">
       <use xlink:href="#DejaVuSans-30"/>
       <use xlink:href="#DejaVuSans-2e" x="63.623047"/>
       <use xlink:href="#DejaVuSans-36" x="95.410156"/>
       <use xlink:href="#DejaVuSans-34" x="159.033203"/>
       <use xlink:href="#DejaVuSans-35" x="222.65625"/>
       <use xlink:href="#DejaVuSans-30" x="286.279297"/>
      </g>
     </g>
    </g>
    <g id="ytick_4">
     <g id="line2d_15">
      <path d="M 108 371.79 
L 777.6 371.79 
" clip-path="url(#p55853aa29d)" style="fill: none; stroke: #b0b0b0; stroke-width: 0.8; stroke-linecap: square"/>
     </g>
     <g id="line2d_16">
      <g>
       <use xlink:href="#m779d6ed5e1" x="108" y="371.79" style="stroke: #000000; stroke-width: 0.8"/>
      </g>
     </g>
     <g id="text_9">
      <!-- 0.6475 -->
      <g transform="translate(66.009375 375.589219)scale(0.1 -0.1)">
       <defs>
        <path id="DejaVuSans-37" d="M 525 4666 
L 3525 4666 
L 3525 4397 
L 1831 0 
L 1172 0 
L 2766 4134 
L 525 4134 
L 525 4666 
z
" transform="scale(0.015625)"/>
       </defs>
       <use xlink:href="#DejaVuSans-30"/>
       <use xlink:href="#DejaVuSans-2e" x="63.623047"/>
       <use xlink:href="#DejaVuSans-36" x="95.410156"/>
       <use xlink:href="#DejaVuSans-34" x="159.033203"/>
       <use xlink:href="#DejaVuSans-37" x="222.65625"/>
       <use xlink:href="#DejaVuSans-35" x="286.279297"/>
      </g>
     </g>
    </g>
    <g id="ytick_5">
     <g id="line2d_17">
      <path d="M 108 303.84 
L 777.6 303.84 
" clip-path="url(#p55853aa29d)" style="fill: none; stroke: #b0b0b0; stroke-width: 0.8; stroke-linecap: square"/>
     </g>
     <g id="line2d_18">
      <g>
       <use xlink:href="#m779d6ed5e1" x="108" y="303.84" style="stroke: #000000; stroke-width: 0.8"/>
      </g>
     </g>
     <g id="text_10">
      <!-- 0.6500 -->
      <g transform="translate(66.009375 307.639219)scale(0.1 -0.1)">
       <use xlink:href="#DejaVuSans-30"/>
       <use xlink:href="#DejaVuSans-2e" x="63.623047"/>
       <use xlink:href="#DejaVuSans-36" x="95.410156"/>
       <use xlink:href="#DejaVuSans-35" x="159.033203"/>
       <use xlink:href="#DejaVuSans-30" x="222.65625"/>
       <use xlink:href="#DejaVuSans-30" x="286.279297"/>
      </g>
     </g>
    </g>
    <g id="ytick_6">
     <g id="line2d_19">
      <path d="M 108 235.89 
L 777.6 235.89 
" clip-path="url(#p55853aa29d)" style="fill: none; stroke: #b0b0b0; stroke-width: 0.8; stroke-linecap: square"/>
     </g>
     <g id="line2d_20">
      <g>
       <use xlink:href="#m779d6ed5e1" x="108" y="235.89" style="stroke: #000000; stroke-width: 0.8"/>
      </g>
     </g>
     <g id="text_11">
      <!-- 0.6525 -->
      <g transform="translate(66.009375 239.689219)scale(0.1 -0.1)">
       <use xlink:href="#DejaVuSans-30"/>
       <use xlink:href="#DejaVuSans-2e" x="63.623047"/>
       <use xlink:href="#DejaVuSans-36" x="95.410156"/>
       <use xlink:href="#DejaVuSans-35" x="159.033203"/>
       <use xlink:href="#DejaVuSans-32" x="222.65625"/>
       <use xlink:href="#DejaVuSans-35" x="286.279297"/>
      </g>
     </g>
    </g>
    <g id="ytick_7">
     <g id="line2d_21">
      <path d="M 108 167.94 
L 777.6 167.94 
" clip-path="url(#p55853aa29d)" style="fill: none; stroke: #b0b0b0; stroke-width: 0.8; stroke-linecap: square"/>
     </g>
     <g id="line2d_22">
      <g>
       <use xlink:href="#m779d6ed5e1" x="108" y="167.94" style="stroke: #000000; stroke-width: 0.8"/>
      </g>
     </g>
     <g id="text_12">
      <!-- 0.6550 -->
      <g transform="translate(66.009375 171.739219)scale(0.1 -0.1)">
       <use xlink:href="#DejaVuSans-30"/>
       <use xlink:href="#DejaVuSans-2e" x="63.623047"/>
       <use xlink:href="#DejaVuSans-36" x="95.410156"/>
       <use xlink:href="#DejaVuSans-35" x="159.033203"/>
       <use xlink:href="#DejaVuSans-35" x="222.65625"/>
       <use xlink:href="#DejaVuSans-30" x="286.279297"/>
      </g>
     </g>
    </g>
    <g id="ytick_8">
     <g id="line2d_23">
      <path d="M 108 99.99 
L 777.6 99.99 
" clip-path="url(#p55853aa29d)" style="fill: none; stroke: #b0b0b0; stroke-width: 0.8; stroke-linecap: square"/>
     </g>
     <g id="line2d_24">
      <g>
       <use xlink:href="#m779d6ed5e1" x="108" y="99.99" style="stroke: #000000; stroke-width: 0.8"/>
      </g>
     </g>
     <g id="text_13">
      <!-- 0.6575 -->
      <g transform="translate(66.009375 103.789219)scale(0.1 -0.1)">
       <use xlink:href="#DejaVuSans-30"/>
       <use xlink:href="#DejaVuSans-2e" x="63.623047"/>
       <use xlink:href="#DejaVuSans-36" x="95.410156"/>
       <use xlink:href="#DejaVuSans-35" x="159.033203"/>
       <use xlink:href="#DejaVuSans-37" x="222.65625"/>
       <use xlink:href="#DejaVuSans-35" x="286.279297"/>
      </g>
     </g>
    </g>
    <g id="text_14">
     <!-- MAP@12 on evaluation set -->
     <g transform="translate(59.929688 425.247656)rotate(-90)scale(0.1 -0.1)">
      <defs>
       <path id="DejaVuSans-4d" d="M 628 4666 
L 1569 4666 
L 2759 1491 
L 3956 4666 
L 4897 4666 
L 4897 0 
L 4281 0 
L 4281 4097 
L 3078 897 
L 2444 897 
L 1241 4097 
L 1241 0 
L 628 0 
L 628 4666 
z
" transform="scale(0.015625)"/>
       <path id="DejaVuSans-41" d="M 2188 4044 
L 1331 1722 
L 3047 1722 
L 2188 4044 
z
M 1831 4666 
L 2547 4666 
L 4325 0 
L 3669 0 
L 3244 1197 
L 1141 1197 
L 716 0 
L 50 0 
L 1831 4666 
z
" transform="scale(0.015625)"/>
       <path id="DejaVuSans-50" d="M 1259 4147 
L 1259 2394 
L 2053 2394 
Q 2494 2394 2734 2622 
Q 2975 2850 2975 3272 
Q 2975 3691 2734 3919 
Q 2494 4147 2053 4147 
L 1259 4147 
z
M 628 4666 
L 2053 4666 
Q 2838 4666 3239 4311 
Q 3641 3956 3641 3272 
Q 3641 2581 3239 2228 
Q 2838 1875 2053 1875 
L 1259 1875 
L 1259 0 
L 628 0 
L 628 4666 
z
" transform="scale(0.015625)"/>
       <path id="DejaVuSans-40" d="M 2381 1678 
Q 2381 1231 2603 976 
Q 2825 722 3213 722 
Q 3597 722 3817 978 
Q 4038 1234 4038 1678 
Q 4038 2116 3813 2373 
Q 3588 2631 3206 2631 
Q 2828 2631 2604 2375 
Q 2381 2119 2381 1678 
z
M 4084 744 
Q 3897 503 3655 389 
Q 3413 275 3091 275 
Q 2553 275 2217 664 
Q 1881 1053 1881 1678 
Q 1881 2303 2218 2693 
Q 2556 3084 3091 3084 
Q 3413 3084 3656 2967 
Q 3900 2850 4084 2613 
L 4084 3022 
L 4531 3022 
L 4531 722 
Q 4988 791 5245 1139 
Q 5503 1488 5503 2041 
Q 5503 2375 5404 2669 
Q 5306 2963 5106 3213 
Q 4781 3622 4314 3839 
Q 3847 4056 3297 4056 
Q 2913 4056 2559 3954 
Q 2206 3853 1906 3653 
Q 1416 3334 1139 2817 
Q 863 2300 863 1697 
Q 863 1200 1042 765 
Q 1222 331 1563 0 
Q 1891 -325 2322 -495 
Q 2753 -666 3244 -666 
Q 3647 -666 4036 -530 
Q 4425 -394 4750 -141 
L 5031 -488 
Q 4641 -791 4180 -952 
Q 3719 -1113 3244 -1113 
Q 2666 -1113 2153 -908 
Q 1641 -703 1241 -313 
Q 841 78 631 592 
Q 422 1106 422 1697 
Q 422 2266 634 2781 
Q 847 3297 1241 3688 
Q 1644 4084 2172 4295 
Q 2700 4506 3291 4506 
Q 3953 4506 4520 4234 
Q 5088 3963 5472 3463 
Q 5706 3156 5829 2797 
Q 5953 2438 5953 2053 
Q 5953 1231 5456 756 
Q 4959 281 4084 263 
L 4084 744 
z
" transform="scale(0.015625)"/>
       <path id="DejaVuSans-31" d="M 794 531 
L 1825 531 
L 1825 4091 
L 703 3866 
L 703 4441 
L 1819 4666 
L 2450 4666 
L 2450 531 
L 3481 531 
L 3481 0 
L 794 0 
L 794 531 
z
" transform="scale(0.015625)"/>
       <path id="DejaVuSans-20" transform="scale(0.015625)"/>
       <path id="DejaVuSans-6f" d="M 1959 3097 
Q 1497 3097 1228 2736 
Q 959 2375 959 1747 
Q 959 1119 1226 758 
Q 1494 397 1959 397 
Q 2419 397 2687 759 
Q 2956 1122 2956 1747 
Q 2956 2369 2687 2733 
Q 2419 3097 1959 3097 
z
M 1959 3584 
Q 2709 3584 3137 3096 
Q 3566 2609 3566 1747 
Q 3566 888 3137 398 
Q 2709 -91 1959 -91 
Q 1206 -91 779 398 
Q 353 888 353 1747 
Q 353 2609 779 3096 
Q 1206 3584 1959 3584 
z
" transform="scale(0.015625)"/>
       <path id="DejaVuSans-6e" d="M 3513 2113 
L 3513 0 
L 2938 0 
L 2938 2094 
Q 2938 2591 2744 2837 
Q 2550 3084 2163 3084 
Q 1697 3084 1428 2787 
Q 1159 2491 1159 1978 
L 1159 0 
L 581 0 
L 581 3500 
L 1159 3500 
L 1159 2956 
Q 1366 3272 1645 3428 
Q 1925 3584 2291 3584 
Q 2894 3584 3203 3211 
Q 3513 2838 3513 2113 
z
" transform="scale(0.015625)"/>
       <path id="DejaVuSans-76" d="M 191 3500 
L 800 3500 
L 1894 563 
L 2988 3500 
L 3597 3500 
L 2284 0 
L 1503 0 
L 191 3500 
z
" transform="scale(0.015625)"/>
       <path id="DejaVuSans-61" d="M 2194 1759 
Q 1497 1759 1228 1600 
Q 959 1441 959 1056 
Q 959 750 1161 570 
Q 1363 391 1709 391 
Q 2188 391 2477 730 
Q 2766 1069 2766 1631 
L 2766 1759 
L 2194 1759 
z
M 3341 1997 
L 3341 0 
L 2766 0 
L 2766 531 
Q 2569 213 2275 61 
Q 1981 -91 1556 -91 
Q 1019 -91 701 211 
Q 384 513 384 1019 
Q 384 1609 779 1909 
Q 1175 2209 1959 2209 
L 2766 2209 
L 2766 2266 
Q 2766 2663 2505 2880 
Q 2244 3097 1772 3097 
Q 1472 3097 1187 3025 
Q 903 2953 641 2809 
L 641 3341 
Q 956 3463 1253 3523 
Q 1550 3584 1831 3584 
Q 2591 3584 2966 3190 
Q 3341 2797 3341 1997 
z
" transform="scale(0.015625)"/>
       <path id="DejaVuSans-6c" d="M 603 4863 
L 1178 4863 
L 1178 0 
L 603 0 
L 603 4863 
z
" transform="scale(0.015625)"/>
       <path id="DejaVuSans-75" d="M 544 1381 
L 544 3500 
L 1119 3500 
L 1119 1403 
Q 1119 906 1312 657 
Q 1506 409 1894 409 
Q 2359 409 2629 706 
Q 2900 1003 2900 1516 
L 2900 3500 
L 3475 3500 
L 3475 0 
L 2900 0 
L 2900 538 
Q 2691 219 2414 64 
Q 2138 -91 1772 -91 
Q 1169 -91 856 284 
Q 544 659 544 1381 
z
M 1991 3584 
L 1991 3584 
z
" transform="scale(0.015625)"/>
       <path id="DejaVuSans-69" d="M 603 3500 
L 1178 3500 
L 1178 0 
L 603 0 
L 603 3500 
z
M 603 4863 
L 1178 4863 
L 1178 4134 
L 603 4134 
L 603 4863 
z
" transform="scale(0.015625)"/>
      </defs>
      <use xlink:href="#DejaVuSans-4d"/>
      <use xlink:href="#DejaVuSans-41" x="86.279297"/>
      <use xlink:href="#DejaVuSans-50" x="154.6875"/>
      <use xlink:href="#DejaVuSans-40" x="214.990234"/>
      <use xlink:href="#DejaVuSans-31" x="314.990234"/>
      <use xlink:href="#DejaVuSans-32" x="378.613281"/>
      <use xlink:href="#DejaVuSans-20" x="442.236328"/>
      <use xlink:href="#DejaVuSans-6f" x="474.023438"/>
      <use xlink:href="#DejaVuSans-6e" x="535.205078"/>
      <use xlink:href="#DejaVuSans-20" x="598.583984"/>
      <use xlink:href="#DejaVuSans-65" x="630.371094"/>
      <use xlink:href="#DejaVuSans-76" x="691.894531"/>
      <use xlink:href="#DejaVuSans-61" x="751.074219"/>
      <use xlink:href="#DejaVuSans-6c" x="812.353516"/>
      <use xlink:href="#DejaVuSans-75" x="840.136719"/>
      <use xlink:href="#DejaVuSans-61" x="903.515625"/>
      <use xlink:href="#DejaVuSans-74" x="964.794922"/>
      <use xlink:href="#DejaVuSans-69" x="1004.003906"/>
      <use xlink:href="#DejaVuSans-6f" x="1031.787109"/>
      <use xlink:href="#DejaVuSans-6e" x="1092.96875"/>
      <use xlink:href="#DejaVuSans-20" x="1156.347656"/>
      <use xlink:href="#DejaVuSans-73" x="1188.134766"/>
      <use xlink:href="#DejaVuSans-65" x="1240.234375"/>
      <use xlink:href="#DejaVuSans-74" x="1301.757812"/>
     </g>
    </g>
   </g>
   <g id="line2d_25">
    <path d="M 138.436364 616.41 
L 170.541195 445.176 
L 202.646026 407.124 
L 234.750858 371.79 
L 266.855689 333.738 
L 298.96052 257.634 
L 331.065352 227.736 
L 363.170183 200.556 
L 395.275014 181.53 
L 427.379846 165.222 
L 459.484677 148.914 
L 491.589508 138.042 
L 523.69434 127.17 
L 555.799171 121.734 
L 587.904003 116.298 
L 620.008834 110.862 
L 652.113665 105.426 
L 684.218497 102.708 
L 716.323328 99.99 
L 747.163636 99.99 
" clip-path="url(#p55853aa29d)" style="fill: none; stroke: #1f77b4; stroke-width: 1.5; stroke-linecap: square"/>
   </g>
   <g id="line2d_26">
    <path d="M 138.436364 621.846 
L 170.541195 442.458 
L 202.646026 401.688 
L 234.750858 374.508 
L 266.855689 333.738 
L 298.96052 271.224 
L 331.065352 233.172 
L 363.170183 203.274 
L 395.275014 184.248 
L 427.379846 165.222 
L 459.484677 151.632 
L 491.589508 138.042 
L 523.69434 129.888 
L 555.799171 124.452 
L 587.904003 119.016 
L 620.008834 113.58 
L 652.113665 110.862 
L 684.218497 102.708 
L 716.323328 102.708 
L 747.163636 99.99 
" clip-path="url(#p55853aa29d)" style="fill: none; stroke: #ff7f0e; stroke-width: 1.5; stroke-linecap: square"/>
   </g>
   <g id="line2d_27">
    <path d="M 138.436364 602.82 
L 170.541195 442.458 
L 202.646026 407.124 
L 234.750858 371.79 
L 266.855689 333.738 
L 298.96052 257.634 
L 331.065352 219.582 
L 363.170183 197.838 
L 395.275014 176.094 
L 427.379846 162.504 
L 459.484677 151.632 
L 491.589508 135.324 
L 523.69434 124.452 
L 555.799171 119.016 
L 587.904003 113.58 
L 620.008834 108.144 
L 652.113665 105.426 
L 684.218497 102.708 
L 716.323328 99.99 
L 747.163636 99.99 
" clip-path="url(#p55853aa29d)" style="fill: none; stroke: #2ca02c; stroke-width: 1.5; stroke-linecap: square"/>
   </g>
   <g id="line2d_28">
    <path d="M 138.436364 627.282 
L 170.541195 442.458 
L 202.646026 404.406 
L 234.750858 377.226 
L 266.855689 339.174 
L 298.96052 263.07 
L 331.065352 230.454 
L 363.170183 203.274 
L 395.275014 181.53 
L 427.379846 165.222 
L 459.484677 154.35 
L 491.589508 138.042 
L 523.69434 129.888 
L 555.799171 124.452 
L 587.904003 119.016 
L 620.008834 113.58 
L 652.113665 108.144 
L 684.218497 102.708 
L 716.323328 99.99 
L 747.163636 99.99 
" clip-path="url(#p55853aa29d)" style="fill: none; stroke: #d62728; stroke-width: 1.5; stroke-linecap: square"/>
   </g>
   <g id="line2d_29">
    <path d="M 138.436364 619.128 
L 170.541195 445.176 
L 202.646026 407.124 
L 234.750858 369.072 
L 266.855689 336.456 
L 298.96052 263.07 
L 331.065352 227.736 
L 363.170183 200.556 
L 395.275014 178.812 
L 427.379846 159.786 
L 459.484677 148.914 
L 491.589508 135.324 
L 523.69434 121.734 
L 555.799171 119.016 
L 587.904003 116.298 
L 620.008834 110.862 
L 652.113665 105.426 
L 684.218497 105.426 
L 716.323328 99.99 
L 747.163636 99.99 
" clip-path="url(#p55853aa29d)" style="fill: none; stroke: #9467bd; stroke-width: 1.5; stroke-linecap: square"/>
   </g>
   <g id="line2d_30">
    <path d="M 138.436364 624.564 
L 170.541195 442.458 
L 202.646026 398.97 
L 234.750858 369.072 
L 266.855689 328.302 
L 298.96052 260.352 
L 331.065352 222.3 
L 363.170183 197.838 
L 395.275014 181.53 
L 427.379846 165.222 
L 459.484677 148.914 
L 491.589508 138.042 
L 523.69434 127.17 
L 555.799171 124.452 
L 587.904003 116.298 
L 620.008834 110.862 
L 652.113665 108.144 
L 684.218497 105.426 
L 716.323328 102.708 
L 747.163636 99.99 
" clip-path="url(#p55853aa29d)" style="fill: none; stroke: #8c564b; stroke-width: 1.5; stroke-linecap: square"/>
   </g>
   <g id="line2d_31">
    <path d="M 138.436364 613.692 
L 170.541195 437.022 
L 202.646026 404.406 
L 234.750858 371.79 
L 266.855689 339.174 
L 298.96052 268.506 
L 331.065352 233.172 
L 363.170183 208.71 
L 395.275014 184.248 
L 427.379846 165.222 
L 459.484677 148.914 
L 491.589508 138.042 
L 523.69434 127.17 
L 555.799171 121.734 
L 587.904003 116.298 
L 620.008834 110.862 
L 652.113665 108.144 
L 684.218497 102.708 
L 716.323328 99.99 
L 747.163636 99.99 
" clip-path="url(#p55853aa29d)" style="fill: none; stroke: #e377c2; stroke-width: 1.5; stroke-linecap: square"/>
   </g>
   <g id="line2d_32">
    <path d="M 138.436364 613.692 
L 170.541195 439.74 
L 202.646026 404.406 
L 234.750858 369.072 
L 266.855689 325.584 
L 298.96052 263.07 
L 331.065352 222.3 
L 363.170183 195.12 
L 395.275014 173.376 
L 427.379846 159.786 
L 459.484677 146.196 
L 491.589508 132.606 
L 523.69434 121.734 
L 555.799171 116.298 
L 587.904003 113.58 
L 620.008834 108.144 
L 652.113665 105.426 
L 684.218497 99.99 
L 716.323328 99.99 
L 747.163636 99.99 
" clip-path="url(#p55853aa29d)" style="fill: none; stroke: #7f7f7f; stroke-width: 1.5; stroke-linecap: square"/>
   </g>
   <g id="patch_3">
    <path d="M 108 630 
L 108 86.4 
" style="fill: none; stroke: #000000; stroke-width: 0.8; stroke-linejoin: miter; stroke-linecap: square"/>
   </g>
   <g id="patch_4">
    <path d="M 777.6 630 
L 777.6 86.4 
" style="fill: none; stroke: #000000; stroke-width: 0.8; stroke-linejoin: miter; stroke-linecap: square"/>
   </g>
   <g id="patch_5">
    <path d="M 108 630 
L 777.6 630 
" style="fill: none; stroke: #000000; stroke-width: 0.8; stroke-linejoin: miter; stroke-linecap: square"/>
   </g>
   <g id="patch_6">
    <path d="M 108 86.4 
L 777.6 86.4 
" style="fill: none; stroke: #000000; stroke-width: 0.8; stroke-linejoin: miter; stroke-linecap: square"/>
   </g>
   <g id="text_15">
    <!-- 1GPU MAP@12 for different configurations -->
    <g transform="translate(315.417188 80.4)scale(0.12 -0.12)">
     <defs>
      <path id="DejaVuSans-47" d="M 3809 666 
L 3809 1919 
L 2778 1919 
L 2778 2438 
L 4434 2438 
L 4434 434 
Q 4069 175 3628 42 
Q 3188 -91 2688 -91 
Q 1594 -91 976 548 
Q 359 1188 359 2328 
Q 359 3472 976 4111 
Q 1594 4750 2688 4750 
Q 3144 4750 3555 4637 
Q 3966 4525 4313 4306 
L 4313 3634 
Q 3963 3931 3569 4081 
Q 3175 4231 2741 4231 
Q 1884 4231 1454 3753 
Q 1025 3275 1025 2328 
Q 1025 1384 1454 906 
Q 1884 428 2741 428 
Q 3075 428 3337 486 
Q 3600 544 3809 666 
z
" transform="scale(0.015625)"/>
      <path id="DejaVuSans-55" d="M 556 4666 
L 1191 4666 
L 1191 1831 
Q 1191 1081 1462 751 
Q 1734 422 2344 422 
Q 2950 422 3222 751 
Q 3494 1081 3494 1831 
L 3494 4666 
L 4128 4666 
L 4128 1753 
Q 4128 841 3676 375 
Q 3225 -91 2344 -91 
Q 1459 -91 1007 375 
Q 556 841 556 1753 
L 556 4666 
z
" transform="scale(0.015625)"/>
      <path id="DejaVuSans-66" d="M 2375 4863 
L 2375 4384 
L 1825 4384 
Q 1516 4384 1395 4259 
Q 1275 4134 1275 3809 
L 1275 3500 
L 2222 3500 
L 2222 3053 
L 1275 3053 
L 1275 0 
L 697 0 
L 697 3053 
L 147 3053 
L 147 3500 
L 697 3500 
L 697 3744 
Q 697 4328 969 4595 
Q 1241 4863 1831 4863 
L 2375 4863 
z
" transform="scale(0.015625)"/>
      <path id="DejaVuSans-72" d="M 2631 2963 
Q 2534 3019 2420 3045 
Q 2306 3072 2169 3072 
Q 1681 3072 1420 2755 
Q 1159 2438 1159 1844 
L 1159 0 
L 581 0 
L 581 3500 
L 1159 3500 
L 1159 2956 
Q 1341 3275 1631 3429 
Q 1922 3584 2338 3584 
Q 2397 3584 2469 3576 
Q 2541 3569 2628 3553 
L 2631 2963 
z
" transform="scale(0.015625)"/>
      <path id="DejaVuSans-64" d="M 2906 2969 
L 2906 4863 
L 3481 4863 
L 3481 0 
L 2906 0 
L 2906 525 
Q 2725 213 2448 61 
Q 2172 -91 1784 -91 
Q 1150 -91 751 415 
Q 353 922 353 1747 
Q 353 2572 751 3078 
Q 1150 3584 1784 3584 
Q 2172 3584 2448 3432 
Q 2725 3281 2906 2969 
z
M 947 1747 
Q 947 1113 1208 752 
Q 1469 391 1925 391 
Q 2381 391 2643 752 
Q 2906 1113 2906 1747 
Q 2906 2381 2643 2742 
Q 2381 3103 1925 3103 
Q 1469 3103 1208 2742 
Q 947 2381 947 1747 
z
" transform="scale(0.015625)"/>
      <path id="DejaVuSans-63" d="M 3122 3366 
L 3122 2828 
Q 2878 2963 2633 3030 
Q 2388 3097 2138 3097 
Q 1578 3097 1268 2742 
Q 959 2388 959 1747 
Q 959 1106 1268 751 
Q 1578 397 2138 397 
Q 2388 397 2633 464 
Q 2878 531 3122 666 
L 3122 134 
Q 2881 22 2623 -34 
Q 2366 -91 2075 -91 
Q 1284 -91 818 406 
Q 353 903 353 1747 
Q 353 2603 823 3093 
Q 1294 3584 2113 3584 
Q 2378 3584 2631 3529 
Q 2884 3475 3122 3366 
z
" transform="scale(0.015625)"/>
      <path id="DejaVuSans-67" d="M 2906 1791 
Q 2906 2416 2648 2759 
Q 2391 3103 1925 3103 
Q 1463 3103 1205 2759 
Q 947 2416 947 1791 
Q 947 1169 1205 825 
Q 1463 481 1925 481 
Q 2391 481 2648 825 
Q 2906 1169 2906 1791 
z
M 3481 434 
Q 3481 -459 3084 -895 
Q 2688 -1331 1869 -1331 
Q 1566 -1331 1297 -1286 
Q 1028 -1241 775 -1147 
L 775 -588 
Q 1028 -725 1275 -790 
Q 1522 -856 1778 -856 
Q 2344 -856 2625 -561 
Q 2906 -266 2906 331 
L 2906 616 
Q 2728 306 2450 153 
Q 2172 0 1784 0 
Q 1141 0 747 490 
Q 353 981 353 1791 
Q 353 2603 747 3093 
Q 1141 3584 1784 3584 
Q 2172 3584 2450 3431 
Q 2728 3278 2906 2969 
L 2906 3500 
L 3481 3500 
L 3481 434 
z
" transform="scale(0.015625)"/>
     </defs>
     <use xlink:href="#DejaVuSans-31"/>
     <use xlink:href="#DejaVuSans-47" x="63.623047"/>
     <use xlink:href="#DejaVuSans-50" x="141.113281"/>
     <use xlink:href="#DejaVuSans-55" x="201.416016"/>
     <use xlink:href="#DejaVuSans-20" x="274.609375"/>
     <use xlink:href="#DejaVuSans-4d" x="306.396484"/>
     <use xlink:href="#DejaVuSans-41" x="392.675781"/>
     <use xlink:href="#DejaVuSans-50" x="461.083984"/>
     <use xlink:href="#DejaVuSans-40" x="521.386719"/>
     <use xlink:href="#DejaVuSans-31" x="621.386719"/>
     <use xlink:href="#DejaVuSans-32" x="685.009766"/>
     <use xlink:href="#DejaVuSans-20" x="748.632812"/>
     <use xlink:href="#DejaVuSans-66" x="780.419922"/>
     <use xlink:href="#DejaVuSans-6f" x="815.625"/>
     <use xlink:href="#DejaVuSans-72" x="876.806641"/>
     <use xlink:href="#DejaVuSans-20" x="917.919922"/>
     <use xlink:href="#DejaVuSans-64" x="949.707031"/>
     <use xlink:href="#DejaVuSans-69" x="1013.183594"/>
     <use xlink:href="#DejaVuSans-66" x="1040.966797"/>
     <use xlink:href="#DejaVuSans-66" x="1076.171875"/>
     <use xlink:href="#DejaVuSans-65" x="1111.376953"/>
     <use xlink:href="#DejaVuSans-72" x="1172.900391"/>
     <use xlink:href="#DejaVuSans-65" x="1211.763672"/>
     <use xlink:href="#DejaVuSans-6e" x="1273.287109"/>
     <use xlink:href="#DejaVuSans-74" x="1336.666016"/>
     <use xlink:href="#DejaVuSans-20" x="1375.875"/>
     <use xlink:href="#DejaVuSans-63" x="1407.662109"/>
     <use xlink:href="#DejaVuSans-6f" x="1462.642578"/>
     <use xlink:href="#DejaVuSans-6e" x="1523.824219"/>
     <use xlink:href="#DejaVuSans-66" x="1587.203125"/>
     <use xlink:href="#DejaVuSans-69" x="1622.408203"/>
     <use xlink:href="#DejaVuSans-67" x="1650.191406"/>
     <use xlink:href="#DejaVuSans-75" x="1713.667969"/>
     <use xlink:href="#DejaVuSans-72" x="1777.046875"/>
     <use xlink:href="#DejaVuSans-61" x="1818.160156"/>
     <use xlink:href="#DejaVuSans-74" x="1879.439453"/>
     <use xlink:href="#DejaVuSans-69" x="1918.648438"/>
     <use xlink:href="#DejaVuSans-6f" x="1946.431641"/>
     <use xlink:href="#DejaVuSans-6e" x="2007.613281"/>
     <use xlink:href="#DejaVuSans-73" x="2070.992188"/>
    </g>
   </g>
   <g id="legend_1">
    <g id="patch_7">
     <path d="M 115 211.825 
L 248.832812 211.825 
Q 250.832812 211.825 250.832812 209.825 
L 250.832812 93.4 
Q 250.832812 91.4 248.832812 91.4 
L 115 91.4 
Q 113 91.4 113 93.4 
L 113 209.825 
Q 113 211.825 115 211.825 
z
" style="fill: #ffffff; opacity: 0.8; stroke: #cccccc; stroke-linejoin: miter"/>
    </g>
    <g id="line2d_33">
     <path d="M 117 99.498437 
L 127 99.498437 
L 137 99.498437 
" style="fill: none; stroke: #1f77b4; stroke-width: 1.5; stroke-linecap: square"/>
    </g>
    <g id="text_16">
     <!-- DGX A100,TF32 -->
     <g transform="translate(145 102.998437)scale(0.1 -0.1)">
      <defs>
       <path id="DejaVuSans-44" d="M 1259 4147 
L 1259 519 
L 2022 519 
Q 2988 519 3436 956 
Q 3884 1394 3884 2338 
Q 3884 3275 3436 3711 
Q 2988 4147 2022 4147 
L 1259 4147 
z
M 628 4666 
L 1925 4666 
Q 3281 4666 3915 4102 
Q 4550 3538 4550 2338 
Q 4550 1131 3912 565 
Q 3275 0 1925 0 
L 628 0 
L 628 4666 
z
" transform="scale(0.015625)"/>
       <path id="DejaVuSans-58" d="M 403 4666 
L 1081 4666 
L 2241 2931 
L 3406 4666 
L 4084 4666 
L 2584 2425 
L 4184 0 
L 3506 0 
L 2194 1984 
L 872 0 
L 191 0 
L 1856 2491 
L 403 4666 
z
" transform="scale(0.015625)"/>
       <path id="DejaVuSans-2c" d="M 750 794 
L 1409 794 
L 1409 256 
L 897 -744 
L 494 -744 
L 750 256 
L 750 794 
z
" transform="scale(0.015625)"/>
       <path id="DejaVuSans-54" d="M -19 4666 
L 3928 4666 
L 3928 4134 
L 2272 4134 
L 2272 0 
L 1638 0 
L 1638 4134 
L -19 4134 
L -19 4666 
z
" transform="scale(0.015625)"/>
       <path id="DejaVuSans-46" d="M 628 4666 
L 3309 4666 
L 3309 4134 
L 1259 4134 
L 1259 2759 
L 3109 2759 
L 3109 2228 
L 1259 2228 
L 1259 0 
L 628 0 
L 628 4666 
z
" transform="scale(0.015625)"/>
       <path id="DejaVuSans-33" d="M 2597 2516 
Q 3050 2419 3304 2112 
Q 3559 1806 3559 1356 
Q 3559 666 3084 287 
Q 2609 -91 1734 -91 
Q 1441 -91 1130 -33 
Q 819 25 488 141 
L 488 750 
Q 750 597 1062 519 
Q 1375 441 1716 441 
Q 2309 441 2620 675 
Q 2931 909 2931 1356 
Q 2931 1769 2642 2001 
Q 2353 2234 1838 2234 
L 1294 2234 
L 1294 2753 
L 1863 2753 
Q 2328 2753 2575 2939 
Q 2822 3125 2822 3475 
Q 2822 3834 2567 4026 
Q 2313 4219 1838 4219 
Q 1578 4219 1281 4162 
Q 984 4106 628 3988 
L 628 4550 
Q 988 4650 1302 4700 
Q 1616 4750 1894 4750 
Q 2613 4750 3031 4423 
Q 3450 4097 3450 3541 
Q 3450 3153 3228 2886 
Q 3006 2619 2597 2516 
z
" transform="scale(0.015625)"/>
      </defs>
      <use xlink:href="#DejaVuSans-44"/>
      <use xlink:href="#DejaVuSans-47" x="77.001953"/>
      <use xlink:href="#DejaVuSans-58" x="154.492188"/>
      <use xlink:href="#DejaVuSans-20" x="222.998047"/>
      <use xlink:href="#DejaVuSans-41" x="254.785156"/>
      <use xlink:href="#DejaVuSans-31" x="323.193359"/>
      <use xlink:href="#DejaVuSans-30" x="386.816406"/>
      <use xlink:href="#DejaVuSans-30" x="450.439453"/>
      <use xlink:href="#DejaVuSans-2c" x="514.0625"/>
      <use xlink:href="#DejaVuSans-54" x="545.849609"/>
      <use xlink:href="#DejaVuSans-46" x="606.933594"/>
      <use xlink:href="#DejaVuSans-33" x="664.453125"/>
      <use xlink:href="#DejaVuSans-32" x="728.076172"/>
     </g>
    </g>
    <g id="line2d_34">
     <path d="M 117 114.176562 
L 127 114.176562 
L 137 114.176562 
" style="fill: none; stroke: #ff7f0e; stroke-width: 1.5; stroke-linecap: square"/>
    </g>
    <g id="text_17">
     <!-- DGX A100,AMP -->
     <g transform="translate(145 117.676562)scale(0.1 -0.1)">
      <use xlink:href="#DejaVuSans-44"/>
      <use xlink:href="#DejaVuSans-47" x="77.001953"/>
      <use xlink:href="#DejaVuSans-58" x="154.492188"/>
      <use xlink:href="#DejaVuSans-20" x="222.998047"/>
      <use xlink:href="#DejaVuSans-41" x="254.785156"/>
      <use xlink:href="#DejaVuSans-31" x="323.193359"/>
      <use xlink:href="#DejaVuSans-30" x="386.816406"/>
      <use xlink:href="#DejaVuSans-30" x="450.439453"/>
      <use xlink:href="#DejaVuSans-2c" x="514.0625"/>
      <use xlink:href="#DejaVuSans-41" x="545.849609"/>
      <use xlink:href="#DejaVuSans-4d" x="614.257812"/>
      <use xlink:href="#DejaVuSans-50" x="700.537109"/>
     </g>
    </g>
    <g id="line2d_35">
     <path d="M 117 128.854687 
L 127 128.854687 
L 137 128.854687 
" style="fill: none; stroke: #2ca02c; stroke-width: 1.5; stroke-linecap: square"/>
    </g>
    <g id="text_18">
     <!-- DGX A100,TF32,XLA -->
     <g transform="translate(145 132.354687)scale(0.1 -0.1)">
      <defs>
       <path id="DejaVuSans-4c" d="M 628 4666 
L 1259 4666 
L 1259 531 
L 3531 531 
L 3531 0 
L 628 0 
L 628 4666 
z
" transform="scale(0.015625)"/>
      </defs>
      <use xlink:href="#DejaVuSans-44"/>
      <use xlink:href="#DejaVuSans-47" x="77.001953"/>
      <use xlink:href="#DejaVuSans-58" x="154.492188"/>
      <use xlink:href="#DejaVuSans-20" x="222.998047"/>
      <use xlink:href="#DejaVuSans-41" x="254.785156"/>
      <use xlink:href="#DejaVuSans-31" x="323.193359"/>
      <use xlink:href="#DejaVuSans-30" x="386.816406"/>
      <use xlink:href="#DejaVuSans-30" x="450.439453"/>
      <use xlink:href="#DejaVuSans-2c" x="514.0625"/>
      <use xlink:href="#DejaVuSans-54" x="545.849609"/>
      <use xlink:href="#DejaVuSans-46" x="606.933594"/>
      <use xlink:href="#DejaVuSans-33" x="664.453125"/>
      <use xlink:href="#DejaVuSans-32" x="728.076172"/>
      <use xlink:href="#DejaVuSans-2c" x="791.699219"/>
      <use xlink:href="#DejaVuSans-58" x="823.486328"/>
      <use xlink:href="#DejaVuSans-4c" x="891.992188"/>
      <use xlink:href="#DejaVuSans-41" x="949.955078"/>
     </g>
    </g>
    <g id="line2d_36">
     <path d="M 117 143.532812 
L 127 143.532812 
L 137 143.532812 
" style="fill: none; stroke: #d62728; stroke-width: 1.5; stroke-linecap: square"/>
    </g>
    <g id="text_19">
     <!-- DGX A100,AMP,XLA -->
     <g transform="translate(145 147.032812)scale(0.1 -0.1)">
      <use xlink:href="#DejaVuSans-44"/>
      <use xlink:href="#DejaVuSans-47" x="77.001953"/>
      <use xlink:href="#DejaVuSans-58" x="154.492188"/>
      <use xlink:href="#DejaVuSans-20" x="222.998047"/>
      <use xlink:href="#DejaVuSans-41" x="254.785156"/>
      <use xlink:href="#DejaVuSans-31" x="323.193359"/>
      <use xlink:href="#DejaVuSans-30" x="386.816406"/>
      <use xlink:href="#DejaVuSans-30" x="450.439453"/>
      <use xlink:href="#DejaVuSans-2c" x="514.0625"/>
      <use xlink:href="#DejaVuSans-41" x="545.849609"/>
      <use xlink:href="#DejaVuSans-4d" x="614.257812"/>
      <use xlink:href="#DejaVuSans-50" x="700.537109"/>
      <use xlink:href="#DejaVuSans-2c" x="760.839844"/>
      <use xlink:href="#DejaVuSans-58" x="792.626953"/>
      <use xlink:href="#DejaVuSans-4c" x="861.132812"/>
      <use xlink:href="#DejaVuSans-41" x="919.095703"/>
     </g>
    </g>
    <g id="line2d_37">
     <path d="M 117 158.210937 
L 127 158.210937 
L 137 158.210937 
" style="fill: none; stroke: #9467bd; stroke-width: 1.5; stroke-linecap: square"/>
    </g>
    <g id="text_20">
     <!-- DGX V100,FP32 -->
     <g transform="translate(145 161.710937)scale(0.1 -0.1)">
      <defs>
       <path id="DejaVuSans-56" d="M 1831 0 
L 50 4666 
L 709 4666 
L 2188 738 
L 3669 4666 
L 4325 4666 
L 2547 0 
L 1831 0 
z
" transform="scale(0.015625)"/>
      </defs>
      <use xlink:href="#DejaVuSans-44"/>
      <use xlink:href="#DejaVuSans-47" x="77.001953"/>
      <use xlink:href="#DejaVuSans-58" x="154.492188"/>
      <use xlink:href="#DejaVuSans-20" x="222.998047"/>
      <use xlink:href="#DejaVuSans-56" x="254.785156"/>
      <use xlink:href="#DejaVuSans-31" x="323.193359"/>
      <use xlink:href="#DejaVuSans-30" x="386.816406"/>
      <use xlink:href="#DejaVuSans-30" x="450.439453"/>
      <use xlink:href="#DejaVuSans-2c" x="514.0625"/>
      <use xlink:href="#DejaVuSans-46" x="545.849609"/>
      <use xlink:href="#DejaVuSans-50" x="603.369141"/>
      <use xlink:href="#DejaVuSans-33" x="663.671875"/>
      <use xlink:href="#DejaVuSans-32" x="727.294922"/>
     </g>
    </g>
    <g id="line2d_38">
     <path d="M 117 172.889062 
L 127 172.889062 
L 137 172.889062 
" style="fill: none; stroke: #8c564b; stroke-width: 1.5; stroke-linecap: square"/>
    </g>
    <g id="text_21">
     <!-- DGX V100,AMP -->
     <g transform="translate(145 176.389062)scale(0.1 -0.1)">
      <use xlink:href="#DejaVuSans-44"/>
      <use xlink:href="#DejaVuSans-47" x="77.001953"/>
      <use xlink:href="#DejaVuSans-58" x="154.492188"/>
      <use xlink:href="#DejaVuSans-20" x="222.998047"/>
      <use xlink:href="#DejaVuSans-56" x="254.785156"/>
      <use xlink:href="#DejaVuSans-31" x="323.193359"/>
      <use xlink:href="#DejaVuSans-30" x="386.816406"/>
      <use xlink:href="#DejaVuSans-30" x="450.439453"/>
      <use xlink:href="#DejaVuSans-2c" x="514.0625"/>
      <use xlink:href="#DejaVuSans-41" x="545.849609"/>
      <use xlink:href="#DejaVuSans-4d" x="614.257812"/>
      <use xlink:href="#DejaVuSans-50" x="700.537109"/>
     </g>
    </g>
    <g id="line2d_39">
     <path d="M 117 187.567187 
L 127 187.567187 
L 137 187.567187 
" style="fill: none; stroke: #e377c2; stroke-width: 1.5; stroke-linecap: square"/>
    </g>
    <g id="text_22">
     <!-- DGX V100,FP32,XLA -->
     <g transform="translate(145 191.067187)scale(0.1 -0.1)">
      <use xlink:href="#DejaVuSans-44"/>
      <use xlink:href="#DejaVuSans-47" x="77.001953"/>
      <use xlink:href="#DejaVuSans-58" x="154.492188"/>
      <use xlink:href="#DejaVuSans-20" x="222.998047"/>
      <use xlink:href="#DejaVuSans-56" x="254.785156"/>
      <use xlink:href="#DejaVuSans-31" x="323.193359"/>
      <use xlink:href="#DejaVuSans-30" x="386.816406"/>
      <use xlink:href="#DejaVuSans-30" x="450.439453"/>
      <use xlink:href="#DejaVuSans-2c" x="514.0625"/>
      <use xlink:href="#DejaVuSans-46" x="545.849609"/>
      <use xlink:href="#DejaVuSans-50" x="603.369141"/>
      <use xlink:href="#DejaVuSans-33" x="663.671875"/>
      <use xlink:href="#DejaVuSans-32" x="727.294922"/>
      <use xlink:href="#DejaVuSans-2c" x="790.917969"/>
      <use xlink:href="#DejaVuSans-58" x="822.705078"/>
      <use xlink:href="#DejaVuSans-4c" x="891.210938"/>
      <use xlink:href="#DejaVuSans-41" x="949.173828"/>
     </g>
    </g>
    <g id="line2d_40">
     <path d="M 117 202.245312 
L 127 202.245312 
L 137 202.245312 
" style="fill: none; stroke: #7f7f7f; stroke-width: 1.5; stroke-linecap: square"/>
    </g>
    <g id="text_23">
     <!-- DGX V100,AMP,XLA -->
     <g transform="translate(145 205.745312)scale(0.1 -0.1)">
      <use xlink:href="#DejaVuSans-44"/>
      <use xlink:href="#DejaVuSans-47" x="77.001953"/>
      <use xlink:href="#DejaVuSans-58" x="154.492188"/>
      <use xlink:href="#DejaVuSans-20" x="222.998047"/>
      <use xlink:href="#DejaVuSans-56" x="254.785156"/>
      <use xlink:href="#DejaVuSans-31" x="323.193359"/>
      <use xlink:href="#DejaVuSans-30" x="386.816406"/>
      <use xlink:href="#DejaVuSans-30" x="450.439453"/>
      <use xlink:href="#DejaVuSans-2c" x="514.0625"/>
      <use xlink:href="#DejaVuSans-41" x="545.849609"/>
      <use xlink:href="#DejaVuSans-4d" x="614.257812"/>
      <use xlink:href="#DejaVuSans-50" x="700.537109"/>
      <use xlink:href="#DejaVuSans-2c" x="760.839844"/>
      <use xlink:href="#DejaVuSans-58" x="792.626953"/>
      <use xlink:href="#DejaVuSans-4c" x="861.132812"/>
      <use xlink:href="#DejaVuSans-41" x="919.095703"/>
     </g>
    </g>
   </g>
  </g>
 </g>
 <defs>
  <clipPath id="p55853aa29d">
   <rect x="108" y="86.4" width="669.6" height="543.6"/>
  </clipPath>
 </defs>
</svg>
