<?xml version="1.0" encoding="utf-8" standalone="no"?>
<!DOCTYPE svg PUBLIC "-//W3C//DTD SVG 1.1//EN"
  "http://www.w3.org/Graphics/SVG/1.1/DTD/svg11.dtd">
<svg height="720pt" version="1.1" viewBox="0 0 864 720" width="864pt" xmlns="http://www.w3.org/2000/svg" xmlns:xlink="http://www.w3.org/1999/xlink">
 <metadata>
  <rdf:RDF xmlns:cc="http://creativecommons.org/ns#" xmlns:dc="http://purl.org/dc/elements/1.1/" xmlns:rdf="http://www.w3.org/1999/02/22-rdf-syntax-ns#">
   <cc:Work>
    <dc:type rdf:resource="http://purl.org/dc/dcmitype/StillImage"/>
    <dc:date>2021-10-05T12:19:30.255623</dc:date>
    <dc:format>image/svg+xml</dc:format>
    <dc:creator>
     <cc:Agent>
      <dc:title>Matplotlib v3.4.3, https://matplotlib.org/</dc:title>
     </cc:Agent>
    </dc:creator>
   </cc:Work>
  </rdf:RDF>
 </metadata>
 <defs>
  <style type="text/css">*{stroke-linecap:butt;stroke-linejoin:round;}</style>
 </defs>
 <g id="figure_1">
  <g id="patch_1">
   <path d="M 0 720 
L 864 720 
L 864 0 
L 0 0 
z
" style="fill:none;"/>
  </g>
  <g id="axes_1">
   <g id="patch_2">
    <path d="M 108 630 
L 777.6 630 
L 777.6 86.4 
L 108 86.4 
z
" style="fill:#ffffff;"/>
   </g>
   <g id="matplotlib.axis_1">
    <g id="xtick_1">
     <g id="line2d_1">
      <path clip-path="url(#p9c83851645)" d="M 246.609366 630 
L 246.609366 86.4 
" style="fill:none;stroke:#b0b0b0;stroke-linecap:square;stroke-width:0.8;"/>
     </g>
     <g id="line2d_2">
      <defs>
       <path d="M 0 0 
L 0 3.5 
" id="m5cc8c0508b" style="stroke:#000000;stroke-width:0.8;"/>
      </defs>
      <g>
       <use style="stroke:#000000;stroke-width:0.8;" x="246.609366" xlink:href="#m5cc8c0508b" y="630"/>
      </g>
     </g>
     <g id="text_1">
      <!-- 2000 -->
      <g transform="translate(233.884366 644.598438)scale(0.1 -0.1)">
       <defs>
        <path d="M 1228 531 
L 3431 531 
L 3431 0 
L 469 0 
L 469 531 
Q 828 903 1448 1529 
Q 2069 2156 2228 2338 
Q 2531 2678 2651 2914 
Q 2772 3150 2772 3378 
Q 2772 3750 2511 3984 
Q 2250 4219 1831 4219 
Q 1534 4219 1204 4116 
Q 875 4013 500 3803 
L 500 4441 
Q 881 4594 1212 4672 
Q 1544 4750 1819 4750 
Q 2544 4750 2975 4387 
Q 3406 4025 3406 3419 
Q 3406 3131 3298 2873 
Q 3191 2616 2906 2266 
Q 2828 2175 2409 1742 
Q 1991 1309 1228 531 
z
" id="DejaVuSans-32" transform="scale(0.015625)"/>
        <path d="M 2034 4250 
Q 1547 4250 1301 3770 
Q 1056 3291 1056 2328 
Q 1056 1369 1301 889 
Q 1547 409 2034 409 
Q 2525 409 2770 889 
Q 3016 1369 3016 2328 
Q 3016 3291 2770 3770 
Q 2525 4250 2034 4250 
z
M 2034 4750 
Q 2819 4750 3233 4129 
Q 3647 3509 3647 2328 
Q 3647 1150 3233 529 
Q 2819 -91 2034 -91 
Q 1250 -91 836 529 
Q 422 1150 422 2328 
Q 422 3509 836 4129 
Q 1250 4750 2034 4750 
z
" id="DejaVuSans-30" transform="scale(0.015625)"/>
       </defs>
       <use xlink:href="#DejaVuSans-32"/>
       <use x="63.623047" xlink:href="#DejaVuSans-30"/>
       <use x="127.246094" xlink:href="#DejaVuSans-30"/>
       <use x="190.869141" xlink:href="#DejaVuSans-30"/>
      </g>
     </g>
    </g>
    <g id="xtick_2">
     <g id="line2d_3">
      <path clip-path="url(#p9c83851645)" d="M 386.820646 630 
L 386.820646 86.4 
" style="fill:none;stroke:#b0b0b0;stroke-linecap:square;stroke-width:0.8;"/>
     </g>
     <g id="line2d_4">
      <g>
       <use style="stroke:#000000;stroke-width:0.8;" x="386.820646" xlink:href="#m5cc8c0508b" y="630"/>
      </g>
     </g>
     <g id="text_2">
      <!-- 4000 -->
      <g transform="translate(374.095646 644.598438)scale(0.1 -0.1)">
       <defs>
        <path d="M 2419 4116 
L 825 1625 
L 2419 1625 
L 2419 4116 
z
M 2253 4666 
L 3047 4666 
L 3047 1625 
L 3713 1625 
L 3713 1100 
L 3047 1100 
L 3047 0 
L 2419 0 
L 2419 1100 
L 313 1100 
L 313 1709 
L 2253 4666 
z
" id="DejaVuSans-34" transform="scale(0.015625)"/>
       </defs>
       <use xlink:href="#DejaVuSans-34"/>
       <use x="63.623047" xlink:href="#DejaVuSans-30"/>
       <use x="127.246094" xlink:href="#DejaVuSans-30"/>
       <use x="190.869141" xlink:href="#DejaVuSans-30"/>
      </g>
     </g>
    </g>
    <g id="xtick_3">
     <g id="line2d_5">
      <path clip-path="url(#p9c83851645)" d="M 527.031927 630 
L 527.031927 86.4 
" style="fill:none;stroke:#b0b0b0;stroke-linecap:square;stroke-width:0.8;"/>
     </g>
     <g id="line2d_6">
      <g>
       <use style="stroke:#000000;stroke-width:0.8;" x="527.031927" xlink:href="#m5cc8c0508b" y="630"/>
      </g>
     </g>
     <g id="text_3">
      <!-- 6000 -->
      <g transform="translate(514.306927 644.598438)scale(0.1 -0.1)">
       <defs>
        <path d="M 2113 2584 
Q 1688 2584 1439 2293 
Q 1191 2003 1191 1497 
Q 1191 994 1439 701 
Q 1688 409 2113 409 
Q 2538 409 2786 701 
Q 3034 994 3034 1497 
Q 3034 2003 2786 2293 
Q 2538 2584 2113 2584 
z
M 3366 4563 
L 3366 3988 
Q 3128 4100 2886 4159 
Q 2644 4219 2406 4219 
Q 1781 4219 1451 3797 
Q 1122 3375 1075 2522 
Q 1259 2794 1537 2939 
Q 1816 3084 2150 3084 
Q 2853 3084 3261 2657 
Q 3669 2231 3669 1497 
Q 3669 778 3244 343 
Q 2819 -91 2113 -91 
Q 1303 -91 875 529 
Q 447 1150 447 2328 
Q 447 3434 972 4092 
Q 1497 4750 2381 4750 
Q 2619 4750 2861 4703 
Q 3103 4656 3366 4563 
z
" id="DejaVuSans-36" transform="scale(0.015625)"/>
       </defs>
       <use xlink:href="#DejaVuSans-36"/>
       <use x="63.623047" xlink:href="#DejaVuSans-30"/>
       <use x="127.246094" xlink:href="#DejaVuSans-30"/>
       <use x="190.869141" xlink:href="#DejaVuSans-30"/>
      </g>
     </g>
    </g>
    <g id="xtick_4">
     <g id="line2d_7">
      <path clip-path="url(#p9c83851645)" d="M 667.243207 630 
L 667.243207 86.4 
" style="fill:none;stroke:#b0b0b0;stroke-linecap:square;stroke-width:0.8;"/>
     </g>
     <g id="line2d_8">
      <g>
       <use style="stroke:#000000;stroke-width:0.8;" x="667.243207" xlink:href="#m5cc8c0508b" y="630"/>
      </g>
     </g>
     <g id="text_4">
      <!-- 8000 -->
      <g transform="translate(654.518207 644.598438)scale(0.1 -0.1)">
       <defs>
        <path d="M 2034 2216 
Q 1584 2216 1326 1975 
Q 1069 1734 1069 1313 
Q 1069 891 1326 650 
Q 1584 409 2034 409 
Q 2484 409 2743 651 
Q 3003 894 3003 1313 
Q 3003 1734 2745 1975 
Q 2488 2216 2034 2216 
z
M 1403 2484 
Q 997 2584 770 2862 
Q 544 3141 544 3541 
Q 544 4100 942 4425 
Q 1341 4750 2034 4750 
Q 2731 4750 3128 4425 
Q 3525 4100 3525 3541 
Q 3525 3141 3298 2862 
Q 3072 2584 2669 2484 
Q 3125 2378 3379 2068 
Q 3634 1759 3634 1313 
Q 3634 634 3220 271 
Q 2806 -91 2034 -91 
Q 1263 -91 848 271 
Q 434 634 434 1313 
Q 434 1759 690 2068 
Q 947 2378 1403 2484 
z
M 1172 3481 
Q 1172 3119 1398 2916 
Q 1625 2713 2034 2713 
Q 2441 2713 2670 2916 
Q 2900 3119 2900 3481 
Q 2900 3844 2670 4047 
Q 2441 4250 2034 4250 
Q 1625 4250 1398 4047 
Q 1172 3844 1172 3481 
z
" id="DejaVuSans-38" transform="scale(0.015625)"/>
       </defs>
       <use xlink:href="#DejaVuSans-38"/>
       <use x="63.623047" xlink:href="#DejaVuSans-30"/>
       <use x="127.246094" xlink:href="#DejaVuSans-30"/>
       <use x="190.869141" xlink:href="#DejaVuSans-30"/>
      </g>
     </g>
    </g>
    <g id="text_5">
     <!-- step -->
     <g transform="translate(431.984375 658.276562)scale(0.1 -0.1)">
      <defs>
       <path d="M 2834 3397 
L 2834 2853 
Q 2591 2978 2328 3040 
Q 2066 3103 1784 3103 
Q 1356 3103 1142 2972 
Q 928 2841 928 2578 
Q 928 2378 1081 2264 
Q 1234 2150 1697 2047 
L 1894 2003 
Q 2506 1872 2764 1633 
Q 3022 1394 3022 966 
Q 3022 478 2636 193 
Q 2250 -91 1575 -91 
Q 1294 -91 989 -36 
Q 684 19 347 128 
L 347 722 
Q 666 556 975 473 
Q 1284 391 1588 391 
Q 1994 391 2212 530 
Q 2431 669 2431 922 
Q 2431 1156 2273 1281 
Q 2116 1406 1581 1522 
L 1381 1569 
Q 847 1681 609 1914 
Q 372 2147 372 2553 
Q 372 3047 722 3315 
Q 1072 3584 1716 3584 
Q 2034 3584 2315 3537 
Q 2597 3491 2834 3397 
z
" id="DejaVuSans-73" transform="scale(0.015625)"/>
       <path d="M 1172 4494 
L 1172 3500 
L 2356 3500 
L 2356 3053 
L 1172 3053 
L 1172 1153 
Q 1172 725 1289 603 
Q 1406 481 1766 481 
L 2356 481 
L 2356 0 
L 1766 0 
Q 1100 0 847 248 
Q 594 497 594 1153 
L 594 3053 
L 172 3053 
L 172 3500 
L 594 3500 
L 594 4494 
L 1172 4494 
z
" id="DejaVuSans-74" transform="scale(0.015625)"/>
       <path d="M 3597 1894 
L 3597 1613 
L 953 1613 
Q 991 1019 1311 708 
Q 1631 397 2203 397 
Q 2534 397 2845 478 
Q 3156 559 3463 722 
L 3463 178 
Q 3153 47 2828 -22 
Q 2503 -91 2169 -91 
Q 1331 -91 842 396 
Q 353 884 353 1716 
Q 353 2575 817 3079 
Q 1281 3584 2069 3584 
Q 2775 3584 3186 3129 
Q 3597 2675 3597 1894 
z
M 3022 2063 
Q 3016 2534 2758 2815 
Q 2500 3097 2075 3097 
Q 1594 3097 1305 2825 
Q 1016 2553 972 2059 
L 3022 2063 
z
" id="DejaVuSans-65" transform="scale(0.015625)"/>
       <path d="M 1159 525 
L 1159 -1331 
L 581 -1331 
L 581 3500 
L 1159 3500 
L 1159 2969 
Q 1341 3281 1617 3432 
Q 1894 3584 2278 3584 
Q 2916 3584 3314 3078 
Q 3713 2572 3713 1747 
Q 3713 922 3314 415 
Q 2916 -91 2278 -91 
Q 1894 -91 1617 61 
Q 1341 213 1159 525 
z
M 3116 1747 
Q 3116 2381 2855 2742 
Q 2594 3103 2138 3103 
Q 1681 3103 1420 2742 
Q 1159 2381 1159 1747 
Q 1159 1113 1420 752 
Q 1681 391 2138 391 
Q 2594 391 2855 752 
Q 3116 1113 3116 1747 
z
" id="DejaVuSans-70" transform="scale(0.015625)"/>
      </defs>
      <use xlink:href="#DejaVuSans-73"/>
      <use x="52.099609" xlink:href="#DejaVuSans-74"/>
      <use x="91.308594" xlink:href="#DejaVuSans-65"/>
      <use x="152.832031" xlink:href="#DejaVuSans-70"/>
     </g>
    </g>
   </g>
   <g id="matplotlib.axis_2">
    <g id="ytick_1">
     <g id="line2d_9">
      <path clip-path="url(#p9c83851645)" d="M 108 588.184615 
L 777.6 588.184615 
" style="fill:none;stroke:#b0b0b0;stroke-linecap:square;stroke-width:0.8;"/>
     </g>
     <g id="line2d_10">
      <defs>
       <path d="M 0 0 
L -3.5 0 
" id="m36a7ab32b1" style="stroke:#000000;stroke-width:0.8;"/>
      </defs>
      <g>
       <use style="stroke:#000000;stroke-width:0.8;" x="108" xlink:href="#m36a7ab32b1" y="588.184615"/>
      </g>
     </g>
     <g id="text_6">
      <!-- 0.646 -->
      <g transform="translate(72.371875 591.983834)scale(0.1 -0.1)">
       <defs>
        <path d="M 684 794 
L 1344 794 
L 1344 0 
L 684 0 
L 684 794 
z
" id="DejaVuSans-2e" transform="scale(0.015625)"/>
       </defs>
       <use xlink:href="#DejaVuSans-30"/>
       <use x="63.623047" xlink:href="#DejaVuSans-2e"/>
       <use x="95.410156" xlink:href="#DejaVuSans-36"/>
       <use x="159.033203" xlink:href="#DejaVuSans-34"/>
       <use x="222.65625" xlink:href="#DejaVuSans-36"/>
      </g>
     </g>
    </g>
    <g id="ytick_2">
     <g id="line2d_11">
      <path clip-path="url(#p9c83851645)" d="M 108 504.553846 
L 777.6 504.553846 
" style="fill:none;stroke:#b0b0b0;stroke-linecap:square;stroke-width:0.8;"/>
     </g>
     <g id="line2d_12">
      <g>
       <use style="stroke:#000000;stroke-width:0.8;" x="108" xlink:href="#m36a7ab32b1" y="504.553846"/>
      </g>
     </g>
     <g id="text_7">
      <!-- 0.648 -->
      <g transform="translate(72.371875 508.353065)scale(0.1 -0.1)">
       <use xlink:href="#DejaVuSans-30"/>
       <use x="63.623047" xlink:href="#DejaVuSans-2e"/>
       <use x="95.410156" xlink:href="#DejaVuSans-36"/>
       <use x="159.033203" xlink:href="#DejaVuSans-34"/>
       <use x="222.65625" xlink:href="#DejaVuSans-38"/>
      </g>
     </g>
    </g>
    <g id="ytick_3">
     <g id="line2d_13">
      <path clip-path="url(#p9c83851645)" d="M 108 420.923077 
L 777.6 420.923077 
" style="fill:none;stroke:#b0b0b0;stroke-linecap:square;stroke-width:0.8;"/>
     </g>
     <g id="line2d_14">
      <g>
       <use style="stroke:#000000;stroke-width:0.8;" x="108" xlink:href="#m36a7ab32b1" y="420.923077"/>
      </g>
     </g>
     <g id="text_8">
      <!-- 0.650 -->
      <g transform="translate(72.371875 424.722296)scale(0.1 -0.1)">
       <defs>
        <path d="M 691 4666 
L 3169 4666 
L 3169 4134 
L 1269 4134 
L 1269 2991 
Q 1406 3038 1543 3061 
Q 1681 3084 1819 3084 
Q 2600 3084 3056 2656 
Q 3513 2228 3513 1497 
Q 3513 744 3044 326 
Q 2575 -91 1722 -91 
Q 1428 -91 1123 -41 
Q 819 9 494 109 
L 494 744 
Q 775 591 1075 516 
Q 1375 441 1709 441 
Q 2250 441 2565 725 
Q 2881 1009 2881 1497 
Q 2881 1984 2565 2268 
Q 2250 2553 1709 2553 
Q 1456 2553 1204 2497 
Q 953 2441 691 2322 
L 691 4666 
z
" id="DejaVuSans-35" transform="scale(0.015625)"/>
       </defs>
       <use xlink:href="#DejaVuSans-30"/>
       <use x="63.623047" xlink:href="#DejaVuSans-2e"/>
       <use x="95.410156" xlink:href="#DejaVuSans-36"/>
       <use x="159.033203" xlink:href="#DejaVuSans-35"/>
       <use x="222.65625" xlink:href="#DejaVuSans-30"/>
      </g>
     </g>
    </g>
    <g id="ytick_4">
     <g id="line2d_15">
      <path clip-path="url(#p9c83851645)" d="M 108 337.292308 
L 777.6 337.292308 
" style="fill:none;stroke:#b0b0b0;stroke-linecap:square;stroke-width:0.8;"/>
     </g>
     <g id="line2d_16">
      <g>
       <use style="stroke:#000000;stroke-width:0.8;" x="108" xlink:href="#m36a7ab32b1" y="337.292308"/>
      </g>
     </g>
     <g id="text_9">
      <!-- 0.652 -->
      <g transform="translate(72.371875 341.091526)scale(0.1 -0.1)">
       <use xlink:href="#DejaVuSans-30"/>
       <use x="63.623047" xlink:href="#DejaVuSans-2e"/>
       <use x="95.410156" xlink:href="#DejaVuSans-36"/>
       <use x="159.033203" xlink:href="#DejaVuSans-35"/>
       <use x="222.65625" xlink:href="#DejaVuSans-32"/>
      </g>
     </g>
    </g>
    <g id="ytick_5">
     <g id="line2d_17">
      <path clip-path="url(#p9c83851645)" d="M 108 253.661538 
L 777.6 253.661538 
" style="fill:none;stroke:#b0b0b0;stroke-linecap:square;stroke-width:0.8;"/>
     </g>
     <g id="line2d_18">
      <g>
       <use style="stroke:#000000;stroke-width:0.8;" x="108" xlink:href="#m36a7ab32b1" y="253.661538"/>
      </g>
     </g>
     <g id="text_10">
      <!-- 0.654 -->
      <g transform="translate(72.371875 257.460757)scale(0.1 -0.1)">
       <use xlink:href="#DejaVuSans-30"/>
       <use x="63.623047" xlink:href="#DejaVuSans-2e"/>
       <use x="95.410156" xlink:href="#DejaVuSans-36"/>
       <use x="159.033203" xlink:href="#DejaVuSans-35"/>
       <use x="222.65625" xlink:href="#DejaVuSans-34"/>
      </g>
     </g>
    </g>
    <g id="ytick_6">
     <g id="line2d_19">
      <path clip-path="url(#p9c83851645)" d="M 108 170.030769 
L 777.6 170.030769 
" style="fill:none;stroke:#b0b0b0;stroke-linecap:square;stroke-width:0.8;"/>
     </g>
     <g id="line2d_20">
      <g>
       <use style="stroke:#000000;stroke-width:0.8;" x="108" xlink:href="#m36a7ab32b1" y="170.030769"/>
      </g>
     </g>
     <g id="text_11">
      <!-- 0.656 -->
      <g transform="translate(72.371875 173.829988)scale(0.1 -0.1)">
       <use xlink:href="#DejaVuSans-30"/>
       <use x="63.623047" xlink:href="#DejaVuSans-2e"/>
       <use x="95.410156" xlink:href="#DejaVuSans-36"/>
       <use x="159.033203" xlink:href="#DejaVuSans-35"/>
       <use x="222.65625" xlink:href="#DejaVuSans-36"/>
      </g>
     </g>
    </g>
    <g id="ytick_7">
     <g id="line2d_21">
      <path clip-path="url(#p9c83851645)" d="M 108 86.4 
L 777.6 86.4 
" style="fill:none;stroke:#b0b0b0;stroke-linecap:square;stroke-width:0.8;"/>
     </g>
     <g id="line2d_22">
      <g>
       <use style="stroke:#000000;stroke-width:0.8;" x="108" xlink:href="#m36a7ab32b1" y="86.4"/>
      </g>
     </g>
     <g id="text_12">
      <!-- 0.658 -->
      <g transform="translate(72.371875 90.199219)scale(0.1 -0.1)">
       <use xlink:href="#DejaVuSans-30"/>
       <use x="63.623047" xlink:href="#DejaVuSans-2e"/>
       <use x="95.410156" xlink:href="#DejaVuSans-36"/>
       <use x="159.033203" xlink:href="#DejaVuSans-35"/>
       <use x="222.65625" xlink:href="#DejaVuSans-38"/>
      </g>
     </g>
    </g>
    <g id="text_13">
     <!-- MAP@12 on evaluation set -->
     <g transform="translate(66.292187 425.247656)rotate(-90)scale(0.1 -0.1)">
      <defs>
       <path d="M 628 4666 
L 1569 4666 
L 2759 1491 
L 3956 4666 
L 4897 4666 
L 4897 0 
L 4281 0 
L 4281 4097 
L 3078 897 
L 2444 897 
L 1241 4097 
L 1241 0 
L 628 0 
L 628 4666 
z
" id="DejaVuSans-4d" transform="scale(0.015625)"/>
       <path d="M 2188 4044 
L 1331 1722 
L 3047 1722 
L 2188 4044 
z
M 1831 4666 
L 2547 4666 
L 4325 0 
L 3669 0 
L 3244 1197 
L 1141 1197 
L 716 0 
L 50 0 
L 1831 4666 
z
" id="DejaVuSans-41" transform="scale(0.015625)"/>
       <path d="M 1259 4147 
L 1259 2394 
L 2053 2394 
Q 2494 2394 2734 2622 
Q 2975 2850 2975 3272 
Q 2975 3691 2734 3919 
Q 2494 4147 2053 4147 
L 1259 4147 
z
M 628 4666 
L 2053 4666 
Q 2838 4666 3239 4311 
Q 3641 3956 3641 3272 
Q 3641 2581 3239 2228 
Q 2838 1875 2053 1875 
L 1259 1875 
L 1259 0 
L 628 0 
L 628 4666 
z
" id="DejaVuSans-50" transform="scale(0.015625)"/>
       <path d="M 2381 1678 
Q 2381 1231 2603 976 
Q 2825 722 3213 722 
Q 3597 722 3817 978 
Q 4038 1234 4038 1678 
Q 4038 2116 3813 2373 
Q 3588 2631 3206 2631 
Q 2828 2631 2604 2375 
Q 2381 2119 2381 1678 
z
M 4084 744 
Q 3897 503 3655 389 
Q 3413 275 3091 275 
Q 2553 275 2217 664 
Q 1881 1053 1881 1678 
Q 1881 2303 2218 2693 
Q 2556 3084 3091 3084 
Q 3413 3084 3656 2967 
Q 3900 2850 4084 2613 
L 4084 3022 
L 4531 3022 
L 4531 722 
Q 4988 791 5245 1139 
Q 5503 1488 5503 2041 
Q 5503 2375 5404 2669 
Q 5306 2963 5106 3213 
Q 4781 3622 4314 3839 
Q 3847 4056 3297 4056 
Q 2913 4056 2559 3954 
Q 2206 3853 1906 3653 
Q 1416 3334 1139 2817 
Q 863 2300 863 1697 
Q 863 1200 1042 765 
Q 1222 331 1563 0 
Q 1891 -325 2322 -495 
Q 2753 -666 3244 -666 
Q 3647 -666 4036 -530 
Q 4425 -394 4750 -141 
L 5031 -488 
Q 4641 -791 4180 -952 
Q 3719 -1113 3244 -1113 
Q 2666 -1113 2153 -908 
Q 1641 -703 1241 -313 
Q 841 78 631 592 
Q 422 1106 422 1697 
Q 422 2266 634 2781 
Q 847 3297 1241 3688 
Q 1644 4084 2172 4295 
Q 2700 4506 3291 4506 
Q 3953 4506 4520 4234 
Q 5088 3963 5472 3463 
Q 5706 3156 5829 2797 
Q 5953 2438 5953 2053 
Q 5953 1231 5456 756 
Q 4959 281 4084 263 
L 4084 744 
z
" id="DejaVuSans-40" transform="scale(0.015625)"/>
       <path d="M 794 531 
L 1825 531 
L 1825 4091 
L 703 3866 
L 703 4441 
L 1819 4666 
L 2450 4666 
L 2450 531 
L 3481 531 
L 3481 0 
L 794 0 
L 794 531 
z
" id="DejaVuSans-31" transform="scale(0.015625)"/>
       <path id="DejaVuSans-20" transform="scale(0.015625)"/>
       <path d="M 1959 3097 
Q 1497 3097 1228 2736 
Q 959 2375 959 1747 
Q 959 1119 1226 758 
Q 1494 397 1959 397 
Q 2419 397 2687 759 
Q 2956 1122 2956 1747 
Q 2956 2369 2687 2733 
Q 2419 3097 1959 3097 
z
M 1959 3584 
Q 2709 3584 3137 3096 
Q 3566 2609 3566 1747 
Q 3566 888 3137 398 
Q 2709 -91 1959 -91 
Q 1206 -91 779 398 
Q 353 888 353 1747 
Q 353 2609 779 3096 
Q 1206 3584 1959 3584 
z
" id="DejaVuSans-6f" transform="scale(0.015625)"/>
       <path d="M 3513 2113 
L 3513 0 
L 2938 0 
L 2938 2094 
Q 2938 2591 2744 2837 
Q 2550 3084 2163 3084 
Q 1697 3084 1428 2787 
Q 1159 2491 1159 1978 
L 1159 0 
L 581 0 
L 581 3500 
L 1159 3500 
L 1159 2956 
Q 1366 3272 1645 3428 
Q 1925 3584 2291 3584 
Q 2894 3584 3203 3211 
Q 3513 2838 3513 2113 
z
" id="DejaVuSans-6e" transform="scale(0.015625)"/>
       <path d="M 191 3500 
L 800 3500 
L 1894 563 
L 2988 3500 
L 3597 3500 
L 2284 0 
L 1503 0 
L 191 3500 
z
" id="DejaVuSans-76" transform="scale(0.015625)"/>
       <path d="M 2194 1759 
Q 1497 1759 1228 1600 
Q 959 1441 959 1056 
Q 959 750 1161 570 
Q 1363 391 1709 391 
Q 2188 391 2477 730 
Q 2766 1069 2766 1631 
L 2766 1759 
L 2194 1759 
z
M 3341 1997 
L 3341 0 
L 2766 0 
L 2766 531 
Q 2569 213 2275 61 
Q 1981 -91 1556 -91 
Q 1019 -91 701 211 
Q 384 513 384 1019 
Q 384 1609 779 1909 
Q 1175 2209 1959 2209 
L 2766 2209 
L 2766 2266 
Q 2766 2663 2505 2880 
Q 2244 3097 1772 3097 
Q 1472 3097 1187 3025 
Q 903 2953 641 2809 
L 641 3341 
Q 956 3463 1253 3523 
Q 1550 3584 1831 3584 
Q 2591 3584 2966 3190 
Q 3341 2797 3341 1997 
z
" id="DejaVuSans-61" transform="scale(0.015625)"/>
       <path d="M 603 4863 
L 1178 4863 
L 1178 0 
L 603 0 
L 603 4863 
z
" id="DejaVuSans-6c" transform="scale(0.015625)"/>
       <path d="M 544 1381 
L 544 3500 
L 1119 3500 
L 1119 1403 
Q 1119 906 1312 657 
Q 1506 409 1894 409 
Q 2359 409 2629 706 
Q 2900 1003 2900 1516 
L 2900 3500 
L 3475 3500 
L 3475 0 
L 2900 0 
L 2900 538 
Q 2691 219 2414 64 
Q 2138 -91 1772 -91 
Q 1169 -91 856 284 
Q 544 659 544 1381 
z
M 1991 3584 
L 1991 3584 
z
" id="DejaVuSans-75" transform="scale(0.015625)"/>
       <path d="M 603 3500 
L 1178 3500 
L 1178 0 
L 603 0 
L 603 3500 
z
M 603 4863 
L 1178 4863 
L 1178 4134 
L 603 4134 
L 603 4863 
z
" id="DejaVuSans-69" transform="scale(0.015625)"/>
      </defs>
      <use xlink:href="#DejaVuSans-4d"/>
      <use x="86.279297" xlink:href="#DejaVuSans-41"/>
      <use x="154.6875" xlink:href="#DejaVuSans-50"/>
      <use x="214.990234" xlink:href="#DejaVuSans-40"/>
      <use x="314.990234" xlink:href="#DejaVuSans-31"/>
      <use x="378.613281" xlink:href="#DejaVuSans-32"/>
      <use x="442.236328" xlink:href="#DejaVuSans-20"/>
      <use x="474.023438" xlink:href="#DejaVuSans-6f"/>
      <use x="535.205078" xlink:href="#DejaVuSans-6e"/>
      <use x="598.583984" xlink:href="#DejaVuSans-20"/>
      <use x="630.371094" xlink:href="#DejaVuSans-65"/>
      <use x="691.894531" xlink:href="#DejaVuSans-76"/>
      <use x="751.074219" xlink:href="#DejaVuSans-61"/>
      <use x="812.353516" xlink:href="#DejaVuSans-6c"/>
      <use x="840.136719" xlink:href="#DejaVuSans-75"/>
      <use x="903.515625" xlink:href="#DejaVuSans-61"/>
      <use x="964.794922" xlink:href="#DejaVuSans-74"/>
      <use x="1004.003906" xlink:href="#DejaVuSans-69"/>
      <use x="1031.787109" xlink:href="#DejaVuSans-6f"/>
      <use x="1092.96875" xlink:href="#DejaVuSans-6e"/>
      <use x="1156.347656" xlink:href="#DejaVuSans-20"/>
      <use x="1188.134766" xlink:href="#DejaVuSans-73"/>
      <use x="1240.234375" xlink:href="#DejaVuSans-65"/>
      <use x="1301.757812" xlink:href="#DejaVuSans-74"/>
     </g>
    </g>
   </g>
   <g id="line2d_23">
    <path clip-path="url(#p9c83851645)" d="M 162.19599 721 
L 170.474641 655.089231 
L 202.512919 592.366154 
L 234.551196 550.550769 
L 266.589474 492.009231 
L 298.627751 395.833846 
L 330.666029 349.836923 
L 362.704306 303.84 
L 394.742584 274.569231 
L 426.780861 249.48 
L 458.819139 228.572308 
L 490.857416 203.483077 
L 522.895694 186.756923 
L 554.933971 178.393846 
L 586.972249 174.212308 
L 619.010526 165.849231 
L 651.048804 157.486154 
L 683.087081 157.486154 
L 715.125359 153.304615 
L 747.163636 149.123077 
" style="fill:none;stroke:#1f77b4;stroke-linecap:square;stroke-width:1.5;"/>
   </g>
   <g id="line2d_24">
    <path clip-path="url(#p9c83851645)" d="M 162.083453 721 
L 170.474641 650.907692 
L 202.512919 579.821538 
L 234.551196 533.824615 
L 266.589474 462.738462 
L 298.627751 362.381538 
L 330.666029 316.384615 
L 362.704306 287.113846 
L 394.742584 253.661538 
L 426.780861 232.753846 
L 458.819139 211.846154 
L 490.857416 195.12 
L 522.895694 178.393846 
L 554.933971 170.030769 
L 586.972249 161.667692 
L 619.010526 157.486154 
L 651.048804 153.304615 
L 683.087081 149.123077 
L 715.125359 149.123077 
L 747.163636 144.941538 
" style="fill:none;stroke:#ff7f0e;stroke-linecap:square;stroke-width:1.5;"/>
   </g>
   <g id="line2d_25">
    <path clip-path="url(#p9c83851645)" d="M 162.105901 721 
L 170.474641 646.726154 
L 202.512919 592.366154 
L 234.551196 546.369231 
L 266.589474 483.646154 
L 298.627751 387.470769 
L 330.666029 328.929231 
L 362.704306 295.476923 
L 394.742584 266.206154 
L 426.780861 245.298462 
L 458.819139 224.390769 
L 490.857416 203.483077 
L 522.895694 195.12 
L 554.933971 182.575385 
L 586.972249 174.212308 
L 619.010526 170.030769 
L 651.048804 165.849231 
L 683.087081 161.667692 
L 715.125359 161.667692 
L 747.163636 157.486154 
" style="fill:none;stroke:#2ca02c;stroke-linecap:square;stroke-width:1.5;"/>
   </g>
   <g id="line2d_26">
    <path clip-path="url(#p9c83851645)" d="M 160.620337 721 
L 170.474641 642.544615 
L 202.512919 579.821538 
L 234.551196 542.187692 
L 266.589474 471.101538 
L 298.627751 366.563077 
L 330.666029 316.384615 
L 362.704306 282.932308 
L 394.742584 257.843077 
L 426.780861 232.753846 
L 458.819139 207.664615 
L 490.857416 190.938462 
L 522.895694 174.212308 
L 554.933971 170.030769 
L 586.972249 161.667692 
L 619.010526 157.486154 
L 651.048804 157.486154 
L 683.087081 153.304615 
L 715.125359 144.941538 
L 747.163636 149.123077 
" style="fill:none;stroke:#d62728;stroke-linecap:square;stroke-width:1.5;"/>
   </g>
   <g id="line2d_27">
    <path clip-path="url(#p9c83851645)" d="M 162.584051 721 
L 170.474641 655.089231 
L 202.512919 584.003077 
L 234.551196 546.369231 
L 266.589474 483.646154 
L 298.627751 379.107692 
L 330.666029 324.747692 
L 362.704306 287.113846 
L 394.742584 262.024615 
L 426.780861 232.753846 
L 458.819139 211.846154 
L 490.857416 190.938462 
L 522.895694 174.212308 
L 554.933971 165.849231 
L 586.972249 161.667692 
L 619.010526 153.304615 
L 651.048804 149.123077 
L 683.087081 144.941538 
L 715.125359 144.941538 
L 747.163636 140.76 
" style="fill:none;stroke:#9467bd;stroke-linecap:square;stroke-width:1.5;"/>
   </g>
   <g id="line2d_28">
    <path clip-path="url(#p9c83851645)" d="M 162.058012 721 
L 170.474641 655.089231 
L 202.512919 596.547692 
L 234.551196 546.369231 
L 266.589474 487.827692 
L 298.627751 408.378462 
L 330.666029 345.655385 
L 362.704306 299.658462 
L 394.742584 270.387692 
L 426.780861 245.298462 
L 458.819139 224.390769 
L 490.857416 203.483077 
L 522.895694 182.575385 
L 554.933971 174.212308 
L 586.972249 165.849231 
L 619.010526 161.667692 
L 651.048804 153.304615 
L 683.087081 153.304615 
L 715.125359 149.123077 
L 747.163636 149.123077 
" style="fill:none;stroke:#8c564b;stroke-linecap:square;stroke-width:1.5;"/>
   </g>
   <g id="line2d_29">
    <path clip-path="url(#p9c83851645)" d="M 160.663015 721 
L 170.474641 646.726154 
L 202.512919 588.184615 
L 234.551196 538.006154 
L 266.589474 487.827692 
L 298.627751 391.652308 
L 330.666029 337.292308 
L 362.704306 295.476923 
L 394.742584 262.024615 
L 426.780861 236.935385 
L 458.819139 211.846154 
L 490.857416 199.301538 
L 522.895694 178.393846 
L 554.933971 170.030769 
L 586.972249 165.849231 
L 619.010526 161.667692 
L 651.048804 157.486154 
L 683.087081 153.304615 
L 715.125359 149.123077 
L 747.163636 149.123077 
" style="fill:none;stroke:#e377c2;stroke-linecap:square;stroke-width:1.5;"/>
   </g>
   <g id="line2d_30">
    <path clip-path="url(#p9c83851645)" d="M 162.212548 721 
L 170.474641 650.907692 
L 202.512919 592.366154 
L 234.551196 538.006154 
L 266.589474 475.283077 
L 298.627751 358.2 
L 330.666029 316.384615 
L 362.704306 287.113846 
L 394.742584 262.024615 
L 426.780861 236.935385 
L 458.819139 211.846154 
L 490.857416 195.12 
L 522.895694 178.393846 
L 554.933971 174.212308 
L 586.972249 170.030769 
L 619.010526 165.849231 
L 651.048804 161.667692 
L 683.087081 153.304615 
L 715.125359 153.304615 
L 747.163636 149.123077 
" style="fill:none;stroke:#7f7f7f;stroke-linecap:square;stroke-width:1.5;"/>
   </g>
   <g id="patch_3">
    <path d="M 108 630 
L 108 86.4 
" style="fill:none;stroke:#000000;stroke-linecap:square;stroke-linejoin:miter;stroke-width:0.8;"/>
   </g>
   <g id="patch_4">
    <path d="M 777.6 630 
L 777.6 86.4 
" style="fill:none;stroke:#000000;stroke-linecap:square;stroke-linejoin:miter;stroke-width:0.8;"/>
   </g>
   <g id="patch_5">
    <path d="M 108 630 
L 777.6 630 
" style="fill:none;stroke:#000000;stroke-linecap:square;stroke-linejoin:miter;stroke-width:0.8;"/>
   </g>
   <g id="patch_6">
    <path d="M 108 86.4 
L 777.6 86.4 
" style="fill:none;stroke:#000000;stroke-linecap:square;stroke-linejoin:miter;stroke-width:0.8;"/>
   </g>
   <g id="text_14">
    <!-- 1GPU MAP@12 for different configurations -->
    <g transform="translate(315.417188 80.4)scale(0.12 -0.12)">
     <defs>
      <path d="M 3809 666 
L 3809 1919 
L 2778 1919 
L 2778 2438 
L 4434 2438 
L 4434 434 
Q 4069 175 3628 42 
Q 3188 -91 2688 -91 
Q 1594 -91 976 548 
Q 359 1188 359 2328 
Q 359 3472 976 4111 
Q 1594 4750 2688 4750 
Q 3144 4750 3555 4637 
Q 3966 4525 4313 4306 
L 4313 3634 
Q 3963 3931 3569 4081 
Q 3175 4231 2741 4231 
Q 1884 4231 1454 3753 
Q 1025 3275 1025 2328 
Q 1025 1384 1454 906 
Q 1884 428 2741 428 
Q 3075 428 3337 486 
Q 3600 544 3809 666 
z
" id="DejaVuSans-47" transform="scale(0.015625)"/>
      <path d="M 556 4666 
L 1191 4666 
L 1191 1831 
Q 1191 1081 1462 751 
Q 1734 422 2344 422 
Q 2950 422 3222 751 
Q 3494 1081 3494 1831 
L 3494 4666 
L 4128 4666 
L 4128 1753 
Q 4128 841 3676 375 
Q 3225 -91 2344 -91 
Q 1459 -91 1007 375 
Q 556 841 556 1753 
L 556 4666 
z
" id="DejaVuSans-55" transform="scale(0.015625)"/>
      <path d="M 2375 4863 
L 2375 4384 
L 1825 4384 
Q 1516 4384 1395 4259 
Q 1275 4134 1275 3809 
L 1275 3500 
L 2222 3500 
L 2222 3053 
L 1275 3053 
L 1275 0 
L 697 0 
L 697 3053 
L 147 3053 
L 147 3500 
L 697 3500 
L 697 3744 
Q 697 4328 969 4595 
Q 1241 4863 1831 4863 
L 2375 4863 
z
" id="DejaVuSans-66" transform="scale(0.015625)"/>
      <path d="M 2631 2963 
Q 2534 3019 2420 3045 
Q 2306 3072 2169 3072 
Q 1681 3072 1420 2755 
Q 1159 2438 1159 1844 
L 1159 0 
L 581 0 
L 581 3500 
L 1159 3500 
L 1159 2956 
Q 1341 3275 1631 3429 
Q 1922 3584 2338 3584 
Q 2397 3584 2469 3576 
Q 2541 3569 2628 3553 
L 2631 2963 
z
" id="DejaVuSans-72" transform="scale(0.015625)"/>
      <path d="M 2906 2969 
L 2906 4863 
L 3481 4863 
L 3481 0 
L 2906 0 
L 2906 525 
Q 2725 213 2448 61 
Q 2172 -91 1784 -91 
Q 1150 -91 751 415 
Q 353 922 353 1747 
Q 353 2572 751 3078 
Q 1150 3584 1784 3584 
Q 2172 3584 2448 3432 
Q 2725 3281 2906 2969 
z
M 947 1747 
Q 947 1113 1208 752 
Q 1469 391 1925 391 
Q 2381 391 2643 752 
Q 2906 1113 2906 1747 
Q 2906 2381 2643 2742 
Q 2381 3103 1925 3103 
Q 1469 3103 1208 2742 
Q 947 2381 947 1747 
z
" id="DejaVuSans-64" transform="scale(0.015625)"/>
      <path d="M 3122 3366 
L 3122 2828 
Q 2878 2963 2633 3030 
Q 2388 3097 2138 3097 
Q 1578 3097 1268 2742 
Q 959 2388 959 1747 
Q 959 1106 1268 751 
Q 1578 397 2138 397 
Q 2388 397 2633 464 
Q 2878 531 3122 666 
L 3122 134 
Q 2881 22 2623 -34 
Q 2366 -91 2075 -91 
Q 1284 -91 818 406 
Q 353 903 353 1747 
Q 353 2603 823 3093 
Q 1294 3584 2113 3584 
Q 2378 3584 2631 3529 
Q 2884 3475 3122 3366 
z
" id="DejaVuSans-63" transform="scale(0.015625)"/>
      <path d="M 2906 1791 
Q 2906 2416 2648 2759 
Q 2391 3103 1925 3103 
Q 1463 3103 1205 2759 
Q 947 2416 947 1791 
Q 947 1169 1205 825 
Q 1463 481 1925 481 
Q 2391 481 2648 825 
Q 2906 1169 2906 1791 
z
M 3481 434 
Q 3481 -459 3084 -895 
Q 2688 -1331 1869 -1331 
Q 1566 -1331 1297 -1286 
Q 1028 -1241 775 -1147 
L 775 -588 
Q 1028 -725 1275 -790 
Q 1522 -856 1778 -856 
Q 2344 -856 2625 -561 
Q 2906 -266 2906 331 
L 2906 616 
Q 2728 306 2450 153 
Q 2172 0 1784 0 
Q 1141 0 747 490 
Q 353 981 353 1791 
Q 353 2603 747 3093 
Q 1141 3584 1784 3584 
Q 2172 3584 2450 3431 
Q 2728 3278 2906 2969 
L 2906 3500 
L 3481 3500 
L 3481 434 
z
" id="DejaVuSans-67" transform="scale(0.015625)"/>
     </defs>
     <use xlink:href="#DejaVuSans-31"/>
     <use x="63.623047" xlink:href="#DejaVuSans-47"/>
     <use x="141.113281" xlink:href="#DejaVuSans-50"/>
     <use x="201.416016" xlink:href="#DejaVuSans-55"/>
     <use x="274.609375" xlink:href="#DejaVuSans-20"/>
     <use x="306.396484" xlink:href="#DejaVuSans-4d"/>
     <use x="392.675781" xlink:href="#DejaVuSans-41"/>
     <use x="461.083984" xlink:href="#DejaVuSans-50"/>
     <use x="521.386719" xlink:href="#DejaVuSans-40"/>
     <use x="621.386719" xlink:href="#DejaVuSans-31"/>
     <use x="685.009766" xlink:href="#DejaVuSans-32"/>
     <use x="748.632812" xlink:href="#DejaVuSans-20"/>
     <use x="780.419922" xlink:href="#DejaVuSans-66"/>
     <use x="815.625" xlink:href="#DejaVuSans-6f"/>
     <use x="876.806641" xlink:href="#DejaVuSans-72"/>
     <use x="917.919922" xlink:href="#DejaVuSans-20"/>
     <use x="949.707031" xlink:href="#DejaVuSans-64"/>
     <use x="1013.183594" xlink:href="#DejaVuSans-69"/>
     <use x="1040.966797" xlink:href="#DejaVuSans-66"/>
     <use x="1076.171875" xlink:href="#DejaVuSans-66"/>
     <use x="1111.376953" xlink:href="#DejaVuSans-65"/>
     <use x="1172.900391" xlink:href="#DejaVuSans-72"/>
     <use x="1211.763672" xlink:href="#DejaVuSans-65"/>
     <use x="1273.287109" xlink:href="#DejaVuSans-6e"/>
     <use x="1336.666016" xlink:href="#DejaVuSans-74"/>
     <use x="1375.875" xlink:href="#DejaVuSans-20"/>
     <use x="1407.662109" xlink:href="#DejaVuSans-63"/>
     <use x="1462.642578" xlink:href="#DejaVuSans-6f"/>
     <use x="1523.824219" xlink:href="#DejaVuSans-6e"/>
     <use x="1587.203125" xlink:href="#DejaVuSans-66"/>
     <use x="1622.408203" xlink:href="#DejaVuSans-69"/>
     <use x="1650.191406" xlink:href="#DejaVuSans-67"/>
     <use x="1713.667969" xlink:href="#DejaVuSans-75"/>
     <use x="1777.046875" xlink:href="#DejaVuSans-72"/>
     <use x="1818.160156" xlink:href="#DejaVuSans-61"/>
     <use x="1879.439453" xlink:href="#DejaVuSans-74"/>
     <use x="1918.648438" xlink:href="#DejaVuSans-69"/>
     <use x="1946.431641" xlink:href="#DejaVuSans-6f"/>
     <use x="2007.613281" xlink:href="#DejaVuSans-6e"/>
     <use x="2070.992188" xlink:href="#DejaVuSans-73"/>
    </g>
   </g>
   <g id="legend_1">
    <g id="patch_7">
     <path d="M 115 211.825 
L 248.832812 211.825 
Q 250.832812 211.825 250.832812 209.825 
L 250.832812 93.4 
Q 250.832812 91.4 248.832812 91.4 
L 115 91.4 
Q 113 91.4 113 93.4 
L 113 209.825 
Q 113 211.825 115 211.825 
z
" style="fill:#ffffff;opacity:0.8;stroke:#cccccc;stroke-linejoin:miter;"/>
    </g>
    <g id="line2d_31">
     <path d="M 117 99.498437 
L 137 99.498437 
" style="fill:none;stroke:#1f77b4;stroke-linecap:square;stroke-width:1.5;"/>
    </g>
    <g id="line2d_32"/>
    <g id="text_15">
     <!-- DGX A100,TF32 -->
     <g transform="translate(145 102.998437)scale(0.1 -0.1)">
      <defs>
       <path d="M 1259 4147 
L 1259 519 
L 2022 519 
Q 2988 519 3436 956 
Q 3884 1394 3884 2338 
Q 3884 3275 3436 3711 
Q 2988 4147 2022 4147 
L 1259 4147 
z
M 628 4666 
L 1925 4666 
Q 3281 4666 3915 4102 
Q 4550 3538 4550 2338 
Q 4550 1131 3912 565 
Q 3275 0 1925 0 
L 628 0 
L 628 4666 
z
" id="DejaVuSans-44" transform="scale(0.015625)"/>
       <path d="M 403 4666 
L 1081 4666 
L 2241 2931 
L 3406 4666 
L 4084 4666 
L 2584 2425 
L 4184 0 
L 3506 0 
L 2194 1984 
L 872 0 
L 191 0 
L 1856 2491 
L 403 4666 
z
" id="DejaVuSans-58" transform="scale(0.015625)"/>
       <path d="M 750 794 
L 1409 794 
L 1409 256 
L 897 -744 
L 494 -744 
L 750 256 
L 750 794 
z
" id="DejaVuSans-2c" transform="scale(0.015625)"/>
       <path d="M -19 4666 
L 3928 4666 
L 3928 4134 
L 2272 4134 
L 2272 0 
L 1638 0 
L 1638 4134 
L -19 4134 
L -19 4666 
z
" id="DejaVuSans-54" transform="scale(0.015625)"/>
       <path d="M 628 4666 
L 3309 4666 
L 3309 4134 
L 1259 4134 
L 1259 2759 
L 3109 2759 
L 3109 2228 
L 1259 2228 
L 1259 0 
L 628 0 
L 628 4666 
z
" id="DejaVuSans-46" transform="scale(0.015625)"/>
       <path d="M 2597 2516 
Q 3050 2419 3304 2112 
Q 3559 1806 3559 1356 
Q 3559 666 3084 287 
Q 2609 -91 1734 -91 
Q 1441 -91 1130 -33 
Q 819 25 488 141 
L 488 750 
Q 750 597 1062 519 
Q 1375 441 1716 441 
Q 2309 441 2620 675 
Q 2931 909 2931 1356 
Q 2931 1769 2642 2001 
Q 2353 2234 1838 2234 
L 1294 2234 
L 1294 2753 
L 1863 2753 
Q 2328 2753 2575 2939 
Q 2822 3125 2822 3475 
Q 2822 3834 2567 4026 
Q 2313 4219 1838 4219 
Q 1578 4219 1281 4162 
Q 984 4106 628 3988 
L 628 4550 
Q 988 4650 1302 4700 
Q 1616 4750 1894 4750 
Q 2613 4750 3031 4423 
Q 3450 4097 3450 3541 
Q 3450 3153 3228 2886 
Q 3006 2619 2597 2516 
z
" id="DejaVuSans-33" transform="scale(0.015625)"/>
      </defs>
      <use xlink:href="#DejaVuSans-44"/>
      <use x="77.001953" xlink:href="#DejaVuSans-47"/>
      <use x="154.492188" xlink:href="#DejaVuSans-58"/>
      <use x="222.998047" xlink:href="#DejaVuSans-20"/>
      <use x="254.785156" xlink:href="#DejaVuSans-41"/>
      <use x="323.193359" xlink:href="#DejaVuSans-31"/>
      <use x="386.816406" xlink:href="#DejaVuSans-30"/>
      <use x="450.439453" xlink:href="#DejaVuSans-30"/>
      <use x="514.0625" xlink:href="#DejaVuSans-2c"/>
      <use x="545.849609" xlink:href="#DejaVuSans-54"/>
      <use x="606.933594" xlink:href="#DejaVuSans-46"/>
      <use x="664.453125" xlink:href="#DejaVuSans-33"/>
      <use x="728.076172" xlink:href="#DejaVuSans-32"/>
     </g>
    </g>
    <g id="line2d_33">
     <path d="M 117 114.176562 
L 137 114.176562 
" style="fill:none;stroke:#ff7f0e;stroke-linecap:square;stroke-width:1.5;"/>
    </g>
    <g id="line2d_34"/>
    <g id="text_16">
     <!-- DGX A100,AMP -->
     <g transform="translate(145 117.676562)scale(0.1 -0.1)">
      <use xlink:href="#DejaVuSans-44"/>
      <use x="77.001953" xlink:href="#DejaVuSans-47"/>
      <use x="154.492188" xlink:href="#DejaVuSans-58"/>
      <use x="222.998047" xlink:href="#DejaVuSans-20"/>
      <use x="254.785156" xlink:href="#DejaVuSans-41"/>
      <use x="323.193359" xlink:href="#DejaVuSans-31"/>
      <use x="386.816406" xlink:href="#DejaVuSans-30"/>
      <use x="450.439453" xlink:href="#DejaVuSans-30"/>
      <use x="514.0625" xlink:href="#DejaVuSans-2c"/>
      <use x="545.849609" xlink:href="#DejaVuSans-41"/>
      <use x="614.257812" xlink:href="#DejaVuSans-4d"/>
      <use x="700.537109" xlink:href="#DejaVuSans-50"/>
     </g>
    </g>
    <g id="line2d_35">
     <path d="M 117 128.854687 
L 137 128.854687 
" style="fill:none;stroke:#2ca02c;stroke-linecap:square;stroke-width:1.5;"/>
    </g>
    <g id="line2d_36"/>
    <g id="text_17">
     <!-- DGX A100,TF32,XLA -->
     <g transform="translate(145 132.354687)scale(0.1 -0.1)">
      <defs>
       <path d="M 628 4666 
L 1259 4666 
L 1259 531 
L 3531 531 
L 3531 0 
L 628 0 
L 628 4666 
z
" id="DejaVuSans-4c" transform="scale(0.015625)"/>
      </defs>
      <use xlink:href="#DejaVuSans-44"/>
      <use x="77.001953" xlink:href="#DejaVuSans-47"/>
      <use x="154.492188" xlink:href="#DejaVuSans-58"/>
      <use x="222.998047" xlink:href="#DejaVuSans-20"/>
      <use x="254.785156" xlink:href="#DejaVuSans-41"/>
      <use x="323.193359" xlink:href="#DejaVuSans-31"/>
      <use x="386.816406" xlink:href="#DejaVuSans-30"/>
      <use x="450.439453" xlink:href="#DejaVuSans-30"/>
      <use x="514.0625" xlink:href="#DejaVuSans-2c"/>
      <use x="545.849609" xlink:href="#DejaVuSans-54"/>
      <use x="606.933594" xlink:href="#DejaVuSans-46"/>
      <use x="664.453125" xlink:href="#DejaVuSans-33"/>
      <use x="728.076172" xlink:href="#DejaVuSans-32"/>
      <use x="791.699219" xlink:href="#DejaVuSans-2c"/>
      <use x="823.486328" xlink:href="#DejaVuSans-58"/>
      <use x="891.992188" xlink:href="#DejaVuSans-4c"/>
      <use x="949.955078" xlink:href="#DejaVuSans-41"/>
     </g>
    </g>
    <g id="line2d_37">
     <path d="M 117 143.532812 
L 137 143.532812 
" style="fill:none;stroke:#d62728;stroke-linecap:square;stroke-width:1.5;"/>
    </g>
    <g id="line2d_38"/>
    <g id="text_18">
     <!-- DGX A100,AMP,XLA -->
     <g transform="translate(145 147.032812)scale(0.1 -0.1)">
      <use xlink:href="#DejaVuSans-44"/>
      <use x="77.001953" xlink:href="#DejaVuSans-47"/>
      <use x="154.492188" xlink:href="#DejaVuSans-58"/>
      <use x="222.998047" xlink:href="#DejaVuSans-20"/>
      <use x="254.785156" xlink:href="#DejaVuSans-41"/>
      <use x="323.193359" xlink:href="#DejaVuSans-31"/>
      <use x="386.816406" xlink:href="#DejaVuSans-30"/>
      <use x="450.439453" xlink:href="#DejaVuSans-30"/>
      <use x="514.0625" xlink:href="#DejaVuSans-2c"/>
      <use x="545.849609" xlink:href="#DejaVuSans-41"/>
      <use x="614.257812" xlink:href="#DejaVuSans-4d"/>
      <use x="700.537109" xlink:href="#DejaVuSans-50"/>
      <use x="760.839844" xlink:href="#DejaVuSans-2c"/>
      <use x="792.626953" xlink:href="#DejaVuSans-58"/>
      <use x="861.132812" xlink:href="#DejaVuSans-4c"/>
      <use x="919.095703" xlink:href="#DejaVuSans-41"/>
     </g>
    </g>
    <g id="line2d_39">
     <path d="M 117 158.210937 
L 137 158.210937 
" style="fill:none;stroke:#9467bd;stroke-linecap:square;stroke-width:1.5;"/>
    </g>
    <g id="line2d_40"/>
    <g id="text_19">
     <!-- DGX V100,FP32 -->
     <g transform="translate(145 161.710937)scale(0.1 -0.1)">
      <defs>
       <path d="M 1831 0 
L 50 4666 
L 709 4666 
L 2188 738 
L 3669 4666 
L 4325 4666 
L 2547 0 
L 1831 0 
z
" id="DejaVuSans-56" transform="scale(0.015625)"/>
      </defs>
      <use xlink:href="#DejaVuSans-44"/>
      <use x="77.001953" xlink:href="#DejaVuSans-47"/>
      <use x="154.492188" xlink:href="#DejaVuSans-58"/>
      <use x="222.998047" xlink:href="#DejaVuSans-20"/>
      <use x="254.785156" xlink:href="#DejaVuSans-56"/>
      <use x="323.193359" xlink:href="#DejaVuSans-31"/>
      <use x="386.816406" xlink:href="#DejaVuSans-30"/>
      <use x="450.439453" xlink:href="#DejaVuSans-30"/>
      <use x="514.0625" xlink:href="#DejaVuSans-2c"/>
      <use x="545.849609" xlink:href="#DejaVuSans-46"/>
      <use x="603.369141" xlink:href="#DejaVuSans-50"/>
      <use x="663.671875" xlink:href="#DejaVuSans-33"/>
      <use x="727.294922" xlink:href="#DejaVuSans-32"/>
     </g>
    </g>
    <g id="line2d_41">
     <path d="M 117 172.889062 
L 137 172.889062 
" style="fill:none;stroke:#8c564b;stroke-linecap:square;stroke-width:1.5;"/>
    </g>
    <g id="line2d_42"/>
    <g id="text_20">
     <!-- DGX V100,AMP -->
     <g transform="translate(145 176.389062)scale(0.1 -0.1)">
      <use xlink:href="#DejaVuSans-44"/>
      <use x="77.001953" xlink:href="#DejaVuSans-47"/>
      <use x="154.492188" xlink:href="#DejaVuSans-58"/>
      <use x="222.998047" xlink:href="#DejaVuSans-20"/>
      <use x="254.785156" xlink:href="#DejaVuSans-56"/>
      <use x="323.193359" xlink:href="#DejaVuSans-31"/>
      <use x="386.816406" xlink:href="#DejaVuSans-30"/>
      <use x="450.439453" xlink:href="#DejaVuSans-30"/>
      <use x="514.0625" xlink:href="#DejaVuSans-2c"/>
      <use x="545.849609" xlink:href="#DejaVuSans-41"/>
      <use x="614.257812" xlink:href="#DejaVuSans-4d"/>
      <use x="700.537109" xlink:href="#DejaVuSans-50"/>
     </g>
    </g>
    <g id="line2d_43">
     <path d="M 117 187.567187 
L 137 187.567187 
" style="fill:none;stroke:#e377c2;stroke-linecap:square;stroke-width:1.5;"/>
    </g>
    <g id="line2d_44"/>
    <g id="text_21">
     <!-- DGX V100,FP32,XLA -->
     <g transform="translate(145 191.067187)scale(0.1 -0.1)">
      <use xlink:href="#DejaVuSans-44"/>
      <use x="77.001953" xlink:href="#DejaVuSans-47"/>
      <use x="154.492188" xlink:href="#DejaVuSans-58"/>
      <use x="222.998047" xlink:href="#DejaVuSans-20"/>
      <use x="254.785156" xlink:href="#DejaVuSans-56"/>
      <use x="323.193359" xlink:href="#DejaVuSans-31"/>
      <use x="386.816406" xlink:href="#DejaVuSans-30"/>
      <use x="450.439453" xlink:href="#DejaVuSans-30"/>
      <use x="514.0625" xlink:href="#DejaVuSans-2c"/>
      <use x="545.849609" xlink:href="#DejaVuSans-46"/>
      <use x="603.369141" xlink:href="#DejaVuSans-50"/>
      <use x="663.671875" xlink:href="#DejaVuSans-33"/>
      <use x="727.294922" xlink:href="#DejaVuSans-32"/>
      <use x="790.917969" xlink:href="#DejaVuSans-2c"/>
      <use x="822.705078" xlink:href="#DejaVuSans-58"/>
      <use x="891.210938" xlink:href="#DejaVuSans-4c"/>
      <use x="949.173828" xlink:href="#DejaVuSans-41"/>
     </g>
    </g>
    <g id="line2d_45">
     <path d="M 117 202.245312 
L 137 202.245312 
" style="fill:none;stroke:#7f7f7f;stroke-linecap:square;stroke-width:1.5;"/>
    </g>
    <g id="line2d_46"/>
    <g id="text_22">
     <!-- DGX V100,AMP,XLA -->
     <g transform="translate(145 205.745312)scale(0.1 -0.1)">
      <use xlink:href="#DejaVuSans-44"/>
      <use x="77.001953" xlink:href="#DejaVuSans-47"/>
      <use x="154.492188" xlink:href="#DejaVuSans-58"/>
      <use x="222.998047" xlink:href="#DejaVuSans-20"/>
      <use x="254.785156" xlink:href="#DejaVuSans-56"/>
      <use x="323.193359" xlink:href="#DejaVuSans-31"/>
      <use x="386.816406" xlink:href="#DejaVuSans-30"/>
      <use x="450.439453" xlink:href="#DejaVuSans-30"/>
      <use x="514.0625" xlink:href="#DejaVuSans-2c"/>
      <use x="545.849609" xlink:href="#DejaVuSans-41"/>
      <use x="614.257812" xlink:href="#DejaVuSans-4d"/>
      <use x="700.537109" xlink:href="#DejaVuSans-50"/>
      <use x="760.839844" xlink:href="#DejaVuSans-2c"/>
      <use x="792.626953" xlink:href="#DejaVuSans-58"/>
      <use x="861.132812" xlink:href="#DejaVuSans-4c"/>
      <use x="919.095703" xlink:href="#DejaVuSans-41"/>
     </g>
    </g>
   </g>
  </g>
 </g>
 <defs>
  <clipPath id="p9c83851645">
   <rect height="543.6" width="669.6" x="108" y="86.4"/>
  </clipPath>
 </defs>
</svg>
