<?xml version="1.0" encoding="utf-8" standalone="no"?>
<!DOCTYPE svg PUBLIC "-//W3C//DTD SVG 1.1//EN"
  "http://www.w3.org/Graphics/SVG/1.1/DTD/svg11.dtd">
<!-- Created with matplotlib (https://matplotlib.org/) -->
<svg height="421.681875pt" version="1.1" viewBox="0 0 671.61875 421.681875" width="671.61875pt" xmlns="http://www.w3.org/2000/svg" xmlns:xlink="http://www.w3.org/1999/xlink">
 <metadata>
  <rdf:RDF xmlns:cc="http://creativecommons.org/ns#" xmlns:dc="http://purl.org/dc/elements/1.1/" xmlns:rdf="http://www.w3.org/1999/02/22-rdf-syntax-ns#">
   <cc:Work>
    <dc:type rdf:resource="http://purl.org/dc/dcmitype/StillImage"/>
    <dc:date>2021-04-14T17:54:12.036385</dc:date>
    <dc:format>image/svg+xml</dc:format>
    <dc:creator>
     <cc:Agent>
      <dc:title>Matplotlib v3.3.4, https://matplotlib.org/</dc:title>
     </cc:Agent>
    </dc:creator>
   </cc:Work>
  </rdf:RDF>
 </metadata>
 <defs>
  <style type="text/css">*{stroke-linecap:butt;stroke-linejoin:round;}</style>
 </defs>
 <g id="figure_1">
  <g id="patch_1">
   <path d="M 0 421.681875 
L 671.61875 421.681875 
L 671.61875 0 
L 0 0 
z
" style="fill:#ffffff;"/>
  </g>
  <g id="axes_1">
   <g id="patch_2">
    <path d="M 53.31 299.518125 
L 611.31 299.518125 
L 611.31 22.318125 
L 53.31 22.318125 
z
" style="fill:#ffffff;"/>
   </g>
   <g id="matplotlib.axis_1">
    <g id="xtick_1">
     <g id="line2d_1">
      <path clip-path="url(#ped67c0a93e)" d="M 86.855455 299.518125 
L 86.855455 22.318125 
" style="fill:none;stroke:#c0c0c0;stroke-linecap:round;stroke-width:0.5;"/>
     </g>
     <g id="text_1">
      <!-- 16 -->
      <g style="fill:#262626;" transform="translate(79.856705 317.376406)scale(0.11 -0.11)">
       <defs>
        <path d="M 12.40625 8.296875 
L 28.515625 8.296875 
L 28.515625 63.921875 
L 10.984375 60.40625 
L 10.984375 69.390625 
L 28.421875 72.90625 
L 38.28125 72.90625 
L 38.28125 8.296875 
L 54.390625 8.296875 
L 54.390625 0 
L 12.40625 0 
z
" id="DejaVuSans-49"/>
        <path d="M 33.015625 40.375 
Q 26.375 40.375 22.484375 35.828125 
Q 18.609375 31.296875 18.609375 23.390625 
Q 18.609375 15.53125 22.484375 10.953125 
Q 26.375 6.390625 33.015625 6.390625 
Q 39.65625 6.390625 43.53125 10.953125 
Q 47.40625 15.53125 47.40625 23.390625 
Q 47.40625 31.296875 43.53125 35.828125 
Q 39.65625 40.375 33.015625 40.375 
z
M 52.59375 71.296875 
L 52.59375 62.3125 
Q 48.875 64.0625 45.09375 64.984375 
Q 41.3125 65.921875 37.59375 65.921875 
Q 27.828125 65.921875 22.671875 59.328125 
Q 17.53125 52.734375 16.796875 39.40625 
Q 19.671875 43.65625 24.015625 45.921875 
Q 28.375 48.1875 33.59375 48.1875 
Q 44.578125 48.1875 50.953125 41.515625 
Q 57.328125 34.859375 57.328125 23.390625 
Q 57.328125 12.15625 50.6875 5.359375 
Q 44.046875 -1.421875 33.015625 -1.421875 
Q 20.359375 -1.421875 13.671875 8.265625 
Q 6.984375 17.96875 6.984375 36.375 
Q 6.984375 53.65625 15.1875 63.9375 
Q 23.390625 74.21875 37.203125 74.21875 
Q 40.921875 74.21875 44.703125 73.484375 
Q 48.484375 72.75 52.59375 71.296875 
z
" id="DejaVuSans-54"/>
       </defs>
       <use xlink:href="#DejaVuSans-49"/>
       <use x="63.623047" xlink:href="#DejaVuSans-54"/>
      </g>
     </g>
    </g>
    <g id="xtick_2">
     <g id="line2d_2">
      <path clip-path="url(#ped67c0a93e)" d="M 119.582727 299.518125 
L 119.582727 22.318125 
" style="fill:none;stroke:#c0c0c0;stroke-linecap:round;stroke-width:0.5;"/>
     </g>
     <g id="text_2">
      <!-- 32 -->
      <g style="fill:#262626;" transform="translate(112.583977 317.376406)scale(0.11 -0.11)">
       <defs>
        <path d="M 40.578125 39.3125 
Q 47.65625 37.796875 51.625 33 
Q 55.609375 28.21875 55.609375 21.1875 
Q 55.609375 10.40625 48.1875 4.484375 
Q 40.765625 -1.421875 27.09375 -1.421875 
Q 22.515625 -1.421875 17.65625 -0.515625 
Q 12.796875 0.390625 7.625 2.203125 
L 7.625 11.71875 
Q 11.71875 9.328125 16.59375 8.109375 
Q 21.484375 6.890625 26.8125 6.890625 
Q 36.078125 6.890625 40.9375 10.546875 
Q 45.796875 14.203125 45.796875 21.1875 
Q 45.796875 27.640625 41.28125 31.265625 
Q 36.765625 34.90625 28.71875 34.90625 
L 20.21875 34.90625 
L 20.21875 43.015625 
L 29.109375 43.015625 
Q 36.375 43.015625 40.234375 45.921875 
Q 44.09375 48.828125 44.09375 54.296875 
Q 44.09375 59.90625 40.109375 62.90625 
Q 36.140625 65.921875 28.71875 65.921875 
Q 24.65625 65.921875 20.015625 65.03125 
Q 15.375 64.15625 9.8125 62.3125 
L 9.8125 71.09375 
Q 15.4375 72.65625 20.34375 73.4375 
Q 25.25 74.21875 29.59375 74.21875 
Q 40.828125 74.21875 47.359375 69.109375 
Q 53.90625 64.015625 53.90625 55.328125 
Q 53.90625 49.265625 50.4375 45.09375 
Q 46.96875 40.921875 40.578125 39.3125 
z
" id="DejaVuSans-51"/>
        <path d="M 19.1875 8.296875 
L 53.609375 8.296875 
L 53.609375 0 
L 7.328125 0 
L 7.328125 8.296875 
Q 12.9375 14.109375 22.625 23.890625 
Q 32.328125 33.6875 34.8125 36.53125 
Q 39.546875 41.84375 41.421875 45.53125 
Q 43.3125 49.21875 43.3125 52.78125 
Q 43.3125 58.59375 39.234375 62.25 
Q 35.15625 65.921875 28.609375 65.921875 
Q 23.96875 65.921875 18.8125 64.3125 
Q 13.671875 62.703125 7.8125 59.421875 
L 7.8125 69.390625 
Q 13.765625 71.78125 18.9375 73 
Q 24.125 74.21875 28.421875 74.21875 
Q 39.75 74.21875 46.484375 68.546875 
Q 53.21875 62.890625 53.21875 53.421875 
Q 53.21875 48.921875 51.53125 44.890625 
Q 49.859375 40.875 45.40625 35.40625 
Q 44.1875 33.984375 37.640625 27.21875 
Q 31.109375 20.453125 19.1875 8.296875 
z
" id="DejaVuSans-50"/>
       </defs>
       <use xlink:href="#DejaVuSans-51"/>
       <use x="63.623047" xlink:href="#DejaVuSans-50"/>
      </g>
     </g>
    </g>
    <g id="xtick_3">
     <g id="line2d_3">
      <path clip-path="url(#ped67c0a93e)" d="M 152.31 299.518125 
L 152.31 22.318125 
" style="fill:none;stroke:#c0c0c0;stroke-linecap:round;stroke-width:0.5;"/>
     </g>
     <g id="text_3">
      <!-- 48 -->
      <g style="fill:#262626;" transform="translate(145.31125 317.376406)scale(0.11 -0.11)">
       <defs>
        <path d="M 37.796875 64.3125 
L 12.890625 25.390625 
L 37.796875 25.390625 
z
M 35.203125 72.90625 
L 47.609375 72.90625 
L 47.609375 25.390625 
L 58.015625 25.390625 
L 58.015625 17.1875 
L 47.609375 17.1875 
L 47.609375 0 
L 37.796875 0 
L 37.796875 17.1875 
L 4.890625 17.1875 
L 4.890625 26.703125 
z
" id="DejaVuSans-52"/>
        <path d="M 31.78125 34.625 
Q 24.75 34.625 20.71875 30.859375 
Q 16.703125 27.09375 16.703125 20.515625 
Q 16.703125 13.921875 20.71875 10.15625 
Q 24.75 6.390625 31.78125 6.390625 
Q 38.8125 6.390625 42.859375 10.171875 
Q 46.921875 13.96875 46.921875 20.515625 
Q 46.921875 27.09375 42.890625 30.859375 
Q 38.875 34.625 31.78125 34.625 
z
M 21.921875 38.8125 
Q 15.578125 40.375 12.03125 44.71875 
Q 8.5 49.078125 8.5 55.328125 
Q 8.5 64.0625 14.71875 69.140625 
Q 20.953125 74.21875 31.78125 74.21875 
Q 42.671875 74.21875 48.875 69.140625 
Q 55.078125 64.0625 55.078125 55.328125 
Q 55.078125 49.078125 51.53125 44.71875 
Q 48 40.375 41.703125 38.8125 
Q 48.828125 37.15625 52.796875 32.3125 
Q 56.78125 27.484375 56.78125 20.515625 
Q 56.78125 9.90625 50.3125 4.234375 
Q 43.84375 -1.421875 31.78125 -1.421875 
Q 19.734375 -1.421875 13.25 4.234375 
Q 6.78125 9.90625 6.78125 20.515625 
Q 6.78125 27.484375 10.78125 32.3125 
Q 14.796875 37.15625 21.921875 38.8125 
z
M 18.3125 54.390625 
Q 18.3125 48.734375 21.84375 45.5625 
Q 25.390625 42.390625 31.78125 42.390625 
Q 38.140625 42.390625 41.71875 45.5625 
Q 45.3125 48.734375 45.3125 54.390625 
Q 45.3125 60.0625 41.71875 63.234375 
Q 38.140625 66.40625 31.78125 66.40625 
Q 25.390625 66.40625 21.84375 63.234375 
Q 18.3125 60.0625 18.3125 54.390625 
z
" id="DejaVuSans-56"/>
       </defs>
       <use xlink:href="#DejaVuSans-52"/>
       <use x="63.623047" xlink:href="#DejaVuSans-56"/>
      </g>
     </g>
    </g>
    <g id="xtick_4">
     <g id="line2d_4">
      <path clip-path="url(#ped67c0a93e)" d="M 185.037273 299.518125 
L 185.037273 22.318125 
" style="fill:none;stroke:#c0c0c0;stroke-linecap:round;stroke-width:0.5;"/>
     </g>
     <g id="text_4">
      <!-- 64 -->
      <g style="fill:#262626;" transform="translate(178.038523 317.376406)scale(0.11 -0.11)">
       <use xlink:href="#DejaVuSans-54"/>
       <use x="63.623047" xlink:href="#DejaVuSans-52"/>
      </g>
     </g>
    </g>
    <g id="xtick_5">
     <g id="line2d_5">
      <path clip-path="url(#ped67c0a93e)" d="M 217.764545 299.518125 
L 217.764545 22.318125 
" style="fill:none;stroke:#c0c0c0;stroke-linecap:round;stroke-width:0.5;"/>
     </g>
     <g id="text_5">
      <!-- 80 -->
      <g style="fill:#262626;" transform="translate(210.765795 317.376406)scale(0.11 -0.11)">
       <defs>
        <path d="M 31.78125 66.40625 
Q 24.171875 66.40625 20.328125 58.90625 
Q 16.5 51.421875 16.5 36.375 
Q 16.5 21.390625 20.328125 13.890625 
Q 24.171875 6.390625 31.78125 6.390625 
Q 39.453125 6.390625 43.28125 13.890625 
Q 47.125 21.390625 47.125 36.375 
Q 47.125 51.421875 43.28125 58.90625 
Q 39.453125 66.40625 31.78125 66.40625 
z
M 31.78125 74.21875 
Q 44.046875 74.21875 50.515625 64.515625 
Q 56.984375 54.828125 56.984375 36.375 
Q 56.984375 17.96875 50.515625 8.265625 
Q 44.046875 -1.421875 31.78125 -1.421875 
Q 19.53125 -1.421875 13.0625 8.265625 
Q 6.59375 17.96875 6.59375 36.375 
Q 6.59375 54.828125 13.0625 64.515625 
Q 19.53125 74.21875 31.78125 74.21875 
z
" id="DejaVuSans-48"/>
       </defs>
       <use xlink:href="#DejaVuSans-56"/>
       <use x="63.623047" xlink:href="#DejaVuSans-48"/>
      </g>
     </g>
    </g>
    <g id="xtick_6">
     <g id="line2d_6">
      <path clip-path="url(#ped67c0a93e)" d="M 250.491818 299.518125 
L 250.491818 22.318125 
" style="fill:none;stroke:#c0c0c0;stroke-linecap:round;stroke-width:0.5;"/>
     </g>
     <g id="text_6">
      <!-- 96 -->
      <g style="fill:#262626;" transform="translate(243.493068 317.376406)scale(0.11 -0.11)">
       <defs>
        <path d="M 10.984375 1.515625 
L 10.984375 10.5 
Q 14.703125 8.734375 18.5 7.8125 
Q 22.3125 6.890625 25.984375 6.890625 
Q 35.75 6.890625 40.890625 13.453125 
Q 46.046875 20.015625 46.78125 33.40625 
Q 43.953125 29.203125 39.59375 26.953125 
Q 35.25 24.703125 29.984375 24.703125 
Q 19.046875 24.703125 12.671875 31.3125 
Q 6.296875 37.9375 6.296875 49.421875 
Q 6.296875 60.640625 12.9375 67.421875 
Q 19.578125 74.21875 30.609375 74.21875 
Q 43.265625 74.21875 49.921875 64.515625 
Q 56.59375 54.828125 56.59375 36.375 
Q 56.59375 19.140625 48.40625 8.859375 
Q 40.234375 -1.421875 26.421875 -1.421875 
Q 22.703125 -1.421875 18.890625 -0.6875 
Q 15.09375 0.046875 10.984375 1.515625 
z
M 30.609375 32.421875 
Q 37.25 32.421875 41.125 36.953125 
Q 45.015625 41.5 45.015625 49.421875 
Q 45.015625 57.28125 41.125 61.84375 
Q 37.25 66.40625 30.609375 66.40625 
Q 23.96875 66.40625 20.09375 61.84375 
Q 16.21875 57.28125 16.21875 49.421875 
Q 16.21875 41.5 20.09375 36.953125 
Q 23.96875 32.421875 30.609375 32.421875 
z
" id="DejaVuSans-57"/>
       </defs>
       <use xlink:href="#DejaVuSans-57"/>
       <use x="63.623047" xlink:href="#DejaVuSans-54"/>
      </g>
     </g>
    </g>
    <g id="xtick_7">
     <g id="line2d_7">
      <path clip-path="url(#ped67c0a93e)" d="M 283.219091 299.518125 
L 283.219091 22.318125 
" style="fill:none;stroke:#c0c0c0;stroke-linecap:round;stroke-width:0.5;"/>
     </g>
     <g id="text_7">
      <!-- 112 -->
      <g style="fill:#262626;" transform="translate(272.720966 317.376406)scale(0.11 -0.11)">
       <use xlink:href="#DejaVuSans-49"/>
       <use x="63.623047" xlink:href="#DejaVuSans-49"/>
       <use x="127.246094" xlink:href="#DejaVuSans-50"/>
      </g>
     </g>
    </g>
    <g id="xtick_8">
     <g id="line2d_8">
      <path clip-path="url(#ped67c0a93e)" d="M 315.946364 299.518125 
L 315.946364 22.318125 
" style="fill:none;stroke:#c0c0c0;stroke-linecap:round;stroke-width:0.5;"/>
     </g>
     <g id="text_8">
      <!-- 128 -->
      <g style="fill:#262626;" transform="translate(305.448239 317.376406)scale(0.11 -0.11)">
       <use xlink:href="#DejaVuSans-49"/>
       <use x="63.623047" xlink:href="#DejaVuSans-50"/>
       <use x="127.246094" xlink:href="#DejaVuSans-56"/>
      </g>
     </g>
    </g>
    <g id="xtick_9">
     <g id="line2d_9">
      <path clip-path="url(#ped67c0a93e)" d="M 348.673636 299.518125 
L 348.673636 22.318125 
" style="fill:none;stroke:#c0c0c0;stroke-linecap:round;stroke-width:0.5;"/>
     </g>
     <g id="text_9">
      <!-- 144 -->
      <g style="fill:#262626;" transform="translate(338.175511 317.376406)scale(0.11 -0.11)">
       <use xlink:href="#DejaVuSans-49"/>
       <use x="63.623047" xlink:href="#DejaVuSans-52"/>
       <use x="127.246094" xlink:href="#DejaVuSans-52"/>
      </g>
     </g>
    </g>
    <g id="xtick_10">
     <g id="line2d_10">
      <path clip-path="url(#ped67c0a93e)" d="M 381.400909 299.518125 
L 381.400909 22.318125 
" style="fill:none;stroke:#c0c0c0;stroke-linecap:round;stroke-width:0.5;"/>
     </g>
     <g id="text_10">
      <!-- 160 -->
      <g style="fill:#262626;" transform="translate(370.902784 317.376406)scale(0.11 -0.11)">
       <use xlink:href="#DejaVuSans-49"/>
       <use x="63.623047" xlink:href="#DejaVuSans-54"/>
       <use x="127.246094" xlink:href="#DejaVuSans-48"/>
      </g>
     </g>
    </g>
    <g id="xtick_11">
     <g id="line2d_11">
      <path clip-path="url(#ped67c0a93e)" d="M 414.128182 299.518125 
L 414.128182 22.318125 
" style="fill:none;stroke:#c0c0c0;stroke-linecap:round;stroke-width:0.5;"/>
     </g>
     <g id="text_11">
      <!-- 176 -->
      <g style="fill:#262626;" transform="translate(403.630057 317.376406)scale(0.11 -0.11)">
       <defs>
        <path d="M 8.203125 72.90625 
L 55.078125 72.90625 
L 55.078125 68.703125 
L 28.609375 0 
L 18.3125 0 
L 43.21875 64.59375 
L 8.203125 64.59375 
z
" id="DejaVuSans-55"/>
       </defs>
       <use xlink:href="#DejaVuSans-49"/>
       <use x="63.623047" xlink:href="#DejaVuSans-55"/>
       <use x="127.246094" xlink:href="#DejaVuSans-54"/>
      </g>
     </g>
    </g>
    <g id="xtick_12">
     <g id="line2d_12">
      <path clip-path="url(#ped67c0a93e)" d="M 446.855455 299.518125 
L 446.855455 22.318125 
" style="fill:none;stroke:#c0c0c0;stroke-linecap:round;stroke-width:0.5;"/>
     </g>
     <g id="text_12">
      <!-- 192 -->
      <g style="fill:#262626;" transform="translate(436.35733 317.376406)scale(0.11 -0.11)">
       <use xlink:href="#DejaVuSans-49"/>
       <use x="63.623047" xlink:href="#DejaVuSans-57"/>
       <use x="127.246094" xlink:href="#DejaVuSans-50"/>
      </g>
     </g>
    </g>
    <g id="xtick_13">
     <g id="line2d_13">
      <path clip-path="url(#ped67c0a93e)" d="M 479.582727 299.518125 
L 479.582727 22.318125 
" style="fill:none;stroke:#c0c0c0;stroke-linecap:round;stroke-width:0.5;"/>
     </g>
     <g id="text_13">
      <!-- 208 -->
      <g style="fill:#262626;" transform="translate(469.084602 317.376406)scale(0.11 -0.11)">
       <use xlink:href="#DejaVuSans-50"/>
       <use x="63.623047" xlink:href="#DejaVuSans-48"/>
       <use x="127.246094" xlink:href="#DejaVuSans-56"/>
      </g>
     </g>
    </g>
    <g id="xtick_14">
     <g id="line2d_14">
      <path clip-path="url(#ped67c0a93e)" d="M 512.31 299.518125 
L 512.31 22.318125 
" style="fill:none;stroke:#c0c0c0;stroke-linecap:round;stroke-width:0.5;"/>
     </g>
     <g id="text_14">
      <!-- 224 -->
      <g style="fill:#262626;" transform="translate(501.811875 317.376406)scale(0.11 -0.11)">
       <use xlink:href="#DejaVuSans-50"/>
       <use x="63.623047" xlink:href="#DejaVuSans-50"/>
       <use x="127.246094" xlink:href="#DejaVuSans-52"/>
      </g>
     </g>
    </g>
    <g id="xtick_15">
     <g id="line2d_15">
      <path clip-path="url(#ped67c0a93e)" d="M 545.037273 299.518125 
L 545.037273 22.318125 
" style="fill:none;stroke:#c0c0c0;stroke-linecap:round;stroke-width:0.5;"/>
     </g>
     <g id="text_15">
      <!-- 240 -->
      <g style="fill:#262626;" transform="translate(534.539148 317.376406)scale(0.11 -0.11)">
       <use xlink:href="#DejaVuSans-50"/>
       <use x="63.623047" xlink:href="#DejaVuSans-52"/>
       <use x="127.246094" xlink:href="#DejaVuSans-48"/>
      </g>
     </g>
    </g>
    <g id="xtick_16">
     <g id="line2d_16">
      <path clip-path="url(#ped67c0a93e)" d="M 577.764545 299.518125 
L 577.764545 22.318125 
" style="fill:none;stroke:#c0c0c0;stroke-linecap:round;stroke-width:0.5;"/>
     </g>
     <g id="text_16">
      <!-- 256 -->
      <g style="fill:#262626;" transform="translate(567.26642 317.376406)scale(0.11 -0.11)">
       <defs>
        <path d="M 10.796875 72.90625 
L 49.515625 72.90625 
L 49.515625 64.59375 
L 19.828125 64.59375 
L 19.828125 46.734375 
Q 21.96875 47.46875 24.109375 47.828125 
Q 26.265625 48.1875 28.421875 48.1875 
Q 40.625 48.1875 47.75 41.5 
Q 54.890625 34.8125 54.890625 23.390625 
Q 54.890625 11.625 47.5625 5.09375 
Q 40.234375 -1.421875 26.90625 -1.421875 
Q 22.3125 -1.421875 17.546875 -0.640625 
Q 12.796875 0.140625 7.71875 1.703125 
L 7.71875 11.625 
Q 12.109375 9.234375 16.796875 8.0625 
Q 21.484375 6.890625 26.703125 6.890625 
Q 35.15625 6.890625 40.078125 11.328125 
Q 45.015625 15.765625 45.015625 23.390625 
Q 45.015625 31 40.078125 35.4375 
Q 35.15625 39.890625 26.703125 39.890625 
Q 22.75 39.890625 18.8125 39.015625 
Q 14.890625 38.140625 10.796875 36.28125 
z
" id="DejaVuSans-53"/>
       </defs>
       <use xlink:href="#DejaVuSans-50"/>
       <use x="63.623047" xlink:href="#DejaVuSans-53"/>
       <use x="127.246094" xlink:href="#DejaVuSans-54"/>
      </g>
     </g>
    </g>
    <g id="text_17">
     <!-- Concurrent client requests -->
     <g style="fill:#262626;" transform="translate(252.781875 332.782188)scale(0.12 -0.12)">
      <defs>
       <path d="M 64.40625 67.28125 
L 64.40625 56.890625 
Q 59.421875 61.53125 53.78125 63.8125 
Q 48.140625 66.109375 41.796875 66.109375 
Q 29.296875 66.109375 22.65625 58.46875 
Q 16.015625 50.828125 16.015625 36.375 
Q 16.015625 21.96875 22.65625 14.328125 
Q 29.296875 6.6875 41.796875 6.6875 
Q 48.140625 6.6875 53.78125 8.984375 
Q 59.421875 11.28125 64.40625 15.921875 
L 64.40625 5.609375 
Q 59.234375 2.09375 53.4375 0.328125 
Q 47.65625 -1.421875 41.21875 -1.421875 
Q 24.65625 -1.421875 15.125 8.703125 
Q 5.609375 18.84375 5.609375 36.375 
Q 5.609375 53.953125 15.125 64.078125 
Q 24.65625 74.21875 41.21875 74.21875 
Q 47.75 74.21875 53.53125 72.484375 
Q 59.328125 70.75 64.40625 67.28125 
z
" id="DejaVuSans-67"/>
       <path d="M 30.609375 48.390625 
Q 23.390625 48.390625 19.1875 42.75 
Q 14.984375 37.109375 14.984375 27.296875 
Q 14.984375 17.484375 19.15625 11.84375 
Q 23.34375 6.203125 30.609375 6.203125 
Q 37.796875 6.203125 41.984375 11.859375 
Q 46.1875 17.53125 46.1875 27.296875 
Q 46.1875 37.015625 41.984375 42.703125 
Q 37.796875 48.390625 30.609375 48.390625 
z
M 30.609375 56 
Q 42.328125 56 49.015625 48.375 
Q 55.71875 40.765625 55.71875 27.296875 
Q 55.71875 13.875 49.015625 6.21875 
Q 42.328125 -1.421875 30.609375 -1.421875 
Q 18.84375 -1.421875 12.171875 6.21875 
Q 5.515625 13.875 5.515625 27.296875 
Q 5.515625 40.765625 12.171875 48.375 
Q 18.84375 56 30.609375 56 
z
" id="DejaVuSans-111"/>
       <path d="M 54.890625 33.015625 
L 54.890625 0 
L 45.90625 0 
L 45.90625 32.71875 
Q 45.90625 40.484375 42.875 44.328125 
Q 39.84375 48.1875 33.796875 48.1875 
Q 26.515625 48.1875 22.3125 43.546875 
Q 18.109375 38.921875 18.109375 30.90625 
L 18.109375 0 
L 9.078125 0 
L 9.078125 54.6875 
L 18.109375 54.6875 
L 18.109375 46.1875 
Q 21.34375 51.125 25.703125 53.5625 
Q 30.078125 56 35.796875 56 
Q 45.21875 56 50.046875 50.171875 
Q 54.890625 44.34375 54.890625 33.015625 
z
" id="DejaVuSans-110"/>
       <path d="M 48.78125 52.59375 
L 48.78125 44.1875 
Q 44.96875 46.296875 41.140625 47.34375 
Q 37.3125 48.390625 33.40625 48.390625 
Q 24.65625 48.390625 19.8125 42.84375 
Q 14.984375 37.3125 14.984375 27.296875 
Q 14.984375 17.28125 19.8125 11.734375 
Q 24.65625 6.203125 33.40625 6.203125 
Q 37.3125 6.203125 41.140625 7.25 
Q 44.96875 8.296875 48.78125 10.40625 
L 48.78125 2.09375 
Q 45.015625 0.34375 40.984375 -0.53125 
Q 36.96875 -1.421875 32.421875 -1.421875 
Q 20.0625 -1.421875 12.78125 6.34375 
Q 5.515625 14.109375 5.515625 27.296875 
Q 5.515625 40.671875 12.859375 48.328125 
Q 20.21875 56 33.015625 56 
Q 37.15625 56 41.109375 55.140625 
Q 45.0625 54.296875 48.78125 52.59375 
z
" id="DejaVuSans-99"/>
       <path d="M 8.5 21.578125 
L 8.5 54.6875 
L 17.484375 54.6875 
L 17.484375 21.921875 
Q 17.484375 14.15625 20.5 10.265625 
Q 23.53125 6.390625 29.59375 6.390625 
Q 36.859375 6.390625 41.078125 11.03125 
Q 45.3125 15.671875 45.3125 23.6875 
L 45.3125 54.6875 
L 54.296875 54.6875 
L 54.296875 0 
L 45.3125 0 
L 45.3125 8.40625 
Q 42.046875 3.421875 37.71875 1 
Q 33.40625 -1.421875 27.6875 -1.421875 
Q 18.265625 -1.421875 13.375 4.4375 
Q 8.5 10.296875 8.5 21.578125 
z
M 31.109375 56 
z
" id="DejaVuSans-117"/>
       <path d="M 41.109375 46.296875 
Q 39.59375 47.171875 37.8125 47.578125 
Q 36.03125 48 33.890625 48 
Q 26.265625 48 22.1875 43.046875 
Q 18.109375 38.09375 18.109375 28.8125 
L 18.109375 0 
L 9.078125 0 
L 9.078125 54.6875 
L 18.109375 54.6875 
L 18.109375 46.1875 
Q 20.953125 51.171875 25.484375 53.578125 
Q 30.03125 56 36.53125 56 
Q 37.453125 56 38.578125 55.875 
Q 39.703125 55.765625 41.0625 55.515625 
z
" id="DejaVuSans-114"/>
       <path d="M 56.203125 29.59375 
L 56.203125 25.203125 
L 14.890625 25.203125 
Q 15.484375 15.921875 20.484375 11.0625 
Q 25.484375 6.203125 34.421875 6.203125 
Q 39.59375 6.203125 44.453125 7.46875 
Q 49.3125 8.734375 54.109375 11.28125 
L 54.109375 2.78125 
Q 49.265625 0.734375 44.1875 -0.34375 
Q 39.109375 -1.421875 33.890625 -1.421875 
Q 20.796875 -1.421875 13.15625 6.1875 
Q 5.515625 13.8125 5.515625 26.8125 
Q 5.515625 40.234375 12.765625 48.109375 
Q 20.015625 56 32.328125 56 
Q 43.359375 56 49.78125 48.890625 
Q 56.203125 41.796875 56.203125 29.59375 
z
M 47.21875 32.234375 
Q 47.125 39.59375 43.09375 43.984375 
Q 39.0625 48.390625 32.421875 48.390625 
Q 24.90625 48.390625 20.390625 44.140625 
Q 15.875 39.890625 15.1875 32.171875 
z
" id="DejaVuSans-101"/>
       <path d="M 18.3125 70.21875 
L 18.3125 54.6875 
L 36.8125 54.6875 
L 36.8125 47.703125 
L 18.3125 47.703125 
L 18.3125 18.015625 
Q 18.3125 11.328125 20.140625 9.421875 
Q 21.96875 7.515625 27.59375 7.515625 
L 36.8125 7.515625 
L 36.8125 0 
L 27.59375 0 
Q 17.1875 0 13.234375 3.875 
Q 9.28125 7.765625 9.28125 18.015625 
L 9.28125 47.703125 
L 2.6875 47.703125 
L 2.6875 54.6875 
L 9.28125 54.6875 
L 9.28125 70.21875 
z
" id="DejaVuSans-116"/>
       <path id="DejaVuSans-32"/>
       <path d="M 9.421875 75.984375 
L 18.40625 75.984375 
L 18.40625 0 
L 9.421875 0 
z
" id="DejaVuSans-108"/>
       <path d="M 9.421875 54.6875 
L 18.40625 54.6875 
L 18.40625 0 
L 9.421875 0 
z
M 9.421875 75.984375 
L 18.40625 75.984375 
L 18.40625 64.59375 
L 9.421875 64.59375 
z
" id="DejaVuSans-105"/>
       <path d="M 14.796875 27.296875 
Q 14.796875 17.390625 18.875 11.75 
Q 22.953125 6.109375 30.078125 6.109375 
Q 37.203125 6.109375 41.296875 11.75 
Q 45.40625 17.390625 45.40625 27.296875 
Q 45.40625 37.203125 41.296875 42.84375 
Q 37.203125 48.484375 30.078125 48.484375 
Q 22.953125 48.484375 18.875 42.84375 
Q 14.796875 37.203125 14.796875 27.296875 
z
M 45.40625 8.203125 
Q 42.578125 3.328125 38.25 0.953125 
Q 33.9375 -1.421875 27.875 -1.421875 
Q 17.96875 -1.421875 11.734375 6.484375 
Q 5.515625 14.40625 5.515625 27.296875 
Q 5.515625 40.1875 11.734375 48.09375 
Q 17.96875 56 27.875 56 
Q 33.9375 56 38.25 53.625 
Q 42.578125 51.265625 45.40625 46.390625 
L 45.40625 54.6875 
L 54.390625 54.6875 
L 54.390625 -20.796875 
L 45.40625 -20.796875 
z
" id="DejaVuSans-113"/>
       <path d="M 44.28125 53.078125 
L 44.28125 44.578125 
Q 40.484375 46.53125 36.375 47.5 
Q 32.28125 48.484375 27.875 48.484375 
Q 21.1875 48.484375 17.84375 46.4375 
Q 14.5 44.390625 14.5 40.28125 
Q 14.5 37.15625 16.890625 35.375 
Q 19.28125 33.59375 26.515625 31.984375 
L 29.59375 31.296875 
Q 39.15625 29.25 43.1875 25.515625 
Q 47.21875 21.78125 47.21875 15.09375 
Q 47.21875 7.46875 41.1875 3.015625 
Q 35.15625 -1.421875 24.609375 -1.421875 
Q 20.21875 -1.421875 15.453125 -0.5625 
Q 10.6875 0.296875 5.421875 2 
L 5.421875 11.28125 
Q 10.40625 8.6875 15.234375 7.390625 
Q 20.0625 6.109375 24.8125 6.109375 
Q 31.15625 6.109375 34.5625 8.28125 
Q 37.984375 10.453125 37.984375 14.40625 
Q 37.984375 18.0625 35.515625 20.015625 
Q 33.0625 21.96875 24.703125 23.78125 
L 21.578125 24.515625 
Q 13.234375 26.265625 9.515625 29.90625 
Q 5.8125 33.546875 5.8125 39.890625 
Q 5.8125 47.609375 11.28125 51.796875 
Q 16.75 56 26.8125 56 
Q 31.78125 56 36.171875 55.265625 
Q 40.578125 54.546875 44.28125 53.078125 
z
" id="DejaVuSans-115"/>
      </defs>
      <use xlink:href="#DejaVuSans-67"/>
      <use x="69.824219" xlink:href="#DejaVuSans-111"/>
      <use x="131.005859" xlink:href="#DejaVuSans-110"/>
      <use x="194.384766" xlink:href="#DejaVuSans-99"/>
      <use x="249.365234" xlink:href="#DejaVuSans-117"/>
      <use x="312.744141" xlink:href="#DejaVuSans-114"/>
      <use x="352.107422" xlink:href="#DejaVuSans-114"/>
      <use x="390.970703" xlink:href="#DejaVuSans-101"/>
      <use x="452.494141" xlink:href="#DejaVuSans-110"/>
      <use x="515.873047" xlink:href="#DejaVuSans-116"/>
      <use x="555.082031" xlink:href="#DejaVuSans-32"/>
      <use x="586.869141" xlink:href="#DejaVuSans-99"/>
      <use x="641.849609" xlink:href="#DejaVuSans-108"/>
      <use x="669.632812" xlink:href="#DejaVuSans-105"/>
      <use x="697.416016" xlink:href="#DejaVuSans-101"/>
      <use x="758.939453" xlink:href="#DejaVuSans-110"/>
      <use x="822.318359" xlink:href="#DejaVuSans-116"/>
      <use x="861.527344" xlink:href="#DejaVuSans-32"/>
      <use x="893.314453" xlink:href="#DejaVuSans-114"/>
      <use x="932.177734" xlink:href="#DejaVuSans-101"/>
      <use x="993.701172" xlink:href="#DejaVuSans-113"/>
      <use x="1057.177734" xlink:href="#DejaVuSans-117"/>
      <use x="1120.556641" xlink:href="#DejaVuSans-101"/>
      <use x="1182.080078" xlink:href="#DejaVuSans-115"/>
      <use x="1234.179688" xlink:href="#DejaVuSans-116"/>
      <use x="1273.388672" xlink:href="#DejaVuSans-115"/>
     </g>
    </g>
   </g>
   <g id="matplotlib.axis_2">
    <g id="ytick_1">
     <g id="line2d_17">
      <path clip-path="url(#ped67c0a93e)" d="M 53.31 299.518125 
L 611.31 299.518125 
" style="fill:none;stroke:#c0c0c0;stroke-linecap:round;stroke-width:0.5;"/>
     </g>
     <g id="line2d_18">
      <defs>
       <path d="M 0 0 
L -6 0 
" id="mcf958e8885" style="stroke:#262626;stroke-width:1.25;"/>
      </defs>
      <g>
       <use style="fill:#262626;stroke:#262626;stroke-width:1.25;" x="53.31" xlink:href="#mcf958e8885" y="299.518125"/>
      </g>
     </g>
     <g id="text_18">
      <!-- 0 -->
      <g style="fill:#262626;" transform="translate(36.81125 303.697266)scale(0.11 -0.11)">
       <use xlink:href="#DejaVuSans-48"/>
      </g>
     </g>
    </g>
    <g id="ytick_2">
     <g id="line2d_19">
      <path clip-path="url(#ped67c0a93e)" d="M 53.31 255.899614 
L 611.31 255.899614 
" style="fill:none;stroke:#c0c0c0;stroke-linecap:round;stroke-width:0.5;"/>
     </g>
     <g id="line2d_20">
      <g>
       <use style="fill:#262626;stroke:#262626;stroke-width:1.25;" x="53.31" xlink:href="#mcf958e8885" y="255.899614"/>
      </g>
     </g>
     <g id="text_19">
      <!-- 20 -->
      <g style="fill:#262626;" transform="translate(29.8125 260.078755)scale(0.11 -0.11)">
       <use xlink:href="#DejaVuSans-50"/>
       <use x="63.623047" xlink:href="#DejaVuSans-48"/>
      </g>
     </g>
    </g>
    <g id="ytick_3">
     <g id="line2d_21">
      <path clip-path="url(#ped67c0a93e)" d="M 53.31 212.281103 
L 611.31 212.281103 
" style="fill:none;stroke:#c0c0c0;stroke-linecap:round;stroke-width:0.5;"/>
     </g>
     <g id="line2d_22">
      <g>
       <use style="fill:#262626;stroke:#262626;stroke-width:1.25;" x="53.31" xlink:href="#mcf958e8885" y="212.281103"/>
      </g>
     </g>
     <g id="text_20">
      <!-- 40 -->
      <g style="fill:#262626;" transform="translate(29.8125 216.460243)scale(0.11 -0.11)">
       <use xlink:href="#DejaVuSans-52"/>
       <use x="63.623047" xlink:href="#DejaVuSans-48"/>
      </g>
     </g>
    </g>
    <g id="ytick_4">
     <g id="line2d_23">
      <path clip-path="url(#ped67c0a93e)" d="M 53.31 168.662592 
L 611.31 168.662592 
" style="fill:none;stroke:#c0c0c0;stroke-linecap:round;stroke-width:0.5;"/>
     </g>
     <g id="line2d_24">
      <g>
       <use style="fill:#262626;stroke:#262626;stroke-width:1.25;" x="53.31" xlink:href="#mcf958e8885" y="168.662592"/>
      </g>
     </g>
     <g id="text_21">
      <!-- 60 -->
      <g style="fill:#262626;" transform="translate(29.8125 172.841732)scale(0.11 -0.11)">
       <use xlink:href="#DejaVuSans-54"/>
       <use x="63.623047" xlink:href="#DejaVuSans-48"/>
      </g>
     </g>
    </g>
    <g id="ytick_5">
     <g id="line2d_25">
      <path clip-path="url(#ped67c0a93e)" d="M 53.31 125.044081 
L 611.31 125.044081 
" style="fill:none;stroke:#c0c0c0;stroke-linecap:round;stroke-width:0.5;"/>
     </g>
     <g id="line2d_26">
      <g>
       <use style="fill:#262626;stroke:#262626;stroke-width:1.25;" x="53.31" xlink:href="#mcf958e8885" y="125.044081"/>
      </g>
     </g>
     <g id="text_22">
      <!-- 80 -->
      <g style="fill:#262626;" transform="translate(29.8125 129.223221)scale(0.11 -0.11)">
       <use xlink:href="#DejaVuSans-56"/>
       <use x="63.623047" xlink:href="#DejaVuSans-48"/>
      </g>
     </g>
    </g>
    <g id="ytick_6">
     <g id="line2d_27">
      <path clip-path="url(#ped67c0a93e)" d="M 53.31 81.425569 
L 611.31 81.425569 
" style="fill:none;stroke:#c0c0c0;stroke-linecap:round;stroke-width:0.5;"/>
     </g>
     <g id="line2d_28">
      <g>
       <use style="fill:#262626;stroke:#262626;stroke-width:1.25;" x="53.31" xlink:href="#mcf958e8885" y="81.425569"/>
      </g>
     </g>
     <g id="text_23">
      <!-- 100 -->
      <g style="fill:#262626;" transform="translate(22.81375 85.60471)scale(0.11 -0.11)">
       <use xlink:href="#DejaVuSans-49"/>
       <use x="63.623047" xlink:href="#DejaVuSans-48"/>
       <use x="127.246094" xlink:href="#DejaVuSans-48"/>
      </g>
     </g>
    </g>
    <g id="ytick_7">
     <g id="line2d_29">
      <path clip-path="url(#ped67c0a93e)" d="M 53.31 37.807058 
L 611.31 37.807058 
" style="fill:none;stroke:#c0c0c0;stroke-linecap:round;stroke-width:0.5;"/>
     </g>
     <g id="line2d_30">
      <g>
       <use style="fill:#262626;stroke:#262626;stroke-width:1.25;" x="53.31" xlink:href="#mcf958e8885" y="37.807058"/>
      </g>
     </g>
     <g id="text_24">
      <!-- 120 -->
      <g style="fill:#262626;" transform="translate(22.81375 41.986199)scale(0.11 -0.11)">
       <use xlink:href="#DejaVuSans-49"/>
       <use x="63.623047" xlink:href="#DejaVuSans-50"/>
       <use x="127.246094" xlink:href="#DejaVuSans-48"/>
      </g>
     </g>
    </g>
    <g id="text_25">
     <!-- Avg Latency (milliseconds) -->
     <g style="fill:#262626;" transform="translate(16.318125 241.279688)rotate(-90)scale(0.12 -0.12)">
      <defs>
       <path d="M 34.1875 63.1875 
L 20.796875 26.90625 
L 47.609375 26.90625 
z
M 28.609375 72.90625 
L 39.796875 72.90625 
L 67.578125 0 
L 57.328125 0 
L 50.6875 18.703125 
L 17.828125 18.703125 
L 11.1875 0 
L 0.78125 0 
z
" id="DejaVuSans-65"/>
       <path d="M 2.984375 54.6875 
L 12.5 54.6875 
L 29.59375 8.796875 
L 46.6875 54.6875 
L 56.203125 54.6875 
L 35.6875 0 
L 23.484375 0 
z
" id="DejaVuSans-118"/>
       <path d="M 45.40625 27.984375 
Q 45.40625 37.75 41.375 43.109375 
Q 37.359375 48.484375 30.078125 48.484375 
Q 22.859375 48.484375 18.828125 43.109375 
Q 14.796875 37.75 14.796875 27.984375 
Q 14.796875 18.265625 18.828125 12.890625 
Q 22.859375 7.515625 30.078125 7.515625 
Q 37.359375 7.515625 41.375 12.890625 
Q 45.40625 18.265625 45.40625 27.984375 
z
M 54.390625 6.78125 
Q 54.390625 -7.171875 48.1875 -13.984375 
Q 42 -20.796875 29.203125 -20.796875 
Q 24.46875 -20.796875 20.265625 -20.09375 
Q 16.0625 -19.390625 12.109375 -17.921875 
L 12.109375 -9.1875 
Q 16.0625 -11.328125 19.921875 -12.34375 
Q 23.78125 -13.375 27.78125 -13.375 
Q 36.625 -13.375 41.015625 -8.765625 
Q 45.40625 -4.15625 45.40625 5.171875 
L 45.40625 9.625 
Q 42.625 4.78125 38.28125 2.390625 
Q 33.9375 0 27.875 0 
Q 17.828125 0 11.671875 7.65625 
Q 5.515625 15.328125 5.515625 27.984375 
Q 5.515625 40.671875 11.671875 48.328125 
Q 17.828125 56 27.875 56 
Q 33.9375 56 38.28125 53.609375 
Q 42.625 51.21875 45.40625 46.390625 
L 45.40625 54.6875 
L 54.390625 54.6875 
z
" id="DejaVuSans-103"/>
       <path d="M 9.8125 72.90625 
L 19.671875 72.90625 
L 19.671875 8.296875 
L 55.171875 8.296875 
L 55.171875 0 
L 9.8125 0 
z
" id="DejaVuSans-76"/>
       <path d="M 34.28125 27.484375 
Q 23.390625 27.484375 19.1875 25 
Q 14.984375 22.515625 14.984375 16.5 
Q 14.984375 11.71875 18.140625 8.90625 
Q 21.296875 6.109375 26.703125 6.109375 
Q 34.1875 6.109375 38.703125 11.40625 
Q 43.21875 16.703125 43.21875 25.484375 
L 43.21875 27.484375 
z
M 52.203125 31.203125 
L 52.203125 0 
L 43.21875 0 
L 43.21875 8.296875 
Q 40.140625 3.328125 35.546875 0.953125 
Q 30.953125 -1.421875 24.3125 -1.421875 
Q 15.921875 -1.421875 10.953125 3.296875 
Q 6 8.015625 6 15.921875 
Q 6 25.140625 12.171875 29.828125 
Q 18.359375 34.515625 30.609375 34.515625 
L 43.21875 34.515625 
L 43.21875 35.40625 
Q 43.21875 41.609375 39.140625 45 
Q 35.0625 48.390625 27.6875 48.390625 
Q 23 48.390625 18.546875 47.265625 
Q 14.109375 46.140625 10.015625 43.890625 
L 10.015625 52.203125 
Q 14.9375 54.109375 19.578125 55.046875 
Q 24.21875 56 28.609375 56 
Q 40.484375 56 46.34375 49.84375 
Q 52.203125 43.703125 52.203125 31.203125 
z
" id="DejaVuSans-97"/>
       <path d="M 32.171875 -5.078125 
Q 28.375 -14.84375 24.75 -17.8125 
Q 21.140625 -20.796875 15.09375 -20.796875 
L 7.90625 -20.796875 
L 7.90625 -13.28125 
L 13.1875 -13.28125 
Q 16.890625 -13.28125 18.9375 -11.515625 
Q 21 -9.765625 23.484375 -3.21875 
L 25.09375 0.875 
L 2.984375 54.6875 
L 12.5 54.6875 
L 29.59375 11.921875 
L 46.6875 54.6875 
L 56.203125 54.6875 
z
" id="DejaVuSans-121"/>
       <path d="M 31 75.875 
Q 24.46875 64.65625 21.28125 53.65625 
Q 18.109375 42.671875 18.109375 31.390625 
Q 18.109375 20.125 21.3125 9.0625 
Q 24.515625 -2 31 -13.1875 
L 23.1875 -13.1875 
Q 15.875 -1.703125 12.234375 9.375 
Q 8.59375 20.453125 8.59375 31.390625 
Q 8.59375 42.28125 12.203125 53.3125 
Q 15.828125 64.359375 23.1875 75.875 
z
" id="DejaVuSans-40"/>
       <path d="M 52 44.1875 
Q 55.375 50.25 60.0625 53.125 
Q 64.75 56 71.09375 56 
Q 79.640625 56 84.28125 50.015625 
Q 88.921875 44.046875 88.921875 33.015625 
L 88.921875 0 
L 79.890625 0 
L 79.890625 32.71875 
Q 79.890625 40.578125 77.09375 44.375 
Q 74.3125 48.1875 68.609375 48.1875 
Q 61.625 48.1875 57.5625 43.546875 
Q 53.515625 38.921875 53.515625 30.90625 
L 53.515625 0 
L 44.484375 0 
L 44.484375 32.71875 
Q 44.484375 40.625 41.703125 44.40625 
Q 38.921875 48.1875 33.109375 48.1875 
Q 26.21875 48.1875 22.15625 43.53125 
Q 18.109375 38.875 18.109375 30.90625 
L 18.109375 0 
L 9.078125 0 
L 9.078125 54.6875 
L 18.109375 54.6875 
L 18.109375 46.1875 
Q 21.1875 51.21875 25.484375 53.609375 
Q 29.78125 56 35.6875 56 
Q 41.65625 56 45.828125 52.96875 
Q 50 49.953125 52 44.1875 
z
" id="DejaVuSans-109"/>
       <path d="M 45.40625 46.390625 
L 45.40625 75.984375 
L 54.390625 75.984375 
L 54.390625 0 
L 45.40625 0 
L 45.40625 8.203125 
Q 42.578125 3.328125 38.25 0.953125 
Q 33.9375 -1.421875 27.875 -1.421875 
Q 17.96875 -1.421875 11.734375 6.484375 
Q 5.515625 14.40625 5.515625 27.296875 
Q 5.515625 40.1875 11.734375 48.09375 
Q 17.96875 56 27.875 56 
Q 33.9375 56 38.25 53.625 
Q 42.578125 51.265625 45.40625 46.390625 
z
M 14.796875 27.296875 
Q 14.796875 17.390625 18.875 11.75 
Q 22.953125 6.109375 30.078125 6.109375 
Q 37.203125 6.109375 41.296875 11.75 
Q 45.40625 17.390625 45.40625 27.296875 
Q 45.40625 37.203125 41.296875 42.84375 
Q 37.203125 48.484375 30.078125 48.484375 
Q 22.953125 48.484375 18.875 42.84375 
Q 14.796875 37.203125 14.796875 27.296875 
z
" id="DejaVuSans-100"/>
       <path d="M 8.015625 75.875 
L 15.828125 75.875 
Q 23.140625 64.359375 26.78125 53.3125 
Q 30.421875 42.28125 30.421875 31.390625 
Q 30.421875 20.453125 26.78125 9.375 
Q 23.140625 -1.703125 15.828125 -13.1875 
L 8.015625 -13.1875 
Q 14.5 -2 17.703125 9.0625 
Q 20.90625 20.125 20.90625 31.390625 
Q 20.90625 42.671875 17.703125 53.65625 
Q 14.5 64.65625 8.015625 75.875 
z
" id="DejaVuSans-41"/>
      </defs>
      <use xlink:href="#DejaVuSans-65"/>
      <use x="62.533203" xlink:href="#DejaVuSans-118"/>
      <use x="121.712891" xlink:href="#DejaVuSans-103"/>
      <use x="185.189453" xlink:href="#DejaVuSans-32"/>
      <use x="216.976562" xlink:href="#DejaVuSans-76"/>
      <use x="272.689453" xlink:href="#DejaVuSans-97"/>
      <use x="333.96875" xlink:href="#DejaVuSans-116"/>
      <use x="373.177734" xlink:href="#DejaVuSans-101"/>
      <use x="434.701172" xlink:href="#DejaVuSans-110"/>
      <use x="498.080078" xlink:href="#DejaVuSans-99"/>
      <use x="553.060547" xlink:href="#DejaVuSans-121"/>
      <use x="612.240234" xlink:href="#DejaVuSans-32"/>
      <use x="644.027344" xlink:href="#DejaVuSans-40"/>
      <use x="683.041016" xlink:href="#DejaVuSans-109"/>
      <use x="780.453125" xlink:href="#DejaVuSans-105"/>
      <use x="808.236328" xlink:href="#DejaVuSans-108"/>
      <use x="836.019531" xlink:href="#DejaVuSans-108"/>
      <use x="863.802734" xlink:href="#DejaVuSans-105"/>
      <use x="891.585938" xlink:href="#DejaVuSans-115"/>
      <use x="943.685547" xlink:href="#DejaVuSans-101"/>
      <use x="1005.208984" xlink:href="#DejaVuSans-99"/>
      <use x="1060.189453" xlink:href="#DejaVuSans-111"/>
      <use x="1121.371094" xlink:href="#DejaVuSans-110"/>
      <use x="1184.75" xlink:href="#DejaVuSans-100"/>
      <use x="1248.226562" xlink:href="#DejaVuSans-115"/>
      <use x="1300.326172" xlink:href="#DejaVuSans-41"/>
     </g>
    </g>
   </g>
   <g id="patch_3">
    <path clip-path="url(#ped67c0a93e)" d="M 78.673636 299.518125 
L 95.037273 299.518125 
L 95.037273 299.149549 
L 78.673636 299.149549 
z
" style="fill:#4285f4;stroke:#ffffff;stroke-linejoin:miter;"/>
   </g>
   <g id="patch_4">
    <path clip-path="url(#ped67c0a93e)" d="M 111.400909 299.518125 
L 127.764545 299.518125 
L 127.764545 299.092845 
L 111.400909 299.092845 
z
" style="fill:#4285f4;stroke:#ffffff;stroke-linejoin:miter;"/>
   </g>
   <g id="patch_5">
    <path clip-path="url(#ped67c0a93e)" d="M 144.128182 299.518125 
L 160.491818 299.518125 
L 160.491818 299.10593 
L 144.128182 299.10593 
z
" style="fill:#4285f4;stroke:#ffffff;stroke-linejoin:miter;"/>
   </g>
   <g id="patch_6">
    <path clip-path="url(#ped67c0a93e)" d="M 176.855455 299.518125 
L 193.219091 299.518125 
L 193.219091 299.068854 
L 176.855455 299.068854 
z
" style="fill:#4285f4;stroke:#ffffff;stroke-linejoin:miter;"/>
   </g>
   <g id="patch_7">
    <path clip-path="url(#ped67c0a93e)" d="M 209.582727 299.518125 
L 225.946364 299.518125 
L 225.946364 299.073216 
L 209.582727 299.073216 
z
" style="fill:#4285f4;stroke:#ffffff;stroke-linejoin:miter;"/>
   </g>
   <g id="patch_8">
    <path clip-path="url(#ped67c0a93e)" d="M 242.31 299.518125 
L 258.673636 299.518125 
L 258.673636 299.016512 
L 242.31 299.016512 
z
" style="fill:#4285f4;stroke:#ffffff;stroke-linejoin:miter;"/>
   </g>
   <g id="patch_9">
    <path clip-path="url(#ped67c0a93e)" d="M 275.037273 299.518125 
L 291.400909 299.518125 
L 291.400909 298.907466 
L 275.037273 298.907466 
z
" style="fill:#4285f4;stroke:#ffffff;stroke-linejoin:miter;"/>
   </g>
   <g id="patch_10">
    <path clip-path="url(#ped67c0a93e)" d="M 307.764545 299.518125 
L 324.128182 299.518125 
L 324.128182 298.460376 
L 307.764545 298.460376 
z
" style="fill:#4285f4;stroke:#ffffff;stroke-linejoin:miter;"/>
   </g>
   <g id="patch_11">
    <path clip-path="url(#ped67c0a93e)" d="M 340.491818 299.518125 
L 356.855455 299.518125 
L 356.855455 297.934773 
L 340.491818 297.934773 
z
" style="fill:#4285f4;stroke:#ffffff;stroke-linejoin:miter;"/>
   </g>
   <g id="patch_12">
    <path clip-path="url(#ped67c0a93e)" d="M 373.219091 299.518125 
L 389.582727 299.518125 
L 389.582727 298.303349 
L 373.219091 298.303349 
z
" style="fill:#4285f4;stroke:#ffffff;stroke-linejoin:miter;"/>
   </g>
   <g id="patch_13">
    <path clip-path="url(#ped67c0a93e)" d="M 405.946364 299.518125 
L 422.31 299.518125 
L 422.31 296.881386 
L 405.946364 296.881386 
z
" style="fill:#4285f4;stroke:#ffffff;stroke-linejoin:miter;"/>
   </g>
   <g id="patch_14">
    <path clip-path="url(#ped67c0a93e)" d="M 438.673636 299.518125 
L 455.037273 299.518125 
L 455.037273 296.329612 
L 438.673636 296.329612 
z
" style="fill:#4285f4;stroke:#ffffff;stroke-linejoin:miter;"/>
   </g>
   <g id="patch_15">
    <path clip-path="url(#ped67c0a93e)" d="M 471.400909 299.518125 
L 487.764545 299.518125 
L 487.764545 297.182354 
L 471.400909 297.182354 
z
" style="fill:#4285f4;stroke:#ffffff;stroke-linejoin:miter;"/>
   </g>
   <g id="patch_16">
    <path clip-path="url(#ped67c0a93e)" d="M 504.128182 299.518125 
L 520.491818 299.518125 
L 520.491818 297.406989 
L 504.128182 297.406989 
z
" style="fill:#4285f4;stroke:#ffffff;stroke-linejoin:miter;"/>
   </g>
   <g id="patch_17">
    <path clip-path="url(#ped67c0a93e)" d="M 536.855455 299.518125 
L 553.219091 299.518125 
L 553.219091 297.276134 
L 536.855455 297.276134 
z
" style="fill:#4285f4;stroke:#ffffff;stroke-linejoin:miter;"/>
   </g>
   <g id="patch_18">
    <path clip-path="url(#ped67c0a93e)" d="M 569.582727 299.518125 
L 585.946364 299.518125 
L 585.946364 297.664338 
L 569.582727 297.664338 
z
" style="fill:#4285f4;stroke:#ffffff;stroke-linejoin:miter;"/>
   </g>
   <g id="patch_19">
    <path clip-path="url(#ped67c0a93e)" d="M 78.673636 299.149549 
L 95.037273 299.149549 
L 95.037273 285.708504 
L 78.673636 285.708504 
z
" style="fill:#db4437;stroke:#ffffff;stroke-linejoin:miter;"/>
   </g>
   <g id="patch_20">
    <path clip-path="url(#ped67c0a93e)" d="M 111.400909 299.092845 
L 127.764545 299.092845 
L 127.764545 289.623266 
L 111.400909 289.623266 
z
" style="fill:#db4437;stroke:#ffffff;stroke-linejoin:miter;"/>
   </g>
   <g id="patch_21">
    <path clip-path="url(#ped67c0a93e)" d="M 144.128182 299.10593 
L 160.491818 299.10593 
L 160.491818 285.224339 
L 144.128182 285.224339 
z
" style="fill:#db4437;stroke:#ffffff;stroke-linejoin:miter;"/>
   </g>
   <g id="patch_22">
    <path clip-path="url(#ped67c0a93e)" d="M 176.855455 299.068854 
L 193.219091 299.068854 
L 193.219091 279.357649 
L 176.855455 279.357649 
z
" style="fill:#db4437;stroke:#ffffff;stroke-linejoin:miter;"/>
   </g>
   <g id="patch_23">
    <path clip-path="url(#ped67c0a93e)" d="M 209.582727 299.073216 
L 225.946364 299.073216 
L 225.946364 273.026422 
L 209.582727 273.026422 
z
" style="fill:#db4437;stroke:#ffffff;stroke-linejoin:miter;"/>
   </g>
   <g id="patch_24">
    <path clip-path="url(#ped67c0a93e)" d="M 242.31 299.016512 
L 258.673636 299.016512 
L 258.673636 270.692832 
L 242.31 270.692832 
z
" style="fill:#db4437;stroke:#ffffff;stroke-linejoin:miter;"/>
   </g>
   <g id="patch_25">
    <path clip-path="url(#ped67c0a93e)" d="M 275.037273 298.907466 
L 291.400909 298.907466 
L 291.400909 270.003659 
L 275.037273 270.003659 
z
" style="fill:#db4437;stroke:#ffffff;stroke-linejoin:miter;"/>
   </g>
   <g id="patch_26">
    <path clip-path="url(#ped67c0a93e)" d="M 307.764545 298.460376 
L 324.128182 298.460376 
L 324.128182 267.105209 
L 307.764545 267.105209 
z
" style="fill:#db4437;stroke:#ffffff;stroke-linejoin:miter;"/>
   </g>
   <g id="patch_27">
    <path clip-path="url(#ped67c0a93e)" d="M 340.491818 297.934773 
L 356.855455 297.934773 
L 356.855455 262.248288 
L 340.491818 262.248288 
z
" style="fill:#db4437;stroke:#ffffff;stroke-linejoin:miter;"/>
   </g>
   <g id="patch_28">
    <path clip-path="url(#ped67c0a93e)" d="M 373.219091 298.303349 
L 389.582727 298.303349 
L 389.582727 259.511227 
L 373.219091 259.511227 
z
" style="fill:#db4437;stroke:#ffffff;stroke-linejoin:miter;"/>
   </g>
   <g id="patch_29">
    <path clip-path="url(#ped67c0a93e)" d="M 405.946364 296.881386 
L 422.31 296.881386 
L 422.31 256.652033 
L 405.946364 256.652033 
z
" style="fill:#db4437;stroke:#ffffff;stroke-linejoin:miter;"/>
   </g>
   <g id="patch_30">
    <path clip-path="url(#ped67c0a93e)" d="M 438.673636 296.329612 
L 455.037273 296.329612 
L 455.037273 253.049144 
L 438.673636 253.049144 
z
" style="fill:#db4437;stroke:#ffffff;stroke-linejoin:miter;"/>
   </g>
   <g id="patch_31">
    <path clip-path="url(#ped67c0a93e)" d="M 471.400909 297.182354 
L 487.764545 297.182354 
L 487.764545 247.031971 
L 471.400909 247.031971 
z
" style="fill:#db4437;stroke:#ffffff;stroke-linejoin:miter;"/>
   </g>
   <g id="patch_32">
    <path clip-path="url(#ped67c0a93e)" d="M 504.128182 297.406989 
L 520.491818 297.406989 
L 520.491818 243.034334 
L 504.128182 243.034334 
z
" style="fill:#db4437;stroke:#ffffff;stroke-linejoin:miter;"/>
   </g>
   <g id="patch_33">
    <path clip-path="url(#ped67c0a93e)" d="M 536.855455 297.276134 
L 553.219091 297.276134 
L 553.219091 236.303998 
L 536.855455 236.303998 
z
" style="fill:#db4437;stroke:#ffffff;stroke-linejoin:miter;"/>
   </g>
   <g id="patch_34">
    <path clip-path="url(#ped67c0a93e)" d="M 569.582727 297.664338 
L 585.946364 297.664338 
L 585.946364 237.826284 
L 569.582727 237.826284 
z
" style="fill:#db4437;stroke:#ffffff;stroke-linejoin:miter;"/>
   </g>
   <g id="patch_35">
    <path clip-path="url(#ped67c0a93e)" d="M 78.673636 285.708504 
L 95.037273 285.708504 
L 95.037273 281.327025 
L 78.673636 281.327025 
z
" style="fill:#f4b400;stroke:#ffffff;stroke-linejoin:miter;"/>
   </g>
   <g id="patch_36">
    <path clip-path="url(#ped67c0a93e)" d="M 111.400909 289.623266 
L 127.764545 289.623266 
L 127.764545 282.243014 
L 111.400909 282.243014 
z
" style="fill:#f4b400;stroke:#ffffff;stroke-linejoin:miter;"/>
   </g>
   <g id="patch_37">
    <path clip-path="url(#ped67c0a93e)" d="M 144.128182 285.224339 
L 160.491818 285.224339 
L 160.491818 274.4811 
L 144.128182 274.4811 
z
" style="fill:#f4b400;stroke:#ffffff;stroke-linejoin:miter;"/>
   </g>
   <g id="patch_38">
    <path clip-path="url(#ped67c0a93e)" d="M 176.855455 279.357649 
L 193.219091 279.357649 
L 193.219091 265.709417 
L 176.855455 265.709417 
z
" style="fill:#f4b400;stroke:#ffffff;stroke-linejoin:miter;"/>
   </g>
   <g id="patch_39">
    <path clip-path="url(#ped67c0a93e)" d="M 209.582727 273.026422 
L 225.946364 273.026422 
L 225.946364 255.925785 
L 209.582727 255.925785 
z
" style="fill:#f4b400;stroke:#ffffff;stroke-linejoin:miter;"/>
   </g>
   <g id="patch_40">
    <path clip-path="url(#ped67c0a93e)" d="M 242.31 270.692832 
L 258.673636 270.692832 
L 258.673636 249.690519 
L 242.31 249.690519 
z
" style="fill:#f4b400;stroke:#ffffff;stroke-linejoin:miter;"/>
   </g>
   <g id="patch_41">
    <path clip-path="url(#ped67c0a93e)" d="M 275.037273 270.003659 
L 291.400909 270.003659 
L 291.400909 239.226438 
L 275.037273 239.226438 
z
" style="fill:#f4b400;stroke:#ffffff;stroke-linejoin:miter;"/>
   </g>
   <g id="patch_42">
    <path clip-path="url(#ped67c0a93e)" d="M 307.764545 267.105209 
L 324.128182 267.105209 
L 324.128182 230.123255 
L 307.764545 230.123255 
z
" style="fill:#f4b400;stroke:#ffffff;stroke-linejoin:miter;"/>
   </g>
   <g id="patch_43">
    <path clip-path="url(#ped67c0a93e)" d="M 340.491818 262.248288 
L 356.855455 262.248288 
L 356.855455 221.680892 
L 340.491818 221.680892 
z
" style="fill:#f4b400;stroke:#ffffff;stroke-linejoin:miter;"/>
   </g>
   <g id="patch_44">
    <path clip-path="url(#ped67c0a93e)" d="M 373.219091 259.511227 
L 389.582727 259.511227 
L 389.582727 214.128347 
L 373.219091 214.128347 
z
" style="fill:#f4b400;stroke:#ffffff;stroke-linejoin:miter;"/>
   </g>
   <g id="patch_45">
    <path clip-path="url(#ped67c0a93e)" d="M 405.946364 256.652033 
L 422.31 256.652033 
L 422.31 206.327176 
L 405.946364 206.327176 
z
" style="fill:#f4b400;stroke:#ffffff;stroke-linejoin:miter;"/>
   </g>
   <g id="patch_46">
    <path clip-path="url(#ped67c0a93e)" d="M 438.673636 253.049144 
L 455.037273 253.049144 
L 455.037273 197.101861 
L 438.673636 197.101861 
z
" style="fill:#f4b400;stroke:#ffffff;stroke-linejoin:miter;"/>
   </g>
   <g id="patch_47">
    <path clip-path="url(#ped67c0a93e)" d="M 471.400909 247.031971 
L 487.764545 247.031971 
L 487.764545 189.431546 
L 471.400909 189.431546 
z
" style="fill:#f4b400;stroke:#ffffff;stroke-linejoin:miter;"/>
   </g>
   <g id="patch_48">
    <path clip-path="url(#ped67c0a93e)" d="M 504.128182 243.034334 
L 520.491818 243.034334 
L 520.491818 175.120312 
L 504.128182 175.120312 
z
" style="fill:#f4b400;stroke:#ffffff;stroke-linejoin:miter;"/>
   </g>
   <g id="patch_49">
    <path clip-path="url(#ped67c0a93e)" d="M 536.855455 236.303998 
L 553.219091 236.303998 
L 553.219091 160.961744 
L 536.855455 160.961744 
z
" style="fill:#f4b400;stroke:#ffffff;stroke-linejoin:miter;"/>
   </g>
   <g id="patch_50">
    <path clip-path="url(#ped67c0a93e)" d="M 569.582727 237.826284 
L 585.946364 237.826284 
L 585.946364 153.745061 
L 569.582727 153.745061 
z
" style="fill:#f4b400;stroke:#ffffff;stroke-linejoin:miter;"/>
   </g>
   <g id="patch_51">
    <path clip-path="url(#ped67c0a93e)" d="M 78.673636 281.327025 
L 95.037273 281.327025 
L 95.037273 280.247467 
L 78.673636 280.247467 
z
" style="fill:#0f9d58;stroke:#ffffff;stroke-linejoin:miter;"/>
   </g>
   <g id="patch_52">
    <path clip-path="url(#ped67c0a93e)" d="M 111.400909 282.243014 
L 127.764545 282.243014 
L 127.764545 280.391408 
L 111.400909 280.391408 
z
" style="fill:#0f9d58;stroke:#ffffff;stroke-linejoin:miter;"/>
   </g>
   <g id="patch_53">
    <path clip-path="url(#ped67c0a93e)" d="M 144.128182 274.4811 
L 160.491818 274.4811 
L 160.491818 271.473603 
L 144.128182 271.473603 
z
" style="fill:#0f9d58;stroke:#ffffff;stroke-linejoin:miter;"/>
   </g>
   <g id="patch_54">
    <path clip-path="url(#ped67c0a93e)" d="M 176.855455 265.709417 
L 193.219091 265.709417 
L 193.219091 261.646353 
L 176.855455 261.646353 
z
" style="fill:#0f9d58;stroke:#ffffff;stroke-linejoin:miter;"/>
   </g>
   <g id="patch_55">
    <path clip-path="url(#ped67c0a93e)" d="M 209.582727 255.925785 
L 225.946364 255.925785 
L 225.946364 250.089628 
L 209.582727 250.089628 
z
" style="fill:#0f9d58;stroke:#ffffff;stroke-linejoin:miter;"/>
   </g>
   <g id="patch_56">
    <path clip-path="url(#ped67c0a93e)" d="M 242.31 249.690519 
L 258.673636 249.690519 
L 258.673636 241.84573 
L 242.31 241.84573 
z
" style="fill:#0f9d58;stroke:#ffffff;stroke-linejoin:miter;"/>
   </g>
   <g id="patch_57">
    <path clip-path="url(#ped67c0a93e)" d="M 275.037273 239.226438 
L 291.400909 239.226438 
L 291.400909 228.129889 
L 275.037273 228.129889 
z
" style="fill:#0f9d58;stroke:#ffffff;stroke-linejoin:miter;"/>
   </g>
   <g id="patch_58">
    <path clip-path="url(#ped67c0a93e)" d="M 307.764545 230.123255 
L 324.128182 230.123255 
L 324.128182 216.429223 
L 307.764545 216.429223 
z
" style="fill:#0f9d58;stroke:#ffffff;stroke-linejoin:miter;"/>
   </g>
   <g id="patch_59">
    <path clip-path="url(#ped67c0a93e)" d="M 340.491818 221.680892 
L 356.855455 221.680892 
L 356.855455 206.229034 
L 340.491818 206.229034 
z
" style="fill:#0f9d58;stroke:#ffffff;stroke-linejoin:miter;"/>
   </g>
   <g id="patch_60">
    <path clip-path="url(#ped67c0a93e)" d="M 373.219091 214.128347 
L 389.582727 214.128347 
L 389.582727 198.037478 
L 373.219091 198.037478 
z
" style="fill:#0f9d58;stroke:#ffffff;stroke-linejoin:miter;"/>
   </g>
   <g id="patch_61">
    <path clip-path="url(#ped67c0a93e)" d="M 405.946364 206.327176 
L 422.31 206.327176 
L 422.31 187.377114 
L 405.946364 187.377114 
z
" style="fill:#0f9d58;stroke:#ffffff;stroke-linejoin:miter;"/>
   </g>
   <g id="patch_62">
    <path clip-path="url(#ped67c0a93e)" d="M 438.673636 197.101861 
L 455.037273 197.101861 
L 455.037273 177.281609 
L 438.673636 177.281609 
z
" style="fill:#0f9d58;stroke:#ffffff;stroke-linejoin:miter;"/>
   </g>
   <g id="patch_63">
    <path clip-path="url(#ped67c0a93e)" d="M 471.400909 189.431546 
L 487.764545 189.431546 
L 487.764545 167.354036 
L 471.400909 167.354036 
z
" style="fill:#0f9d58;stroke:#ffffff;stroke-linejoin:miter;"/>
   </g>
   <g id="patch_64">
    <path clip-path="url(#ped67c0a93e)" d="M 504.128182 175.120312 
L 520.491818 175.120312 
L 520.491818 143.985419 
L 504.128182 143.985419 
z
" style="fill:#0f9d58;stroke:#ffffff;stroke-linejoin:miter;"/>
   </g>
   <g id="patch_65">
    <path clip-path="url(#ped67c0a93e)" d="M 536.855455 160.961744 
L 553.219091 160.961744 
L 553.219091 124.900139 
L 536.855455 124.900139 
z
" style="fill:#0f9d58;stroke:#ffffff;stroke-linejoin:miter;"/>
   </g>
   <g id="patch_66">
    <path clip-path="url(#ped67c0a93e)" d="M 569.582727 153.745061 
L 585.946364 153.745061 
L 585.946364 120.54265 
L 569.582727 120.54265 
z
" style="fill:#0f9d58;stroke:#ffffff;stroke-linejoin:miter;"/>
   </g>
   <g id="patch_67">
    <path clip-path="url(#ped67c0a93e)" d="M 78.673636 280.247467 
L 95.037273 280.247467 
L 95.037273 267.242608 
L 78.673636 267.242608 
z
" style="fill:#ff6d00;stroke:#ffffff;stroke-linejoin:miter;"/>
   </g>
   <g id="patch_68">
    <path clip-path="url(#ped67c0a93e)" d="M 111.400909 280.391408 
L 127.764545 280.391408 
L 127.764545 265.55239 
L 111.400909 265.55239 
z
" style="fill:#ff6d00;stroke:#ffffff;stroke-linejoin:miter;"/>
   </g>
   <g id="patch_69">
    <path clip-path="url(#ped67c0a93e)" d="M 144.128182 271.473603 
L 160.491818 271.473603 
L 160.491818 250.595603 
L 144.128182 250.595603 
z
" style="fill:#ff6d00;stroke:#ffffff;stroke-linejoin:miter;"/>
   </g>
   <g id="patch_70">
    <path clip-path="url(#ped67c0a93e)" d="M 176.855455 261.646353 
L 193.219091 261.646353 
L 193.219091 233.704335 
L 176.855455 233.704335 
z
" style="fill:#ff6d00;stroke:#ffffff;stroke-linejoin:miter;"/>
   </g>
   <g id="patch_71">
    <path clip-path="url(#ped67c0a93e)" d="M 209.582727 250.089628 
L 225.946364 250.089628 
L 225.946364 216.16315 
L 209.582727 216.16315 
z
" style="fill:#ff6d00;stroke:#ffffff;stroke-linejoin:miter;"/>
   </g>
   <g id="patch_72">
    <path clip-path="url(#ped67c0a93e)" d="M 242.31 241.84573 
L 258.673636 241.84573 
L 258.673636 202.301187 
L 242.31 202.301187 
z
" style="fill:#ff6d00;stroke:#ffffff;stroke-linejoin:miter;"/>
   </g>
   <g id="patch_73">
    <path clip-path="url(#ped67c0a93e)" d="M 275.037273 228.129889 
L 291.400909 228.129889 
L 291.400909 181.462444 
L 275.037273 181.462444 
z
" style="fill:#ff6d00;stroke:#ffffff;stroke-linejoin:miter;"/>
   </g>
   <g id="patch_74">
    <path clip-path="url(#ped67c0a93e)" d="M 307.764545 216.429223 
L 324.128182 216.429223 
L 324.128182 163.024899 
L 307.764545 163.024899 
z
" style="fill:#ff6d00;stroke:#ffffff;stroke-linejoin:miter;"/>
   </g>
   <g id="patch_75">
    <path clip-path="url(#ped67c0a93e)" d="M 340.491818 206.229034 
L 356.855455 206.229034 
L 356.855455 147.778049 
L 340.491818 147.778049 
z
" style="fill:#ff6d00;stroke:#ffffff;stroke-linejoin:miter;"/>
   </g>
   <g id="patch_76">
    <path clip-path="url(#ped67c0a93e)" d="M 373.219091 198.037478 
L 389.582727 198.037478 
L 389.582727 131.671913 
L 373.219091 131.671913 
z
" style="fill:#ff6d00;stroke:#ffffff;stroke-linejoin:miter;"/>
   </g>
   <g id="patch_77">
    <path clip-path="url(#ped67c0a93e)" d="M 405.946364 187.377114 
L 422.31 187.377114 
L 422.31 115.637749 
L 405.946364 115.637749 
z
" style="fill:#ff6d00;stroke:#ffffff;stroke-linejoin:miter;"/>
   </g>
   <g id="patch_78">
    <path clip-path="url(#ped67c0a93e)" d="M 438.673636 177.281609 
L 455.037273 177.281609 
L 455.037273 98.434608 
L 438.673636 98.434608 
z
" style="fill:#ff6d00;stroke:#ffffff;stroke-linejoin:miter;"/>
   </g>
   <g id="patch_79">
    <path clip-path="url(#ped67c0a93e)" d="M 471.400909 167.354036 
L 487.764545 167.354036 
L 487.764545 79.21193 
L 471.400909 79.21193 
z
" style="fill:#ff6d00;stroke:#ffffff;stroke-linejoin:miter;"/>
   </g>
   <g id="patch_80">
    <path clip-path="url(#ped67c0a93e)" d="M 504.128182 143.985419 
L 520.491818 143.985419 
L 520.491818 54.994933 
L 504.128182 54.994933 
z
" style="fill:#ff6d00;stroke:#ffffff;stroke-linejoin:miter;"/>
   </g>
   <g id="patch_81">
    <path clip-path="url(#ped67c0a93e)" d="M 536.855455 124.900139 
L 553.219091 124.900139 
L 553.219091 31.807332 
L 536.855455 31.807332 
z
" style="fill:#ff6d00;stroke:#ffffff;stroke-linejoin:miter;"/>
   </g>
   <g id="patch_82">
    <path clip-path="url(#ped67c0a93e)" d="M 569.582727 120.54265 
L 585.946364 120.54265 
L 585.946364 23.192676 
L 569.582727 23.192676 
z
" style="fill:#ff6d00;stroke:#ffffff;stroke-linejoin:miter;"/>
   </g>
   <g id="patch_83">
    <path clip-path="url(#ped67c0a93e)" d="M 78.673636 267.242608 
L 95.037273 267.242608 
L 95.037273 267.194627 
L 78.673636 267.194627 
z
" style="fill:#46bdc6;stroke:#ffffff;stroke-linejoin:miter;"/>
   </g>
   <g id="patch_84">
    <path clip-path="url(#ped67c0a93e)" d="M 111.400909 265.55239 
L 127.764545 265.55239 
L 127.764545 265.482601 
L 111.400909 265.482601 
z
" style="fill:#46bdc6;stroke:#ffffff;stroke-linejoin:miter;"/>
   </g>
   <g id="patch_85">
    <path clip-path="url(#ped67c0a93e)" d="M 144.128182 250.595603 
L 160.491818 250.595603 
L 160.491818 250.458205 
L 144.128182 250.458205 
z
" style="fill:#46bdc6;stroke:#ffffff;stroke-linejoin:miter;"/>
   </g>
   <g id="patch_86">
    <path clip-path="url(#ped67c0a93e)" d="M 176.855455 233.704335 
L 193.219091 233.704335 
L 193.219091 233.516775 
L 176.855455 233.516775 
z
" style="fill:#46bdc6;stroke:#ffffff;stroke-linejoin:miter;"/>
   </g>
   <g id="patch_87">
    <path clip-path="url(#ped67c0a93e)" d="M 209.582727 216.16315 
L 225.946364 216.16315 
L 225.946364 215.92761 
L 209.582727 215.92761 
z
" style="fill:#46bdc6;stroke:#ffffff;stroke-linejoin:miter;"/>
   </g>
   <g id="patch_88">
    <path clip-path="url(#ped67c0a93e)" d="M 242.31 202.301187 
L 258.673636 202.301187 
L 258.673636 202.008943 
L 242.31 202.008943 
z
" style="fill:#46bdc6;stroke:#ffffff;stroke-linejoin:miter;"/>
   </g>
   <g id="patch_89">
    <path clip-path="url(#ped67c0a93e)" d="M 275.037273 181.462444 
L 291.400909 181.462444 
L 291.400909 181.126581 
L 275.037273 181.126581 
z
" style="fill:#46bdc6;stroke:#ffffff;stroke-linejoin:miter;"/>
   </g>
   <g id="patch_90">
    <path clip-path="url(#ped67c0a93e)" d="M 307.764545 163.024899 
L 324.128182 163.024899 
L 324.128182 162.656323 
L 307.764545 162.656323 
z
" style="fill:#46bdc6;stroke:#ffffff;stroke-linejoin:miter;"/>
   </g>
   <g id="patch_91">
    <path clip-path="url(#ped67c0a93e)" d="M 340.491818 147.778049 
L 356.855455 147.778049 
L 356.855455 147.35713 
L 340.491818 147.35713 
z
" style="fill:#46bdc6;stroke:#ffffff;stroke-linejoin:miter;"/>
   </g>
   <g id="patch_92">
    <path clip-path="url(#ped67c0a93e)" d="M 373.219091 131.671913 
L 389.582727 131.671913 
L 389.582727 131.203014 
L 373.219091 131.203014 
z
" style="fill:#46bdc6;stroke:#ffffff;stroke-linejoin:miter;"/>
   </g>
   <g id="patch_93">
    <path clip-path="url(#ped67c0a93e)" d="M 405.946364 115.637749 
L 422.31 115.637749 
L 422.31 115.085974 
L 405.946364 115.085974 
z
" style="fill:#46bdc6;stroke:#ffffff;stroke-linejoin:miter;"/>
   </g>
   <g id="patch_94">
    <path clip-path="url(#ped67c0a93e)" d="M 438.673636 98.434608 
L 455.037273 98.434608 
L 455.037273 97.841396 
L 438.673636 97.841396 
z
" style="fill:#46bdc6;stroke:#ffffff;stroke-linejoin:miter;"/>
   </g>
   <g id="patch_95">
    <path clip-path="url(#ped67c0a93e)" d="M 471.400909 79.21193 
L 487.764545 79.21193 
L 487.764545 78.509672 
L 471.400909 78.509672 
z
" style="fill:#46bdc6;stroke:#ffffff;stroke-linejoin:miter;"/>
   </g>
   <g id="patch_96">
    <path clip-path="url(#ped67c0a93e)" d="M 504.128182 54.994933 
L 520.491818 54.994933 
L 520.491818 54.146553 
L 504.128182 54.146553 
z
" style="fill:#46bdc6;stroke:#ffffff;stroke-linejoin:miter;"/>
   </g>
   <g id="patch_97">
    <path clip-path="url(#ped67c0a93e)" d="M 536.855455 31.807332 
L 553.219091 31.807332 
L 553.219091 30.97858 
L 536.855455 30.97858 
z
" style="fill:#46bdc6;stroke:#ffffff;stroke-linejoin:miter;"/>
   </g>
   <g id="patch_98">
    <path clip-path="url(#ped67c0a93e)" d="M 569.582727 23.192676 
L 585.946364 23.192676 
L 585.946364 22.318125 
L 569.582727 22.318125 
z
" style="fill:#46bdc6;stroke:#ffffff;stroke-linejoin:miter;"/>
   </g>
   <g id="patch_99">
    <path clip-path="url(#ped67c0a93e)" d="M 78.673636 267.194627 
L 95.037273 267.194627 
L 95.037273 267.194627 
L 78.673636 267.194627 
z
" style="fill:#ab30c4;stroke:#ffffff;stroke-linejoin:miter;"/>
   </g>
   <g id="patch_100">
    <path clip-path="url(#ped67c0a93e)" d="M 111.400909 265.482601 
L 127.764545 265.482601 
L 127.764545 265.482601 
L 111.400909 265.482601 
z
" style="fill:#ab30c4;stroke:#ffffff;stroke-linejoin:miter;"/>
   </g>
   <g id="patch_101">
    <path clip-path="url(#ped67c0a93e)" d="M 144.128182 250.458205 
L 160.491818 250.458205 
L 160.491818 250.458205 
L 144.128182 250.458205 
z
" style="fill:#ab30c4;stroke:#ffffff;stroke-linejoin:miter;"/>
   </g>
   <g id="patch_102">
    <path clip-path="url(#ped67c0a93e)" d="M 176.855455 233.516775 
L 193.219091 233.516775 
L 193.219091 233.516775 
L 176.855455 233.516775 
z
" style="fill:#ab30c4;stroke:#ffffff;stroke-linejoin:miter;"/>
   </g>
   <g id="patch_103">
    <path clip-path="url(#ped67c0a93e)" d="M 209.582727 215.92761 
L 225.946364 215.92761 
L 225.946364 215.92761 
L 209.582727 215.92761 
z
" style="fill:#ab30c4;stroke:#ffffff;stroke-linejoin:miter;"/>
   </g>
   <g id="patch_104">
    <path clip-path="url(#ped67c0a93e)" d="M 242.31 202.008943 
L 258.673636 202.008943 
L 258.673636 202.008943 
L 242.31 202.008943 
z
" style="fill:#ab30c4;stroke:#ffffff;stroke-linejoin:miter;"/>
   </g>
   <g id="patch_105">
    <path clip-path="url(#ped67c0a93e)" d="M 275.037273 181.126581 
L 291.400909 181.126581 
L 291.400909 181.126581 
L 275.037273 181.126581 
z
" style="fill:#ab30c4;stroke:#ffffff;stroke-linejoin:miter;"/>
   </g>
   <g id="patch_106">
    <path clip-path="url(#ped67c0a93e)" d="M 307.764545 162.656323 
L 324.128182 162.656323 
L 324.128182 162.656323 
L 307.764545 162.656323 
z
" style="fill:#ab30c4;stroke:#ffffff;stroke-linejoin:miter;"/>
   </g>
   <g id="patch_107">
    <path clip-path="url(#ped67c0a93e)" d="M 340.491818 147.35713 
L 356.855455 147.35713 
L 356.855455 147.354949 
L 340.491818 147.354949 
z
" style="fill:#ab30c4;stroke:#ffffff;stroke-linejoin:miter;"/>
   </g>
   <g id="patch_108">
    <path clip-path="url(#ped67c0a93e)" d="M 373.219091 131.203014 
L 389.582727 131.203014 
L 389.582727 131.203014 
L 373.219091 131.203014 
z
" style="fill:#ab30c4;stroke:#ffffff;stroke-linejoin:miter;"/>
   </g>
   <g id="patch_109">
    <path clip-path="url(#ped67c0a93e)" d="M 405.946364 115.085974 
L 422.31 115.085974 
L 422.31 115.085974 
L 405.946364 115.085974 
z
" style="fill:#ab30c4;stroke:#ffffff;stroke-linejoin:miter;"/>
   </g>
   <g id="patch_110">
    <path clip-path="url(#ped67c0a93e)" d="M 438.673636 97.841396 
L 455.037273 97.841396 
L 455.037273 97.841396 
L 438.673636 97.841396 
z
" style="fill:#ab30c4;stroke:#ffffff;stroke-linejoin:miter;"/>
   </g>
   <g id="patch_111">
    <path clip-path="url(#ped67c0a93e)" d="M 471.400909 78.509672 
L 487.764545 78.509672 
L 487.764545 78.509672 
L 471.400909 78.509672 
z
" style="fill:#ab30c4;stroke:#ffffff;stroke-linejoin:miter;"/>
   </g>
   <g id="patch_112">
    <path clip-path="url(#ped67c0a93e)" d="M 504.128182 54.146553 
L 520.491818 54.146553 
L 520.491818 54.146553 
L 504.128182 54.146553 
z
" style="fill:#ab30c4;stroke:#ffffff;stroke-linejoin:miter;"/>
   </g>
   <g id="patch_113">
    <path clip-path="url(#ped67c0a93e)" d="M 536.855455 30.97858 
L 553.219091 30.97858 
L 553.219091 30.97858 
L 536.855455 30.97858 
z
" style="fill:#ab30c4;stroke:#ffffff;stroke-linejoin:miter;"/>
   </g>
   <g id="patch_114">
    <path clip-path="url(#ped67c0a93e)" d="M 569.582727 22.318125 
L 585.946364 22.318125 
L 585.946364 22.318125 
L 569.582727 22.318125 
z
" style="fill:#ab30c4;stroke:#ffffff;stroke-linejoin:miter;"/>
   </g>
   <g id="patch_115">
    <path d="M 53.31 299.518125 
L 53.31 22.318125 
" style="fill:none;stroke:#000000;stroke-linecap:square;stroke-linejoin:miter;stroke-width:2;"/>
   </g>
   <g id="patch_116">
    <path d="M 611.31 299.518125 
L 611.31 22.318125 
" style="fill:none;stroke:#000000;stroke-linecap:square;stroke-linejoin:miter;stroke-width:2;"/>
   </g>
   <g id="patch_117">
    <path d="M 53.31 299.518125 
L 611.31 299.518125 
" style="fill:none;stroke:#000000;stroke-linecap:square;stroke-linejoin:miter;stroke-width:2;"/>
   </g>
   <g id="patch_118">
    <path d="M 53.31 22.318125 
L 611.31 22.318125 
" style="fill:none;stroke:#000000;stroke-linecap:square;stroke-linejoin:miter;stroke-width:2;"/>
   </g>
   <g id="legend_1">
    <g id="patch_119">
     <path d="M 235.694375 414.481875 
L 603.61 414.481875 
Q 605.81 414.481875 605.81 412.281875 
L 605.81 348.798125 
Q 605.81 346.598125 603.61 346.598125 
L 235.694375 346.598125 
Q 233.494375 346.598125 233.494375 348.798125 
L 233.494375 412.281875 
Q 233.494375 414.481875 235.694375 414.481875 
z
" style="fill:#eaeaf2;opacity:0.8;stroke:#cccccc;stroke-linejoin:miter;"/>
    </g>
    <g id="patch_120">
     <path d="M 237.894375 359.356406 
L 259.894375 359.356406 
L 259.894375 351.656406 
L 237.894375 351.656406 
z
" style="fill:#4285f4;stroke:#4285f4;stroke-linejoin:miter;"/>
    </g>
    <g id="text_26">
     <!-- Client Send -->
     <g style="fill:#262626;" transform="translate(268.694375 359.356406)scale(0.11 -0.11)">
      <defs>
       <path d="M 53.515625 70.515625 
L 53.515625 60.890625 
Q 47.90625 63.578125 42.921875 64.890625 
Q 37.9375 66.21875 33.296875 66.21875 
Q 25.25 66.21875 20.875 63.09375 
Q 16.5 59.96875 16.5 54.203125 
Q 16.5 49.359375 19.40625 46.890625 
Q 22.3125 44.4375 30.421875 42.921875 
L 36.375 41.703125 
Q 47.40625 39.59375 52.65625 34.296875 
Q 57.90625 29 57.90625 20.125 
Q 57.90625 9.515625 50.796875 4.046875 
Q 43.703125 -1.421875 29.984375 -1.421875 
Q 24.8125 -1.421875 18.96875 -0.25 
Q 13.140625 0.921875 6.890625 3.21875 
L 6.890625 13.375 
Q 12.890625 10.015625 18.65625 8.296875 
Q 24.421875 6.59375 29.984375 6.59375 
Q 38.421875 6.59375 43.015625 9.90625 
Q 47.609375 13.234375 47.609375 19.390625 
Q 47.609375 24.75 44.3125 27.78125 
Q 41.015625 30.8125 33.5 32.328125 
L 27.484375 33.5 
Q 16.453125 35.6875 11.515625 40.375 
Q 6.59375 45.0625 6.59375 53.421875 
Q 6.59375 63.09375 13.40625 68.65625 
Q 20.21875 74.21875 32.171875 74.21875 
Q 37.3125 74.21875 42.625 73.28125 
Q 47.953125 72.359375 53.515625 70.515625 
z
" id="DejaVuSans-83"/>
      </defs>
      <use xlink:href="#DejaVuSans-67"/>
      <use x="69.824219" xlink:href="#DejaVuSans-108"/>
      <use x="97.607422" xlink:href="#DejaVuSans-105"/>
      <use x="125.390625" xlink:href="#DejaVuSans-101"/>
      <use x="186.914062" xlink:href="#DejaVuSans-110"/>
      <use x="250.292969" xlink:href="#DejaVuSans-116"/>
      <use x="289.501953" xlink:href="#DejaVuSans-32"/>
      <use x="321.289062" xlink:href="#DejaVuSans-83"/>
      <use x="384.765625" xlink:href="#DejaVuSans-101"/>
      <use x="446.289062" xlink:href="#DejaVuSans-110"/>
      <use x="509.667969" xlink:href="#DejaVuSans-100"/>
     </g>
    </g>
    <g id="patch_121">
     <path d="M 237.894375 375.502344 
L 259.894375 375.502344 
L 259.894375 367.802344 
L 237.894375 367.802344 
z
" style="fill:#ab30c4;stroke:#ab30c4;stroke-linejoin:miter;"/>
    </g>
    <g id="text_27">
     <!-- Client Recv -->
     <g style="fill:#262626;" transform="translate(268.694375 375.502344)scale(0.11 -0.11)">
      <defs>
       <path d="M 44.390625 34.1875 
Q 47.5625 33.109375 50.5625 29.59375 
Q 53.5625 26.078125 56.59375 19.921875 
L 66.609375 0 
L 56 0 
L 46.6875 18.703125 
Q 43.0625 26.03125 39.671875 28.421875 
Q 36.28125 30.8125 30.421875 30.8125 
L 19.671875 30.8125 
L 19.671875 0 
L 9.8125 0 
L 9.8125 72.90625 
L 32.078125 72.90625 
Q 44.578125 72.90625 50.734375 67.671875 
Q 56.890625 62.453125 56.890625 51.90625 
Q 56.890625 45.015625 53.6875 40.46875 
Q 50.484375 35.9375 44.390625 34.1875 
z
M 19.671875 64.796875 
L 19.671875 38.921875 
L 32.078125 38.921875 
Q 39.203125 38.921875 42.84375 42.21875 
Q 46.484375 45.515625 46.484375 51.90625 
Q 46.484375 58.296875 42.84375 61.546875 
Q 39.203125 64.796875 32.078125 64.796875 
z
" id="DejaVuSans-82"/>
      </defs>
      <use xlink:href="#DejaVuSans-67"/>
      <use x="69.824219" xlink:href="#DejaVuSans-108"/>
      <use x="97.607422" xlink:href="#DejaVuSans-105"/>
      <use x="125.390625" xlink:href="#DejaVuSans-101"/>
      <use x="186.914062" xlink:href="#DejaVuSans-110"/>
      <use x="250.292969" xlink:href="#DejaVuSans-116"/>
      <use x="289.501953" xlink:href="#DejaVuSans-32"/>
      <use x="321.289062" xlink:href="#DejaVuSans-82"/>
      <use x="386.271484" xlink:href="#DejaVuSans-101"/>
      <use x="447.794922" xlink:href="#DejaVuSans-99"/>
      <use x="502.775391" xlink:href="#DejaVuSans-118"/>
     </g>
    </g>
    <g id="patch_122">
     <path d="M 237.894375 391.648281 
L 259.894375 391.648281 
L 259.894375 383.948281 
L 237.894375 383.948281 
z
" style="fill:#db4437;stroke:#db4437;stroke-linejoin:miter;"/>
    </g>
    <g id="text_28">
     <!-- Network+server Send/recv -->
     <g style="fill:#262626;" transform="translate(268.694375 391.648281)scale(0.11 -0.11)">
      <defs>
       <path d="M 9.8125 72.90625 
L 23.09375 72.90625 
L 55.421875 11.921875 
L 55.421875 72.90625 
L 64.984375 72.90625 
L 64.984375 0 
L 51.703125 0 
L 19.390625 60.984375 
L 19.390625 0 
L 9.8125 0 
z
" id="DejaVuSans-78"/>
       <path d="M 4.203125 54.6875 
L 13.1875 54.6875 
L 24.421875 12.015625 
L 35.59375 54.6875 
L 46.1875 54.6875 
L 57.421875 12.015625 
L 68.609375 54.6875 
L 77.59375 54.6875 
L 63.28125 0 
L 52.6875 0 
L 40.921875 44.828125 
L 29.109375 0 
L 18.5 0 
z
" id="DejaVuSans-119"/>
       <path d="M 9.078125 75.984375 
L 18.109375 75.984375 
L 18.109375 31.109375 
L 44.921875 54.6875 
L 56.390625 54.6875 
L 27.390625 29.109375 
L 57.625 0 
L 45.90625 0 
L 18.109375 26.703125 
L 18.109375 0 
L 9.078125 0 
z
" id="DejaVuSans-107"/>
       <path d="M 46 62.703125 
L 46 35.5 
L 73.1875 35.5 
L 73.1875 27.203125 
L 46 27.203125 
L 46 0 
L 37.796875 0 
L 37.796875 27.203125 
L 10.59375 27.203125 
L 10.59375 35.5 
L 37.796875 35.5 
L 37.796875 62.703125 
z
" id="DejaVuSans-43"/>
       <path d="M 25.390625 72.90625 
L 33.6875 72.90625 
L 8.296875 -9.28125 
L 0 -9.28125 
z
" id="DejaVuSans-47"/>
      </defs>
      <use xlink:href="#DejaVuSans-78"/>
      <use x="74.804688" xlink:href="#DejaVuSans-101"/>
      <use x="136.328125" xlink:href="#DejaVuSans-116"/>
      <use x="175.537109" xlink:href="#DejaVuSans-119"/>
      <use x="257.324219" xlink:href="#DejaVuSans-111"/>
      <use x="318.505859" xlink:href="#DejaVuSans-114"/>
      <use x="359.619141" xlink:href="#DejaVuSans-107"/>
      <use x="417.529297" xlink:href="#DejaVuSans-43"/>
      <use x="501.318359" xlink:href="#DejaVuSans-115"/>
      <use x="553.417969" xlink:href="#DejaVuSans-101"/>
      <use x="614.941406" xlink:href="#DejaVuSans-114"/>
      <use x="656.054688" xlink:href="#DejaVuSans-118"/>
      <use x="715.234375" xlink:href="#DejaVuSans-101"/>
      <use x="776.757812" xlink:href="#DejaVuSans-114"/>
      <use x="817.871094" xlink:href="#DejaVuSans-32"/>
      <use x="849.658203" xlink:href="#DejaVuSans-83"/>
      <use x="913.134766" xlink:href="#DejaVuSans-101"/>
      <use x="974.658203" xlink:href="#DejaVuSans-110"/>
      <use x="1038.037109" xlink:href="#DejaVuSans-100"/>
      <use x="1101.513672" xlink:href="#DejaVuSans-47"/>
      <use x="1135.205078" xlink:href="#DejaVuSans-114"/>
      <use x="1174.068359" xlink:href="#DejaVuSans-101"/>
      <use x="1235.591797" xlink:href="#DejaVuSans-99"/>
      <use x="1290.572266" xlink:href="#DejaVuSans-118"/>
     </g>
    </g>
    <g id="patch_123">
     <path d="M 237.894375 407.794219 
L 259.894375 407.794219 
L 259.894375 400.094219 
L 237.894375 400.094219 
z
" style="fill:#f4b400;stroke:#f4b400;stroke-linejoin:miter;"/>
    </g>
    <g id="text_29">
     <!-- Server Queue -->
     <g style="fill:#262626;" transform="translate(268.694375 407.794219)scale(0.11 -0.11)">
      <defs>
       <path d="M 39.40625 66.21875 
Q 28.65625 66.21875 22.328125 58.203125 
Q 16.015625 50.203125 16.015625 36.375 
Q 16.015625 22.609375 22.328125 14.59375 
Q 28.65625 6.59375 39.40625 6.59375 
Q 50.140625 6.59375 56.421875 14.59375 
Q 62.703125 22.609375 62.703125 36.375 
Q 62.703125 50.203125 56.421875 58.203125 
Q 50.140625 66.21875 39.40625 66.21875 
z
M 53.21875 1.3125 
L 66.21875 -12.890625 
L 54.296875 -12.890625 
L 43.5 -1.21875 
Q 41.890625 -1.3125 41.03125 -1.359375 
Q 40.1875 -1.421875 39.40625 -1.421875 
Q 24.03125 -1.421875 14.8125 8.859375 
Q 5.609375 19.140625 5.609375 36.375 
Q 5.609375 53.65625 14.8125 63.9375 
Q 24.03125 74.21875 39.40625 74.21875 
Q 54.734375 74.21875 63.90625 63.9375 
Q 73.09375 53.65625 73.09375 36.375 
Q 73.09375 23.6875 67.984375 14.640625 
Q 62.890625 5.609375 53.21875 1.3125 
z
" id="DejaVuSans-81"/>
      </defs>
      <use xlink:href="#DejaVuSans-83"/>
      <use x="63.476562" xlink:href="#DejaVuSans-101"/>
      <use x="125" xlink:href="#DejaVuSans-114"/>
      <use x="166.113281" xlink:href="#DejaVuSans-118"/>
      <use x="225.292969" xlink:href="#DejaVuSans-101"/>
      <use x="286.816406" xlink:href="#DejaVuSans-114"/>
      <use x="327.929688" xlink:href="#DejaVuSans-32"/>
      <use x="359.716797" xlink:href="#DejaVuSans-81"/>
      <use x="438.427734" xlink:href="#DejaVuSans-117"/>
      <use x="501.806641" xlink:href="#DejaVuSans-101"/>
      <use x="563.330078" xlink:href="#DejaVuSans-117"/>
      <use x="626.708984" xlink:href="#DejaVuSans-101"/>
     </g>
    </g>
    <g id="patch_124">
     <path d="M 439.172031 359.356406 
L 461.172031 359.356406 
L 461.172031 351.656406 
L 439.172031 351.656406 
z
" style="fill:#0f9d58;stroke:#0f9d58;stroke-linejoin:miter;"/>
    </g>
    <g id="text_30">
     <!-- Server Compute Input -->
     <g style="fill:#262626;" transform="translate(469.972031 359.356406)scale(0.11 -0.11)">
      <defs>
       <path d="M 18.109375 8.203125 
L 18.109375 -20.796875 
L 9.078125 -20.796875 
L 9.078125 54.6875 
L 18.109375 54.6875 
L 18.109375 46.390625 
Q 20.953125 51.265625 25.265625 53.625 
Q 29.59375 56 35.59375 56 
Q 45.5625 56 51.78125 48.09375 
Q 58.015625 40.1875 58.015625 27.296875 
Q 58.015625 14.40625 51.78125 6.484375 
Q 45.5625 -1.421875 35.59375 -1.421875 
Q 29.59375 -1.421875 25.265625 0.953125 
Q 20.953125 3.328125 18.109375 8.203125 
z
M 48.6875 27.296875 
Q 48.6875 37.203125 44.609375 42.84375 
Q 40.53125 48.484375 33.40625 48.484375 
Q 26.265625 48.484375 22.1875 42.84375 
Q 18.109375 37.203125 18.109375 27.296875 
Q 18.109375 17.390625 22.1875 11.75 
Q 26.265625 6.109375 33.40625 6.109375 
Q 40.53125 6.109375 44.609375 11.75 
Q 48.6875 17.390625 48.6875 27.296875 
z
" id="DejaVuSans-112"/>
       <path d="M 9.8125 72.90625 
L 19.671875 72.90625 
L 19.671875 0 
L 9.8125 0 
z
" id="DejaVuSans-73"/>
      </defs>
      <use xlink:href="#DejaVuSans-83"/>
      <use x="63.476562" xlink:href="#DejaVuSans-101"/>
      <use x="125" xlink:href="#DejaVuSans-114"/>
      <use x="166.113281" xlink:href="#DejaVuSans-118"/>
      <use x="225.292969" xlink:href="#DejaVuSans-101"/>
      <use x="286.816406" xlink:href="#DejaVuSans-114"/>
      <use x="327.929688" xlink:href="#DejaVuSans-32"/>
      <use x="359.716797" xlink:href="#DejaVuSans-67"/>
      <use x="429.541016" xlink:href="#DejaVuSans-111"/>
      <use x="490.722656" xlink:href="#DejaVuSans-109"/>
      <use x="588.134766" xlink:href="#DejaVuSans-112"/>
      <use x="651.611328" xlink:href="#DejaVuSans-117"/>
      <use x="714.990234" xlink:href="#DejaVuSans-116"/>
      <use x="754.199219" xlink:href="#DejaVuSans-101"/>
      <use x="815.722656" xlink:href="#DejaVuSans-32"/>
      <use x="847.509766" xlink:href="#DejaVuSans-73"/>
      <use x="877.001953" xlink:href="#DejaVuSans-110"/>
      <use x="940.380859" xlink:href="#DejaVuSans-112"/>
      <use x="1003.857422" xlink:href="#DejaVuSans-117"/>
      <use x="1067.236328" xlink:href="#DejaVuSans-116"/>
     </g>
    </g>
    <g id="patch_125">
     <path d="M 439.172031 375.502344 
L 461.172031 375.502344 
L 461.172031 367.802344 
L 439.172031 367.802344 
z
" style="fill:#ff6d00;stroke:#ff6d00;stroke-linejoin:miter;"/>
    </g>
    <g id="text_31">
     <!-- Server Compute Infer -->
     <g style="fill:#262626;" transform="translate(469.972031 375.502344)scale(0.11 -0.11)">
      <defs>
       <path d="M 37.109375 75.984375 
L 37.109375 68.5 
L 28.515625 68.5 
Q 23.6875 68.5 21.796875 66.546875 
Q 19.921875 64.59375 19.921875 59.515625 
L 19.921875 54.6875 
L 34.71875 54.6875 
L 34.71875 47.703125 
L 19.921875 47.703125 
L 19.921875 0 
L 10.890625 0 
L 10.890625 47.703125 
L 2.296875 47.703125 
L 2.296875 54.6875 
L 10.890625 54.6875 
L 10.890625 58.5 
Q 10.890625 67.625 15.140625 71.796875 
Q 19.390625 75.984375 28.609375 75.984375 
z
" id="DejaVuSans-102"/>
      </defs>
      <use xlink:href="#DejaVuSans-83"/>
      <use x="63.476562" xlink:href="#DejaVuSans-101"/>
      <use x="125" xlink:href="#DejaVuSans-114"/>
      <use x="166.113281" xlink:href="#DejaVuSans-118"/>
      <use x="225.292969" xlink:href="#DejaVuSans-101"/>
      <use x="286.816406" xlink:href="#DejaVuSans-114"/>
      <use x="327.929688" xlink:href="#DejaVuSans-32"/>
      <use x="359.716797" xlink:href="#DejaVuSans-67"/>
      <use x="429.541016" xlink:href="#DejaVuSans-111"/>
      <use x="490.722656" xlink:href="#DejaVuSans-109"/>
      <use x="588.134766" xlink:href="#DejaVuSans-112"/>
      <use x="651.611328" xlink:href="#DejaVuSans-117"/>
      <use x="714.990234" xlink:href="#DejaVuSans-116"/>
      <use x="754.199219" xlink:href="#DejaVuSans-101"/>
      <use x="815.722656" xlink:href="#DejaVuSans-32"/>
      <use x="847.509766" xlink:href="#DejaVuSans-73"/>
      <use x="877.001953" xlink:href="#DejaVuSans-110"/>
      <use x="940.380859" xlink:href="#DejaVuSans-102"/>
      <use x="975.585938" xlink:href="#DejaVuSans-101"/>
      <use x="1037.109375" xlink:href="#DejaVuSans-114"/>
     </g>
    </g>
    <g id="patch_126">
     <path d="M 439.172031 391.648281 
L 461.172031 391.648281 
L 461.172031 383.948281 
L 439.172031 383.948281 
z
" style="fill:#46bdc6;stroke:#46bdc6;stroke-linejoin:miter;"/>
    </g>
    <g id="text_32">
     <!-- Server Compute Output -->
     <g style="fill:#262626;" transform="translate(469.972031 391.648281)scale(0.11 -0.11)">
      <defs>
       <path d="M 39.40625 66.21875 
Q 28.65625 66.21875 22.328125 58.203125 
Q 16.015625 50.203125 16.015625 36.375 
Q 16.015625 22.609375 22.328125 14.59375 
Q 28.65625 6.59375 39.40625 6.59375 
Q 50.140625 6.59375 56.421875 14.59375 
Q 62.703125 22.609375 62.703125 36.375 
Q 62.703125 50.203125 56.421875 58.203125 
Q 50.140625 66.21875 39.40625 66.21875 
z
M 39.40625 74.21875 
Q 54.734375 74.21875 63.90625 63.9375 
Q 73.09375 53.65625 73.09375 36.375 
Q 73.09375 19.140625 63.90625 8.859375 
Q 54.734375 -1.421875 39.40625 -1.421875 
Q 24.03125 -1.421875 14.8125 8.828125 
Q 5.609375 19.09375 5.609375 36.375 
Q 5.609375 53.65625 14.8125 63.9375 
Q 24.03125 74.21875 39.40625 74.21875 
z
" id="DejaVuSans-79"/>
      </defs>
      <use xlink:href="#DejaVuSans-83"/>
      <use x="63.476562" xlink:href="#DejaVuSans-101"/>
      <use x="125" xlink:href="#DejaVuSans-114"/>
      <use x="166.113281" xlink:href="#DejaVuSans-118"/>
      <use x="225.292969" xlink:href="#DejaVuSans-101"/>
      <use x="286.816406" xlink:href="#DejaVuSans-114"/>
      <use x="327.929688" xlink:href="#DejaVuSans-32"/>
      <use x="359.716797" xlink:href="#DejaVuSans-67"/>
      <use x="429.541016" xlink:href="#DejaVuSans-111"/>
      <use x="490.722656" xlink:href="#DejaVuSans-109"/>
      <use x="588.134766" xlink:href="#DejaVuSans-112"/>
      <use x="651.611328" xlink:href="#DejaVuSans-117"/>
      <use x="714.990234" xlink:href="#DejaVuSans-116"/>
      <use x="754.199219" xlink:href="#DejaVuSans-101"/>
      <use x="815.722656" xlink:href="#DejaVuSans-32"/>
      <use x="847.509766" xlink:href="#DejaVuSans-79"/>
      <use x="926.220703" xlink:href="#DejaVuSans-117"/>
      <use x="989.599609" xlink:href="#DejaVuSans-116"/>
      <use x="1028.808594" xlink:href="#DejaVuSans-112"/>
      <use x="1092.285156" xlink:href="#DejaVuSans-117"/>
      <use x="1155.664062" xlink:href="#DejaVuSans-116"/>
     </g>
    </g>
    <g id="line2d_31">
     <path d="M 439.172031 403.944219 
L 461.172031 403.944219 
" style="fill:none;stroke:#c1bc1f;stroke-linecap:round;stroke-width:1.5;"/>
    </g>
    <g id="line2d_32">
     <defs>
      <path d="M 0 3 
C 0.795609 3 1.55874 2.683901 2.12132 2.12132 
C 2.683901 1.55874 3 0.795609 3 0 
C 3 -0.795609 2.683901 -1.55874 2.12132 -2.12132 
C 1.55874 -2.683901 0.795609 -3 0 -3 
C -0.795609 -3 -1.55874 -2.683901 -2.12132 -2.12132 
C -2.683901 -1.55874 -3 -0.795609 -3 0 
C -3 0.795609 -2.683901 1.55874 -2.12132 2.12132 
C -1.55874 2.683901 -0.795609 3 0 3 
z
" id="ma7cfb00528" style="stroke:#c1bc1f;"/>
     </defs>
     <g>
      <use style="fill:#c1bc1f;stroke:#c1bc1f;" x="450.172031" xlink:href="#ma7cfb00528" y="403.944219"/>
     </g>
    </g>
    <g id="text_33">
     <!-- Inferences/second -->
     <g style="fill:#262626;" transform="translate(469.972031 407.794219)scale(0.11 -0.11)">
      <use xlink:href="#DejaVuSans-73"/>
      <use x="29.492188" xlink:href="#DejaVuSans-110"/>
      <use x="92.871094" xlink:href="#DejaVuSans-102"/>
      <use x="128.076172" xlink:href="#DejaVuSans-101"/>
      <use x="189.599609" xlink:href="#DejaVuSans-114"/>
      <use x="228.462891" xlink:href="#DejaVuSans-101"/>
      <use x="289.986328" xlink:href="#DejaVuSans-110"/>
      <use x="353.365234" xlink:href="#DejaVuSans-99"/>
      <use x="408.345703" xlink:href="#DejaVuSans-101"/>
      <use x="469.869141" xlink:href="#DejaVuSans-115"/>
      <use x="521.96875" xlink:href="#DejaVuSans-47"/>
      <use x="555.660156" xlink:href="#DejaVuSans-115"/>
      <use x="607.759766" xlink:href="#DejaVuSans-101"/>
      <use x="669.283203" xlink:href="#DejaVuSans-99"/>
      <use x="724.263672" xlink:href="#DejaVuSans-111"/>
      <use x="785.445312" xlink:href="#DejaVuSans-110"/>
      <use x="848.824219" xlink:href="#DejaVuSans-100"/>
     </g>
    </g>
   </g>
  </g>
  <g id="axes_2">
   <g id="matplotlib.axis_3">
    <g id="ytick_8">
     <g id="line2d_33">
      <defs>
       <path d="M 0 0 
L 6 0 
" id="m88218b0a93" style="stroke:#262626;stroke-width:1.25;"/>
      </defs>
      <g>
       <use style="fill:#262626;stroke:#262626;stroke-width:1.25;" x="611.31" xlink:href="#m88218b0a93" y="258.196408"/>
      </g>
     </g>
     <g id="text_34">
      <!-- 1200 -->
      <g style="fill:#262626;" transform="translate(620.81 262.375549)scale(0.11 -0.11)">
       <use xlink:href="#DejaVuSans-49"/>
       <use x="63.623047" xlink:href="#DejaVuSans-50"/>
       <use x="127.246094" xlink:href="#DejaVuSans-48"/>
       <use x="190.869141" xlink:href="#DejaVuSans-48"/>
      </g>
     </g>
    </g>
    <g id="ytick_9">
     <g id="line2d_34">
      <g>
       <use style="fill:#262626;stroke:#262626;stroke-width:1.25;" x="611.31" xlink:href="#m88218b0a93" y="210.956742"/>
      </g>
     </g>
     <g id="text_35">
      <!-- 1400 -->
      <g style="fill:#262626;" transform="translate(620.81 215.135882)scale(0.11 -0.11)">
       <use xlink:href="#DejaVuSans-49"/>
       <use x="63.623047" xlink:href="#DejaVuSans-52"/>
       <use x="127.246094" xlink:href="#DejaVuSans-48"/>
       <use x="190.869141" xlink:href="#DejaVuSans-48"/>
      </g>
     </g>
    </g>
    <g id="ytick_10">
     <g id="line2d_35">
      <g>
       <use style="fill:#262626;stroke:#262626;stroke-width:1.25;" x="611.31" xlink:href="#m88218b0a93" y="163.717075"/>
      </g>
     </g>
     <g id="text_36">
      <!-- 1600 -->
      <g style="fill:#262626;" transform="translate(620.81 167.896216)scale(0.11 -0.11)">
       <use xlink:href="#DejaVuSans-49"/>
       <use x="63.623047" xlink:href="#DejaVuSans-54"/>
       <use x="127.246094" xlink:href="#DejaVuSans-48"/>
       <use x="190.869141" xlink:href="#DejaVuSans-48"/>
      </g>
     </g>
    </g>
    <g id="ytick_11">
     <g id="line2d_36">
      <g>
       <use style="fill:#262626;stroke:#262626;stroke-width:1.25;" x="611.31" xlink:href="#m88218b0a93" y="116.477409"/>
      </g>
     </g>
     <g id="text_37">
      <!-- 1800 -->
      <g style="fill:#262626;" transform="translate(620.81 120.65655)scale(0.11 -0.11)">
       <use xlink:href="#DejaVuSans-49"/>
       <use x="63.623047" xlink:href="#DejaVuSans-56"/>
       <use x="127.246094" xlink:href="#DejaVuSans-48"/>
       <use x="190.869141" xlink:href="#DejaVuSans-48"/>
      </g>
     </g>
    </g>
    <g id="ytick_12">
     <g id="line2d_37">
      <g>
       <use style="fill:#262626;stroke:#262626;stroke-width:1.25;" x="611.31" xlink:href="#m88218b0a93" y="69.237743"/>
      </g>
     </g>
     <g id="text_38">
      <!-- 2000 -->
      <g style="fill:#262626;" transform="translate(620.81 73.416883)scale(0.11 -0.11)">
       <use xlink:href="#DejaVuSans-50"/>
       <use x="63.623047" xlink:href="#DejaVuSans-48"/>
       <use x="127.246094" xlink:href="#DejaVuSans-48"/>
       <use x="190.869141" xlink:href="#DejaVuSans-48"/>
      </g>
     </g>
    </g>
    <g id="text_39">
     <!-- Inferences/second -->
     <g style="fill:#262626;" transform="translate(661.923125 215.657813)rotate(-90)scale(0.12 -0.12)">
      <use xlink:href="#DejaVuSans-73"/>
      <use x="29.492188" xlink:href="#DejaVuSans-110"/>
      <use x="92.871094" xlink:href="#DejaVuSans-102"/>
      <use x="128.076172" xlink:href="#DejaVuSans-101"/>
      <use x="189.599609" xlink:href="#DejaVuSans-114"/>
      <use x="228.462891" xlink:href="#DejaVuSans-101"/>
      <use x="289.986328" xlink:href="#DejaVuSans-110"/>
      <use x="353.365234" xlink:href="#DejaVuSans-99"/>
      <use x="408.345703" xlink:href="#DejaVuSans-101"/>
      <use x="469.869141" xlink:href="#DejaVuSans-115"/>
      <use x="521.96875" xlink:href="#DejaVuSans-47"/>
      <use x="555.660156" xlink:href="#DejaVuSans-115"/>
      <use x="607.759766" xlink:href="#DejaVuSans-101"/>
      <use x="669.283203" xlink:href="#DejaVuSans-99"/>
      <use x="724.263672" xlink:href="#DejaVuSans-111"/>
      <use x="785.445312" xlink:href="#DejaVuSans-110"/>
      <use x="848.824219" xlink:href="#DejaVuSans-100"/>
     </g>
    </g>
   </g>
   <g id="line2d_38">
    <path clip-path="url(#ped67c0a93e)" d="M 86.855455 286.918125 
L 119.582727 57.522305 
L 152.31 37.799745 
L 185.037273 42.240273 
L 217.764545 48.145232 
L 250.491818 34.918125 
L 283.219091 54.522587 
L 315.946364 59.175694 
L 348.673636 53.506934 
L 381.400909 51.971645 
L 414.128182 51.097711 
L 446.855455 51.782686 
L 479.582727 56.671991 
L 512.31 70.631313 
L 545.037273 80.433544 
L 577.764545 65.033412 
" style="fill:none;stroke:#c1bc1f;stroke-linecap:round;stroke-width:1.5;"/>
    <g clip-path="url(#ped67c0a93e)">
     <use style="fill:#c1bc1f;stroke:#c1bc1f;" x="86.855455" xlink:href="#ma7cfb00528" y="286.918125"/>
     <use style="fill:#c1bc1f;stroke:#c1bc1f;" x="119.582727" xlink:href="#ma7cfb00528" y="57.522305"/>
     <use style="fill:#c1bc1f;stroke:#c1bc1f;" x="152.31" xlink:href="#ma7cfb00528" y="37.799745"/>
     <use style="fill:#c1bc1f;stroke:#c1bc1f;" x="185.037273" xlink:href="#ma7cfb00528" y="42.240273"/>
     <use style="fill:#c1bc1f;stroke:#c1bc1f;" x="217.764545" xlink:href="#ma7cfb00528" y="48.145232"/>
     <use style="fill:#c1bc1f;stroke:#c1bc1f;" x="250.491818" xlink:href="#ma7cfb00528" y="34.918125"/>
     <use style="fill:#c1bc1f;stroke:#c1bc1f;" x="283.219091" xlink:href="#ma7cfb00528" y="54.522587"/>
     <use style="fill:#c1bc1f;stroke:#c1bc1f;" x="315.946364" xlink:href="#ma7cfb00528" y="59.175694"/>
     <use style="fill:#c1bc1f;stroke:#c1bc1f;" x="348.673636" xlink:href="#ma7cfb00528" y="53.506934"/>
     <use style="fill:#c1bc1f;stroke:#c1bc1f;" x="381.400909" xlink:href="#ma7cfb00528" y="51.971645"/>
     <use style="fill:#c1bc1f;stroke:#c1bc1f;" x="414.128182" xlink:href="#ma7cfb00528" y="51.097711"/>
     <use style="fill:#c1bc1f;stroke:#c1bc1f;" x="446.855455" xlink:href="#ma7cfb00528" y="51.782686"/>
     <use style="fill:#c1bc1f;stroke:#c1bc1f;" x="479.582727" xlink:href="#ma7cfb00528" y="56.671991"/>
     <use style="fill:#c1bc1f;stroke:#c1bc1f;" x="512.31" xlink:href="#ma7cfb00528" y="70.631313"/>
     <use style="fill:#c1bc1f;stroke:#c1bc1f;" x="545.037273" xlink:href="#ma7cfb00528" y="80.433544"/>
     <use style="fill:#c1bc1f;stroke:#c1bc1f;" x="577.764545" xlink:href="#ma7cfb00528" y="65.033412"/>
    </g>
   </g>
   <g id="patch_127">
    <path d="M 53.31 299.518125 
L 53.31 22.318125 
" style="fill:none;stroke:#ffffff;stroke-linecap:square;stroke-linejoin:miter;stroke-width:1.25;"/>
   </g>
   <g id="patch_128">
    <path d="M 611.31 299.518125 
L 611.31 22.318125 
" style="fill:none;stroke:#ffffff;stroke-linecap:square;stroke-linejoin:miter;stroke-width:1.25;"/>
   </g>
   <g id="patch_129">
    <path d="M 53.31 299.518125 
L 611.31 299.518125 
" style="fill:none;stroke:#ffffff;stroke-linecap:square;stroke-linejoin:miter;stroke-width:1.25;"/>
   </g>
   <g id="patch_130">
    <path d="M 53.31 22.318125 
L 611.31 22.318125 
" style="fill:none;stroke:#ffffff;stroke-linecap:square;stroke-linejoin:miter;stroke-width:1.25;"/>
   </g>
   <g id="text_40">
    <!-- 1078.4 -->
    <g style="fill:#262626;" transform="translate(65.86108 286.918125)scale(0.12 -0.12)">
     <defs>
      <path d="M 10.6875 12.40625 
L 21 12.40625 
L 21 0 
L 10.6875 0 
z
" id="DejaVuSans-46"/>
     </defs>
     <use xlink:href="#DejaVuSans-49"/>
     <use x="63.623047" xlink:href="#DejaVuSans-48"/>
     <use x="127.246094" xlink:href="#DejaVuSans-55"/>
     <use x="190.869141" xlink:href="#DejaVuSans-56"/>
     <use x="254.492188" xlink:href="#DejaVuSans-46"/>
     <use x="286.279297" xlink:href="#DejaVuSans-52"/>
    </g>
   </g>
   <g id="text_41">
    <!-- 2114.3 -->
    <g style="fill:#262626;" transform="translate(164.042898 42.240273)scale(0.12 -0.12)">
     <use xlink:href="#DejaVuSans-50"/>
     <use x="63.623047" xlink:href="#DejaVuSans-49"/>
     <use x="127.246094" xlink:href="#DejaVuSans-49"/>
     <use x="190.869141" xlink:href="#DejaVuSans-52"/>
     <use x="254.492188" xlink:href="#DejaVuSans-46"/>
     <use x="286.279297" xlink:href="#DejaVuSans-51"/>
    </g>
   </g>
   <g id="text_42">
    <!-- 2062.3 -->
    <g style="fill:#262626;" transform="translate(262.224716 54.522587)scale(0.12 -0.12)">
     <use xlink:href="#DejaVuSans-50"/>
     <use x="63.623047" xlink:href="#DejaVuSans-48"/>
     <use x="127.246094" xlink:href="#DejaVuSans-54"/>
     <use x="190.869141" xlink:href="#DejaVuSans-50"/>
     <use x="254.492188" xlink:href="#DejaVuSans-46"/>
     <use x="286.279297" xlink:href="#DejaVuSans-51"/>
    </g>
   </g>
   <g id="text_43">
    <!-- 2073.1 -->
    <g style="fill:#262626;" transform="translate(360.406534 51.971645)scale(0.12 -0.12)">
     <use xlink:href="#DejaVuSans-50"/>
     <use x="63.623047" xlink:href="#DejaVuSans-48"/>
     <use x="127.246094" xlink:href="#DejaVuSans-55"/>
     <use x="190.869141" xlink:href="#DejaVuSans-51"/>
     <use x="254.492188" xlink:href="#DejaVuSans-46"/>
     <use x="286.279297" xlink:href="#DejaVuSans-49"/>
    </g>
   </g>
   <g id="text_44">
    <!-- 2053.2 -->
    <g style="fill:#262626;" transform="translate(458.588352 56.671991)scale(0.12 -0.12)">
     <use xlink:href="#DejaVuSans-50"/>
     <use x="63.623047" xlink:href="#DejaVuSans-48"/>
     <use x="127.246094" xlink:href="#DejaVuSans-53"/>
     <use x="190.869141" xlink:href="#DejaVuSans-51"/>
     <use x="254.492188" xlink:href="#DejaVuSans-46"/>
     <use x="286.279297" xlink:href="#DejaVuSans-50"/>
    </g>
   </g>
   <g id="text_45">
    <!-- 2017.8 -->
    <g style="fill:#262626;" transform="translate(556.77017 65.033412)scale(0.12 -0.12)">
     <use xlink:href="#DejaVuSans-50"/>
     <use x="63.623047" xlink:href="#DejaVuSans-48"/>
     <use x="127.246094" xlink:href="#DejaVuSans-49"/>
     <use x="190.869141" xlink:href="#DejaVuSans-55"/>
     <use x="254.492188" xlink:href="#DejaVuSans-46"/>
     <use x="286.279297" xlink:href="#DejaVuSans-56"/>
    </g>
   </g>
   <g id="text_46">
    <!-- 2017.8 -->
    <g style="fill:#262626;" transform="translate(556.77017 65.033412)scale(0.12 -0.12)">
     <use xlink:href="#DejaVuSans-50"/>
     <use x="63.623047" xlink:href="#DejaVuSans-48"/>
     <use x="127.246094" xlink:href="#DejaVuSans-49"/>
     <use x="190.869141" xlink:href="#DejaVuSans-55"/>
     <use x="254.492188" xlink:href="#DejaVuSans-46"/>
     <use x="286.279297" xlink:href="#DejaVuSans-56"/>
    </g>
   </g>
   <g id="text_47">
    <!-- Online performance -->
    <g style="fill:#262626;" transform="translate(272.622187 16.318125)scale(0.12 -0.12)">
     <use xlink:href="#DejaVuSans-79"/>
     <use x="78.710938" xlink:href="#DejaVuSans-110"/>
     <use x="142.089844" xlink:href="#DejaVuSans-108"/>
     <use x="169.873047" xlink:href="#DejaVuSans-105"/>
     <use x="197.65625" xlink:href="#DejaVuSans-110"/>
     <use x="261.035156" xlink:href="#DejaVuSans-101"/>
     <use x="322.558594" xlink:href="#DejaVuSans-32"/>
     <use x="354.345703" xlink:href="#DejaVuSans-112"/>
     <use x="417.822266" xlink:href="#DejaVuSans-101"/>
     <use x="479.345703" xlink:href="#DejaVuSans-114"/>
     <use x="520.458984" xlink:href="#DejaVuSans-102"/>
     <use x="555.664062" xlink:href="#DejaVuSans-111"/>
     <use x="616.845703" xlink:href="#DejaVuSans-114"/>
     <use x="656.208984" xlink:href="#DejaVuSans-109"/>
     <use x="753.621094" xlink:href="#DejaVuSans-97"/>
     <use x="814.900391" xlink:href="#DejaVuSans-110"/>
     <use x="878.279297" xlink:href="#DejaVuSans-99"/>
     <use x="933.259766" xlink:href="#DejaVuSans-101"/>
    </g>
   </g>
  </g>
 </g>
 <defs>
  <clipPath id="ped67c0a93e">
   <rect height="277.2" width="558" x="53.31" y="22.318125"/>
  </clipPath>
 </defs>
</svg>
