<?xml version="1.0" encoding="utf-8" standalone="no"?>
<!DOCTYPE svg PUBLIC "-//W3C//DTD SVG 1.1//EN"
  "http://www.w3.org/Graphics/SVG/1.1/DTD/svg11.dtd">
<!-- Created with matplotlib (https://matplotlib.org/) -->
<svg height="720pt" version="1.1" viewBox="0 0 864 720" width="864pt" xmlns="http://www.w3.org/2000/svg" xmlns:xlink="http://www.w3.org/1999/xlink">
 <metadata>
  <rdf:RDF xmlns:cc="http://creativecommons.org/ns#" xmlns:dc="http://purl.org/dc/elements/1.1/" xmlns:rdf="http://www.w3.org/1999/02/22-rdf-syntax-ns#">
   <cc:Work>
    <dc:type rdf:resource="http://purl.org/dc/dcmitype/StillImage"/>
    <dc:date>2021-06-08T23:29:09.398505</dc:date>
    <dc:format>image/svg+xml</dc:format>
    <dc:creator>
     <cc:Agent>
      <dc:title>Matplotlib v3.3.4, https://matplotlib.org/</dc:title>
     </cc:Agent>
    </dc:creator>
   </cc:Work>
  </rdf:RDF>
 </metadata>
 <defs>
  <style type="text/css">*{stroke-linecap:butt;stroke-linejoin:round;}</style>
 </defs>
 <g id="figure_1">
  <g id="patch_1">
   <path d="M 0 720 
L 864 720 
L 864 0 
L 0 0 
z
" style="fill:none;"/>
  </g>
  <g id="axes_1">
   <g id="patch_2">
    <path d="M 108 630 
L 777.6 630 
L 777.6 86.4 
L 108 86.4 
z
" style="fill:#ffffff;"/>
   </g>
   <g id="matplotlib.axis_1">
    <g id="xtick_1">
     <g id="line2d_1">
      <path clip-path="url(#pd9c3e4fb58)" d="M 128.774026 630 
L 128.774026 86.4 
" style="fill:none;stroke:#b0b0b0;stroke-linecap:square;stroke-width:0.8;"/>
     </g>
     <g id="line2d_2">
      <defs>
       <path d="M 0 0 
L 0 3.5 
" id="m87b5521580" style="stroke:#000000;stroke-width:0.8;"/>
      </defs>
      <g>
       <use style="stroke:#000000;stroke-width:0.8;" x="128.774026" xlink:href="#m87b5521580" y="630"/>
      </g>
     </g>
     <g id="text_1">
      <!-- 0 -->
      <g transform="translate(125.592776 644.598438)scale(0.1 -0.1)">
       <defs>
        <path d="M 31.78125 66.40625 
Q 24.171875 66.40625 20.328125 58.90625 
Q 16.5 51.421875 16.5 36.375 
Q 16.5 21.390625 20.328125 13.890625 
Q 24.171875 6.390625 31.78125 6.390625 
Q 39.453125 6.390625 43.28125 13.890625 
Q 47.125 21.390625 47.125 36.375 
Q 47.125 51.421875 43.28125 58.90625 
Q 39.453125 66.40625 31.78125 66.40625 
z
M 31.78125 74.21875 
Q 44.046875 74.21875 50.515625 64.515625 
Q 56.984375 54.828125 56.984375 36.375 
Q 56.984375 17.96875 50.515625 8.265625 
Q 44.046875 -1.421875 31.78125 -1.421875 
Q 19.53125 -1.421875 13.0625 8.265625 
Q 6.59375 17.96875 6.59375 36.375 
Q 6.59375 54.828125 13.0625 64.515625 
Q 19.53125 74.21875 31.78125 74.21875 
z
" id="DejaVuSans-48"/>
       </defs>
       <use xlink:href="#DejaVuSans-48"/>
      </g>
     </g>
    </g>
    <g id="xtick_2">
     <g id="line2d_3">
      <path clip-path="url(#pd9c3e4fb58)" d="M 276.209598 630 
L 276.209598 86.4 
" style="fill:none;stroke:#b0b0b0;stroke-linecap:square;stroke-width:0.8;"/>
     </g>
     <g id="line2d_4">
      <g>
       <use style="stroke:#000000;stroke-width:0.8;" x="276.209598" xlink:href="#m87b5521580" y="630"/>
      </g>
     </g>
     <g id="text_2">
      <!-- 1 -->
      <g transform="translate(273.028348 644.598438)scale(0.1 -0.1)">
       <defs>
        <path d="M 12.40625 8.296875 
L 28.515625 8.296875 
L 28.515625 63.921875 
L 10.984375 60.40625 
L 10.984375 69.390625 
L 28.421875 72.90625 
L 38.28125 72.90625 
L 38.28125 8.296875 
L 54.390625 8.296875 
L 54.390625 0 
L 12.40625 0 
z
" id="DejaVuSans-49"/>
       </defs>
       <use xlink:href="#DejaVuSans-49"/>
      </g>
     </g>
    </g>
    <g id="xtick_3">
     <g id="line2d_5">
      <path clip-path="url(#pd9c3e4fb58)" d="M 423.64517 630 
L 423.64517 86.4 
" style="fill:none;stroke:#b0b0b0;stroke-linecap:square;stroke-width:0.8;"/>
     </g>
     <g id="line2d_6">
      <g>
       <use style="stroke:#000000;stroke-width:0.8;" x="423.64517" xlink:href="#m87b5521580" y="630"/>
      </g>
     </g>
     <g id="text_3">
      <!-- 2 -->
      <g transform="translate(420.46392 644.598438)scale(0.1 -0.1)">
       <defs>
        <path d="M 19.1875 8.296875 
L 53.609375 8.296875 
L 53.609375 0 
L 7.328125 0 
L 7.328125 8.296875 
Q 12.9375 14.109375 22.625 23.890625 
Q 32.328125 33.6875 34.8125 36.53125 
Q 39.546875 41.84375 41.421875 45.53125 
Q 43.3125 49.21875 43.3125 52.78125 
Q 43.3125 58.59375 39.234375 62.25 
Q 35.15625 65.921875 28.609375 65.921875 
Q 23.96875 65.921875 18.8125 64.3125 
Q 13.671875 62.703125 7.8125 59.421875 
L 7.8125 69.390625 
Q 13.765625 71.78125 18.9375 73 
Q 24.125 74.21875 28.421875 74.21875 
Q 39.75 74.21875 46.484375 68.546875 
Q 53.21875 62.890625 53.21875 53.421875 
Q 53.21875 48.921875 51.53125 44.890625 
Q 49.859375 40.875 45.40625 35.40625 
Q 44.1875 33.984375 37.640625 27.21875 
Q 31.109375 20.453125 19.1875 8.296875 
z
" id="DejaVuSans-50"/>
       </defs>
       <use xlink:href="#DejaVuSans-50"/>
      </g>
     </g>
    </g>
    <g id="xtick_4">
     <g id="line2d_7">
      <path clip-path="url(#pd9c3e4fb58)" d="M 571.080743 630 
L 571.080743 86.4 
" style="fill:none;stroke:#b0b0b0;stroke-linecap:square;stroke-width:0.8;"/>
     </g>
     <g id="line2d_8">
      <g>
       <use style="stroke:#000000;stroke-width:0.8;" x="571.080743" xlink:href="#m87b5521580" y="630"/>
      </g>
     </g>
     <g id="text_4">
      <!-- 3 -->
      <g transform="translate(567.899493 644.598438)scale(0.1 -0.1)">
       <defs>
        <path d="M 40.578125 39.3125 
Q 47.65625 37.796875 51.625 33 
Q 55.609375 28.21875 55.609375 21.1875 
Q 55.609375 10.40625 48.1875 4.484375 
Q 40.765625 -1.421875 27.09375 -1.421875 
Q 22.515625 -1.421875 17.65625 -0.515625 
Q 12.796875 0.390625 7.625 2.203125 
L 7.625 11.71875 
Q 11.71875 9.328125 16.59375 8.109375 
Q 21.484375 6.890625 26.8125 6.890625 
Q 36.078125 6.890625 40.9375 10.546875 
Q 45.796875 14.203125 45.796875 21.1875 
Q 45.796875 27.640625 41.28125 31.265625 
Q 36.765625 34.90625 28.71875 34.90625 
L 20.21875 34.90625 
L 20.21875 43.015625 
L 29.109375 43.015625 
Q 36.375 43.015625 40.234375 45.921875 
Q 44.09375 48.828125 44.09375 54.296875 
Q 44.09375 59.90625 40.109375 62.90625 
Q 36.140625 65.921875 28.71875 65.921875 
Q 24.65625 65.921875 20.015625 65.03125 
Q 15.375 64.15625 9.8125 62.3125 
L 9.8125 71.09375 
Q 15.4375 72.65625 20.34375 73.4375 
Q 25.25 74.21875 29.59375 74.21875 
Q 40.828125 74.21875 47.359375 69.109375 
Q 53.90625 64.015625 53.90625 55.328125 
Q 53.90625 49.265625 50.4375 45.09375 
Q 46.96875 40.921875 40.578125 39.3125 
z
" id="DejaVuSans-51"/>
       </defs>
       <use xlink:href="#DejaVuSans-51"/>
      </g>
     </g>
    </g>
    <g id="xtick_5">
     <g id="line2d_9">
      <path clip-path="url(#pd9c3e4fb58)" d="M 718.516315 630 
L 718.516315 86.4 
" style="fill:none;stroke:#b0b0b0;stroke-linecap:square;stroke-width:0.8;"/>
     </g>
     <g id="line2d_10">
      <g>
       <use style="stroke:#000000;stroke-width:0.8;" x="718.516315" xlink:href="#m87b5521580" y="630"/>
      </g>
     </g>
     <g id="text_5">
      <!-- 4 -->
      <g transform="translate(715.335065 644.598438)scale(0.1 -0.1)">
       <defs>
        <path d="M 37.796875 64.3125 
L 12.890625 25.390625 
L 37.796875 25.390625 
z
M 35.203125 72.90625 
L 47.609375 72.90625 
L 47.609375 25.390625 
L 58.015625 25.390625 
L 58.015625 17.1875 
L 47.609375 17.1875 
L 47.609375 0 
L 37.796875 0 
L 37.796875 17.1875 
L 4.890625 17.1875 
L 4.890625 26.703125 
z
" id="DejaVuSans-52"/>
       </defs>
       <use xlink:href="#DejaVuSans-52"/>
      </g>
     </g>
    </g>
    <g id="text_6">
     <!-- samples -->
     <g transform="translate(422.016406 658.276562)scale(0.1 -0.1)">
      <defs>
       <path d="M 44.28125 53.078125 
L 44.28125 44.578125 
Q 40.484375 46.53125 36.375 47.5 
Q 32.28125 48.484375 27.875 48.484375 
Q 21.1875 48.484375 17.84375 46.4375 
Q 14.5 44.390625 14.5 40.28125 
Q 14.5 37.15625 16.890625 35.375 
Q 19.28125 33.59375 26.515625 31.984375 
L 29.59375 31.296875 
Q 39.15625 29.25 43.1875 25.515625 
Q 47.21875 21.78125 47.21875 15.09375 
Q 47.21875 7.46875 41.1875 3.015625 
Q 35.15625 -1.421875 24.609375 -1.421875 
Q 20.21875 -1.421875 15.453125 -0.5625 
Q 10.6875 0.296875 5.421875 2 
L 5.421875 11.28125 
Q 10.40625 8.6875 15.234375 7.390625 
Q 20.0625 6.109375 24.8125 6.109375 
Q 31.15625 6.109375 34.5625 8.28125 
Q 37.984375 10.453125 37.984375 14.40625 
Q 37.984375 18.0625 35.515625 20.015625 
Q 33.0625 21.96875 24.703125 23.78125 
L 21.578125 24.515625 
Q 13.234375 26.265625 9.515625 29.90625 
Q 5.8125 33.546875 5.8125 39.890625 
Q 5.8125 47.609375 11.28125 51.796875 
Q 16.75 56 26.8125 56 
Q 31.78125 56 36.171875 55.265625 
Q 40.578125 54.546875 44.28125 53.078125 
z
" id="DejaVuSans-115"/>
       <path d="M 34.28125 27.484375 
Q 23.390625 27.484375 19.1875 25 
Q 14.984375 22.515625 14.984375 16.5 
Q 14.984375 11.71875 18.140625 8.90625 
Q 21.296875 6.109375 26.703125 6.109375 
Q 34.1875 6.109375 38.703125 11.40625 
Q 43.21875 16.703125 43.21875 25.484375 
L 43.21875 27.484375 
z
M 52.203125 31.203125 
L 52.203125 0 
L 43.21875 0 
L 43.21875 8.296875 
Q 40.140625 3.328125 35.546875 0.953125 
Q 30.953125 -1.421875 24.3125 -1.421875 
Q 15.921875 -1.421875 10.953125 3.296875 
Q 6 8.015625 6 15.921875 
Q 6 25.140625 12.171875 29.828125 
Q 18.359375 34.515625 30.609375 34.515625 
L 43.21875 34.515625 
L 43.21875 35.40625 
Q 43.21875 41.609375 39.140625 45 
Q 35.0625 48.390625 27.6875 48.390625 
Q 23 48.390625 18.546875 47.265625 
Q 14.109375 46.140625 10.015625 43.890625 
L 10.015625 52.203125 
Q 14.9375 54.109375 19.578125 55.046875 
Q 24.21875 56 28.609375 56 
Q 40.484375 56 46.34375 49.84375 
Q 52.203125 43.703125 52.203125 31.203125 
z
" id="DejaVuSans-97"/>
       <path d="M 52 44.1875 
Q 55.375 50.25 60.0625 53.125 
Q 64.75 56 71.09375 56 
Q 79.640625 56 84.28125 50.015625 
Q 88.921875 44.046875 88.921875 33.015625 
L 88.921875 0 
L 79.890625 0 
L 79.890625 32.71875 
Q 79.890625 40.578125 77.09375 44.375 
Q 74.3125 48.1875 68.609375 48.1875 
Q 61.625 48.1875 57.5625 43.546875 
Q 53.515625 38.921875 53.515625 30.90625 
L 53.515625 0 
L 44.484375 0 
L 44.484375 32.71875 
Q 44.484375 40.625 41.703125 44.40625 
Q 38.921875 48.1875 33.109375 48.1875 
Q 26.21875 48.1875 22.15625 43.53125 
Q 18.109375 38.875 18.109375 30.90625 
L 18.109375 0 
L 9.078125 0 
L 9.078125 54.6875 
L 18.109375 54.6875 
L 18.109375 46.1875 
Q 21.1875 51.21875 25.484375 53.609375 
Q 29.78125 56 35.6875 56 
Q 41.65625 56 45.828125 52.96875 
Q 50 49.953125 52 44.1875 
z
" id="DejaVuSans-109"/>
       <path d="M 18.109375 8.203125 
L 18.109375 -20.796875 
L 9.078125 -20.796875 
L 9.078125 54.6875 
L 18.109375 54.6875 
L 18.109375 46.390625 
Q 20.953125 51.265625 25.265625 53.625 
Q 29.59375 56 35.59375 56 
Q 45.5625 56 51.78125 48.09375 
Q 58.015625 40.1875 58.015625 27.296875 
Q 58.015625 14.40625 51.78125 6.484375 
Q 45.5625 -1.421875 35.59375 -1.421875 
Q 29.59375 -1.421875 25.265625 0.953125 
Q 20.953125 3.328125 18.109375 8.203125 
z
M 48.6875 27.296875 
Q 48.6875 37.203125 44.609375 42.84375 
Q 40.53125 48.484375 33.40625 48.484375 
Q 26.265625 48.484375 22.1875 42.84375 
Q 18.109375 37.203125 18.109375 27.296875 
Q 18.109375 17.390625 22.1875 11.75 
Q 26.265625 6.109375 33.40625 6.109375 
Q 40.53125 6.109375 44.609375 11.75 
Q 48.6875 17.390625 48.6875 27.296875 
z
" id="DejaVuSans-112"/>
       <path d="M 9.421875 75.984375 
L 18.40625 75.984375 
L 18.40625 0 
L 9.421875 0 
z
" id="DejaVuSans-108"/>
       <path d="M 56.203125 29.59375 
L 56.203125 25.203125 
L 14.890625 25.203125 
Q 15.484375 15.921875 20.484375 11.0625 
Q 25.484375 6.203125 34.421875 6.203125 
Q 39.59375 6.203125 44.453125 7.46875 
Q 49.3125 8.734375 54.109375 11.28125 
L 54.109375 2.78125 
Q 49.265625 0.734375 44.1875 -0.34375 
Q 39.109375 -1.421875 33.890625 -1.421875 
Q 20.796875 -1.421875 13.15625 6.1875 
Q 5.515625 13.8125 5.515625 26.8125 
Q 5.515625 40.234375 12.765625 48.109375 
Q 20.015625 56 32.328125 56 
Q 43.359375 56 49.78125 48.890625 
Q 56.203125 41.796875 56.203125 29.59375 
z
M 47.21875 32.234375 
Q 47.125 39.59375 43.09375 43.984375 
Q 39.0625 48.390625 32.421875 48.390625 
Q 24.90625 48.390625 20.390625 44.140625 
Q 15.875 39.890625 15.1875 32.171875 
z
" id="DejaVuSans-101"/>
      </defs>
      <use xlink:href="#DejaVuSans-115"/>
      <use x="52.099609" xlink:href="#DejaVuSans-97"/>
      <use x="113.378906" xlink:href="#DejaVuSans-109"/>
      <use x="210.791016" xlink:href="#DejaVuSans-112"/>
      <use x="274.267578" xlink:href="#DejaVuSans-108"/>
      <use x="302.050781" xlink:href="#DejaVuSans-101"/>
      <use x="363.574219" xlink:href="#DejaVuSans-115"/>
     </g>
    </g>
    <g id="text_7">
     <!-- 1e9 -->
     <g transform="translate(758.721875 657.276562)scale(0.1 -0.1)">
      <defs>
       <path d="M 10.984375 1.515625 
L 10.984375 10.5 
Q 14.703125 8.734375 18.5 7.8125 
Q 22.3125 6.890625 25.984375 6.890625 
Q 35.75 6.890625 40.890625 13.453125 
Q 46.046875 20.015625 46.78125 33.40625 
Q 43.953125 29.203125 39.59375 26.953125 
Q 35.25 24.703125 29.984375 24.703125 
Q 19.046875 24.703125 12.671875 31.3125 
Q 6.296875 37.9375 6.296875 49.421875 
Q 6.296875 60.640625 12.9375 67.421875 
Q 19.578125 74.21875 30.609375 74.21875 
Q 43.265625 74.21875 49.921875 64.515625 
Q 56.59375 54.828125 56.59375 36.375 
Q 56.59375 19.140625 48.40625 8.859375 
Q 40.234375 -1.421875 26.421875 -1.421875 
Q 22.703125 -1.421875 18.890625 -0.6875 
Q 15.09375 0.046875 10.984375 1.515625 
z
M 30.609375 32.421875 
Q 37.25 32.421875 41.125 36.953125 
Q 45.015625 41.5 45.015625 49.421875 
Q 45.015625 57.28125 41.125 61.84375 
Q 37.25 66.40625 30.609375 66.40625 
Q 23.96875 66.40625 20.09375 61.84375 
Q 16.21875 57.28125 16.21875 49.421875 
Q 16.21875 41.5 20.09375 36.953125 
Q 23.96875 32.421875 30.609375 32.421875 
z
" id="DejaVuSans-57"/>
      </defs>
      <use xlink:href="#DejaVuSans-49"/>
      <use x="63.623047" xlink:href="#DejaVuSans-101"/>
      <use x="125.146484" xlink:href="#DejaVuSans-57"/>
     </g>
    </g>
   </g>
   <g id="matplotlib.axis_2">
    <g id="ytick_1">
     <g id="line2d_11">
      <path clip-path="url(#pd9c3e4fb58)" d="M 108 630 
L 777.6 630 
" style="fill:none;stroke:#b0b0b0;stroke-linecap:square;stroke-width:0.8;"/>
     </g>
     <g id="line2d_12">
      <defs>
       <path d="M 0 0 
L -3.5 0 
" id="m3d9785f808" style="stroke:#000000;stroke-width:0.8;"/>
      </defs>
      <g>
       <use style="stroke:#000000;stroke-width:0.8;" x="108" xlink:href="#m3d9785f808" y="630"/>
      </g>
     </g>
     <g id="text_8">
      <!-- 0.74 -->
      <g transform="translate(78.734375 633.799219)scale(0.1 -0.1)">
       <defs>
        <path d="M 10.6875 12.40625 
L 21 12.40625 
L 21 0 
L 10.6875 0 
z
" id="DejaVuSans-46"/>
        <path d="M 8.203125 72.90625 
L 55.078125 72.90625 
L 55.078125 68.703125 
L 28.609375 0 
L 18.3125 0 
L 43.21875 64.59375 
L 8.203125 64.59375 
z
" id="DejaVuSans-55"/>
       </defs>
       <use xlink:href="#DejaVuSans-48"/>
       <use x="63.623047" xlink:href="#DejaVuSans-46"/>
       <use x="95.410156" xlink:href="#DejaVuSans-55"/>
       <use x="159.033203" xlink:href="#DejaVuSans-52"/>
      </g>
     </g>
    </g>
    <g id="ytick_2">
     <g id="line2d_13">
      <path clip-path="url(#pd9c3e4fb58)" d="M 108 552.342857 
L 777.6 552.342857 
" style="fill:none;stroke:#b0b0b0;stroke-linecap:square;stroke-width:0.8;"/>
     </g>
     <g id="line2d_14">
      <g>
       <use style="stroke:#000000;stroke-width:0.8;" x="108" xlink:href="#m3d9785f808" y="552.342857"/>
      </g>
     </g>
     <g id="text_9">
      <!-- 0.75 -->
      <g transform="translate(78.734375 556.142076)scale(0.1 -0.1)">
       <defs>
        <path d="M 10.796875 72.90625 
L 49.515625 72.90625 
L 49.515625 64.59375 
L 19.828125 64.59375 
L 19.828125 46.734375 
Q 21.96875 47.46875 24.109375 47.828125 
Q 26.265625 48.1875 28.421875 48.1875 
Q 40.625 48.1875 47.75 41.5 
Q 54.890625 34.8125 54.890625 23.390625 
Q 54.890625 11.625 47.5625 5.09375 
Q 40.234375 -1.421875 26.90625 -1.421875 
Q 22.3125 -1.421875 17.546875 -0.640625 
Q 12.796875 0.140625 7.71875 1.703125 
L 7.71875 11.625 
Q 12.109375 9.234375 16.796875 8.0625 
Q 21.484375 6.890625 26.703125 6.890625 
Q 35.15625 6.890625 40.078125 11.328125 
Q 45.015625 15.765625 45.015625 23.390625 
Q 45.015625 31 40.078125 35.4375 
Q 35.15625 39.890625 26.703125 39.890625 
Q 22.75 39.890625 18.8125 39.015625 
Q 14.890625 38.140625 10.796875 36.28125 
z
" id="DejaVuSans-53"/>
       </defs>
       <use xlink:href="#DejaVuSans-48"/>
       <use x="63.623047" xlink:href="#DejaVuSans-46"/>
       <use x="95.410156" xlink:href="#DejaVuSans-55"/>
       <use x="159.033203" xlink:href="#DejaVuSans-53"/>
      </g>
     </g>
    </g>
    <g id="ytick_3">
     <g id="line2d_15">
      <path clip-path="url(#pd9c3e4fb58)" d="M 108 474.685714 
L 777.6 474.685714 
" style="fill:none;stroke:#b0b0b0;stroke-linecap:square;stroke-width:0.8;"/>
     </g>
     <g id="line2d_16">
      <g>
       <use style="stroke:#000000;stroke-width:0.8;" x="108" xlink:href="#m3d9785f808" y="474.685714"/>
      </g>
     </g>
     <g id="text_10">
      <!-- 0.76 -->
      <g transform="translate(78.734375 478.484933)scale(0.1 -0.1)">
       <defs>
        <path d="M 33.015625 40.375 
Q 26.375 40.375 22.484375 35.828125 
Q 18.609375 31.296875 18.609375 23.390625 
Q 18.609375 15.53125 22.484375 10.953125 
Q 26.375 6.390625 33.015625 6.390625 
Q 39.65625 6.390625 43.53125 10.953125 
Q 47.40625 15.53125 47.40625 23.390625 
Q 47.40625 31.296875 43.53125 35.828125 
Q 39.65625 40.375 33.015625 40.375 
z
M 52.59375 71.296875 
L 52.59375 62.3125 
Q 48.875 64.0625 45.09375 64.984375 
Q 41.3125 65.921875 37.59375 65.921875 
Q 27.828125 65.921875 22.671875 59.328125 
Q 17.53125 52.734375 16.796875 39.40625 
Q 19.671875 43.65625 24.015625 45.921875 
Q 28.375 48.1875 33.59375 48.1875 
Q 44.578125 48.1875 50.953125 41.515625 
Q 57.328125 34.859375 57.328125 23.390625 
Q 57.328125 12.15625 50.6875 5.359375 
Q 44.046875 -1.421875 33.015625 -1.421875 
Q 20.359375 -1.421875 13.671875 8.265625 
Q 6.984375 17.96875 6.984375 36.375 
Q 6.984375 53.65625 15.1875 63.9375 
Q 23.390625 74.21875 37.203125 74.21875 
Q 40.921875 74.21875 44.703125 73.484375 
Q 48.484375 72.75 52.59375 71.296875 
z
" id="DejaVuSans-54"/>
       </defs>
       <use xlink:href="#DejaVuSans-48"/>
       <use x="63.623047" xlink:href="#DejaVuSans-46"/>
       <use x="95.410156" xlink:href="#DejaVuSans-55"/>
       <use x="159.033203" xlink:href="#DejaVuSans-54"/>
      </g>
     </g>
    </g>
    <g id="ytick_4">
     <g id="line2d_17">
      <path clip-path="url(#pd9c3e4fb58)" d="M 108 397.028571 
L 777.6 397.028571 
" style="fill:none;stroke:#b0b0b0;stroke-linecap:square;stroke-width:0.8;"/>
     </g>
     <g id="line2d_18">
      <g>
       <use style="stroke:#000000;stroke-width:0.8;" x="108" xlink:href="#m3d9785f808" y="397.028571"/>
      </g>
     </g>
     <g id="text_11">
      <!-- 0.77 -->
      <g transform="translate(78.734375 400.82779)scale(0.1 -0.1)">
       <use xlink:href="#DejaVuSans-48"/>
       <use x="63.623047" xlink:href="#DejaVuSans-46"/>
       <use x="95.410156" xlink:href="#DejaVuSans-55"/>
       <use x="159.033203" xlink:href="#DejaVuSans-55"/>
      </g>
     </g>
    </g>
    <g id="ytick_5">
     <g id="line2d_19">
      <path clip-path="url(#pd9c3e4fb58)" d="M 108 319.371429 
L 777.6 319.371429 
" style="fill:none;stroke:#b0b0b0;stroke-linecap:square;stroke-width:0.8;"/>
     </g>
     <g id="line2d_20">
      <g>
       <use style="stroke:#000000;stroke-width:0.8;" x="108" xlink:href="#m3d9785f808" y="319.371429"/>
      </g>
     </g>
     <g id="text_12">
      <!-- 0.78 -->
      <g transform="translate(78.734375 323.170647)scale(0.1 -0.1)">
       <defs>
        <path d="M 31.78125 34.625 
Q 24.75 34.625 20.71875 30.859375 
Q 16.703125 27.09375 16.703125 20.515625 
Q 16.703125 13.921875 20.71875 10.15625 
Q 24.75 6.390625 31.78125 6.390625 
Q 38.8125 6.390625 42.859375 10.171875 
Q 46.921875 13.96875 46.921875 20.515625 
Q 46.921875 27.09375 42.890625 30.859375 
Q 38.875 34.625 31.78125 34.625 
z
M 21.921875 38.8125 
Q 15.578125 40.375 12.03125 44.71875 
Q 8.5 49.078125 8.5 55.328125 
Q 8.5 64.0625 14.71875 69.140625 
Q 20.953125 74.21875 31.78125 74.21875 
Q 42.671875 74.21875 48.875 69.140625 
Q 55.078125 64.0625 55.078125 55.328125 
Q 55.078125 49.078125 51.53125 44.71875 
Q 48 40.375 41.703125 38.8125 
Q 48.828125 37.15625 52.796875 32.3125 
Q 56.78125 27.484375 56.78125 20.515625 
Q 56.78125 9.90625 50.3125 4.234375 
Q 43.84375 -1.421875 31.78125 -1.421875 
Q 19.734375 -1.421875 13.25 4.234375 
Q 6.78125 9.90625 6.78125 20.515625 
Q 6.78125 27.484375 10.78125 32.3125 
Q 14.796875 37.15625 21.921875 38.8125 
z
M 18.3125 54.390625 
Q 18.3125 48.734375 21.84375 45.5625 
Q 25.390625 42.390625 31.78125 42.390625 
Q 38.140625 42.390625 41.71875 45.5625 
Q 45.3125 48.734375 45.3125 54.390625 
Q 45.3125 60.0625 41.71875 63.234375 
Q 38.140625 66.40625 31.78125 66.40625 
Q 25.390625 66.40625 21.84375 63.234375 
Q 18.3125 60.0625 18.3125 54.390625 
z
" id="DejaVuSans-56"/>
       </defs>
       <use xlink:href="#DejaVuSans-48"/>
       <use x="63.623047" xlink:href="#DejaVuSans-46"/>
       <use x="95.410156" xlink:href="#DejaVuSans-55"/>
       <use x="159.033203" xlink:href="#DejaVuSans-56"/>
      </g>
     </g>
    </g>
    <g id="ytick_6">
     <g id="line2d_21">
      <path clip-path="url(#pd9c3e4fb58)" d="M 108 241.714286 
L 777.6 241.714286 
" style="fill:none;stroke:#b0b0b0;stroke-linecap:square;stroke-width:0.8;"/>
     </g>
     <g id="line2d_22">
      <g>
       <use style="stroke:#000000;stroke-width:0.8;" x="108" xlink:href="#m3d9785f808" y="241.714286"/>
      </g>
     </g>
     <g id="text_13">
      <!-- 0.79 -->
      <g transform="translate(78.734375 245.513504)scale(0.1 -0.1)">
       <use xlink:href="#DejaVuSans-48"/>
       <use x="63.623047" xlink:href="#DejaVuSans-46"/>
       <use x="95.410156" xlink:href="#DejaVuSans-55"/>
       <use x="159.033203" xlink:href="#DejaVuSans-57"/>
      </g>
     </g>
    </g>
    <g id="ytick_7">
     <g id="line2d_23">
      <path clip-path="url(#pd9c3e4fb58)" d="M 108 164.057143 
L 777.6 164.057143 
" style="fill:none;stroke:#b0b0b0;stroke-linecap:square;stroke-width:0.8;"/>
     </g>
     <g id="line2d_24">
      <g>
       <use style="stroke:#000000;stroke-width:0.8;" x="108" xlink:href="#m3d9785f808" y="164.057143"/>
      </g>
     </g>
     <g id="text_14">
      <!-- 0.80 -->
      <g transform="translate(78.734375 167.856362)scale(0.1 -0.1)">
       <use xlink:href="#DejaVuSans-48"/>
       <use x="63.623047" xlink:href="#DejaVuSans-46"/>
       <use x="95.410156" xlink:href="#DejaVuSans-56"/>
       <use x="159.033203" xlink:href="#DejaVuSans-48"/>
      </g>
     </g>
    </g>
    <g id="ytick_8">
     <g id="line2d_25">
      <path clip-path="url(#pd9c3e4fb58)" d="M 108 86.4 
L 777.6 86.4 
" style="fill:none;stroke:#b0b0b0;stroke-linecap:square;stroke-width:0.8;"/>
     </g>
     <g id="line2d_26">
      <g>
       <use style="stroke:#000000;stroke-width:0.8;" x="108" xlink:href="#m3d9785f808" y="86.4"/>
      </g>
     </g>
     <g id="text_15">
      <!-- 0.81 -->
      <g transform="translate(78.734375 90.199219)scale(0.1 -0.1)">
       <use xlink:href="#DejaVuSans-48"/>
       <use x="63.623047" xlink:href="#DejaVuSans-46"/>
       <use x="95.410156" xlink:href="#DejaVuSans-56"/>
       <use x="159.033203" xlink:href="#DejaVuSans-49"/>
      </g>
     </g>
    </g>
    <g id="text_16">
     <!-- AUC ROC on evaluation set -->
     <g transform="translate(72.654687 426.197656)rotate(-90)scale(0.1 -0.1)">
      <defs>
       <path d="M 34.1875 63.1875 
L 20.796875 26.90625 
L 47.609375 26.90625 
z
M 28.609375 72.90625 
L 39.796875 72.90625 
L 67.578125 0 
L 57.328125 0 
L 50.6875 18.703125 
L 17.828125 18.703125 
L 11.1875 0 
L 0.78125 0 
z
" id="DejaVuSans-65"/>
       <path d="M 8.6875 72.90625 
L 18.609375 72.90625 
L 18.609375 28.609375 
Q 18.609375 16.890625 22.84375 11.734375 
Q 27.09375 6.59375 36.625 6.59375 
Q 46.09375 6.59375 50.34375 11.734375 
Q 54.59375 16.890625 54.59375 28.609375 
L 54.59375 72.90625 
L 64.5 72.90625 
L 64.5 27.390625 
Q 64.5 13.140625 57.4375 5.859375 
Q 50.390625 -1.421875 36.625 -1.421875 
Q 22.796875 -1.421875 15.734375 5.859375 
Q 8.6875 13.140625 8.6875 27.390625 
z
" id="DejaVuSans-85"/>
       <path d="M 64.40625 67.28125 
L 64.40625 56.890625 
Q 59.421875 61.53125 53.78125 63.8125 
Q 48.140625 66.109375 41.796875 66.109375 
Q 29.296875 66.109375 22.65625 58.46875 
Q 16.015625 50.828125 16.015625 36.375 
Q 16.015625 21.96875 22.65625 14.328125 
Q 29.296875 6.6875 41.796875 6.6875 
Q 48.140625 6.6875 53.78125 8.984375 
Q 59.421875 11.28125 64.40625 15.921875 
L 64.40625 5.609375 
Q 59.234375 2.09375 53.4375 0.328125 
Q 47.65625 -1.421875 41.21875 -1.421875 
Q 24.65625 -1.421875 15.125 8.703125 
Q 5.609375 18.84375 5.609375 36.375 
Q 5.609375 53.953125 15.125 64.078125 
Q 24.65625 74.21875 41.21875 74.21875 
Q 47.75 74.21875 53.53125 72.484375 
Q 59.328125 70.75 64.40625 67.28125 
z
" id="DejaVuSans-67"/>
       <path id="DejaVuSans-32"/>
       <path d="M 44.390625 34.1875 
Q 47.5625 33.109375 50.5625 29.59375 
Q 53.5625 26.078125 56.59375 19.921875 
L 66.609375 0 
L 56 0 
L 46.6875 18.703125 
Q 43.0625 26.03125 39.671875 28.421875 
Q 36.28125 30.8125 30.421875 30.8125 
L 19.671875 30.8125 
L 19.671875 0 
L 9.8125 0 
L 9.8125 72.90625 
L 32.078125 72.90625 
Q 44.578125 72.90625 50.734375 67.671875 
Q 56.890625 62.453125 56.890625 51.90625 
Q 56.890625 45.015625 53.6875 40.46875 
Q 50.484375 35.9375 44.390625 34.1875 
z
M 19.671875 64.796875 
L 19.671875 38.921875 
L 32.078125 38.921875 
Q 39.203125 38.921875 42.84375 42.21875 
Q 46.484375 45.515625 46.484375 51.90625 
Q 46.484375 58.296875 42.84375 61.546875 
Q 39.203125 64.796875 32.078125 64.796875 
z
" id="DejaVuSans-82"/>
       <path d="M 39.40625 66.21875 
Q 28.65625 66.21875 22.328125 58.203125 
Q 16.015625 50.203125 16.015625 36.375 
Q 16.015625 22.609375 22.328125 14.59375 
Q 28.65625 6.59375 39.40625 6.59375 
Q 50.140625 6.59375 56.421875 14.59375 
Q 62.703125 22.609375 62.703125 36.375 
Q 62.703125 50.203125 56.421875 58.203125 
Q 50.140625 66.21875 39.40625 66.21875 
z
M 39.40625 74.21875 
Q 54.734375 74.21875 63.90625 63.9375 
Q 73.09375 53.65625 73.09375 36.375 
Q 73.09375 19.140625 63.90625 8.859375 
Q 54.734375 -1.421875 39.40625 -1.421875 
Q 24.03125 -1.421875 14.8125 8.828125 
Q 5.609375 19.09375 5.609375 36.375 
Q 5.609375 53.65625 14.8125 63.9375 
Q 24.03125 74.21875 39.40625 74.21875 
z
" id="DejaVuSans-79"/>
       <path d="M 30.609375 48.390625 
Q 23.390625 48.390625 19.1875 42.75 
Q 14.984375 37.109375 14.984375 27.296875 
Q 14.984375 17.484375 19.15625 11.84375 
Q 23.34375 6.203125 30.609375 6.203125 
Q 37.796875 6.203125 41.984375 11.859375 
Q 46.1875 17.53125 46.1875 27.296875 
Q 46.1875 37.015625 41.984375 42.703125 
Q 37.796875 48.390625 30.609375 48.390625 
z
M 30.609375 56 
Q 42.328125 56 49.015625 48.375 
Q 55.71875 40.765625 55.71875 27.296875 
Q 55.71875 13.875 49.015625 6.21875 
Q 42.328125 -1.421875 30.609375 -1.421875 
Q 18.84375 -1.421875 12.171875 6.21875 
Q 5.515625 13.875 5.515625 27.296875 
Q 5.515625 40.765625 12.171875 48.375 
Q 18.84375 56 30.609375 56 
z
" id="DejaVuSans-111"/>
       <path d="M 54.890625 33.015625 
L 54.890625 0 
L 45.90625 0 
L 45.90625 32.71875 
Q 45.90625 40.484375 42.875 44.328125 
Q 39.84375 48.1875 33.796875 48.1875 
Q 26.515625 48.1875 22.3125 43.546875 
Q 18.109375 38.921875 18.109375 30.90625 
L 18.109375 0 
L 9.078125 0 
L 9.078125 54.6875 
L 18.109375 54.6875 
L 18.109375 46.1875 
Q 21.34375 51.125 25.703125 53.5625 
Q 30.078125 56 35.796875 56 
Q 45.21875 56 50.046875 50.171875 
Q 54.890625 44.34375 54.890625 33.015625 
z
" id="DejaVuSans-110"/>
       <path d="M 2.984375 54.6875 
L 12.5 54.6875 
L 29.59375 8.796875 
L 46.6875 54.6875 
L 56.203125 54.6875 
L 35.6875 0 
L 23.484375 0 
z
" id="DejaVuSans-118"/>
       <path d="M 8.5 21.578125 
L 8.5 54.6875 
L 17.484375 54.6875 
L 17.484375 21.921875 
Q 17.484375 14.15625 20.5 10.265625 
Q 23.53125 6.390625 29.59375 6.390625 
Q 36.859375 6.390625 41.078125 11.03125 
Q 45.3125 15.671875 45.3125 23.6875 
L 45.3125 54.6875 
L 54.296875 54.6875 
L 54.296875 0 
L 45.3125 0 
L 45.3125 8.40625 
Q 42.046875 3.421875 37.71875 1 
Q 33.40625 -1.421875 27.6875 -1.421875 
Q 18.265625 -1.421875 13.375 4.4375 
Q 8.5 10.296875 8.5 21.578125 
z
M 31.109375 56 
z
" id="DejaVuSans-117"/>
       <path d="M 18.3125 70.21875 
L 18.3125 54.6875 
L 36.8125 54.6875 
L 36.8125 47.703125 
L 18.3125 47.703125 
L 18.3125 18.015625 
Q 18.3125 11.328125 20.140625 9.421875 
Q 21.96875 7.515625 27.59375 7.515625 
L 36.8125 7.515625 
L 36.8125 0 
L 27.59375 0 
Q 17.1875 0 13.234375 3.875 
Q 9.28125 7.765625 9.28125 18.015625 
L 9.28125 47.703125 
L 2.6875 47.703125 
L 2.6875 54.6875 
L 9.28125 54.6875 
L 9.28125 70.21875 
z
" id="DejaVuSans-116"/>
       <path d="M 9.421875 54.6875 
L 18.40625 54.6875 
L 18.40625 0 
L 9.421875 0 
z
M 9.421875 75.984375 
L 18.40625 75.984375 
L 18.40625 64.59375 
L 9.421875 64.59375 
z
" id="DejaVuSans-105"/>
      </defs>
      <use xlink:href="#DejaVuSans-65"/>
      <use x="68.408203" xlink:href="#DejaVuSans-85"/>
      <use x="141.601562" xlink:href="#DejaVuSans-67"/>
      <use x="211.425781" xlink:href="#DejaVuSans-32"/>
      <use x="243.212891" xlink:href="#DejaVuSans-82"/>
      <use x="312.695312" xlink:href="#DejaVuSans-79"/>
      <use x="391.40625" xlink:href="#DejaVuSans-67"/>
      <use x="461.230469" xlink:href="#DejaVuSans-32"/>
      <use x="493.017578" xlink:href="#DejaVuSans-111"/>
      <use x="554.199219" xlink:href="#DejaVuSans-110"/>
      <use x="617.578125" xlink:href="#DejaVuSans-32"/>
      <use x="649.365234" xlink:href="#DejaVuSans-101"/>
      <use x="710.888672" xlink:href="#DejaVuSans-118"/>
      <use x="770.068359" xlink:href="#DejaVuSans-97"/>
      <use x="831.347656" xlink:href="#DejaVuSans-108"/>
      <use x="859.130859" xlink:href="#DejaVuSans-117"/>
      <use x="922.509766" xlink:href="#DejaVuSans-97"/>
      <use x="983.789062" xlink:href="#DejaVuSans-116"/>
      <use x="1022.998047" xlink:href="#DejaVuSans-105"/>
      <use x="1050.78125" xlink:href="#DejaVuSans-111"/>
      <use x="1111.962891" xlink:href="#DejaVuSans-110"/>
      <use x="1175.341797" xlink:href="#DejaVuSans-32"/>
      <use x="1207.128906" xlink:href="#DejaVuSans-115"/>
      <use x="1259.228516" xlink:href="#DejaVuSans-101"/>
      <use x="1320.751953" xlink:href="#DejaVuSans-116"/>
     </g>
    </g>
   </g>
   <g id="line2d_27">
    <path clip-path="url(#pd9c3e4fb58)" d="M 140.212265 721 
L 148.098701 501.32988 
L 157.761039 407.970463 
L 167.423377 365.460943 
L 177.085714 348.508389 
L 186.748052 344.237246 
L 196.41039 310.968926 
L 206.072727 292.929171 
L 215.735065 284.891657 
L 225.397403 267.154766 
L 235.05974 261.889611 
L 244.722078 253.168714 
L 254.384416 246.87072 
L 264.046753 240.549429 
L 273.709091 234.670783 
L 283.371429 231.70428 
L 293.033766 229.731789 
L 302.696104 232.605103 
L 312.358442 217.283349 
L 322.020779 216.343697 
L 331.683117 209.207006 
L 341.345455 205.549354 
L 351.007792 205.922109 
L 360.67013 202.971137 
L 370.332468 199.68624 
L 379.994805 198.661166 
L 389.657143 196.69644 
L 399.319481 193.830891 
L 408.981818 190.103349 
L 418.644156 190.01016 
L 428.306494 188.503611 
L 437.968831 186.872811 
L 447.631169 183.067611 
L 457.293506 180.924274 
L 466.955844 183.036549 
L 476.618182 178.454777 
L 486.280519 181.2582 
L 495.942857 179.19252 
L 505.605195 176.218251 
L 515.267532 173.640034 
L 524.92987 175.022331 
L 534.592208 173.523549 
L 544.254545 173.344937 
L 553.916883 168.817526 
L 563.579221 168.172971 
L 573.241558 167.637137 
L 582.903896 168.949543 
L 592.566234 169.601863 
L 602.228571 164.173629 
L 611.890909 162.022526 
L 621.553247 161.207126 
L 631.215584 158.170731 
L 640.877922 156.594291 
L 650.54026 154.714989 
L 660.202597 153.037594 
L 669.864935 151.79508 
L 679.527273 150.537034 
L 689.18961 149.923543 
L 698.851948 148.323806 
L 708.514286 147.12012 
L 718.176623 146.817257 
L 727.838961 145.799949 
L 737.501299 144.837 
L 747.163636 144.114789 
" style="fill:none;stroke:#1f77b4;stroke-linecap:square;stroke-width:1.5;"/>
   </g>
   <g id="line2d_28">
    <path clip-path="url(#pd9c3e4fb58)" d="M 139.004789 721 
L 148.098701 480.370217 
L 157.761039 419.448189 
L 167.423377 374.67108 
L 177.085714 343.235469 
L 186.748052 335.112531 
L 196.41039 312.436646 
L 206.072727 302.201434 
L 215.735065 279.859474 
L 225.397403 269.437886 
L 235.05974 261.726531 
L 244.722078 253.797737 
L 254.384416 246.016491 
L 264.046753 239.493291 
L 273.709091 232.3566 
L 283.371429 227.30112 
L 293.033766 222.882429 
L 302.696104 221.841823 
L 312.358442 215.543829 
L 322.020779 213.804309 
L 331.683117 211.016417 
L 341.345455 208.647874 
L 351.007792 203.305063 
L 360.67013 201.573309 
L 370.332468 198.70776 
L 379.994805 195.71796 
L 389.657143 193.776531 
L 399.319481 193.287291 
L 408.981818 192.044777 
L 418.644156 187.579491 
L 428.306494 185.832206 
L 437.968831 184.248 
L 447.631169 183.525789 
L 457.293506 183.914074 
L 466.955844 179.231349 
L 476.618182 179.371131 
L 486.280519 178.043194 
L 495.942857 176.505583 
L 505.605195 174.144806 
L 515.267532 176.831743 
L 524.92987 172.521771 
L 534.592208 170.518217 
L 544.254545 168.794229 
L 553.916883 168.654446 
L 563.579221 168.452537 
L 573.241558 168.444771 
L 582.903896 167.846811 
L 592.566234 167.062474 
L 602.228571 164.56968 
L 611.890909 161.595411 
L 621.553247 160.150989 
L 631.215584 158.613377 
L 640.877922 156.897154 
L 650.54026 155.375074 
L 660.202597 153.852994 
L 669.864935 150.964149 
L 679.527273 150.669051 
L 689.18961 149.146971 
L 698.851948 147.430749 
L 708.514286 147.0114 
L 718.176623 146.180469 
L 727.838961 144.363291 
L 737.501299 143.827457 
L 747.163636 143.175137 
" style="fill:none;stroke:#ff7f0e;stroke-linecap:square;stroke-width:1.5;"/>
   </g>
   <g id="line2d_29">
    <path clip-path="url(#pd9c3e4fb58)" d="M 140.00424 721 
L 148.098701 495.008589 
L 157.761039 397.789611 
L 167.423377 365.227971 
L 177.085714 339.639943 
L 186.748052 320.140234 
L 196.41039 302.519829 
L 206.072727 293.441709 
L 215.735065 281.17188 
L 225.397403 271.620051 
L 235.05974 267.892509 
L 244.722078 251.584509 
L 254.384416 245.993194 
L 264.046753 235.579371 
L 273.709091 230.492829 
L 283.371429 227.4642 
L 293.033766 222.742646 
L 302.696104 219.52764 
L 312.358442 214.433331 
L 322.020779 213.858669 
L 331.683117 210.325269 
L 341.345455 207.94896 
L 351.007792 202.714869 
L 360.67013 199.25136 
L 370.332468 197.791406 
L 379.994805 195.17436 
L 389.657143 195.469457 
L 399.319481 192.137966 
L 408.981818 188.480314 
L 418.644156 188.130857 
L 428.306494 186.352509 
L 437.968831 185.995286 
L 447.631169 182.23668 
L 457.293506 181.211606 
L 466.955844 181.250434 
L 476.618182 181.064057 
L 486.280519 180.567051 
L 495.942857 175.915389 
L 505.605195 176.000811 
L 515.267532 172.933354 
L 524.92987 172.017 
L 534.592208 174.688406 
L 544.254545 172.428583 
L 553.916883 169.718349 
L 563.579221 169.423251 
L 573.241558 168.530194 
L 582.903896 168.739869 
L 592.566234 164.926903 
L 602.228571 163.466949 
L 611.890909 161.564349 
L 621.553247 160.088863 
L 631.215584 157.813509 
L 640.877922 157.300971 
L 650.54026 155.227526 
L 660.202597 153.410349 
L 669.864935 153.324926 
L 679.527273 151.228183 
L 689.18961 149.372177 
L 698.851948 148.354869 
L 708.514286 147.438514 
L 718.176623 146.452269 
L 727.838961 145.015611 
L 737.501299 144.813703 
L 747.163636 143.920646 
" style="fill:none;stroke:#2ca02c;stroke-linecap:square;stroke-width:1.5;"/>
   </g>
   <g id="line2d_30">
    <path clip-path="url(#pd9c3e4fb58)" d="M 139.913517 721 
L 148.098701 484.20648 
L 157.761039 403.26444 
L 167.423377 371.588091 
L 177.085714 345.565183 
L 186.748052 324.139577 
L 196.41039 311.139771 
L 206.072727 300.982217 
L 215.735065 284.518903 
L 225.397403 272.932457 
L 235.05974 275.223343 
L 244.722078 261.027617 
L 254.384416 252.601817 
L 264.046753 245.061309 
L 273.709091 237.582926 
L 283.371429 232.278943 
L 293.033766 227.976737 
L 302.696104 223.00668 
L 312.358442 219.79944 
L 322.020779 218.090983 
L 331.683117 214.806086 
L 341.345455 209.610823 
L 351.007792 206.349223 
L 360.67013 202.613914 
L 370.332468 201.068537 
L 379.994805 198.49032 
L 389.657143 197.651623 
L 399.319481 194.46768 
L 408.981818 190.212069 
L 418.644156 190.351851 
L 428.306494 187.742571 
L 437.968831 187.090251 
L 447.631169 186.352509 
L 457.293506 182.244446 
L 466.955844 182.531777 
L 476.618182 181.359154 
L 486.280519 181.731909 
L 495.942857 177.553954 
L 505.605195 176.730789 
L 515.267532 173.888537 
L 524.92987 172.731446 
L 534.592208 175.270834 
L 544.254545 172.902291 
L 553.916883 169.997914 
L 563.579221 169.267937 
L 573.241558 170.106634 
L 582.903896 170.300777 
L 592.566234 166.25484 
L 602.228571 164.647337 
L 611.890909 162.06912 
L 621.553247 160.011206 
L 631.215584 158.955069 
L 640.877922 157.999886 
L 650.54026 155.786657 
L 660.202597 153.953949 
L 669.864935 153.526834 
L 679.527273 151.717423 
L 689.18961 150.148749 
L 698.851948 149.038251 
L 708.514286 147.306497 
L 718.176623 146.747366 
L 727.838961 145.497086 
L 737.501299 145.16316 
L 747.163636 144.0216 
" style="fill:none;stroke:#d62728;stroke-linecap:square;stroke-width:1.5;"/>
   </g>
   <g id="line2d_31">
    <path clip-path="url(#pd9c3e4fb58)" d="M 139.287573 721 
L 148.098701 479.616943 
L 157.761039 414.936309 
L 167.423377 382.219354 
L 177.085714 344.55564 
L 186.748052 331.695617 
L 196.41039 312.840463 
L 206.072727 298.334109 
L 215.735065 279.634269 
L 225.397403 268.88652 
L 235.05974 259.963714 
L 244.722078 252.982337 
L 254.384416 246.800829 
L 264.046753 241.341531 
L 273.709091 233.102109 
L 283.371429 228.543634 
L 293.033766 224.078349 
L 302.696104 221.764166 
L 312.358442 216.724217 
L 322.020779 214.355674 
L 331.683117 215.272029 
L 341.345455 206.256034 
L 351.007792 205.50276 
L 360.67013 203.65452 
L 370.332468 200.198777 
L 379.994805 198.529149 
L 389.657143 195.453926 
L 399.319481 192.922303 
L 408.981818 192.689331 
L 418.644156 187.843526 
L 428.306494 186.538886 
L 437.968831 184.224703 
L 447.631169 183.059846 
L 457.293506 183.86748 
L 466.955844 180.55152 
L 476.618182 179.705057 
L 486.280519 176.955994 
L 495.942857 178.314994 
L 505.605195 175.053394 
L 515.267532 176.412394 
L 524.92987 172.490709 
L 534.592208 171.263726 
L 544.254545 169.508674 
L 553.916883 168.778697 
L 563.579221 166.891629 
L 573.241558 167.971063 
L 582.903896 167.901171 
L 592.566234 168.70104 
L 602.228571 164.18916 
L 611.890909 162.271029 
L 621.553247 159.669514 
L 631.215584 158.869646 
L 640.877922 156.462274 
L 650.54026 155.204229 
L 660.202597 152.975469 
L 669.864935 150.614691 
L 679.527273 151.072869 
L 689.18961 149.581851 
L 698.851948 147.44628 
L 708.514286 147.508406 
L 718.176623 146.164937 
L 727.838961 144.176914 
L 737.501299 143.920646 
L 747.163636 143.322686 
" style="fill:none;stroke:#9467bd;stroke-linecap:square;stroke-width:1.5;"/>
   </g>
   <g id="line2d_32">
    <path clip-path="url(#pd9c3e4fb58)" d="M 140.163172 721 
L 148.098701 504.063411 
L 157.761039 419.215217 
L 167.423377 378.320966 
L 177.085714 344.260543 
L 186.748052 332.192623 
L 196.41039 314.27712 
L 206.072727 299.071851 
L 215.735065 278.601429 
L 225.397403 269.15832 
L 235.05974 259.016297 
L 244.722078 252.128109 
L 254.384416 247.344429 
L 264.046753 240.735806 
L 273.709091 232.038206 
L 283.371429 227.868017 
L 293.033766 223.853143 
L 302.696104 222.090326 
L 312.358442 215.466171 
L 322.020779 214.433331 
L 331.683117 211.707566 
L 341.345455 207.156857 
L 351.007792 203.615691 
L 360.67013 202.388709 
L 370.332468 198.047674 
L 379.994805 197.51184 
L 389.657143 195.143297 
L 399.319481 192.34764 
L 408.981818 193.737703 
L 418.644156 187.804697 
L 428.306494 186.461229 
L 437.968831 184.046091 
L 447.631169 182.360931 
L 457.293506 183.502491 
L 466.955844 180.427269 
L 476.618182 179.200286 
L 486.280519 177.841286 
L 495.942857 176.171657 
L 505.605195 173.966194 
L 515.267532 176.862806 
L 524.92987 172.34316 
L 534.592208 170.199823 
L 544.254545 169.267937 
L 553.916883 169.089326 
L 563.579221 166.79844 
L 573.241558 167.575011 
L 582.903896 167.846811 
L 592.566234 166.90716 
L 602.228571 162.99324 
L 611.890909 162.61272 
L 621.553247 159.832594 
L 631.215584 158.892943 
L 640.877922 156.446743 
L 650.54026 155.033383 
L 660.202597 153.146314 
L 669.864935 150.824366 
L 679.527273 150.498206 
L 689.18961 148.983891 
L 698.851948 147.158949 
L 708.514286 147.0114 
L 718.176623 145.854309 
L 727.838961 144.200211 
L 737.501299 143.633314 
L 747.163636 143.050886 
" style="fill:none;stroke:#8c564b;stroke-linecap:square;stroke-width:1.5;"/>
   </g>
   <g id="patch_3">
    <path d="M 108 630 
L 108 86.4 
" style="fill:none;stroke:#000000;stroke-linecap:square;stroke-linejoin:miter;stroke-width:0.8;"/>
   </g>
   <g id="patch_4">
    <path d="M 777.6 630 
L 777.6 86.4 
" style="fill:none;stroke:#000000;stroke-linecap:square;stroke-linejoin:miter;stroke-width:0.8;"/>
   </g>
   <g id="patch_5">
    <path d="M 108 630 
L 777.6 630 
" style="fill:none;stroke:#000000;stroke-linecap:square;stroke-linejoin:miter;stroke-width:0.8;"/>
   </g>
   <g id="patch_6">
    <path d="M 108 86.4 
L 777.6 86.4 
" style="fill:none;stroke:#000000;stroke-linecap:square;stroke-linejoin:miter;stroke-width:0.8;"/>
   </g>
   <g id="text_17">
    <!-- AUC ROC on evaluation set for Criteo dataset with FL3 -->
    <g transform="translate(279.355313 80.4)scale(0.12 -0.12)">
     <defs>
      <path d="M 37.109375 75.984375 
L 37.109375 68.5 
L 28.515625 68.5 
Q 23.6875 68.5 21.796875 66.546875 
Q 19.921875 64.59375 19.921875 59.515625 
L 19.921875 54.6875 
L 34.71875 54.6875 
L 34.71875 47.703125 
L 19.921875 47.703125 
L 19.921875 0 
L 10.890625 0 
L 10.890625 47.703125 
L 2.296875 47.703125 
L 2.296875 54.6875 
L 10.890625 54.6875 
L 10.890625 58.5 
Q 10.890625 67.625 15.140625 71.796875 
Q 19.390625 75.984375 28.609375 75.984375 
z
" id="DejaVuSans-102"/>
      <path d="M 41.109375 46.296875 
Q 39.59375 47.171875 37.8125 47.578125 
Q 36.03125 48 33.890625 48 
Q 26.265625 48 22.1875 43.046875 
Q 18.109375 38.09375 18.109375 28.8125 
L 18.109375 0 
L 9.078125 0 
L 9.078125 54.6875 
L 18.109375 54.6875 
L 18.109375 46.1875 
Q 20.953125 51.171875 25.484375 53.578125 
Q 30.03125 56 36.53125 56 
Q 37.453125 56 38.578125 55.875 
Q 39.703125 55.765625 41.0625 55.515625 
z
" id="DejaVuSans-114"/>
      <path d="M 45.40625 46.390625 
L 45.40625 75.984375 
L 54.390625 75.984375 
L 54.390625 0 
L 45.40625 0 
L 45.40625 8.203125 
Q 42.578125 3.328125 38.25 0.953125 
Q 33.9375 -1.421875 27.875 -1.421875 
Q 17.96875 -1.421875 11.734375 6.484375 
Q 5.515625 14.40625 5.515625 27.296875 
Q 5.515625 40.1875 11.734375 48.09375 
Q 17.96875 56 27.875 56 
Q 33.9375 56 38.25 53.625 
Q 42.578125 51.265625 45.40625 46.390625 
z
M 14.796875 27.296875 
Q 14.796875 17.390625 18.875 11.75 
Q 22.953125 6.109375 30.078125 6.109375 
Q 37.203125 6.109375 41.296875 11.75 
Q 45.40625 17.390625 45.40625 27.296875 
Q 45.40625 37.203125 41.296875 42.84375 
Q 37.203125 48.484375 30.078125 48.484375 
Q 22.953125 48.484375 18.875 42.84375 
Q 14.796875 37.203125 14.796875 27.296875 
z
" id="DejaVuSans-100"/>
      <path d="M 4.203125 54.6875 
L 13.1875 54.6875 
L 24.421875 12.015625 
L 35.59375 54.6875 
L 46.1875 54.6875 
L 57.421875 12.015625 
L 68.609375 54.6875 
L 77.59375 54.6875 
L 63.28125 0 
L 52.6875 0 
L 40.921875 44.828125 
L 29.109375 0 
L 18.5 0 
z
" id="DejaVuSans-119"/>
      <path d="M 54.890625 33.015625 
L 54.890625 0 
L 45.90625 0 
L 45.90625 32.71875 
Q 45.90625 40.484375 42.875 44.328125 
Q 39.84375 48.1875 33.796875 48.1875 
Q 26.515625 48.1875 22.3125 43.546875 
Q 18.109375 38.921875 18.109375 30.90625 
L 18.109375 0 
L 9.078125 0 
L 9.078125 75.984375 
L 18.109375 75.984375 
L 18.109375 46.1875 
Q 21.34375 51.125 25.703125 53.5625 
Q 30.078125 56 35.796875 56 
Q 45.21875 56 50.046875 50.171875 
Q 54.890625 44.34375 54.890625 33.015625 
z
" id="DejaVuSans-104"/>
      <path d="M 9.8125 72.90625 
L 51.703125 72.90625 
L 51.703125 64.59375 
L 19.671875 64.59375 
L 19.671875 43.109375 
L 48.578125 43.109375 
L 48.578125 34.8125 
L 19.671875 34.8125 
L 19.671875 0 
L 9.8125 0 
z
" id="DejaVuSans-70"/>
      <path d="M 9.8125 72.90625 
L 19.671875 72.90625 
L 19.671875 8.296875 
L 55.171875 8.296875 
L 55.171875 0 
L 9.8125 0 
z
" id="DejaVuSans-76"/>
     </defs>
     <use xlink:href="#DejaVuSans-65"/>
     <use x="68.408203" xlink:href="#DejaVuSans-85"/>
     <use x="141.601562" xlink:href="#DejaVuSans-67"/>
     <use x="211.425781" xlink:href="#DejaVuSans-32"/>
     <use x="243.212891" xlink:href="#DejaVuSans-82"/>
     <use x="312.695312" xlink:href="#DejaVuSans-79"/>
     <use x="391.40625" xlink:href="#DejaVuSans-67"/>
     <use x="461.230469" xlink:href="#DejaVuSans-32"/>
     <use x="493.017578" xlink:href="#DejaVuSans-111"/>
     <use x="554.199219" xlink:href="#DejaVuSans-110"/>
     <use x="617.578125" xlink:href="#DejaVuSans-32"/>
     <use x="649.365234" xlink:href="#DejaVuSans-101"/>
     <use x="710.888672" xlink:href="#DejaVuSans-118"/>
     <use x="770.068359" xlink:href="#DejaVuSans-97"/>
     <use x="831.347656" xlink:href="#DejaVuSans-108"/>
     <use x="859.130859" xlink:href="#DejaVuSans-117"/>
     <use x="922.509766" xlink:href="#DejaVuSans-97"/>
     <use x="983.789062" xlink:href="#DejaVuSans-116"/>
     <use x="1022.998047" xlink:href="#DejaVuSans-105"/>
     <use x="1050.78125" xlink:href="#DejaVuSans-111"/>
     <use x="1111.962891" xlink:href="#DejaVuSans-110"/>
     <use x="1175.341797" xlink:href="#DejaVuSans-32"/>
     <use x="1207.128906" xlink:href="#DejaVuSans-115"/>
     <use x="1259.228516" xlink:href="#DejaVuSans-101"/>
     <use x="1320.751953" xlink:href="#DejaVuSans-116"/>
     <use x="1359.960938" xlink:href="#DejaVuSans-32"/>
     <use x="1391.748047" xlink:href="#DejaVuSans-102"/>
     <use x="1426.953125" xlink:href="#DejaVuSans-111"/>
     <use x="1488.134766" xlink:href="#DejaVuSans-114"/>
     <use x="1529.248047" xlink:href="#DejaVuSans-32"/>
     <use x="1561.035156" xlink:href="#DejaVuSans-67"/>
     <use x="1630.859375" xlink:href="#DejaVuSans-114"/>
     <use x="1671.972656" xlink:href="#DejaVuSans-105"/>
     <use x="1699.755859" xlink:href="#DejaVuSans-116"/>
     <use x="1738.964844" xlink:href="#DejaVuSans-101"/>
     <use x="1800.488281" xlink:href="#DejaVuSans-111"/>
     <use x="1861.669922" xlink:href="#DejaVuSans-32"/>
     <use x="1893.457031" xlink:href="#DejaVuSans-100"/>
     <use x="1956.933594" xlink:href="#DejaVuSans-97"/>
     <use x="2018.212891" xlink:href="#DejaVuSans-116"/>
     <use x="2057.421875" xlink:href="#DejaVuSans-97"/>
     <use x="2118.701172" xlink:href="#DejaVuSans-115"/>
     <use x="2170.800781" xlink:href="#DejaVuSans-101"/>
     <use x="2232.324219" xlink:href="#DejaVuSans-116"/>
     <use x="2271.533203" xlink:href="#DejaVuSans-32"/>
     <use x="2303.320312" xlink:href="#DejaVuSans-119"/>
     <use x="2385.107422" xlink:href="#DejaVuSans-105"/>
     <use x="2412.890625" xlink:href="#DejaVuSans-116"/>
     <use x="2452.099609" xlink:href="#DejaVuSans-104"/>
     <use x="2515.478516" xlink:href="#DejaVuSans-32"/>
     <use x="2547.265625" xlink:href="#DejaVuSans-70"/>
     <use x="2604.785156" xlink:href="#DejaVuSans-76"/>
     <use x="2660.498047" xlink:href="#DejaVuSans-51"/>
    </g>
   </g>
   <g id="legend_1">
    <g id="patch_7">
     <path d="M 115 182.46875 
L 271.189062 182.46875 
Q 273.189062 182.46875 273.189062 180.46875 
L 273.189062 93.4 
Q 273.189062 91.4 271.189062 91.4 
L 115 91.4 
Q 113 91.4 113 93.4 
L 113 180.46875 
Q 113 182.46875 115 182.46875 
z
" style="fill:#ffffff;opacity:0.8;stroke:#cccccc;stroke-linejoin:miter;"/>
    </g>
    <g id="line2d_33">
     <path d="M 117 99.498438 
L 137 99.498438 
" style="fill:none;stroke:#1f77b4;stroke-linecap:square;stroke-width:1.5;"/>
    </g>
    <g id="line2d_34"/>
    <g id="text_18">
     <!-- FL3, 8 GPU, A100, TF32 -->
     <g transform="translate(145 102.998438)scale(0.1 -0.1)">
      <defs>
       <path d="M 11.71875 12.40625 
L 22.015625 12.40625 
L 22.015625 4 
L 14.015625 -11.625 
L 7.71875 -11.625 
L 11.71875 4 
z
" id="DejaVuSans-44"/>
       <path d="M 59.515625 10.40625 
L 59.515625 29.984375 
L 43.40625 29.984375 
L 43.40625 38.09375 
L 69.28125 38.09375 
L 69.28125 6.78125 
Q 63.578125 2.734375 56.6875 0.65625 
Q 49.8125 -1.421875 42 -1.421875 
Q 24.90625 -1.421875 15.25 8.5625 
Q 5.609375 18.5625 5.609375 36.375 
Q 5.609375 54.25 15.25 64.234375 
Q 24.90625 74.21875 42 74.21875 
Q 49.125 74.21875 55.546875 72.453125 
Q 61.96875 70.703125 67.390625 67.28125 
L 67.390625 56.78125 
Q 61.921875 61.421875 55.765625 63.765625 
Q 49.609375 66.109375 42.828125 66.109375 
Q 29.4375 66.109375 22.71875 58.640625 
Q 16.015625 51.171875 16.015625 36.375 
Q 16.015625 21.625 22.71875 14.15625 
Q 29.4375 6.6875 42.828125 6.6875 
Q 48.046875 6.6875 52.140625 7.59375 
Q 56.25 8.5 59.515625 10.40625 
z
" id="DejaVuSans-71"/>
       <path d="M 19.671875 64.796875 
L 19.671875 37.40625 
L 32.078125 37.40625 
Q 38.96875 37.40625 42.71875 40.96875 
Q 46.484375 44.53125 46.484375 51.125 
Q 46.484375 57.671875 42.71875 61.234375 
Q 38.96875 64.796875 32.078125 64.796875 
z
M 9.8125 72.90625 
L 32.078125 72.90625 
Q 44.34375 72.90625 50.609375 67.359375 
Q 56.890625 61.8125 56.890625 51.125 
Q 56.890625 40.328125 50.609375 34.8125 
Q 44.34375 29.296875 32.078125 29.296875 
L 19.671875 29.296875 
L 19.671875 0 
L 9.8125 0 
z
" id="DejaVuSans-80"/>
       <path d="M -0.296875 72.90625 
L 61.375 72.90625 
L 61.375 64.59375 
L 35.5 64.59375 
L 35.5 0 
L 25.59375 0 
L 25.59375 64.59375 
L -0.296875 64.59375 
z
" id="DejaVuSans-84"/>
      </defs>
      <use xlink:href="#DejaVuSans-70"/>
      <use x="57.519531" xlink:href="#DejaVuSans-76"/>
      <use x="113.232422" xlink:href="#DejaVuSans-51"/>
      <use x="176.855469" xlink:href="#DejaVuSans-44"/>
      <use x="208.642578" xlink:href="#DejaVuSans-32"/>
      <use x="240.429688" xlink:href="#DejaVuSans-56"/>
      <use x="304.052734" xlink:href="#DejaVuSans-32"/>
      <use x="335.839844" xlink:href="#DejaVuSans-71"/>
      <use x="413.330078" xlink:href="#DejaVuSans-80"/>
      <use x="473.632812" xlink:href="#DejaVuSans-85"/>
      <use x="546.826172" xlink:href="#DejaVuSans-44"/>
      <use x="578.613281" xlink:href="#DejaVuSans-32"/>
      <use x="610.400391" xlink:href="#DejaVuSans-65"/>
      <use x="678.808594" xlink:href="#DejaVuSans-49"/>
      <use x="742.431641" xlink:href="#DejaVuSans-48"/>
      <use x="806.054688" xlink:href="#DejaVuSans-48"/>
      <use x="869.677734" xlink:href="#DejaVuSans-44"/>
      <use x="901.464844" xlink:href="#DejaVuSans-32"/>
      <use x="933.251953" xlink:href="#DejaVuSans-84"/>
      <use x="994.335938" xlink:href="#DejaVuSans-70"/>
      <use x="1051.855469" xlink:href="#DejaVuSans-51"/>
      <use x="1115.478516" xlink:href="#DejaVuSans-50"/>
     </g>
    </g>
    <g id="line2d_35">
     <path d="M 117 114.176563 
L 137 114.176563 
" style="fill:none;stroke:#ff7f0e;stroke-linecap:square;stroke-width:1.5;"/>
    </g>
    <g id="line2d_36"/>
    <g id="text_19">
     <!-- FL3, 8 GPU, A100, AMP -->
     <g transform="translate(145 117.676563)scale(0.1 -0.1)">
      <defs>
       <path d="M 9.8125 72.90625 
L 24.515625 72.90625 
L 43.109375 23.296875 
L 61.8125 72.90625 
L 76.515625 72.90625 
L 76.515625 0 
L 66.890625 0 
L 66.890625 64.015625 
L 48.09375 14.015625 
L 38.1875 14.015625 
L 19.390625 64.015625 
L 19.390625 0 
L 9.8125 0 
z
" id="DejaVuSans-77"/>
      </defs>
      <use xlink:href="#DejaVuSans-70"/>
      <use x="57.519531" xlink:href="#DejaVuSans-76"/>
      <use x="113.232422" xlink:href="#DejaVuSans-51"/>
      <use x="176.855469" xlink:href="#DejaVuSans-44"/>
      <use x="208.642578" xlink:href="#DejaVuSans-32"/>
      <use x="240.429688" xlink:href="#DejaVuSans-56"/>
      <use x="304.052734" xlink:href="#DejaVuSans-32"/>
      <use x="335.839844" xlink:href="#DejaVuSans-71"/>
      <use x="413.330078" xlink:href="#DejaVuSans-80"/>
      <use x="473.632812" xlink:href="#DejaVuSans-85"/>
      <use x="546.826172" xlink:href="#DejaVuSans-44"/>
      <use x="578.613281" xlink:href="#DejaVuSans-32"/>
      <use x="610.400391" xlink:href="#DejaVuSans-65"/>
      <use x="678.808594" xlink:href="#DejaVuSans-49"/>
      <use x="742.431641" xlink:href="#DejaVuSans-48"/>
      <use x="806.054688" xlink:href="#DejaVuSans-48"/>
      <use x="869.677734" xlink:href="#DejaVuSans-44"/>
      <use x="901.464844" xlink:href="#DejaVuSans-32"/>
      <use x="933.251953" xlink:href="#DejaVuSans-65"/>
      <use x="1001.660156" xlink:href="#DejaVuSans-77"/>
      <use x="1087.939453" xlink:href="#DejaVuSans-80"/>
     </g>
    </g>
    <g id="line2d_37">
     <path d="M 117 128.854688 
L 137 128.854688 
" style="fill:none;stroke:#2ca02c;stroke-linecap:square;stroke-width:1.5;"/>
    </g>
    <g id="line2d_38"/>
    <g id="text_20">
     <!-- FL3, 8 GPU, V100, FP32 -->
     <g transform="translate(145 132.354688)scale(0.1 -0.1)">
      <defs>
       <path d="M 28.609375 0 
L 0.78125 72.90625 
L 11.078125 72.90625 
L 34.1875 11.53125 
L 57.328125 72.90625 
L 67.578125 72.90625 
L 39.796875 0 
z
" id="DejaVuSans-86"/>
      </defs>
      <use xlink:href="#DejaVuSans-70"/>
      <use x="57.519531" xlink:href="#DejaVuSans-76"/>
      <use x="113.232422" xlink:href="#DejaVuSans-51"/>
      <use x="176.855469" xlink:href="#DejaVuSans-44"/>
      <use x="208.642578" xlink:href="#DejaVuSans-32"/>
      <use x="240.429688" xlink:href="#DejaVuSans-56"/>
      <use x="304.052734" xlink:href="#DejaVuSans-32"/>
      <use x="335.839844" xlink:href="#DejaVuSans-71"/>
      <use x="413.330078" xlink:href="#DejaVuSans-80"/>
      <use x="473.632812" xlink:href="#DejaVuSans-85"/>
      <use x="546.826172" xlink:href="#DejaVuSans-44"/>
      <use x="578.613281" xlink:href="#DejaVuSans-32"/>
      <use x="610.400391" xlink:href="#DejaVuSans-86"/>
      <use x="678.808594" xlink:href="#DejaVuSans-49"/>
      <use x="742.431641" xlink:href="#DejaVuSans-48"/>
      <use x="806.054688" xlink:href="#DejaVuSans-48"/>
      <use x="869.677734" xlink:href="#DejaVuSans-44"/>
      <use x="901.464844" xlink:href="#DejaVuSans-32"/>
      <use x="933.251953" xlink:href="#DejaVuSans-70"/>
      <use x="990.771484" xlink:href="#DejaVuSans-80"/>
      <use x="1051.074219" xlink:href="#DejaVuSans-51"/>
      <use x="1114.697266" xlink:href="#DejaVuSans-50"/>
     </g>
    </g>
    <g id="line2d_39">
     <path d="M 117 143.532812 
L 137 143.532812 
" style="fill:none;stroke:#d62728;stroke-linecap:square;stroke-width:1.5;"/>
    </g>
    <g id="line2d_40"/>
    <g id="text_21">
     <!-- FL3, 8 GPU, V100, AMP -->
     <g transform="translate(145 147.032812)scale(0.1 -0.1)">
      <use xlink:href="#DejaVuSans-70"/>
      <use x="57.519531" xlink:href="#DejaVuSans-76"/>
      <use x="113.232422" xlink:href="#DejaVuSans-51"/>
      <use x="176.855469" xlink:href="#DejaVuSans-44"/>
      <use x="208.642578" xlink:href="#DejaVuSans-32"/>
      <use x="240.429688" xlink:href="#DejaVuSans-56"/>
      <use x="304.052734" xlink:href="#DejaVuSans-32"/>
      <use x="335.839844" xlink:href="#DejaVuSans-71"/>
      <use x="413.330078" xlink:href="#DejaVuSans-80"/>
      <use x="473.632812" xlink:href="#DejaVuSans-85"/>
      <use x="546.826172" xlink:href="#DejaVuSans-44"/>
      <use x="578.613281" xlink:href="#DejaVuSans-32"/>
      <use x="610.400391" xlink:href="#DejaVuSans-86"/>
      <use x="678.808594" xlink:href="#DejaVuSans-49"/>
      <use x="742.431641" xlink:href="#DejaVuSans-48"/>
      <use x="806.054688" xlink:href="#DejaVuSans-48"/>
      <use x="869.677734" xlink:href="#DejaVuSans-44"/>
      <use x="901.464844" xlink:href="#DejaVuSans-32"/>
      <use x="933.251953" xlink:href="#DejaVuSans-65"/>
      <use x="1001.660156" xlink:href="#DejaVuSans-77"/>
      <use x="1087.939453" xlink:href="#DejaVuSans-80"/>
     </g>
    </g>
    <g id="line2d_41">
     <path d="M 117 158.210938 
L 137 158.210938 
" style="fill:none;stroke:#9467bd;stroke-linecap:square;stroke-width:1.5;"/>
    </g>
    <g id="line2d_42"/>
    <g id="text_22">
     <!-- FL3, 16 GPU, V100, FP32 -->
     <g transform="translate(145 161.710938)scale(0.1 -0.1)">
      <use xlink:href="#DejaVuSans-70"/>
      <use x="57.519531" xlink:href="#DejaVuSans-76"/>
      <use x="113.232422" xlink:href="#DejaVuSans-51"/>
      <use x="176.855469" xlink:href="#DejaVuSans-44"/>
      <use x="208.642578" xlink:href="#DejaVuSans-32"/>
      <use x="240.429688" xlink:href="#DejaVuSans-49"/>
      <use x="304.052734" xlink:href="#DejaVuSans-54"/>
      <use x="367.675781" xlink:href="#DejaVuSans-32"/>
      <use x="399.462891" xlink:href="#DejaVuSans-71"/>
      <use x="476.953125" xlink:href="#DejaVuSans-80"/>
      <use x="537.255859" xlink:href="#DejaVuSans-85"/>
      <use x="610.449219" xlink:href="#DejaVuSans-44"/>
      <use x="642.236328" xlink:href="#DejaVuSans-32"/>
      <use x="674.023438" xlink:href="#DejaVuSans-86"/>
      <use x="742.431641" xlink:href="#DejaVuSans-49"/>
      <use x="806.054688" xlink:href="#DejaVuSans-48"/>
      <use x="869.677734" xlink:href="#DejaVuSans-48"/>
      <use x="933.300781" xlink:href="#DejaVuSans-44"/>
      <use x="965.087891" xlink:href="#DejaVuSans-32"/>
      <use x="996.875" xlink:href="#DejaVuSans-70"/>
      <use x="1054.394531" xlink:href="#DejaVuSans-80"/>
      <use x="1114.697266" xlink:href="#DejaVuSans-51"/>
      <use x="1178.320312" xlink:href="#DejaVuSans-50"/>
     </g>
    </g>
    <g id="line2d_43">
     <path d="M 117 172.889063 
L 137 172.889063 
" style="fill:none;stroke:#8c564b;stroke-linecap:square;stroke-width:1.5;"/>
    </g>
    <g id="line2d_44"/>
    <g id="text_23">
     <!-- FL3, 16 GPU, V100, AMP -->
     <g transform="translate(145 176.389063)scale(0.1 -0.1)">
      <use xlink:href="#DejaVuSans-70"/>
      <use x="57.519531" xlink:href="#DejaVuSans-76"/>
      <use x="113.232422" xlink:href="#DejaVuSans-51"/>
      <use x="176.855469" xlink:href="#DejaVuSans-44"/>
      <use x="208.642578" xlink:href="#DejaVuSans-32"/>
      <use x="240.429688" xlink:href="#DejaVuSans-49"/>
      <use x="304.052734" xlink:href="#DejaVuSans-54"/>
      <use x="367.675781" xlink:href="#DejaVuSans-32"/>
      <use x="399.462891" xlink:href="#DejaVuSans-71"/>
      <use x="476.953125" xlink:href="#DejaVuSans-80"/>
      <use x="537.255859" xlink:href="#DejaVuSans-85"/>
      <use x="610.449219" xlink:href="#DejaVuSans-44"/>
      <use x="642.236328" xlink:href="#DejaVuSans-32"/>
      <use x="674.023438" xlink:href="#DejaVuSans-86"/>
      <use x="742.431641" xlink:href="#DejaVuSans-49"/>
      <use x="806.054688" xlink:href="#DejaVuSans-48"/>
      <use x="869.677734" xlink:href="#DejaVuSans-48"/>
      <use x="933.300781" xlink:href="#DejaVuSans-44"/>
      <use x="965.087891" xlink:href="#DejaVuSans-32"/>
      <use x="996.875" xlink:href="#DejaVuSans-65"/>
      <use x="1065.283203" xlink:href="#DejaVuSans-77"/>
      <use x="1151.5625" xlink:href="#DejaVuSans-80"/>
     </g>
    </g>
   </g>
  </g>
 </g>
 <defs>
  <clipPath id="pd9c3e4fb58">
   <rect height="543.6" width="669.6" x="108" y="86.4"/>
  </clipPath>
 </defs>
</svg>
