<?xml version="1.0" encoding="utf-8" standalone="no"?>
<!DOCTYPE svg PUBLIC "-//W3C//DTD SVG 1.1//EN"
  "http://www.w3.org/Graphics/SVG/1.1/DTD/svg11.dtd">
<!-- Created with matplotlib (https://matplotlib.org/) -->
<svg height="720pt" version="1.1" viewBox="0 0 864 720" width="864pt" xmlns="http://www.w3.org/2000/svg" xmlns:xlink="http://www.w3.org/1999/xlink">
 <defs>
  <style type="text/css">
*{stroke-linecap:butt;stroke-linejoin:round;}
  </style>
 </defs>
 <g id="figure_1">
  <g id="patch_1">
   <path d="M 0 720 
L 864 720 
L 864 0 
L 0 0 
z
" style="fill:#ffffff;"/>
  </g>
  <g id="axes_1">
   <g id="patch_2">
    <path d="M 108 630 
L 777.6 630 
L 777.6 86.4 
L 108 86.4 
z
" style="fill:#ffffff;"/>
   </g>
   <g id="matplotlib.axis_1">
    <g id="xtick_1">
     <g id="line2d_1">
      <path clip-path="url(#pbfc0a0e7db)" d="M 128.774026 630 
L 128.774026 86.4 
" style="fill:none;stroke:#b0b0b0;stroke-linecap:square;stroke-width:0.8;"/>
     </g>
     <g id="line2d_2">
      <defs>
       <path d="M 0 0 
L 0 3.5 
" id="mf594bbb2fc" style="stroke:#000000;stroke-width:0.8;"/>
      </defs>
      <g>
       <use style="stroke:#000000;stroke-width:0.8;" x="128.774026" xlink:href="#mf594bbb2fc" y="630"/>
      </g>
     </g>
     <g id="text_1">
      <!-- 0 -->
      <defs>
       <path d="M 31.78125 66.40625 
Q 24.171875 66.40625 20.328125 58.90625 
Q 16.5 51.421875 16.5 36.375 
Q 16.5 21.390625 20.328125 13.890625 
Q 24.171875 6.390625 31.78125 6.390625 
Q 39.453125 6.390625 43.28125 13.890625 
Q 47.125 21.390625 47.125 36.375 
Q 47.125 51.421875 43.28125 58.90625 
Q 39.453125 66.40625 31.78125 66.40625 
z
M 31.78125 74.21875 
Q 44.046875 74.21875 50.515625 64.515625 
Q 56.984375 54.828125 56.984375 36.375 
Q 56.984375 17.96875 50.515625 8.265625 
Q 44.046875 -1.421875 31.78125 -1.421875 
Q 19.53125 -1.421875 13.0625 8.265625 
Q 6.59375 17.96875 6.59375 36.375 
Q 6.59375 54.828125 13.0625 64.515625 
Q 19.53125 74.21875 31.78125 74.21875 
z
" id="DejaVuSans-48"/>
      </defs>
      <g transform="translate(125.592776 644.598438)scale(0.1 -0.1)">
       <use xlink:href="#DejaVuSans-48"/>
      </g>
     </g>
    </g>
    <g id="xtick_2">
     <g id="line2d_3">
      <path clip-path="url(#pbfc0a0e7db)" d="M 276.209598 630 
L 276.209598 86.4 
" style="fill:none;stroke:#b0b0b0;stroke-linecap:square;stroke-width:0.8;"/>
     </g>
     <g id="line2d_4">
      <g>
       <use style="stroke:#000000;stroke-width:0.8;" x="276.209598" xlink:href="#mf594bbb2fc" y="630"/>
      </g>
     </g>
     <g id="text_2">
      <!-- 1 -->
      <defs>
       <path d="M 12.40625 8.296875 
L 28.515625 8.296875 
L 28.515625 63.921875 
L 10.984375 60.40625 
L 10.984375 69.390625 
L 28.421875 72.90625 
L 38.28125 72.90625 
L 38.28125 8.296875 
L 54.390625 8.296875 
L 54.390625 0 
L 12.40625 0 
z
" id="DejaVuSans-49"/>
      </defs>
      <g transform="translate(273.028348 644.598438)scale(0.1 -0.1)">
       <use xlink:href="#DejaVuSans-49"/>
      </g>
     </g>
    </g>
    <g id="xtick_3">
     <g id="line2d_5">
      <path clip-path="url(#pbfc0a0e7db)" d="M 423.64517 630 
L 423.64517 86.4 
" style="fill:none;stroke:#b0b0b0;stroke-linecap:square;stroke-width:0.8;"/>
     </g>
     <g id="line2d_6">
      <g>
       <use style="stroke:#000000;stroke-width:0.8;" x="423.64517" xlink:href="#mf594bbb2fc" y="630"/>
      </g>
     </g>
     <g id="text_3">
      <!-- 2 -->
      <defs>
       <path d="M 19.1875 8.296875 
L 53.609375 8.296875 
L 53.609375 0 
L 7.328125 0 
L 7.328125 8.296875 
Q 12.9375 14.109375 22.625 23.890625 
Q 32.328125 33.6875 34.8125 36.53125 
Q 39.546875 41.84375 41.421875 45.53125 
Q 43.3125 49.21875 43.3125 52.78125 
Q 43.3125 58.59375 39.234375 62.25 
Q 35.15625 65.921875 28.609375 65.921875 
Q 23.96875 65.921875 18.8125 64.3125 
Q 13.671875 62.703125 7.8125 59.421875 
L 7.8125 69.390625 
Q 13.765625 71.78125 18.9375 73 
Q 24.125 74.21875 28.421875 74.21875 
Q 39.75 74.21875 46.484375 68.546875 
Q 53.21875 62.890625 53.21875 53.421875 
Q 53.21875 48.921875 51.53125 44.890625 
Q 49.859375 40.875 45.40625 35.40625 
Q 44.1875 33.984375 37.640625 27.21875 
Q 31.109375 20.453125 19.1875 8.296875 
z
" id="DejaVuSans-50"/>
      </defs>
      <g transform="translate(420.46392 644.598438)scale(0.1 -0.1)">
       <use xlink:href="#DejaVuSans-50"/>
      </g>
     </g>
    </g>
    <g id="xtick_4">
     <g id="line2d_7">
      <path clip-path="url(#pbfc0a0e7db)" d="M 571.080743 630 
L 571.080743 86.4 
" style="fill:none;stroke:#b0b0b0;stroke-linecap:square;stroke-width:0.8;"/>
     </g>
     <g id="line2d_8">
      <g>
       <use style="stroke:#000000;stroke-width:0.8;" x="571.080743" xlink:href="#mf594bbb2fc" y="630"/>
      </g>
     </g>
     <g id="text_4">
      <!-- 3 -->
      <defs>
       <path d="M 40.578125 39.3125 
Q 47.65625 37.796875 51.625 33 
Q 55.609375 28.21875 55.609375 21.1875 
Q 55.609375 10.40625 48.1875 4.484375 
Q 40.765625 -1.421875 27.09375 -1.421875 
Q 22.515625 -1.421875 17.65625 -0.515625 
Q 12.796875 0.390625 7.625 2.203125 
L 7.625 11.71875 
Q 11.71875 9.328125 16.59375 8.109375 
Q 21.484375 6.890625 26.8125 6.890625 
Q 36.078125 6.890625 40.9375 10.546875 
Q 45.796875 14.203125 45.796875 21.1875 
Q 45.796875 27.640625 41.28125 31.265625 
Q 36.765625 34.90625 28.71875 34.90625 
L 20.21875 34.90625 
L 20.21875 43.015625 
L 29.109375 43.015625 
Q 36.375 43.015625 40.234375 45.921875 
Q 44.09375 48.828125 44.09375 54.296875 
Q 44.09375 59.90625 40.109375 62.90625 
Q 36.140625 65.921875 28.71875 65.921875 
Q 24.65625 65.921875 20.015625 65.03125 
Q 15.375 64.15625 9.8125 62.3125 
L 9.8125 71.09375 
Q 15.4375 72.65625 20.34375 73.4375 
Q 25.25 74.21875 29.59375 74.21875 
Q 40.828125 74.21875 47.359375 69.109375 
Q 53.90625 64.015625 53.90625 55.328125 
Q 53.90625 49.265625 50.4375 45.09375 
Q 46.96875 40.921875 40.578125 39.3125 
z
" id="DejaVuSans-51"/>
      </defs>
      <g transform="translate(567.899493 644.598438)scale(0.1 -0.1)">
       <use xlink:href="#DejaVuSans-51"/>
      </g>
     </g>
    </g>
    <g id="xtick_5">
     <g id="line2d_9">
      <path clip-path="url(#pbfc0a0e7db)" d="M 718.516315 630 
L 718.516315 86.4 
" style="fill:none;stroke:#b0b0b0;stroke-linecap:square;stroke-width:0.8;"/>
     </g>
     <g id="line2d_10">
      <g>
       <use style="stroke:#000000;stroke-width:0.8;" x="718.516315" xlink:href="#mf594bbb2fc" y="630"/>
      </g>
     </g>
     <g id="text_5">
      <!-- 4 -->
      <defs>
       <path d="M 37.796875 64.3125 
L 12.890625 25.390625 
L 37.796875 25.390625 
z
M 35.203125 72.90625 
L 47.609375 72.90625 
L 47.609375 25.390625 
L 58.015625 25.390625 
L 58.015625 17.1875 
L 47.609375 17.1875 
L 47.609375 0 
L 37.796875 0 
L 37.796875 17.1875 
L 4.890625 17.1875 
L 4.890625 26.703125 
z
" id="DejaVuSans-52"/>
      </defs>
      <g transform="translate(715.335065 644.598438)scale(0.1 -0.1)">
       <use xlink:href="#DejaVuSans-52"/>
      </g>
     </g>
    </g>
    <g id="text_6">
     <!-- samples -->
     <defs>
      <path d="M 44.28125 53.078125 
L 44.28125 44.578125 
Q 40.484375 46.53125 36.375 47.5 
Q 32.28125 48.484375 27.875 48.484375 
Q 21.1875 48.484375 17.84375 46.4375 
Q 14.5 44.390625 14.5 40.28125 
Q 14.5 37.15625 16.890625 35.375 
Q 19.28125 33.59375 26.515625 31.984375 
L 29.59375 31.296875 
Q 39.15625 29.25 43.1875 25.515625 
Q 47.21875 21.78125 47.21875 15.09375 
Q 47.21875 7.46875 41.1875 3.015625 
Q 35.15625 -1.421875 24.609375 -1.421875 
Q 20.21875 -1.421875 15.453125 -0.5625 
Q 10.6875 0.296875 5.421875 2 
L 5.421875 11.28125 
Q 10.40625 8.6875 15.234375 7.390625 
Q 20.0625 6.109375 24.8125 6.109375 
Q 31.15625 6.109375 34.5625 8.28125 
Q 37.984375 10.453125 37.984375 14.40625 
Q 37.984375 18.0625 35.515625 20.015625 
Q 33.0625 21.96875 24.703125 23.78125 
L 21.578125 24.515625 
Q 13.234375 26.265625 9.515625 29.90625 
Q 5.8125 33.546875 5.8125 39.890625 
Q 5.8125 47.609375 11.28125 51.796875 
Q 16.75 56 26.8125 56 
Q 31.78125 56 36.171875 55.265625 
Q 40.578125 54.546875 44.28125 53.078125 
z
" id="DejaVuSans-115"/>
      <path d="M 34.28125 27.484375 
Q 23.390625 27.484375 19.1875 25 
Q 14.984375 22.515625 14.984375 16.5 
Q 14.984375 11.71875 18.140625 8.90625 
Q 21.296875 6.109375 26.703125 6.109375 
Q 34.1875 6.109375 38.703125 11.40625 
Q 43.21875 16.703125 43.21875 25.484375 
L 43.21875 27.484375 
z
M 52.203125 31.203125 
L 52.203125 0 
L 43.21875 0 
L 43.21875 8.296875 
Q 40.140625 3.328125 35.546875 0.953125 
Q 30.953125 -1.421875 24.3125 -1.421875 
Q 15.921875 -1.421875 10.953125 3.296875 
Q 6 8.015625 6 15.921875 
Q 6 25.140625 12.171875 29.828125 
Q 18.359375 34.515625 30.609375 34.515625 
L 43.21875 34.515625 
L 43.21875 35.40625 
Q 43.21875 41.609375 39.140625 45 
Q 35.0625 48.390625 27.6875 48.390625 
Q 23 48.390625 18.546875 47.265625 
Q 14.109375 46.140625 10.015625 43.890625 
L 10.015625 52.203125 
Q 14.9375 54.109375 19.578125 55.046875 
Q 24.21875 56 28.609375 56 
Q 40.484375 56 46.34375 49.84375 
Q 52.203125 43.703125 52.203125 31.203125 
z
" id="DejaVuSans-97"/>
      <path d="M 52 44.1875 
Q 55.375 50.25 60.0625 53.125 
Q 64.75 56 71.09375 56 
Q 79.640625 56 84.28125 50.015625 
Q 88.921875 44.046875 88.921875 33.015625 
L 88.921875 0 
L 79.890625 0 
L 79.890625 32.71875 
Q 79.890625 40.578125 77.09375 44.375 
Q 74.3125 48.1875 68.609375 48.1875 
Q 61.625 48.1875 57.5625 43.546875 
Q 53.515625 38.921875 53.515625 30.90625 
L 53.515625 0 
L 44.484375 0 
L 44.484375 32.71875 
Q 44.484375 40.625 41.703125 44.40625 
Q 38.921875 48.1875 33.109375 48.1875 
Q 26.21875 48.1875 22.15625 43.53125 
Q 18.109375 38.875 18.109375 30.90625 
L 18.109375 0 
L 9.078125 0 
L 9.078125 54.6875 
L 18.109375 54.6875 
L 18.109375 46.1875 
Q 21.1875 51.21875 25.484375 53.609375 
Q 29.78125 56 35.6875 56 
Q 41.65625 56 45.828125 52.96875 
Q 50 49.953125 52 44.1875 
z
" id="DejaVuSans-109"/>
      <path d="M 18.109375 8.203125 
L 18.109375 -20.796875 
L 9.078125 -20.796875 
L 9.078125 54.6875 
L 18.109375 54.6875 
L 18.109375 46.390625 
Q 20.953125 51.265625 25.265625 53.625 
Q 29.59375 56 35.59375 56 
Q 45.5625 56 51.78125 48.09375 
Q 58.015625 40.1875 58.015625 27.296875 
Q 58.015625 14.40625 51.78125 6.484375 
Q 45.5625 -1.421875 35.59375 -1.421875 
Q 29.59375 -1.421875 25.265625 0.953125 
Q 20.953125 3.328125 18.109375 8.203125 
z
M 48.6875 27.296875 
Q 48.6875 37.203125 44.609375 42.84375 
Q 40.53125 48.484375 33.40625 48.484375 
Q 26.265625 48.484375 22.1875 42.84375 
Q 18.109375 37.203125 18.109375 27.296875 
Q 18.109375 17.390625 22.1875 11.75 
Q 26.265625 6.109375 33.40625 6.109375 
Q 40.53125 6.109375 44.609375 11.75 
Q 48.6875 17.390625 48.6875 27.296875 
z
" id="DejaVuSans-112"/>
      <path d="M 9.421875 75.984375 
L 18.40625 75.984375 
L 18.40625 0 
L 9.421875 0 
z
" id="DejaVuSans-108"/>
      <path d="M 56.203125 29.59375 
L 56.203125 25.203125 
L 14.890625 25.203125 
Q 15.484375 15.921875 20.484375 11.0625 
Q 25.484375 6.203125 34.421875 6.203125 
Q 39.59375 6.203125 44.453125 7.46875 
Q 49.3125 8.734375 54.109375 11.28125 
L 54.109375 2.78125 
Q 49.265625 0.734375 44.1875 -0.34375 
Q 39.109375 -1.421875 33.890625 -1.421875 
Q 20.796875 -1.421875 13.15625 6.1875 
Q 5.515625 13.8125 5.515625 26.8125 
Q 5.515625 40.234375 12.765625 48.109375 
Q 20.015625 56 32.328125 56 
Q 43.359375 56 49.78125 48.890625 
Q 56.203125 41.796875 56.203125 29.59375 
z
M 47.21875 32.234375 
Q 47.125 39.59375 43.09375 43.984375 
Q 39.0625 48.390625 32.421875 48.390625 
Q 24.90625 48.390625 20.390625 44.140625 
Q 15.875 39.890625 15.1875 32.171875 
z
" id="DejaVuSans-101"/>
     </defs>
     <g transform="translate(422.016406 658.276562)scale(0.1 -0.1)">
      <use xlink:href="#DejaVuSans-115"/>
      <use x="52.099609" xlink:href="#DejaVuSans-97"/>
      <use x="113.378906" xlink:href="#DejaVuSans-109"/>
      <use x="210.791016" xlink:href="#DejaVuSans-112"/>
      <use x="274.267578" xlink:href="#DejaVuSans-108"/>
      <use x="302.050781" xlink:href="#DejaVuSans-101"/>
      <use x="363.574219" xlink:href="#DejaVuSans-115"/>
     </g>
    </g>
    <g id="text_7">
     <!-- 1e9 -->
     <defs>
      <path d="M 10.984375 1.515625 
L 10.984375 10.5 
Q 14.703125 8.734375 18.5 7.8125 
Q 22.3125 6.890625 25.984375 6.890625 
Q 35.75 6.890625 40.890625 13.453125 
Q 46.046875 20.015625 46.78125 33.40625 
Q 43.953125 29.203125 39.59375 26.953125 
Q 35.25 24.703125 29.984375 24.703125 
Q 19.046875 24.703125 12.671875 31.3125 
Q 6.296875 37.9375 6.296875 49.421875 
Q 6.296875 60.640625 12.9375 67.421875 
Q 19.578125 74.21875 30.609375 74.21875 
Q 43.265625 74.21875 49.921875 64.515625 
Q 56.59375 54.828125 56.59375 36.375 
Q 56.59375 19.140625 48.40625 8.859375 
Q 40.234375 -1.421875 26.421875 -1.421875 
Q 22.703125 -1.421875 18.890625 -0.6875 
Q 15.09375 0.046875 10.984375 1.515625 
z
M 30.609375 32.421875 
Q 37.25 32.421875 41.125 36.953125 
Q 45.015625 41.5 45.015625 49.421875 
Q 45.015625 57.28125 41.125 61.84375 
Q 37.25 66.40625 30.609375 66.40625 
Q 23.96875 66.40625 20.09375 61.84375 
Q 16.21875 57.28125 16.21875 49.421875 
Q 16.21875 41.5 20.09375 36.953125 
Q 23.96875 32.421875 30.609375 32.421875 
z
" id="DejaVuSans-57"/>
     </defs>
     <g transform="translate(758.721875 657.276562)scale(0.1 -0.1)">
      <use xlink:href="#DejaVuSans-49"/>
      <use x="63.623047" xlink:href="#DejaVuSans-101"/>
      <use x="125.146484" xlink:href="#DejaVuSans-57"/>
     </g>
    </g>
   </g>
   <g id="matplotlib.axis_2">
    <g id="ytick_1">
     <g id="line2d_11">
      <path clip-path="url(#pbfc0a0e7db)" d="M 108 630 
L 777.6 630 
" style="fill:none;stroke:#b0b0b0;stroke-linecap:square;stroke-width:0.8;"/>
     </g>
     <g id="line2d_12">
      <defs>
       <path d="M 0 0 
L -3.5 0 
" id="mebc2a4ffcb" style="stroke:#000000;stroke-width:0.8;"/>
      </defs>
      <g>
       <use style="stroke:#000000;stroke-width:0.8;" x="108" xlink:href="#mebc2a4ffcb" y="630"/>
      </g>
     </g>
     <g id="text_8">
      <!-- 0.74 -->
      <defs>
       <path d="M 10.6875 12.40625 
L 21 12.40625 
L 21 0 
L 10.6875 0 
z
" id="DejaVuSans-46"/>
       <path d="M 8.203125 72.90625 
L 55.078125 72.90625 
L 55.078125 68.703125 
L 28.609375 0 
L 18.3125 0 
L 43.21875 64.59375 
L 8.203125 64.59375 
z
" id="DejaVuSans-55"/>
      </defs>
      <g transform="translate(78.734375 633.799219)scale(0.1 -0.1)">
       <use xlink:href="#DejaVuSans-48"/>
       <use x="63.623047" xlink:href="#DejaVuSans-46"/>
       <use x="95.410156" xlink:href="#DejaVuSans-55"/>
       <use x="159.033203" xlink:href="#DejaVuSans-52"/>
      </g>
     </g>
    </g>
    <g id="ytick_2">
     <g id="line2d_13">
      <path clip-path="url(#pbfc0a0e7db)" d="M 108 552.342857 
L 777.6 552.342857 
" style="fill:none;stroke:#b0b0b0;stroke-linecap:square;stroke-width:0.8;"/>
     </g>
     <g id="line2d_14">
      <g>
       <use style="stroke:#000000;stroke-width:0.8;" x="108" xlink:href="#mebc2a4ffcb" y="552.342857"/>
      </g>
     </g>
     <g id="text_9">
      <!-- 0.75 -->
      <defs>
       <path d="M 10.796875 72.90625 
L 49.515625 72.90625 
L 49.515625 64.59375 
L 19.828125 64.59375 
L 19.828125 46.734375 
Q 21.96875 47.46875 24.109375 47.828125 
Q 26.265625 48.1875 28.421875 48.1875 
Q 40.625 48.1875 47.75 41.5 
Q 54.890625 34.8125 54.890625 23.390625 
Q 54.890625 11.625 47.5625 5.09375 
Q 40.234375 -1.421875 26.90625 -1.421875 
Q 22.3125 -1.421875 17.546875 -0.640625 
Q 12.796875 0.140625 7.71875 1.703125 
L 7.71875 11.625 
Q 12.109375 9.234375 16.796875 8.0625 
Q 21.484375 6.890625 26.703125 6.890625 
Q 35.15625 6.890625 40.078125 11.328125 
Q 45.015625 15.765625 45.015625 23.390625 
Q 45.015625 31 40.078125 35.4375 
Q 35.15625 39.890625 26.703125 39.890625 
Q 22.75 39.890625 18.8125 39.015625 
Q 14.890625 38.140625 10.796875 36.28125 
z
" id="DejaVuSans-53"/>
      </defs>
      <g transform="translate(78.734375 556.142076)scale(0.1 -0.1)">
       <use xlink:href="#DejaVuSans-48"/>
       <use x="63.623047" xlink:href="#DejaVuSans-46"/>
       <use x="95.410156" xlink:href="#DejaVuSans-55"/>
       <use x="159.033203" xlink:href="#DejaVuSans-53"/>
      </g>
     </g>
    </g>
    <g id="ytick_3">
     <g id="line2d_15">
      <path clip-path="url(#pbfc0a0e7db)" d="M 108 474.685714 
L 777.6 474.685714 
" style="fill:none;stroke:#b0b0b0;stroke-linecap:square;stroke-width:0.8;"/>
     </g>
     <g id="line2d_16">
      <g>
       <use style="stroke:#000000;stroke-width:0.8;" x="108" xlink:href="#mebc2a4ffcb" y="474.685714"/>
      </g>
     </g>
     <g id="text_10">
      <!-- 0.76 -->
      <defs>
       <path d="M 33.015625 40.375 
Q 26.375 40.375 22.484375 35.828125 
Q 18.609375 31.296875 18.609375 23.390625 
Q 18.609375 15.53125 22.484375 10.953125 
Q 26.375 6.390625 33.015625 6.390625 
Q 39.65625 6.390625 43.53125 10.953125 
Q 47.40625 15.53125 47.40625 23.390625 
Q 47.40625 31.296875 43.53125 35.828125 
Q 39.65625 40.375 33.015625 40.375 
z
M 52.59375 71.296875 
L 52.59375 62.3125 
Q 48.875 64.0625 45.09375 64.984375 
Q 41.3125 65.921875 37.59375 65.921875 
Q 27.828125 65.921875 22.671875 59.328125 
Q 17.53125 52.734375 16.796875 39.40625 
Q 19.671875 43.65625 24.015625 45.921875 
Q 28.375 48.1875 33.59375 48.1875 
Q 44.578125 48.1875 50.953125 41.515625 
Q 57.328125 34.859375 57.328125 23.390625 
Q 57.328125 12.15625 50.6875 5.359375 
Q 44.046875 -1.421875 33.015625 -1.421875 
Q 20.359375 -1.421875 13.671875 8.265625 
Q 6.984375 17.96875 6.984375 36.375 
Q 6.984375 53.65625 15.1875 63.9375 
Q 23.390625 74.21875 37.203125 74.21875 
Q 40.921875 74.21875 44.703125 73.484375 
Q 48.484375 72.75 52.59375 71.296875 
z
" id="DejaVuSans-54"/>
      </defs>
      <g transform="translate(78.734375 478.484933)scale(0.1 -0.1)">
       <use xlink:href="#DejaVuSans-48"/>
       <use x="63.623047" xlink:href="#DejaVuSans-46"/>
       <use x="95.410156" xlink:href="#DejaVuSans-55"/>
       <use x="159.033203" xlink:href="#DejaVuSans-54"/>
      </g>
     </g>
    </g>
    <g id="ytick_4">
     <g id="line2d_17">
      <path clip-path="url(#pbfc0a0e7db)" d="M 108 397.028571 
L 777.6 397.028571 
" style="fill:none;stroke:#b0b0b0;stroke-linecap:square;stroke-width:0.8;"/>
     </g>
     <g id="line2d_18">
      <g>
       <use style="stroke:#000000;stroke-width:0.8;" x="108" xlink:href="#mebc2a4ffcb" y="397.028571"/>
      </g>
     </g>
     <g id="text_11">
      <!-- 0.77 -->
      <g transform="translate(78.734375 400.82779)scale(0.1 -0.1)">
       <use xlink:href="#DejaVuSans-48"/>
       <use x="63.623047" xlink:href="#DejaVuSans-46"/>
       <use x="95.410156" xlink:href="#DejaVuSans-55"/>
       <use x="159.033203" xlink:href="#DejaVuSans-55"/>
      </g>
     </g>
    </g>
    <g id="ytick_5">
     <g id="line2d_19">
      <path clip-path="url(#pbfc0a0e7db)" d="M 108 319.371429 
L 777.6 319.371429 
" style="fill:none;stroke:#b0b0b0;stroke-linecap:square;stroke-width:0.8;"/>
     </g>
     <g id="line2d_20">
      <g>
       <use style="stroke:#000000;stroke-width:0.8;" x="108" xlink:href="#mebc2a4ffcb" y="319.371429"/>
      </g>
     </g>
     <g id="text_12">
      <!-- 0.78 -->
      <defs>
       <path d="M 31.78125 34.625 
Q 24.75 34.625 20.71875 30.859375 
Q 16.703125 27.09375 16.703125 20.515625 
Q 16.703125 13.921875 20.71875 10.15625 
Q 24.75 6.390625 31.78125 6.390625 
Q 38.8125 6.390625 42.859375 10.171875 
Q 46.921875 13.96875 46.921875 20.515625 
Q 46.921875 27.09375 42.890625 30.859375 
Q 38.875 34.625 31.78125 34.625 
z
M 21.921875 38.8125 
Q 15.578125 40.375 12.03125 44.71875 
Q 8.5 49.078125 8.5 55.328125 
Q 8.5 64.0625 14.71875 69.140625 
Q 20.953125 74.21875 31.78125 74.21875 
Q 42.671875 74.21875 48.875 69.140625 
Q 55.078125 64.0625 55.078125 55.328125 
Q 55.078125 49.078125 51.53125 44.71875 
Q 48 40.375 41.703125 38.8125 
Q 48.828125 37.15625 52.796875 32.3125 
Q 56.78125 27.484375 56.78125 20.515625 
Q 56.78125 9.90625 50.3125 4.234375 
Q 43.84375 -1.421875 31.78125 -1.421875 
Q 19.734375 -1.421875 13.25 4.234375 
Q 6.78125 9.90625 6.78125 20.515625 
Q 6.78125 27.484375 10.78125 32.3125 
Q 14.796875 37.15625 21.921875 38.8125 
z
M 18.3125 54.390625 
Q 18.3125 48.734375 21.84375 45.5625 
Q 25.390625 42.390625 31.78125 42.390625 
Q 38.140625 42.390625 41.71875 45.5625 
Q 45.3125 48.734375 45.3125 54.390625 
Q 45.3125 60.0625 41.71875 63.234375 
Q 38.140625 66.40625 31.78125 66.40625 
Q 25.390625 66.40625 21.84375 63.234375 
Q 18.3125 60.0625 18.3125 54.390625 
z
" id="DejaVuSans-56"/>
      </defs>
      <g transform="translate(78.734375 323.170647)scale(0.1 -0.1)">
       <use xlink:href="#DejaVuSans-48"/>
       <use x="63.623047" xlink:href="#DejaVuSans-46"/>
       <use x="95.410156" xlink:href="#DejaVuSans-55"/>
       <use x="159.033203" xlink:href="#DejaVuSans-56"/>
      </g>
     </g>
    </g>
    <g id="ytick_6">
     <g id="line2d_21">
      <path clip-path="url(#pbfc0a0e7db)" d="M 108 241.714286 
L 777.6 241.714286 
" style="fill:none;stroke:#b0b0b0;stroke-linecap:square;stroke-width:0.8;"/>
     </g>
     <g id="line2d_22">
      <g>
       <use style="stroke:#000000;stroke-width:0.8;" x="108" xlink:href="#mebc2a4ffcb" y="241.714286"/>
      </g>
     </g>
     <g id="text_13">
      <!-- 0.79 -->
      <g transform="translate(78.734375 245.513504)scale(0.1 -0.1)">
       <use xlink:href="#DejaVuSans-48"/>
       <use x="63.623047" xlink:href="#DejaVuSans-46"/>
       <use x="95.410156" xlink:href="#DejaVuSans-55"/>
       <use x="159.033203" xlink:href="#DejaVuSans-57"/>
      </g>
     </g>
    </g>
    <g id="ytick_7">
     <g id="line2d_23">
      <path clip-path="url(#pbfc0a0e7db)" d="M 108 164.057143 
L 777.6 164.057143 
" style="fill:none;stroke:#b0b0b0;stroke-linecap:square;stroke-width:0.8;"/>
     </g>
     <g id="line2d_24">
      <g>
       <use style="stroke:#000000;stroke-width:0.8;" x="108" xlink:href="#mebc2a4ffcb" y="164.057143"/>
      </g>
     </g>
     <g id="text_14">
      <!-- 0.80 -->
      <g transform="translate(78.734375 167.856362)scale(0.1 -0.1)">
       <use xlink:href="#DejaVuSans-48"/>
       <use x="63.623047" xlink:href="#DejaVuSans-46"/>
       <use x="95.410156" xlink:href="#DejaVuSans-56"/>
       <use x="159.033203" xlink:href="#DejaVuSans-48"/>
      </g>
     </g>
    </g>
    <g id="ytick_8">
     <g id="line2d_25">
      <path clip-path="url(#pbfc0a0e7db)" d="M 108 86.4 
L 777.6 86.4 
" style="fill:none;stroke:#b0b0b0;stroke-linecap:square;stroke-width:0.8;"/>
     </g>
     <g id="line2d_26">
      <g>
       <use style="stroke:#000000;stroke-width:0.8;" x="108" xlink:href="#mebc2a4ffcb" y="86.4"/>
      </g>
     </g>
     <g id="text_15">
      <!-- 0.81 -->
      <g transform="translate(78.734375 90.199219)scale(0.1 -0.1)">
       <use xlink:href="#DejaVuSans-48"/>
       <use x="63.623047" xlink:href="#DejaVuSans-46"/>
       <use x="95.410156" xlink:href="#DejaVuSans-56"/>
       <use x="159.033203" xlink:href="#DejaVuSans-49"/>
      </g>
     </g>
    </g>
    <g id="text_16">
     <!-- AUC ROC on evaluation set -->
     <defs>
      <path d="M 34.1875 63.1875 
L 20.796875 26.90625 
L 47.609375 26.90625 
z
M 28.609375 72.90625 
L 39.796875 72.90625 
L 67.578125 0 
L 57.328125 0 
L 50.6875 18.703125 
L 17.828125 18.703125 
L 11.1875 0 
L 0.78125 0 
z
" id="DejaVuSans-65"/>
      <path d="M 8.6875 72.90625 
L 18.609375 72.90625 
L 18.609375 28.609375 
Q 18.609375 16.890625 22.84375 11.734375 
Q 27.09375 6.59375 36.625 6.59375 
Q 46.09375 6.59375 50.34375 11.734375 
Q 54.59375 16.890625 54.59375 28.609375 
L 54.59375 72.90625 
L 64.5 72.90625 
L 64.5 27.390625 
Q 64.5 13.140625 57.4375 5.859375 
Q 50.390625 -1.421875 36.625 -1.421875 
Q 22.796875 -1.421875 15.734375 5.859375 
Q 8.6875 13.140625 8.6875 27.390625 
z
" id="DejaVuSans-85"/>
      <path d="M 64.40625 67.28125 
L 64.40625 56.890625 
Q 59.421875 61.53125 53.78125 63.8125 
Q 48.140625 66.109375 41.796875 66.109375 
Q 29.296875 66.109375 22.65625 58.46875 
Q 16.015625 50.828125 16.015625 36.375 
Q 16.015625 21.96875 22.65625 14.328125 
Q 29.296875 6.6875 41.796875 6.6875 
Q 48.140625 6.6875 53.78125 8.984375 
Q 59.421875 11.28125 64.40625 15.921875 
L 64.40625 5.609375 
Q 59.234375 2.09375 53.4375 0.328125 
Q 47.65625 -1.421875 41.21875 -1.421875 
Q 24.65625 -1.421875 15.125 8.703125 
Q 5.609375 18.84375 5.609375 36.375 
Q 5.609375 53.953125 15.125 64.078125 
Q 24.65625 74.21875 41.21875 74.21875 
Q 47.75 74.21875 53.53125 72.484375 
Q 59.328125 70.75 64.40625 67.28125 
z
" id="DejaVuSans-67"/>
      <path id="DejaVuSans-32"/>
      <path d="M 44.390625 34.1875 
Q 47.5625 33.109375 50.5625 29.59375 
Q 53.5625 26.078125 56.59375 19.921875 
L 66.609375 0 
L 56 0 
L 46.6875 18.703125 
Q 43.0625 26.03125 39.671875 28.421875 
Q 36.28125 30.8125 30.421875 30.8125 
L 19.671875 30.8125 
L 19.671875 0 
L 9.8125 0 
L 9.8125 72.90625 
L 32.078125 72.90625 
Q 44.578125 72.90625 50.734375 67.671875 
Q 56.890625 62.453125 56.890625 51.90625 
Q 56.890625 45.015625 53.6875 40.46875 
Q 50.484375 35.9375 44.390625 34.1875 
z
M 19.671875 64.796875 
L 19.671875 38.921875 
L 32.078125 38.921875 
Q 39.203125 38.921875 42.84375 42.21875 
Q 46.484375 45.515625 46.484375 51.90625 
Q 46.484375 58.296875 42.84375 61.546875 
Q 39.203125 64.796875 32.078125 64.796875 
z
" id="DejaVuSans-82"/>
      <path d="M 39.40625 66.21875 
Q 28.65625 66.21875 22.328125 58.203125 
Q 16.015625 50.203125 16.015625 36.375 
Q 16.015625 22.609375 22.328125 14.59375 
Q 28.65625 6.59375 39.40625 6.59375 
Q 50.140625 6.59375 56.421875 14.59375 
Q 62.703125 22.609375 62.703125 36.375 
Q 62.703125 50.203125 56.421875 58.203125 
Q 50.140625 66.21875 39.40625 66.21875 
z
M 39.40625 74.21875 
Q 54.734375 74.21875 63.90625 63.9375 
Q 73.09375 53.65625 73.09375 36.375 
Q 73.09375 19.140625 63.90625 8.859375 
Q 54.734375 -1.421875 39.40625 -1.421875 
Q 24.03125 -1.421875 14.8125 8.828125 
Q 5.609375 19.09375 5.609375 36.375 
Q 5.609375 53.65625 14.8125 63.9375 
Q 24.03125 74.21875 39.40625 74.21875 
z
" id="DejaVuSans-79"/>
      <path d="M 30.609375 48.390625 
Q 23.390625 48.390625 19.1875 42.75 
Q 14.984375 37.109375 14.984375 27.296875 
Q 14.984375 17.484375 19.15625 11.84375 
Q 23.34375 6.203125 30.609375 6.203125 
Q 37.796875 6.203125 41.984375 11.859375 
Q 46.1875 17.53125 46.1875 27.296875 
Q 46.1875 37.015625 41.984375 42.703125 
Q 37.796875 48.390625 30.609375 48.390625 
z
M 30.609375 56 
Q 42.328125 56 49.015625 48.375 
Q 55.71875 40.765625 55.71875 27.296875 
Q 55.71875 13.875 49.015625 6.21875 
Q 42.328125 -1.421875 30.609375 -1.421875 
Q 18.84375 -1.421875 12.171875 6.21875 
Q 5.515625 13.875 5.515625 27.296875 
Q 5.515625 40.765625 12.171875 48.375 
Q 18.84375 56 30.609375 56 
z
" id="DejaVuSans-111"/>
      <path d="M 54.890625 33.015625 
L 54.890625 0 
L 45.90625 0 
L 45.90625 32.71875 
Q 45.90625 40.484375 42.875 44.328125 
Q 39.84375 48.1875 33.796875 48.1875 
Q 26.515625 48.1875 22.3125 43.546875 
Q 18.109375 38.921875 18.109375 30.90625 
L 18.109375 0 
L 9.078125 0 
L 9.078125 54.6875 
L 18.109375 54.6875 
L 18.109375 46.1875 
Q 21.34375 51.125 25.703125 53.5625 
Q 30.078125 56 35.796875 56 
Q 45.21875 56 50.046875 50.171875 
Q 54.890625 44.34375 54.890625 33.015625 
z
" id="DejaVuSans-110"/>
      <path d="M 2.984375 54.6875 
L 12.5 54.6875 
L 29.59375 8.796875 
L 46.6875 54.6875 
L 56.203125 54.6875 
L 35.6875 0 
L 23.484375 0 
z
" id="DejaVuSans-118"/>
      <path d="M 8.5 21.578125 
L 8.5 54.6875 
L 17.484375 54.6875 
L 17.484375 21.921875 
Q 17.484375 14.15625 20.5 10.265625 
Q 23.53125 6.390625 29.59375 6.390625 
Q 36.859375 6.390625 41.078125 11.03125 
Q 45.3125 15.671875 45.3125 23.6875 
L 45.3125 54.6875 
L 54.296875 54.6875 
L 54.296875 0 
L 45.3125 0 
L 45.3125 8.40625 
Q 42.046875 3.421875 37.71875 1 
Q 33.40625 -1.421875 27.6875 -1.421875 
Q 18.265625 -1.421875 13.375 4.4375 
Q 8.5 10.296875 8.5 21.578125 
z
M 31.109375 56 
z
" id="DejaVuSans-117"/>
      <path d="M 18.3125 70.21875 
L 18.3125 54.6875 
L 36.8125 54.6875 
L 36.8125 47.703125 
L 18.3125 47.703125 
L 18.3125 18.015625 
Q 18.3125 11.328125 20.140625 9.421875 
Q 21.96875 7.515625 27.59375 7.515625 
L 36.8125 7.515625 
L 36.8125 0 
L 27.59375 0 
Q 17.1875 0 13.234375 3.875 
Q 9.28125 7.765625 9.28125 18.015625 
L 9.28125 47.703125 
L 2.6875 47.703125 
L 2.6875 54.6875 
L 9.28125 54.6875 
L 9.28125 70.21875 
z
" id="DejaVuSans-116"/>
      <path d="M 9.421875 54.6875 
L 18.40625 54.6875 
L 18.40625 0 
L 9.421875 0 
z
M 9.421875 75.984375 
L 18.40625 75.984375 
L 18.40625 64.59375 
L 9.421875 64.59375 
z
" id="DejaVuSans-105"/>
     </defs>
     <g transform="translate(72.654687 426.197656)rotate(-90)scale(0.1 -0.1)">
      <use xlink:href="#DejaVuSans-65"/>
      <use x="68.408203" xlink:href="#DejaVuSans-85"/>
      <use x="141.601562" xlink:href="#DejaVuSans-67"/>
      <use x="211.425781" xlink:href="#DejaVuSans-32"/>
      <use x="243.212891" xlink:href="#DejaVuSans-82"/>
      <use x="312.695312" xlink:href="#DejaVuSans-79"/>
      <use x="391.40625" xlink:href="#DejaVuSans-67"/>
      <use x="461.230469" xlink:href="#DejaVuSans-32"/>
      <use x="493.017578" xlink:href="#DejaVuSans-111"/>
      <use x="554.199219" xlink:href="#DejaVuSans-110"/>
      <use x="617.578125" xlink:href="#DejaVuSans-32"/>
      <use x="649.365234" xlink:href="#DejaVuSans-101"/>
      <use x="710.888672" xlink:href="#DejaVuSans-118"/>
      <use x="770.068359" xlink:href="#DejaVuSans-97"/>
      <use x="831.347656" xlink:href="#DejaVuSans-108"/>
      <use x="859.130859" xlink:href="#DejaVuSans-117"/>
      <use x="922.509766" xlink:href="#DejaVuSans-97"/>
      <use x="983.789062" xlink:href="#DejaVuSans-116"/>
      <use x="1022.998047" xlink:href="#DejaVuSans-105"/>
      <use x="1050.78125" xlink:href="#DejaVuSans-111"/>
      <use x="1111.962891" xlink:href="#DejaVuSans-110"/>
      <use x="1175.341797" xlink:href="#DejaVuSans-32"/>
      <use x="1207.128906" xlink:href="#DejaVuSans-115"/>
      <use x="1259.228516" xlink:href="#DejaVuSans-101"/>
      <use x="1320.751953" xlink:href="#DejaVuSans-116"/>
     </g>
    </g>
   </g>
   <g id="line2d_27">
    <path clip-path="url(#pbfc0a0e7db)" d="M 138.436364 472.542377 
L 148.098701 394.962891 
L 157.761039 341.115429 
L 167.423377 304.616571 
L 177.085714 279.572143 
L 186.748052 264.91824 
L 196.41039 259.676383 
L 206.072727 243.795497 
L 215.735065 238.724486 
L 225.397403 231.028663 
L 235.05974 224.319086 
L 244.722078 219.481046 
L 254.384416 219.20148 
L 264.046753 211.241623 
L 273.709091 206.457943 
L 283.371429 205.300851 
L 293.033766 202.054783 
L 302.696104 197.038131 
L 312.358442 195.33744 
L 322.020779 200.330794 
L 331.683117 190.631417 
L 341.345455 186.701966 
L 351.007792 188.060966 
L 360.67013 183.285051 
L 370.332468 184.092686 
L 379.994805 182.72592 
L 389.657143 180.147703 
L 399.319481 178.672217 
L 408.981818 176.070703 
L 418.644156 177.28992 
L 428.306494 173.562377 
L 437.968831 173.608971 
L 447.631169 171.916046 
L 457.293506 169.8426 
L 466.955844 169.330063 
L 476.618182 165.555926 
L 486.280519 163.777577 
L 495.942857 161.541051 
L 505.605195 159.273463 
L 515.267532 158.388171 
L 524.92987 157.052469 
L 534.592208 155.476029 
L 544.254545 155.243057 
L 553.916883 152.921109 
L 563.579221 151.476686 
L 573.241558 149.807057 
L 582.903896 148.603371 
L 592.566234 147.811269 
L 602.228571 146.227063 
L 611.890909 144.371057 
L 621.553247 144.231274 
L 631.215584 142.794617 
L 640.877922 142.483989 
L 650.54026 141.68412 
L 660.202597 140.70564 
L 669.864935 139.913537 
L 679.527273 138.733149 
L 689.18961 138.733149 
L 698.851948 137.583823 
L 708.514286 136.799486 
L 718.176623 136.815017 
L 727.838961 136.224823 
L 737.501299 136.147166 
L 747.163636 135.789943 
" style="fill:none;stroke:#1f77b4;stroke-linecap:square;stroke-width:1.5;"/>
   </g>
   <g id="line2d_28">
    <path clip-path="url(#pbfc0a0e7db)" d="M 138.436364 478.941326 
L 148.098701 392.431269 
L 157.761039 333.256526 
L 167.423377 304.212754 
L 177.085714 279.711926 
L 186.748052 264.48336 
L 196.41039 255.933309 
L 206.072727 245.713629 
L 215.735065 240.828994 
L 225.397403 229.793914 
L 235.05974 223.581343 
L 244.722078 219.36456 
L 254.384416 217.601743 
L 264.046753 213.361663 
L 273.709091 208.205229 
L 283.371429 208.251823 
L 293.033766 203.134217 
L 302.696104 199.810491 
L 312.358442 196.129543 
L 322.020779 197.931189 
L 331.683117 193.209634 
L 341.345455 188.441486 
L 351.007792 188.81424 
L 360.67013 183.572383 
L 370.332468 185.109994 
L 379.994805 183.572383 
L 389.657143 181.405749 
L 399.319481 178.012131 
L 408.981818 176.823977 
L 418.644156 176.171657 
L 428.306494 174.230229 
L 437.968831 174.005023 
L 447.631169 171.791794 
L 457.293506 169.609629 
L 466.955844 169.757177 
L 476.618182 164.849246 
L 486.280519 165.33072 
L 495.942857 161.890509 
L 505.605195 159.661749 
L 515.267532 158.442531 
L 524.92987 157.17672 
L 534.592208 155.631343 
L 544.254545 155.344011 
L 553.916883 152.82792 
L 563.579221 150.412783 
L 573.241558 149.504194 
L 582.903896 148.401463 
L 592.566234 147.22884 
L 602.228571 145.986326 
L 611.890909 144.67392 
L 621.553247 144.339994 
L 631.215584 142.732491 
L 640.877922 142.949931 
L 650.54026 141.62976 
L 660.202597 140.464903 
L 669.864935 139.633971 
L 679.527273 138.903994 
L 689.18961 138.647726 
L 698.851948 137.459571 
L 708.514286 136.822783 
L 718.176623 136.651937 
L 727.838961 136.178229 
L 737.501299 135.828771 
L 747.163636 135.564737 
" style="fill:none;stroke:#ff7f0e;stroke-linecap:square;stroke-width:1.5;"/>
   </g>
   <g id="line2d_29">
    <path clip-path="url(#pbfc0a0e7db)" d="M 138.436364 459.697886 
L 148.098701 383.011457 
L 157.761039 350.791509 
L 167.423377 309.089623 
L 177.085714 284.557731 
L 186.748052 268.894286 
L 196.41039 254.947063 
L 206.072727 248.089937 
L 215.735065 239.889343 
L 225.397403 229.491051 
L 235.05974 228.799903 
L 244.722078 222.13692 
L 254.384416 213.959623 
L 264.046753 209.09052 
L 273.709091 209.665183 
L 283.371429 203.522503 
L 293.033766 200.136651 
L 302.696104 197.931189 
L 312.358442 194.040566 
L 322.020779 195.034577 
L 331.683117 192.060309 
L 341.345455 187.175674 
L 351.007792 186.251554 
L 360.67013 185.801143 
L 370.332468 183.347177 
L 379.994805 180.807789 
L 389.657143 181.273731 
L 399.319481 178.43148 
L 408.981818 176.334737 
L 418.644156 175.084457 
L 428.306494 173.803114 
L 437.968831 173.476954 
L 447.631169 171.186069 
L 457.293506 168.126377 
L 466.955844 169.796006 
L 476.618182 167.046943 
L 486.280519 165.400611 
L 495.942857 161.261486 
L 505.605195 160.306303 
L 515.267532 156.182709 
L 524.92987 155.841017 
L 534.592208 155.934206 
L 544.254545 154.551909 
L 553.916883 152.004754 
L 563.579221 150.630223 
L 573.241558 149.667274 
L 582.903896 147.888926 
L 592.566234 146.421206 
L 602.228571 145.629103 
L 611.890909 143.920646 
L 621.553247 143.563423 
L 631.215584 143.012057 
L 640.877922 142.142297 
L 650.54026 141.5754 
L 660.202597 140.783297 
L 669.864935 140.169806 
L 679.527273 139.175794 
L 689.18961 138.298269 
L 698.851948 138.142954 
L 708.514286 136.985863 
L 718.176623 136.923737 
L 727.838961 136.162697 
L 737.501299 135.953023 
L 747.163636 135.533674 
" style="fill:none;stroke:#2ca02c;stroke-linecap:square;stroke-width:1.5;"/>
   </g>
   <g id="line2d_30">
    <path clip-path="url(#pbfc0a0e7db)" d="M 138.436364 475.314737 
L 148.098701 391.716823 
L 157.761039 341.068834 
L 167.423377 310.184589 
L 177.085714 287.780503 
L 186.748052 270.556149 
L 196.41039 257.292309 
L 206.072727 250.644857 
L 215.735065 243.98964 
L 225.397403 233.420503 
L 235.05974 230.857817 
L 244.722078 223.123166 
L 254.384416 216.669857 
L 264.046753 212.608389 
L 273.709091 211.21056 
L 283.371429 205.929874 
L 293.033766 205.005754 
L 302.696104 199.911446 
L 312.358442 196.812926 
L 322.020779 197.519606 
L 331.683117 193.613451 
L 341.345455 188.325 
L 351.007792 186.375806 
L 360.67013 184.512034 
L 370.332468 184.13928 
L 379.994805 185.22648 
L 389.657143 182.78028 
L 399.319481 180.411737 
L 408.981818 176.6376 
L 418.644156 175.71348 
L 428.306494 174.905846 
L 437.968831 173.97396 
L 447.631169 173.065371 
L 457.293506 169.330063 
L 466.955844 169.617394 
L 476.618182 167.186726 
L 486.280519 166.581 
L 495.942857 163.039834 
L 505.605195 160.119926 
L 515.267532 157.223314 
L 524.92987 156.151646 
L 534.592208 157.23108 
L 544.254545 154.489783 
L 553.916883 152.470697 
L 563.579221 151.764017 
L 573.241558 150.140983 
L 582.903896 148.727623 
L 592.566234 146.436737 
L 602.228571 146.219297 
L 611.890909 144.821469 
L 621.553247 143.245029 
L 631.215584 143.276091 
L 640.877922 142.429629 
L 650.54026 141.79284 
L 660.202597 140.519263 
L 669.864935 140.441606 
L 679.527273 139.268983 
L 689.18961 137.684777 
L 698.851948 137.87892 
L 708.514286 136.915971 
L 718.176623 136.768423 
L 727.838961 136.232589 
L 737.501299 136.100571 
L 747.163636 135.533674 
" style="fill:none;stroke:#d62728;stroke-linecap:square;stroke-width:1.5;"/>
   </g>
   <g id="patch_3">
    <path d="M 108 630 
L 108 86.4 
" style="fill:none;stroke:#000000;stroke-linecap:square;stroke-linejoin:miter;stroke-width:0.8;"/>
   </g>
   <g id="patch_4">
    <path d="M 777.6 630 
L 777.6 86.4 
" style="fill:none;stroke:#000000;stroke-linecap:square;stroke-linejoin:miter;stroke-width:0.8;"/>
   </g>
   <g id="patch_5">
    <path d="M 108 630 
L 777.6 630 
" style="fill:none;stroke:#000000;stroke-linecap:square;stroke-linejoin:miter;stroke-width:0.8;"/>
   </g>
   <g id="patch_6">
    <path d="M 108 86.4 
L 777.6 86.4 
" style="fill:none;stroke:#000000;stroke-linecap:square;stroke-linejoin:miter;stroke-width:0.8;"/>
   </g>
   <g id="text_17">
    <!-- AUC ROC on evaluation set for Criteo dataset with FL15 -->
    <defs>
     <path d="M 37.109375 75.984375 
L 37.109375 68.5 
L 28.515625 68.5 
Q 23.6875 68.5 21.796875 66.546875 
Q 19.921875 64.59375 19.921875 59.515625 
L 19.921875 54.6875 
L 34.71875 54.6875 
L 34.71875 47.703125 
L 19.921875 47.703125 
L 19.921875 0 
L 10.890625 0 
L 10.890625 47.703125 
L 2.296875 47.703125 
L 2.296875 54.6875 
L 10.890625 54.6875 
L 10.890625 58.5 
Q 10.890625 67.625 15.140625 71.796875 
Q 19.390625 75.984375 28.609375 75.984375 
z
" id="DejaVuSans-102"/>
     <path d="M 41.109375 46.296875 
Q 39.59375 47.171875 37.8125 47.578125 
Q 36.03125 48 33.890625 48 
Q 26.265625 48 22.1875 43.046875 
Q 18.109375 38.09375 18.109375 28.8125 
L 18.109375 0 
L 9.078125 0 
L 9.078125 54.6875 
L 18.109375 54.6875 
L 18.109375 46.1875 
Q 20.953125 51.171875 25.484375 53.578125 
Q 30.03125 56 36.53125 56 
Q 37.453125 56 38.578125 55.875 
Q 39.703125 55.765625 41.0625 55.515625 
z
" id="DejaVuSans-114"/>
     <path d="M 45.40625 46.390625 
L 45.40625 75.984375 
L 54.390625 75.984375 
L 54.390625 0 
L 45.40625 0 
L 45.40625 8.203125 
Q 42.578125 3.328125 38.25 0.953125 
Q 33.9375 -1.421875 27.875 -1.421875 
Q 17.96875 -1.421875 11.734375 6.484375 
Q 5.515625 14.40625 5.515625 27.296875 
Q 5.515625 40.1875 11.734375 48.09375 
Q 17.96875 56 27.875 56 
Q 33.9375 56 38.25 53.625 
Q 42.578125 51.265625 45.40625 46.390625 
z
M 14.796875 27.296875 
Q 14.796875 17.390625 18.875 11.75 
Q 22.953125 6.109375 30.078125 6.109375 
Q 37.203125 6.109375 41.296875 11.75 
Q 45.40625 17.390625 45.40625 27.296875 
Q 45.40625 37.203125 41.296875 42.84375 
Q 37.203125 48.484375 30.078125 48.484375 
Q 22.953125 48.484375 18.875 42.84375 
Q 14.796875 37.203125 14.796875 27.296875 
z
" id="DejaVuSans-100"/>
     <path d="M 4.203125 54.6875 
L 13.1875 54.6875 
L 24.421875 12.015625 
L 35.59375 54.6875 
L 46.1875 54.6875 
L 57.421875 12.015625 
L 68.609375 54.6875 
L 77.59375 54.6875 
L 63.28125 0 
L 52.6875 0 
L 40.921875 44.828125 
L 29.109375 0 
L 18.5 0 
z
" id="DejaVuSans-119"/>
     <path d="M 54.890625 33.015625 
L 54.890625 0 
L 45.90625 0 
L 45.90625 32.71875 
Q 45.90625 40.484375 42.875 44.328125 
Q 39.84375 48.1875 33.796875 48.1875 
Q 26.515625 48.1875 22.3125 43.546875 
Q 18.109375 38.921875 18.109375 30.90625 
L 18.109375 0 
L 9.078125 0 
L 9.078125 75.984375 
L 18.109375 75.984375 
L 18.109375 46.1875 
Q 21.34375 51.125 25.703125 53.5625 
Q 30.078125 56 35.796875 56 
Q 45.21875 56 50.046875 50.171875 
Q 54.890625 44.34375 54.890625 33.015625 
z
" id="DejaVuSans-104"/>
     <path d="M 9.8125 72.90625 
L 51.703125 72.90625 
L 51.703125 64.59375 
L 19.671875 64.59375 
L 19.671875 43.109375 
L 48.578125 43.109375 
L 48.578125 34.8125 
L 19.671875 34.8125 
L 19.671875 0 
L 9.8125 0 
z
" id="DejaVuSans-70"/>
     <path d="M 9.8125 72.90625 
L 19.671875 72.90625 
L 19.671875 8.296875 
L 55.171875 8.296875 
L 55.171875 0 
L 9.8125 0 
z
" id="DejaVuSans-76"/>
    </defs>
    <g transform="translate(275.537813 80.4)scale(0.12 -0.12)">
     <use xlink:href="#DejaVuSans-65"/>
     <use x="68.408203" xlink:href="#DejaVuSans-85"/>
     <use x="141.601562" xlink:href="#DejaVuSans-67"/>
     <use x="211.425781" xlink:href="#DejaVuSans-32"/>
     <use x="243.212891" xlink:href="#DejaVuSans-82"/>
     <use x="312.695312" xlink:href="#DejaVuSans-79"/>
     <use x="391.40625" xlink:href="#DejaVuSans-67"/>
     <use x="461.230469" xlink:href="#DejaVuSans-32"/>
     <use x="493.017578" xlink:href="#DejaVuSans-111"/>
     <use x="554.199219" xlink:href="#DejaVuSans-110"/>
     <use x="617.578125" xlink:href="#DejaVuSans-32"/>
     <use x="649.365234" xlink:href="#DejaVuSans-101"/>
     <use x="710.888672" xlink:href="#DejaVuSans-118"/>
     <use x="770.068359" xlink:href="#DejaVuSans-97"/>
     <use x="831.347656" xlink:href="#DejaVuSans-108"/>
     <use x="859.130859" xlink:href="#DejaVuSans-117"/>
     <use x="922.509766" xlink:href="#DejaVuSans-97"/>
     <use x="983.789062" xlink:href="#DejaVuSans-116"/>
     <use x="1022.998047" xlink:href="#DejaVuSans-105"/>
     <use x="1050.78125" xlink:href="#DejaVuSans-111"/>
     <use x="1111.962891" xlink:href="#DejaVuSans-110"/>
     <use x="1175.341797" xlink:href="#DejaVuSans-32"/>
     <use x="1207.128906" xlink:href="#DejaVuSans-115"/>
     <use x="1259.228516" xlink:href="#DejaVuSans-101"/>
     <use x="1320.751953" xlink:href="#DejaVuSans-116"/>
     <use x="1359.960938" xlink:href="#DejaVuSans-32"/>
     <use x="1391.748047" xlink:href="#DejaVuSans-102"/>
     <use x="1426.953125" xlink:href="#DejaVuSans-111"/>
     <use x="1488.134766" xlink:href="#DejaVuSans-114"/>
     <use x="1529.248047" xlink:href="#DejaVuSans-32"/>
     <use x="1561.035156" xlink:href="#DejaVuSans-67"/>
     <use x="1630.859375" xlink:href="#DejaVuSans-114"/>
     <use x="1671.972656" xlink:href="#DejaVuSans-105"/>
     <use x="1699.755859" xlink:href="#DejaVuSans-116"/>
     <use x="1738.964844" xlink:href="#DejaVuSans-101"/>
     <use x="1800.488281" xlink:href="#DejaVuSans-111"/>
     <use x="1861.669922" xlink:href="#DejaVuSans-32"/>
     <use x="1893.457031" xlink:href="#DejaVuSans-100"/>
     <use x="1956.933594" xlink:href="#DejaVuSans-97"/>
     <use x="2018.212891" xlink:href="#DejaVuSans-116"/>
     <use x="2057.421875" xlink:href="#DejaVuSans-97"/>
     <use x="2118.701172" xlink:href="#DejaVuSans-115"/>
     <use x="2170.800781" xlink:href="#DejaVuSans-101"/>
     <use x="2232.324219" xlink:href="#DejaVuSans-116"/>
     <use x="2271.533203" xlink:href="#DejaVuSans-32"/>
     <use x="2303.320312" xlink:href="#DejaVuSans-119"/>
     <use x="2385.107422" xlink:href="#DejaVuSans-105"/>
     <use x="2412.890625" xlink:href="#DejaVuSans-116"/>
     <use x="2452.099609" xlink:href="#DejaVuSans-104"/>
     <use x="2515.478516" xlink:href="#DejaVuSans-32"/>
     <use x="2547.265625" xlink:href="#DejaVuSans-70"/>
     <use x="2604.785156" xlink:href="#DejaVuSans-76"/>
     <use x="2660.498047" xlink:href="#DejaVuSans-49"/>
     <use x="2724.121094" xlink:href="#DejaVuSans-53"/>
    </g>
   </g>
   <g id="legend_1">
    <g id="patch_7">
     <path d="M 115 153.1125 
L 271.267187 153.1125 
Q 273.267187 153.1125 273.267187 151.1125 
L 273.267187 93.4 
Q 273.267187 91.4 271.267187 91.4 
L 115 91.4 
Q 113 91.4 113 93.4 
L 113 151.1125 
Q 113 153.1125 115 153.1125 
z
" style="fill:#ffffff;opacity:0.8;stroke:#cccccc;stroke-linejoin:miter;"/>
    </g>
    <g id="line2d_31">
     <path d="M 117 99.498437 
L 137 99.498437 
" style="fill:none;stroke:#1f77b4;stroke-linecap:square;stroke-width:1.5;"/>
    </g>
    <g id="line2d_32"/>
    <g id="text_18">
     <!-- FL15, 1 GPU, A100, TF32 -->
     <defs>
      <path d="M 11.71875 12.40625 
L 22.015625 12.40625 
L 22.015625 4 
L 14.015625 -11.625 
L 7.71875 -11.625 
L 11.71875 4 
z
" id="DejaVuSans-44"/>
      <path d="M 59.515625 10.40625 
L 59.515625 29.984375 
L 43.40625 29.984375 
L 43.40625 38.09375 
L 69.28125 38.09375 
L 69.28125 6.78125 
Q 63.578125 2.734375 56.6875 0.65625 
Q 49.8125 -1.421875 42 -1.421875 
Q 24.90625 -1.421875 15.25 8.5625 
Q 5.609375 18.5625 5.609375 36.375 
Q 5.609375 54.25 15.25 64.234375 
Q 24.90625 74.21875 42 74.21875 
Q 49.125 74.21875 55.546875 72.453125 
Q 61.96875 70.703125 67.390625 67.28125 
L 67.390625 56.78125 
Q 61.921875 61.421875 55.765625 63.765625 
Q 49.609375 66.109375 42.828125 66.109375 
Q 29.4375 66.109375 22.71875 58.640625 
Q 16.015625 51.171875 16.015625 36.375 
Q 16.015625 21.625 22.71875 14.15625 
Q 29.4375 6.6875 42.828125 6.6875 
Q 48.046875 6.6875 52.140625 7.59375 
Q 56.25 8.5 59.515625 10.40625 
z
" id="DejaVuSans-71"/>
      <path d="M 19.671875 64.796875 
L 19.671875 37.40625 
L 32.078125 37.40625 
Q 38.96875 37.40625 42.71875 40.96875 
Q 46.484375 44.53125 46.484375 51.125 
Q 46.484375 57.671875 42.71875 61.234375 
Q 38.96875 64.796875 32.078125 64.796875 
z
M 9.8125 72.90625 
L 32.078125 72.90625 
Q 44.34375 72.90625 50.609375 67.359375 
Q 56.890625 61.8125 56.890625 51.125 
Q 56.890625 40.328125 50.609375 34.8125 
Q 44.34375 29.296875 32.078125 29.296875 
L 19.671875 29.296875 
L 19.671875 0 
L 9.8125 0 
z
" id="DejaVuSans-80"/>
      <path d="M -0.296875 72.90625 
L 61.375 72.90625 
L 61.375 64.59375 
L 35.5 64.59375 
L 35.5 0 
L 25.59375 0 
L 25.59375 64.59375 
L -0.296875 64.59375 
z
" id="DejaVuSans-84"/>
     </defs>
     <g transform="translate(145 102.998437)scale(0.1 -0.1)">
      <use xlink:href="#DejaVuSans-70"/>
      <use x="57.519531" xlink:href="#DejaVuSans-76"/>
      <use x="113.232422" xlink:href="#DejaVuSans-49"/>
      <use x="176.855469" xlink:href="#DejaVuSans-53"/>
      <use x="240.478516" xlink:href="#DejaVuSans-44"/>
      <use x="272.265625" xlink:href="#DejaVuSans-32"/>
      <use x="304.052734" xlink:href="#DejaVuSans-49"/>
      <use x="367.675781" xlink:href="#DejaVuSans-32"/>
      <use x="399.462891" xlink:href="#DejaVuSans-71"/>
      <use x="476.953125" xlink:href="#DejaVuSans-80"/>
      <use x="537.255859" xlink:href="#DejaVuSans-85"/>
      <use x="610.449219" xlink:href="#DejaVuSans-44"/>
      <use x="642.236328" xlink:href="#DejaVuSans-32"/>
      <use x="674.023438" xlink:href="#DejaVuSans-65"/>
      <use x="742.431641" xlink:href="#DejaVuSans-49"/>
      <use x="806.054688" xlink:href="#DejaVuSans-48"/>
      <use x="869.677734" xlink:href="#DejaVuSans-48"/>
      <use x="933.300781" xlink:href="#DejaVuSans-44"/>
      <use x="965.087891" xlink:href="#DejaVuSans-32"/>
      <use x="996.875" xlink:href="#DejaVuSans-84"/>
      <use x="1057.958984" xlink:href="#DejaVuSans-70"/>
      <use x="1115.478516" xlink:href="#DejaVuSans-51"/>
      <use x="1179.101562" xlink:href="#DejaVuSans-50"/>
     </g>
    </g>
    <g id="line2d_33">
     <path d="M 117 114.176562 
L 137 114.176562 
" style="fill:none;stroke:#ff7f0e;stroke-linecap:square;stroke-width:1.5;"/>
    </g>
    <g id="line2d_34"/>
    <g id="text_19">
     <!-- FL15, 1 GPU, A100, AMP -->
     <defs>
      <path d="M 9.8125 72.90625 
L 24.515625 72.90625 
L 43.109375 23.296875 
L 61.8125 72.90625 
L 76.515625 72.90625 
L 76.515625 0 
L 66.890625 0 
L 66.890625 64.015625 
L 48.09375 14.015625 
L 38.1875 14.015625 
L 19.390625 64.015625 
L 19.390625 0 
L 9.8125 0 
z
" id="DejaVuSans-77"/>
     </defs>
     <g transform="translate(145 117.676562)scale(0.1 -0.1)">
      <use xlink:href="#DejaVuSans-70"/>
      <use x="57.519531" xlink:href="#DejaVuSans-76"/>
      <use x="113.232422" xlink:href="#DejaVuSans-49"/>
      <use x="176.855469" xlink:href="#DejaVuSans-53"/>
      <use x="240.478516" xlink:href="#DejaVuSans-44"/>
      <use x="272.265625" xlink:href="#DejaVuSans-32"/>
      <use x="304.052734" xlink:href="#DejaVuSans-49"/>
      <use x="367.675781" xlink:href="#DejaVuSans-32"/>
      <use x="399.462891" xlink:href="#DejaVuSans-71"/>
      <use x="476.953125" xlink:href="#DejaVuSans-80"/>
      <use x="537.255859" xlink:href="#DejaVuSans-85"/>
      <use x="610.449219" xlink:href="#DejaVuSans-44"/>
      <use x="642.236328" xlink:href="#DejaVuSans-32"/>
      <use x="674.023438" xlink:href="#DejaVuSans-65"/>
      <use x="742.431641" xlink:href="#DejaVuSans-49"/>
      <use x="806.054688" xlink:href="#DejaVuSans-48"/>
      <use x="869.677734" xlink:href="#DejaVuSans-48"/>
      <use x="933.300781" xlink:href="#DejaVuSans-44"/>
      <use x="965.087891" xlink:href="#DejaVuSans-32"/>
      <use x="996.875" xlink:href="#DejaVuSans-65"/>
      <use x="1065.283203" xlink:href="#DejaVuSans-77"/>
      <use x="1151.5625" xlink:href="#DejaVuSans-80"/>
     </g>
    </g>
    <g id="line2d_35">
     <path d="M 117 128.854687 
L 137 128.854687 
" style="fill:none;stroke:#2ca02c;stroke-linecap:square;stroke-width:1.5;"/>
    </g>
    <g id="line2d_36"/>
    <g id="text_20">
     <!-- FL15, 1 GPU, V100, FP32 -->
     <defs>
      <path d="M 28.609375 0 
L 0.78125 72.90625 
L 11.078125 72.90625 
L 34.1875 11.53125 
L 57.328125 72.90625 
L 67.578125 72.90625 
L 39.796875 0 
z
" id="DejaVuSans-86"/>
     </defs>
     <g transform="translate(145 132.354687)scale(0.1 -0.1)">
      <use xlink:href="#DejaVuSans-70"/>
      <use x="57.519531" xlink:href="#DejaVuSans-76"/>
      <use x="113.232422" xlink:href="#DejaVuSans-49"/>
      <use x="176.855469" xlink:href="#DejaVuSans-53"/>
      <use x="240.478516" xlink:href="#DejaVuSans-44"/>
      <use x="272.265625" xlink:href="#DejaVuSans-32"/>
      <use x="304.052734" xlink:href="#DejaVuSans-49"/>
      <use x="367.675781" xlink:href="#DejaVuSans-32"/>
      <use x="399.462891" xlink:href="#DejaVuSans-71"/>
      <use x="476.953125" xlink:href="#DejaVuSans-80"/>
      <use x="537.255859" xlink:href="#DejaVuSans-85"/>
      <use x="610.449219" xlink:href="#DejaVuSans-44"/>
      <use x="642.236328" xlink:href="#DejaVuSans-32"/>
      <use x="674.023438" xlink:href="#DejaVuSans-86"/>
      <use x="742.431641" xlink:href="#DejaVuSans-49"/>
      <use x="806.054688" xlink:href="#DejaVuSans-48"/>
      <use x="869.677734" xlink:href="#DejaVuSans-48"/>
      <use x="933.300781" xlink:href="#DejaVuSans-44"/>
      <use x="965.087891" xlink:href="#DejaVuSans-32"/>
      <use x="996.875" xlink:href="#DejaVuSans-70"/>
      <use x="1054.394531" xlink:href="#DejaVuSans-80"/>
      <use x="1114.697266" xlink:href="#DejaVuSans-51"/>
      <use x="1178.320312" xlink:href="#DejaVuSans-50"/>
     </g>
    </g>
    <g id="line2d_37">
     <path d="M 117 143.532812 
L 137 143.532812 
" style="fill:none;stroke:#d62728;stroke-linecap:square;stroke-width:1.5;"/>
    </g>
    <g id="line2d_38"/>
    <g id="text_21">
     <!-- FL15, 1 GPU, V100, AMP -->
     <g transform="translate(145 147.032812)scale(0.1 -0.1)">
      <use xlink:href="#DejaVuSans-70"/>
      <use x="57.519531" xlink:href="#DejaVuSans-76"/>
      <use x="113.232422" xlink:href="#DejaVuSans-49"/>
      <use x="176.855469" xlink:href="#DejaVuSans-53"/>
      <use x="240.478516" xlink:href="#DejaVuSans-44"/>
      <use x="272.265625" xlink:href="#DejaVuSans-32"/>
      <use x="304.052734" xlink:href="#DejaVuSans-49"/>
      <use x="367.675781" xlink:href="#DejaVuSans-32"/>
      <use x="399.462891" xlink:href="#DejaVuSans-71"/>
      <use x="476.953125" xlink:href="#DejaVuSans-80"/>
      <use x="537.255859" xlink:href="#DejaVuSans-85"/>
      <use x="610.449219" xlink:href="#DejaVuSans-44"/>
      <use x="642.236328" xlink:href="#DejaVuSans-32"/>
      <use x="674.023438" xlink:href="#DejaVuSans-86"/>
      <use x="742.431641" xlink:href="#DejaVuSans-49"/>
      <use x="806.054688" xlink:href="#DejaVuSans-48"/>
      <use x="869.677734" xlink:href="#DejaVuSans-48"/>
      <use x="933.300781" xlink:href="#DejaVuSans-44"/>
      <use x="965.087891" xlink:href="#DejaVuSans-32"/>
      <use x="996.875" xlink:href="#DejaVuSans-65"/>
      <use x="1065.283203" xlink:href="#DejaVuSans-77"/>
      <use x="1151.5625" xlink:href="#DejaVuSans-80"/>
     </g>
    </g>
   </g>
  </g>
 </g>
 <defs>
  <clipPath id="pbfc0a0e7db">
   <rect height="543.6" width="669.6" x="108" y="86.4"/>
  </clipPath>
 </defs>
</svg>
